<?xml version='1.0' encoding='utf-8'?>
<mlt title="Anonymous Submission" LC_NUMERIC="en_AU.UTF-8" version="0.9.6" root="/run/media/alex/SBPD/Video/Projects/小白也能轻松学会的Galgame制作/第3讲 耳机党福利">
 <profile display_aspect_num="16" colorspace="709" width="1280" sample_aspect_den="1" description="HD 720p 15 fps" height="720" frame_rate_num="15" frame_rate_den="1" progressive="1" sample_aspect_num="1" display_aspect_den="9"/>
 <producer in="0" out="500" id="black">
  <property name="mlt_type">producer</property>
  <property name="length">15000</property>
  <property name="eof">pause</property>
  <property name="resource">black</property>
  <property name="aspect_ratio">0</property>
  <property name="mlt_service">colour</property>
 </producer>
 <playlist id="black_track">
  <entry in="0" out="6365" producer="black"/>
 </playlist>
 <producer in="0" title="Anonymous Submission" out="8872" id="1_1">
  <property name="mlt_type">mlt_producer</property>
  <property name="length">8873</property>
  <property name="eof">pause</property>
  <property name="resource">/home/alex/Videos/Projects/小白也能轻松学会的Galgame制作/第3讲 耳机党福利/original.mp4</property>
  <property name="meta.media.nb_streams">2</property>
  <property name="meta.media.0.stream.type">video</property>
  <property name="meta.media.0.stream.frame_rate">15</property>
  <property name="meta.media.0.stream.sample_aspect_ratio">1.00446</property>
  <property name="meta.media.0.codec.width">1280</property>
  <property name="meta.media.0.codec.height">720</property>
  <property name="meta.media.0.codec.frame_rate">15</property>
  <property name="meta.media.0.codec.pix_fmt">yuv420p</property>
  <property name="meta.media.0.codec.sample_aspect_ratio">1.00446</property>
  <property name="meta.media.0.codec.colorspace">709</property>
  <property name="meta.media.0.codec.name">hevc</property>
  <property name="meta.media.0.codec.long_name">HEVC (High Efficiency Video Coding)</property>
  <property name="meta.media.0.codec.bit_rate">56365</property>
  <property name="meta.attr.0.stream.handler_name.markup">VideoHandler</property>
  <property name="meta.media.1.stream.type">audio</property>
  <property name="meta.media.1.codec.sample_fmt">fltp</property>
  <property name="meta.media.1.codec.sample_rate">22050</property>
  <property name="meta.media.1.codec.channels">1</property>
  <property name="meta.media.1.codec.name">aac</property>
  <property name="meta.media.1.codec.long_name">AAC (Advanced Audio Coding)</property>
  <property name="meta.media.1.codec.bit_rate">109736</property>
  <property name="meta.attr.1.stream.handler_name.markup">SoundHandler</property>
  <property name="meta.attr.major_brand.markup">isom</property>
  <property name="meta.attr.minor_version.markup">512</property>
  <property name="meta.attr.compatible_brands.markup">isomiso2mp41</property>
  <property name="meta.attr.encoder.markup">Lavf56.25.101</property>
  <property name="seekable">1</property>
  <property name="meta.media.sample_aspect_num">225</property>
  <property name="meta.media.sample_aspect_den">224</property>
  <property name="aspect_ratio">1.00446</property>
  <property name="audio_index">1</property>
  <property name="video_index">0</property>
  <property name="mute_on_pause">1</property>
  <property name="mlt_service">avformat</property>
  <property name="global_feed">1</property>
  <property name="xml">was here</property>
  <property name="meta.media.frame_rate_num">15</property>
  <property name="meta.media.frame_rate_den">1</property>
  <property name="meta.media.colorspace">709</property>
  <property name="meta.media.color_trc">2</property>
  <property name="meta.media.width">1280</property>
  <property name="meta.media.height">720</property>
  <property name="meta.media.top_field_first">0</property>
  <property name="meta.media.progressive">1</property>
 </producer>
 <producer in="0" out="2217" id="slowmotion:1:4">
  <property name="mlt_type">producer</property>
  <property name="length">2218</property>
  <property name="eof">pause</property>
  <property name="resource">/home/alex/Videos/Projects/小白也能轻松学会的Galgame制作/第3讲 耳机党福利/original.mp4?4</property>
  <property name="aspect_ratio">1.00446</property>
  <property name="mlt_service">framebuffer</property>
  <property name="strobe">1</property>
 </producer>
 <playlist id="playlist4">
  <entry in="0" out="625" producer="1_1"/>
  <entry in="156" out="190" producer="slowmotion:1:4"/>
  <entry in="766" out="839" producer="1_1"/>
  <entry in="899" out="1002" producer="1_1"/>
  <entry in="1048" out="1076" producer="1_1"/>
  <entry in="1094" out="1135" producer="1_1"/>
  <entry in="1142" out="1172" producer="1_1"/>
  <entry in="1178" out="1183" producer="1_1"/>
  <entry in="1188" out="1232" producer="1_1"/>
  <entry in="1239" out="1341" producer="1_1"/>
  <entry in="1395" out="1749" producer="1_1"/>
  <entry in="1757" out="1895" producer="1_1"/>
  <entry in="1919" out="1950" producer="1_1"/>
  <entry in="1958" out="2058" producer="1_1"/>
  <entry in="2100" out="2139" producer="1_1"/>
  <entry in="2192" out="2383" producer="1_1"/>
  <entry in="2437" out="2489" producer="1_1"/>
  <entry in="2514" out="2836" producer="1_1"/>
  <entry in="2864" out="3028" producer="1_1"/>
  <entry in="3040" out="3252" producer="1_1"/>
  <entry in="3294" out="3433" producer="1_1"/>
  <entry in="3494" out="3647" producer="1_1"/>
  <entry in="3648" out="3678" producer="1_1">
   <filter id="dynamictext">
    <property name="track">0</property>
    <property name="argument">请无视多出来的这个反斜杠</property>
    <property name="geometry">596.154/176.923:600x80:100</property>
    <property name="family">DejaVu Sans</property>
    <property name="size">48</property>
    <property name="weight">400</property>
    <property name="fgcolour">0x000000ff</property>
    <property name="bgcolour">0x00000000</property>
    <property name="olcolour">0x00000000</property>
    <property name="pad">0</property>
    <property name="halign">left</property>
    <property name="valign">top</property>
    <property name="outline">0</property>
    <property name="mlt_type">filter</property>
    <property name="mlt_service">dynamictext</property>
    <property name="kdenlive_id">dynamictext</property>
    <property name="tag">dynamictext</property>
    <property name="kdenlive_ix">1</property>
    <property name="kdenlive_info">1/-1/</property>
   </filter>
  </entry>
  <entry in="3725" out="3790" producer="1_1"/>
  <entry in="3800" out="3820" producer="1_1"/>
  <entry in="3825" out="4244" producer="1_1"/>
  <entry in="4254" out="4415" producer="1_1"/>
  <entry in="4441" out="4540" producer="1_1"/>
  <entry in="4615" out="4626" producer="1_1"/>
  <entry in="4641" out="4655" producer="1_1"/>
  <entry in="4705" out="4981" producer="1_1"/>
  <entry in="5030" out="5086" producer="1_1"/>
  <entry in="5117" out="5131" producer="1_1"/>
  <entry in="5135" out="5136" producer="1_1"/>
  <entry in="5142" out="5151" producer="1_1"/>
  <entry in="5158" out="5201" producer="1_1"/>
  <entry in="5376" out="5467" producer="1_1"/>
  <entry in="5525" out="5568" producer="1_1"/>
  <entry in="5603" out="5619" producer="1_1"/>
  <entry in="5629" out="5637" producer="1_1"/>
  <entry in="6514" out="6776" producer="1_1"/>
  <entry in="6785" out="6805" producer="1_1"/>
  <entry in="6830" out="7106" producer="1_1"/>
  <entry in="1776" out="1857" producer="slowmotion:1:4"/>
  <entry in="7435" out="7469" producer="1_1"/>
  <entry in="7517" out="7636" producer="1_1"/>
  <entry in="7660" out="7696" producer="1_1"/>
  <entry in="7710" out="7812" producer="1_1"/>
  <entry in="7833" out="8378" producer="1_1"/>
  <entry in="8387" out="8745" producer="1_1"/>
  <entry in="8746" out="8822" producer="1_1">
   <filter id="filter0">
    <property name="track">0</property>
    <property name="argument">http://onstut.pe.hu/</property>
    <property name="geometry">0/0:1280x720:100</property>
    <property name="family">DejaVu Sans</property>
    <property name="size">48</property>
    <property name="weight">400</property>
    <property name="fgcolour">0x000000ff</property>
    <property name="bgcolour">0x00000000</property>
    <property name="olcolour">0x00000000</property>
    <property name="pad">0</property>
    <property name="halign">centre</property>
    <property name="valign">middle</property>
    <property name="outline">0</property>
    <property name="mlt_type">filter</property>
    <property name="mlt_service">dynamictext</property>
    <property name="kdenlive_id">dynamictext</property>
    <property name="tag">dynamictext</property>
    <property name="kdenlive_ix">1</property>
    <property name="kdenlive_info"/>
   </filter>
  </entry>
  <entry in="8823" out="8872" producer="1_1"/>
 </playlist>
 <producer in="0" title="Anonymous Submission" out="74" id="2">
  <property name="mlt_type">mlt_producer</property>
  <property name="length">75</property>
  <property name="eof">pause</property>
  <property name="resource">/home/alex/Videos/Projects/小白也能轻松学会的Galgame制作/第3讲 耳机党福利/titles/tracks01.png</property>
  <property name="ttl">25</property>
  <property name="aspect_ratio">1</property>
  <property name="progressive">1</property>
  <property name="seekable">1</property>
  <property name="loop">1</property>
  <property name="meta.media.width">1280</property>
  <property name="meta.media.height">720</property>
  <property name="mlt_service">pixbuf</property>
  <property name="global_feed">1</property>
 </producer>
 <producer in="0" title="Anonymous Submission" out="74" id="3">
  <property name="mlt_type">mlt_producer</property>
  <property name="length">75</property>
  <property name="eof">pause</property>
  <property name="resource">/home/alex/Videos/Projects/小白也能轻松学会的Galgame制作/第3讲 耳机党福利/titles/tracks02.png</property>
  <property name="ttl">25</property>
  <property name="aspect_ratio">1</property>
  <property name="progressive">1</property>
  <property name="seekable">1</property>
  <property name="loop">1</property>
  <property name="meta.media.width">1280</property>
  <property name="meta.media.height">720</property>
  <property name="mlt_service">pixbuf</property>
  <property name="global_feed">1</property>
 </producer>
 <producer in="0" title="Anonymous Submission" out="74" id="4">
  <property name="mlt_type">mlt_producer</property>
  <property name="length">75</property>
  <property name="eof">pause</property>
  <property name="resource">/home/alex/Videos/Projects/小白也能轻松学会的Galgame制作/第3讲 耳机党福利/titles/tracks03.png</property>
  <property name="ttl">25</property>
  <property name="aspect_ratio">1</property>
  <property name="progressive">1</property>
  <property name="seekable">1</property>
  <property name="loop">1</property>
  <property name="meta.media.width">1280</property>
  <property name="meta.media.height">720</property>
  <property name="mlt_service">pixbuf</property>
  <property name="global_feed">1</property>
 </producer>
 <producer in="0" title="Anonymous Submission" out="74" id="5">
  <property name="mlt_type">mlt_producer</property>
  <property name="length">75</property>
  <property name="eof">pause</property>
  <property name="resource">/home/alex/Videos/Projects/小白也能轻松学会的Galgame制作/第3讲 耳机党福利/titles/tracks04.png</property>
  <property name="ttl">25</property>
  <property name="aspect_ratio">1</property>
  <property name="progressive">1</property>
  <property name="seekable">1</property>
  <property name="loop">1</property>
  <property name="meta.media.width">1280</property>
  <property name="meta.media.height">720</property>
  <property name="mlt_service">pixbuf</property>
  <property name="global_feed">1</property>
 </producer>
 <producer in="0" title="Anonymous Submission" out="74" id="6">
  <property name="mlt_type">mlt_producer</property>
  <property name="length">75</property>
  <property name="eof">pause</property>
  <property name="resource">/home/alex/Videos/Projects/小白也能轻松学会的Galgame制作/第3讲 耳机党福利/titles/tracks05.png</property>
  <property name="ttl">25</property>
  <property name="aspect_ratio">1</property>
  <property name="progressive">1</property>
  <property name="seekable">1</property>
  <property name="loop">1</property>
  <property name="meta.media.width">1280</property>
  <property name="meta.media.height">720</property>
  <property name="mlt_service">pixbuf</property>
  <property name="global_feed">1</property>
 </producer>
 <producer in="0" title="Anonymous Submission" out="74" id="7">
  <property name="mlt_type">mlt_producer</property>
  <property name="length">75</property>
  <property name="eof">pause</property>
  <property name="resource">/home/alex/Videos/Projects/小白也能轻松学会的Galgame制作/第3讲 耳机党福利/titles/tracks06.png</property>
  <property name="ttl">25</property>
  <property name="aspect_ratio">1</property>
  <property name="progressive">1</property>
  <property name="seekable">1</property>
  <property name="loop">1</property>
  <property name="meta.media.width">1280</property>
  <property name="meta.media.height">720</property>
  <property name="mlt_service">pixbuf</property>
  <property name="global_feed">1</property>
 </producer>
 <producer in="0" title="Anonymous Submission" out="74" id="8">
  <property name="mlt_type">mlt_producer</property>
  <property name="length">75</property>
  <property name="eof">pause</property>
  <property name="resource">/home/alex/Videos/Projects/小白也能轻松学会的Galgame制作/第3讲 耳机党福利/titles/tracks07.png</property>
  <property name="ttl">25</property>
  <property name="aspect_ratio">1</property>
  <property name="progressive">1</property>
  <property name="seekable">1</property>
  <property name="loop">1</property>
  <property name="meta.media.width">1280</property>
  <property name="meta.media.height">720</property>
  <property name="mlt_service">pixbuf</property>
  <property name="global_feed">1</property>
 </producer>
 <producer in="0" title="Anonymous Submission" out="74" id="11">
  <property name="mlt_type">mlt_producer</property>
  <property name="length">75</property>
  <property name="eof">pause</property>
  <property name="resource">/home/alex/Videos/Projects/小白也能轻松学会的Galgame制作/第3讲 耳机党福利/titles/tracks08.png</property>
  <property name="ttl">25</property>
  <property name="aspect_ratio">1</property>
  <property name="progressive">1</property>
  <property name="seekable">1</property>
  <property name="loop">1</property>
  <property name="meta.media.width">1280</property>
  <property name="meta.media.height">720</property>
  <property name="mlt_service">pixbuf</property>
  <property name="global_feed">1</property>
 </producer>
 <producer in="0" title="Anonymous Submission" out="74" id="12">
  <property name="mlt_type">mlt_producer</property>
  <property name="length">75</property>
  <property name="eof">pause</property>
  <property name="resource">/home/alex/Videos/Projects/小白也能轻松学会的Galgame制作/第3讲 耳机党福利/titles/tracks09.png</property>
  <property name="ttl">25</property>
  <property name="aspect_ratio">1</property>
  <property name="progressive">1</property>
  <property name="seekable">1</property>
  <property name="loop">1</property>
  <property name="meta.media.width">1280</property>
  <property name="meta.media.height">720</property>
  <property name="mlt_service">pixbuf</property>
  <property name="global_feed">1</property>
 </producer>
 <producer in="0" title="Anonymous Submission" out="74" id="13">
  <property name="mlt_type">mlt_producer</property>
  <property name="length">75</property>
  <property name="eof">pause</property>
  <property name="resource">/home/alex/Videos/Projects/小白也能轻松学会的Galgame制作/第3讲 耳机党福利/titles/tracks10.png</property>
  <property name="ttl">25</property>
  <property name="aspect_ratio">1</property>
  <property name="progressive">1</property>
  <property name="seekable">1</property>
  <property name="loop">1</property>
  <property name="meta.media.width">1280</property>
  <property name="meta.media.height">720</property>
  <property name="mlt_service">pixbuf</property>
  <property name="global_feed">1</property>
 </producer>
 <producer in="0" title="Anonymous Submission" out="74" id="14">
  <property name="mlt_type">mlt_producer</property>
  <property name="length">75</property>
  <property name="eof">pause</property>
  <property name="resource">/home/alex/Videos/Projects/小白也能轻松学会的Galgame制作/第3讲 耳机党福利/titles/tracks11.png</property>
  <property name="ttl">25</property>
  <property name="aspect_ratio">1</property>
  <property name="progressive">1</property>
  <property name="seekable">1</property>
  <property name="loop">1</property>
  <property name="meta.media.width">1280</property>
  <property name="meta.media.height">720</property>
  <property name="mlt_service">pixbuf</property>
  <property name="global_feed">1</property>
 </producer>
 <producer in="0" title="Anonymous Submission" out="101" id="15">
  <property name="mlt_type">mlt_producer</property>
  <property name="length">102</property>
  <property name="eof">pause</property>
  <property name="resource">/home/alex/Videos/Projects/小白也能轻松学会的Galgame制作/第3讲 耳机党福利/titles/tracks12.png</property>
  <property name="ttl">25</property>
  <property name="aspect_ratio">1</property>
  <property name="progressive">1</property>
  <property name="seekable">1</property>
  <property name="loop">1</property>
  <property name="meta.media.width">1280</property>
  <property name="meta.media.height">720</property>
  <property name="mlt_service">pixbuf</property>
  <property name="global_feed">1</property>
 </producer>
 <producer in="0" title="Anonymous Submission" out="74" id="16">
  <property name="mlt_type">mlt_producer</property>
  <property name="length">75</property>
  <property name="eof">pause</property>
  <property name="resource">/home/alex/Videos/Projects/小白也能轻松学会的Galgame制作/第3讲 耳机党福利/titles/tracks13.png</property>
  <property name="ttl">25</property>
  <property name="aspect_ratio">1</property>
  <property name="progressive">1</property>
  <property name="seekable">1</property>
  <property name="loop">1</property>
  <property name="meta.media.width">1280</property>
  <property name="meta.media.height">720</property>
  <property name="mlt_service">pixbuf</property>
  <property name="global_feed">1</property>
 </producer>
 <producer in="0" title="Anonymous Submission" out="74" id="17">
  <property name="mlt_type">mlt_producer</property>
  <property name="length">75</property>
  <property name="eof">pause</property>
  <property name="resource">/home/alex/Videos/Projects/小白也能轻松学会的Galgame制作/第3讲 耳机党福利/titles/tracks14.png</property>
  <property name="ttl">25</property>
  <property name="aspect_ratio">1</property>
  <property name="progressive">1</property>
  <property name="seekable">1</property>
  <property name="loop">1</property>
  <property name="meta.media.width">1280</property>
  <property name="meta.media.height">720</property>
  <property name="mlt_service">pixbuf</property>
  <property name="global_feed">1</property>
 </producer>
 <producer in="0" title="Anonymous Submission" out="74" id="18">
  <property name="mlt_type">mlt_producer</property>
  <property name="length">75</property>
  <property name="eof">pause</property>
  <property name="resource">/home/alex/Videos/Projects/小白也能轻松学会的Galgame制作/第3讲 耳机党福利/titles/tracks15.png</property>
  <property name="ttl">25</property>
  <property name="aspect_ratio">1</property>
  <property name="progressive">1</property>
  <property name="seekable">1</property>
  <property name="loop">1</property>
  <property name="meta.media.width">1280</property>
  <property name="meta.media.height">720</property>
  <property name="mlt_service">pixbuf</property>
  <property name="global_feed">1</property>
 </producer>
 <producer in="0" title="Anonymous Submission" out="74" id="19">
  <property name="mlt_type">mlt_producer</property>
  <property name="length">75</property>
  <property name="eof">pause</property>
  <property name="resource">/home/alex/Videos/Projects/小白也能轻松学会的Galgame制作/第3讲 耳机党福利/titles/tracks16.png</property>
  <property name="ttl">25</property>
  <property name="aspect_ratio">1</property>
  <property name="progressive">1</property>
  <property name="seekable">1</property>
  <property name="loop">1</property>
  <property name="meta.media.width">1280</property>
  <property name="meta.media.height">720</property>
  <property name="mlt_service">pixbuf</property>
  <property name="global_feed">1</property>
 </producer>
 <playlist id="playlist5">
  <blank length="3108"/>
  <entry in="0" out="32" producer="2"/>
  <entry in="0" out="20" producer="3"/>
  <entry in="0" out="23" producer="4"/>
  <entry in="0" out="45" producer="5"/>
  <entry in="0" out="1" producer="6"/>
  <entry in="0" out="36" producer="7"/>
  <entry in="0" out="17" producer="5"/>
  <entry in="10" out="25" producer="8"/>
  <entry in="0" out="43" producer="6"/>
  <entry in="0" out="19" producer="11"/>
  <entry in="0" out="38" producer="12"/>
  <entry in="0" out="33" producer="13"/>
  <entry in="0" out="18" producer="14"/>
  <entry in="0" out="36" producer="15"/>
  <entry in="0" out="1" producer="16"/>
  <entry in="0" out="1" producer="15"/>
  <entry in="0" out="1" producer="16"/>
  <entry in="0" out="101" producer="15"/>
  <entry in="0" out="7" producer="17"/>
  <entry in="0" out="7" producer="18"/>
  <entry in="0" out="7" producer="19"/>
 </playlist>
 <tractor global_feed="1" in="0" title="Anonymous Submission" out="6365" id="maintractor">
  <property name="meta.volume">1</property>
  <track producer="black_track"/>
  <track producer="playlist4"/>
  <track producer="playlist5"/>
  <transition id="transition0">
   <property name="a_track">1</property>
   <property name="b_track">2</property>
   <property name="mlt_type">transition</property>
   <property name="mlt_service">mix</property>
   <property name="always_active">1</property>
   <property name="combine">1</property>
   <property name="internal_added">237</property>
  </transition>
 </tractor>
 <kdenlivedoc profile="/home/alex/.local/share/kdenlive//profiles/customprofile5" version="0.88" kdenliveversion="15.04.2" projectfolder="/home/alex/Videos/Projects/小白也能轻松学会的Galgame制作/第3讲 耳机党福利">
  <customeffects/>
  <documentproperties renderguide="0" rendertcoverlay="0" renderaudiobitrate="160" zoom="3" renderrescale="0" enableproxy="0" renderscanning="0" zoneout="100" renderprofile="H.264/AAC High Profile" rendertwopass="0" position="6354" renderbitrate="20" proxyextension="ts" zonein="0" generateimageproxy="0" renderzone="0" documentid="1433856789685" renderplay="0" renderrescaleheight="180" generateproxy="0" renderdestination="" renderstartguide="-1" renderrescalewidth="320" verticalzoom="1" renderurl="/home/alex/Videos/Projects/小白也能轻松学会的Galgame制作/第3讲 耳机党福利/untitled.mp4" rendertctype="0" rendercategory="MP4" renderendguide="-1" proxyparams="-f mpegts -acodec libmp3lame -ac 2 -ab 128k -vcodec mpeg2video -g 5 -s 640x480 -qscale 7" renderexportaudio="0" proxyimageminsize="2000" proxyminsize="1000" renderratio="1"/>
  <documentmetadata/>
  <documentnotes>&lt;!DOCTYPE HTML PUBLIC "-//W3C//DTD HTML 4.0//EN" "http://www.w3.org/TR/REC-html40/strict.dtd">
&lt;html>&lt;head>&lt;meta name="qrichtext" content="1" />&lt;style type="text/css">
p, li { white-space: pre-wrap; }
&lt;/style>&lt;/head>&lt;body style=" font-family:'Oxygen-Sans'; font-size:10pt; font-weight:400; font-style:normal;">
&lt;p style="-qt-paragraph-type:empty; margin-top:0px; margin-bottom:0px; margin-left:0px; margin-right:0px; -qt-block-indent:0; text-indent:0px;">&lt;br />&lt;/p>&lt;/body>&lt;/html></documentnotes>
  <profileinfo display_aspect_num="16" width="1280" sample_aspect_den="1" description="HD 720p 15 fps" frame_rate_num="15" frame_rate_den="1" height="720" progressive="1" sample_aspect_num="1" display_aspect_den="9"/>
  <tracksinfo>
   <trackinfo blind="0" trackname="Video 2" locked="0" mute="0"/>
   <trackinfo blind="0" trackname="Video 1" locked="0" mute="0"/>
  </tracksinfo>
  <folder name="tracks" id="1"/>
  <kdenlive_producer file_hash="b11cbf9484b2bc041fa302ba196bc2b4" pix_fmt="yuv420p" analysisdata="" name="original.mp4" default_video="0" frequency="22050" progressive="1" channels="1" aspect_ratio="1.00446" type="3" file_size="12602725" videocodecid="hevc" id="1" resource="/home/alex/Videos/Projects/小白也能轻松学会的Galgame制作/第3讲 耳机党福利/original.mp4" colorspace="709" video_max="0" audiocodec="AAC (Advanced Audio Coding)" default_audio="1" audio_max="63" videocodec="HEVC (High Efficiency Video Coding)" fps="15" duration="8873" frame_size="1280x720">
   <metaproperty tool="" name="meta.attr.0.stream.handler_name">VideoHandler</metaproperty>
   <metaproperty tool="" name="meta.attr.1.stream.handler_name">SoundHandler</metaproperty>
   <metaproperty tool="" name="meta.attr.compatible_brands">isomiso2mp41</metaproperty>
   <metaproperty tool="" name="meta.attr.encoder">Lavf56.25.101</metaproperty>
   <metaproperty tool="" name="meta.attr.major_brand">isom</metaproperty>
   <metaproperty tool="" name="meta.attr.minor_version">512</metaproperty>
  </kdenlive_producer>
  <kdenlive_producer file_size="17292" groupname="tracks" in="0" file_hash="ba817b7c191c1f7a55f4826239e63ab0" duration="75" type="5" out="74" frame_size="1280x720" name="tracks01.png" aspect_ratio="1" groupid="1" id="2" resource="/home/alex/Videos/Projects/小白也能轻松学会的Galgame制作/第3讲 耳机党福利/titles/tracks01.png" analysisdata=""/>
  <kdenlive_producer file_size="15449" groupname="tracks" in="0" file_hash="e2aa29e191e67eff1de4457a539369da" duration="75" type="5" out="74" frame_size="1280x720" name="tracks02.png" aspect_ratio="1" groupid="1" id="3" resource="/home/alex/Videos/Projects/小白也能轻松学会的Galgame制作/第3讲 耳机党福利/titles/tracks02.png" analysisdata=""/>
  <kdenlive_producer file_size="17127" groupname="tracks" in="0" file_hash="f1d7502d9d5f8837ef631fa5baff6dfa" duration="75" type="5" out="74" frame_size="1280x720" name="tracks03.png" aspect_ratio="1" groupid="1" id="4" resource="/home/alex/Videos/Projects/小白也能轻松学会的Galgame制作/第3讲 耳机党福利/titles/tracks03.png" analysisdata=""/>
  <kdenlive_producer file_size="12138" groupname="tracks" in="0" file_hash="b59c295096ca660f533c111aa13b1704" duration="75" type="5" out="74" frame_size="1280x720" name="tracks04.png" aspect_ratio="1" groupid="1" id="5" resource="/home/alex/Videos/Projects/小白也能轻松学会的Galgame制作/第3讲 耳机党福利/titles/tracks04.png" analysisdata=""/>
  <kdenlive_producer file_size="13759" groupname="tracks" in="0" file_hash="e93444b23aaf4805b1fa2916f17745a2" duration="75" type="5" out="74" frame_size="1280x720" name="tracks05.png" aspect_ratio="1" groupid="1" id="6" resource="/home/alex/Videos/Projects/小白也能轻松学会的Galgame制作/第3讲 耳机党福利/titles/tracks05.png" analysisdata=""/>
  <kdenlive_producer file_size="14153" groupname="tracks" in="0" file_hash="292b30bf0c6c0d1c5f817317aaeb963c" duration="75" type="5" out="74" frame_size="1280x720" name="tracks06.png" aspect_ratio="1" groupid="1" id="7" resource="/home/alex/Videos/Projects/小白也能轻松学会的Galgame制作/第3讲 耳机党福利/titles/tracks06.png" analysisdata=""/>
  <kdenlive_producer file_size="11700" groupname="tracks" in="0" file_hash="b8926afd41371bc159f6d03f330a627e" duration="75" type="5" out="74" frame_size="1280x720" name="tracks07.png" aspect_ratio="1" groupid="1" id="8" resource="/home/alex/Videos/Projects/小白也能轻松学会的Galgame制作/第3讲 耳机党福利/titles/tracks07.png" analysisdata=""/>
  <kdenlive_producer file_size="14916" groupname="tracks" in="0" file_hash="1fa92cba78e96397178fa65b1ffa91a0" duration="75" type="5" out="74" frame_size="1280x720" name="tracks08.png" aspect_ratio="1" groupid="1" id="11" resource="/home/alex/Videos/Projects/小白也能轻松学会的Galgame制作/第3讲 耳机党福利/titles/tracks08.png" analysisdata=""/>
  <kdenlive_producer file_size="16518" groupname="tracks" in="0" file_hash="facb1d2b78360e5cfc2ba62682b15cc1" duration="75" type="5" out="74" frame_size="1280x720" name="tracks09.png" aspect_ratio="1" groupid="1" id="12" resource="/home/alex/Videos/Projects/小白也能轻松学会的Galgame制作/第3讲 耳机党福利/titles/tracks09.png" analysisdata=""/>
  <kdenlive_producer file_size="12820" groupname="tracks" in="0" file_hash="bf6d7a1b429d59d1ab342018251bac43" duration="75" type="5" out="74" frame_size="1280x720" name="tracks10.png" aspect_ratio="1" groupid="1" id="13" resource="/home/alex/Videos/Projects/小白也能轻松学会的Galgame制作/第3讲 耳机党福利/titles/tracks10.png" analysisdata=""/>
  <kdenlive_producer file_size="13054" groupname="tracks" in="0" file_hash="9ca962c998a81e7508fc38ec30813f6b" duration="75" type="5" out="74" frame_size="1280x720" name="tracks11.png" aspect_ratio="1" groupid="1" id="14" resource="/home/alex/Videos/Projects/小白也能轻松学会的Galgame制作/第3讲 耳机党福利/titles/tracks11.png" analysisdata=""/>
  <kdenlive_producer file_size="15163" groupname="tracks" in="0" file_hash="e8b695e212b717bd68be10e8b52c9159" duration="75" type="5" out="74" frame_size="1280x720" name="tracks12.png" aspect_ratio="1" groupid="1" id="15" resource="/home/alex/Videos/Projects/小白也能轻松学会的Galgame制作/第3讲 耳机党福利/titles/tracks12.png" analysisdata=""/>
  <kdenlive_producer file_size="14710" groupname="tracks" in="0" file_hash="6f169b48d5dc6a86d69e9baf65693696" duration="75" type="5" out="74" frame_size="1280x720" name="tracks13.png" aspect_ratio="1" groupid="1" id="16" resource="/home/alex/Videos/Projects/小白也能轻松学会的Galgame制作/第3讲 耳机党福利/titles/tracks13.png" analysisdata=""/>
  <kdenlive_producer file_size="15150" groupname="tracks" in="0" file_hash="b6cdf5a2d28104bb9cb2ff45ebdddcaa" duration="75" type="5" out="74" frame_size="1280x720" name="tracks14.png" aspect_ratio="1" groupid="1" id="17" resource="/home/alex/Videos/Projects/小白也能轻松学会的Galgame制作/第3讲 耳机党福利/titles/tracks14.png" analysisdata=""/>
  <kdenlive_producer file_size="15179" groupname="tracks" in="0" file_hash="7706057272d6ebf397e5f809d4bb51fe" duration="75" type="5" out="74" frame_size="1280x720" name="tracks15.png" aspect_ratio="1" groupid="1" id="18" resource="/home/alex/Videos/Projects/小白也能轻松学会的Galgame制作/第3讲 耳机党福利/titles/tracks15.png" analysisdata=""/>
  <kdenlive_producer file_size="15172" groupname="tracks" in="0" file_hash="1b9f4cf4dee94836f5976c08f719f338" duration="75" type="5" out="74" frame_size="1280x720" name="tracks16.png" aspect_ratio="1" groupid="1" id="19" resource="/home/alex/Videos/Projects/小白也能轻松学会的Galgame制作/第3讲 耳机党福利/titles/tracks16.png" analysisdata=""/>
  <markers/>
  <groups/>
 </kdenlivedoc>
</mlt>
