<?xml version='1.0' encoding='utf-8'?>
<mlt version="0.9.6" title="Anonymous Submission" LC_NUMERIC="en_AU.UTF-8" root="/run/media/alex/SBPD/Video/Projects/小白也能轻松学会的Galgame制作/第3讲 耳机党福利">
 <profile width="1280" display_aspect_den="9" sample_aspect_den="1" frame_rate_num="15" height="720" display_aspect_num="16" colorspace="709" sample_aspect_num="1" frame_rate_den="1" description="HD 720p 15 fps" progressive="1"/>
 <producer id="black" in="0" out="500">
  <property name="mlt_type">producer</property>
  <property name="length">15000</property>
  <property name="eof">pause</property>
  <property name="resource">black</property>
  <property name="aspect_ratio">0</property>
  <property name="mlt_service">colour</property>
 </producer>
 <playlist id="black_track">
  <entry producer="black" in="0" out="6389"/>
 </playlist>
 <producer id="1_1" title="Anonymous Submission" in="0" out="8872">
  <property name="mlt_type">mlt_producer</property>
  <property name="length">8873</property>
  <property name="eof">pause</property>
  <property name="resource">/home/alex/Videos/Projects/小白也能轻松学会的Galgame制作/第3讲 耳机党福利/original.mp4</property>
  <property name="meta.media.nb_streams">2</property>
  <property name="meta.media.0.stream.type">video</property>
  <property name="meta.media.0.stream.frame_rate">15</property>
  <property name="meta.media.0.stream.sample_aspect_ratio">1.00446</property>
  <property name="meta.media.0.codec.width">1280</property>
  <property name="meta.media.0.codec.height">720</property>
  <property name="meta.media.0.codec.frame_rate">15</property>
  <property name="meta.media.0.codec.pix_fmt">yuv420p</property>
  <property name="meta.media.0.codec.sample_aspect_ratio">1.00446</property>
  <property name="meta.media.0.codec.colorspace">709</property>
  <property name="meta.media.0.codec.name">hevc</property>
  <property name="meta.media.0.codec.long_name">HEVC (High Efficiency Video Coding)</property>
  <property name="meta.media.0.codec.bit_rate">56365</property>
  <property name="meta.attr.0.stream.handler_name.markup">VideoHandler</property>
  <property name="meta.media.1.stream.type">audio</property>
  <property name="meta.media.1.codec.sample_fmt">fltp</property>
  <property name="meta.media.1.codec.sample_rate">22050</property>
  <property name="meta.media.1.codec.channels">1</property>
  <property name="meta.media.1.codec.name">aac</property>
  <property name="meta.media.1.codec.long_name">AAC (Advanced Audio Coding)</property>
  <property name="meta.media.1.codec.bit_rate">109736</property>
  <property name="meta.attr.1.stream.handler_name.markup">SoundHandler</property>
  <property name="meta.attr.major_brand.markup">isom</property>
  <property name="meta.attr.minor_version.markup">512</property>
  <property name="meta.attr.compatible_brands.markup">isomiso2mp41</property>
  <property name="meta.attr.encoder.markup">Lavf56.25.101</property>
  <property name="seekable">1</property>
  <property name="meta.media.sample_aspect_num">225</property>
  <property name="meta.media.sample_aspect_den">224</property>
  <property name="aspect_ratio">1.00446</property>
  <property name="audio_index">1</property>
  <property name="video_index">0</property>
  <property name="mute_on_pause">1</property>
  <property name="mlt_service">avformat</property>
  <property name="global_feed">1</property>
  <property name="xml">was here</property>
  <property name="meta.media.frame_rate_num">15</property>
  <property name="meta.media.frame_rate_den">1</property>
  <property name="meta.media.colorspace">709</property>
  <property name="meta.media.color_trc">2</property>
  <property name="meta.media.width">1280</property>
  <property name="meta.media.height">720</property>
  <property name="meta.media.top_field_first">0</property>
  <property name="meta.media.progressive">1</property>
 </producer>
 <producer id="slowmotion:1:4" in="0" out="2217">
  <property name="mlt_type">producer</property>
  <property name="length">2218</property>
  <property name="eof">pause</property>
  <property name="resource">/home/alex/Videos/Projects/小白也能轻松学会的Galgame制作/第3讲 耳机党福利/original.mp4?4</property>
  <property name="aspect_ratio">1.00446</property>
  <property name="mlt_service">framebuffer</property>
  <property name="strobe">1</property>
 </producer>
 <playlist id="playlist4">
  <entry producer="1_1" in="0" out="625"/>
  <entry producer="slowmotion:1:4" in="156" out="190"/>
  <entry producer="1_1" in="766" out="839"/>
  <entry producer="1_1" in="899" out="1002"/>
  <entry producer="1_1" in="1048" out="1076"/>
  <entry producer="1_1" in="1094" out="1135"/>
  <entry producer="1_1" in="1142" out="1172"/>
  <entry producer="1_1" in="1178" out="1183"/>
  <entry producer="1_1" in="1188" out="1232"/>
  <entry producer="1_1" in="1239" out="1341"/>
  <entry producer="1_1" in="1395" out="1749"/>
  <entry producer="1_1" in="1757" out="1895"/>
  <entry producer="1_1" in="1919" out="1950"/>
  <entry producer="1_1" in="1958" out="2058"/>
  <entry producer="1_1" in="2100" out="2139"/>
  <entry producer="1_1" in="2192" out="2383"/>
  <entry producer="1_1" in="2437" out="2489"/>
  <entry producer="1_1" in="2514" out="2836"/>
  <entry producer="1_1" in="2864" out="3028"/>
  <entry producer="1_1" in="3040" out="3252"/>
  <entry producer="1_1" in="3294" out="3433"/>
  <entry producer="1_1" in="3494" out="3647"/>
  <entry producer="1_1" in="3648" out="3678">
   <filter id="dynamictext">
    <property name="track">0</property>
    <property name="argument">请无视多出来的这个反斜杠</property>
    <property name="geometry">596.154/176.923:600x80:100</property>
    <property name="family">DejaVu Sans</property>
    <property name="size">48</property>
    <property name="weight">400</property>
    <property name="fgcolour">0x000000ff</property>
    <property name="bgcolour">0x00000000</property>
    <property name="olcolour">0x00000000</property>
    <property name="pad">0</property>
    <property name="halign">left</property>
    <property name="valign">top</property>
    <property name="outline">0</property>
    <property name="mlt_type">filter</property>
    <property name="mlt_service">dynamictext</property>
    <property name="kdenlive_id">dynamictext</property>
    <property name="tag">dynamictext</property>
    <property name="kdenlive_ix">1</property>
    <property name="kdenlive_info">1/-1/</property>
   </filter>
  </entry>
  <entry producer="1_1" in="3725" out="3790"/>
  <entry producer="1_1" in="3800" out="3820"/>
  <entry producer="1_1" in="3825" out="4244"/>
  <entry producer="1_1" in="4254" out="4415"/>
  <entry producer="1_1" in="4441" out="4540"/>
  <entry producer="1_1" in="4615" out="4626"/>
  <entry producer="1_1" in="4641" out="4655"/>
  <entry producer="1_1" in="4705" out="4981"/>
  <entry producer="1_1" in="5030" out="5086"/>
  <entry producer="1_1" in="5117" out="5131"/>
  <entry producer="1_1" in="5135" out="5136"/>
  <entry producer="1_1" in="5142" out="5151"/>
  <entry producer="1_1" in="5158" out="5201"/>
  <entry producer="1_1" in="5376" out="5467"/>
  <entry producer="1_1" in="5525" out="5568"/>
  <entry producer="1_1" in="5603" out="5619"/>
  <entry producer="1_1" in="5629" out="5637"/>
  <entry producer="1_1" in="6514" out="6776"/>
  <entry producer="1_1" in="6785" out="7106"/>
  <entry producer="slowmotion:1:4" in="1776" out="1857"/>
  <entry producer="1_1" in="7435" out="7469"/>
  <entry producer="1_1" in="7517" out="7636"/>
  <entry producer="1_1" in="7660" out="7696"/>
  <entry producer="1_1" in="7710" out="7812"/>
  <entry producer="1_1" in="7833" out="8378"/>
  <entry producer="1_1" in="8387" out="8872"/>
 </playlist>
 <producer id="2" title="Anonymous Submission" in="0" out="74">
  <property name="mlt_type">mlt_producer</property>
  <property name="length">75</property>
  <property name="eof">pause</property>
  <property name="resource">/home/alex/Videos/Projects/小白也能轻松学会的Galgame制作/第3讲 耳机党福利/titles/tracks01.png</property>
  <property name="ttl">25</property>
  <property name="aspect_ratio">1</property>
  <property name="progressive">1</property>
  <property name="seekable">1</property>
  <property name="loop">1</property>
  <property name="meta.media.width">1280</property>
  <property name="meta.media.height">720</property>
  <property name="mlt_service">pixbuf</property>
  <property name="global_feed">1</property>
 </producer>
 <producer id="3" title="Anonymous Submission" in="0" out="74">
  <property name="mlt_type">mlt_producer</property>
  <property name="length">75</property>
  <property name="eof">pause</property>
  <property name="resource">/home/alex/Videos/Projects/小白也能轻松学会的Galgame制作/第3讲 耳机党福利/titles/tracks02.png</property>
  <property name="ttl">25</property>
  <property name="aspect_ratio">1</property>
  <property name="progressive">1</property>
  <property name="seekable">1</property>
  <property name="loop">1</property>
  <property name="meta.media.width">1280</property>
  <property name="meta.media.height">720</property>
  <property name="mlt_service">pixbuf</property>
  <property name="global_feed">1</property>
 </producer>
 <producer id="4" title="Anonymous Submission" in="0" out="74">
  <property name="mlt_type">mlt_producer</property>
  <property name="length">75</property>
  <property name="eof">pause</property>
  <property name="resource">/home/alex/Videos/Projects/小白也能轻松学会的Galgame制作/第3讲 耳机党福利/titles/tracks03.png</property>
  <property name="ttl">25</property>
  <property name="aspect_ratio">1</property>
  <property name="progressive">1</property>
  <property name="seekable">1</property>
  <property name="loop">1</property>
  <property name="meta.media.width">1280</property>
  <property name="meta.media.height">720</property>
  <property name="mlt_service">pixbuf</property>
  <property name="global_feed">1</property>
 </producer>
 <producer id="5" title="Anonymous Submission" in="0" out="74">
  <property name="mlt_type">mlt_producer</property>
  <property name="length">75</property>
  <property name="eof">pause</property>
  <property name="resource">/home/alex/Videos/Projects/小白也能轻松学会的Galgame制作/第3讲 耳机党福利/titles/tracks04.png</property>
  <property name="ttl">25</property>
  <property name="aspect_ratio">1</property>
  <property name="progressive">1</property>
  <property name="seekable">1</property>
  <property name="loop">1</property>
  <property name="meta.media.width">1280</property>
  <property name="meta.media.height">720</property>
  <property name="mlt_service">pixbuf</property>
  <property name="global_feed">1</property>
 </producer>
 <producer id="6" title="Anonymous Submission" in="0" out="74">
  <property name="mlt_type">mlt_producer</property>
  <property name="length">75</property>
  <property name="eof">pause</property>
  <property name="resource">/home/alex/Videos/Projects/小白也能轻松学会的Galgame制作/第3讲 耳机党福利/titles/tracks05.png</property>
  <property name="ttl">25</property>
  <property name="aspect_ratio">1</property>
  <property name="progressive">1</property>
  <property name="seekable">1</property>
  <property name="loop">1</property>
  <property name="meta.media.width">1280</property>
  <property name="meta.media.height">720</property>
  <property name="mlt_service">pixbuf</property>
  <property name="global_feed">1</property>
 </producer>
 <producer id="7" title="Anonymous Submission" in="0" out="74">
  <property name="mlt_type">mlt_producer</property>
  <property name="length">75</property>
  <property name="eof">pause</property>
  <property name="resource">/home/alex/Videos/Projects/小白也能轻松学会的Galgame制作/第3讲 耳机党福利/titles/tracks06.png</property>
  <property name="ttl">25</property>
  <property name="aspect_ratio">1</property>
  <property name="progressive">1</property>
  <property name="seekable">1</property>
  <property name="loop">1</property>
  <property name="meta.media.width">1280</property>
  <property name="meta.media.height">720</property>
  <property name="mlt_service">pixbuf</property>
  <property name="global_feed">1</property>
 </producer>
 <producer id="8" title="Anonymous Submission" in="0" out="74">
  <property name="mlt_type">mlt_producer</property>
  <property name="length">75</property>
  <property name="eof">pause</property>
  <property name="resource">/home/alex/Videos/Projects/小白也能轻松学会的Galgame制作/第3讲 耳机党福利/titles/tracks07.png</property>
  <property name="ttl">25</property>
  <property name="aspect_ratio">1</property>
  <property name="progressive">1</property>
  <property name="seekable">1</property>
  <property name="loop">1</property>
  <property name="meta.media.width">1280</property>
  <property name="meta.media.height">720</property>
  <property name="mlt_service">pixbuf</property>
  <property name="global_feed">1</property>
 </producer>
 <producer id="11" title="Anonymous Submission" in="0" out="74">
  <property name="mlt_type">mlt_producer</property>
  <property name="length">75</property>
  <property name="eof">pause</property>
  <property name="resource">/home/alex/Videos/Projects/小白也能轻松学会的Galgame制作/第3讲 耳机党福利/titles/tracks08.png</property>
  <property name="ttl">25</property>
  <property name="aspect_ratio">1</property>
  <property name="progressive">1</property>
  <property name="seekable">1</property>
  <property name="loop">1</property>
  <property name="meta.media.width">1280</property>
  <property name="meta.media.height">720</property>
  <property name="mlt_service">pixbuf</property>
  <property name="global_feed">1</property>
 </producer>
 <producer id="12" title="Anonymous Submission" in="0" out="74">
  <property name="mlt_type">mlt_producer</property>
  <property name="length">75</property>
  <property name="eof">pause</property>
  <property name="resource">/home/alex/Videos/Projects/小白也能轻松学会的Galgame制作/第3讲 耳机党福利/titles/tracks09.png</property>
  <property name="ttl">25</property>
  <property name="aspect_ratio">1</property>
  <property name="progressive">1</property>
  <property name="seekable">1</property>
  <property name="loop">1</property>
  <property name="meta.media.width">1280</property>
  <property name="meta.media.height">720</property>
  <property name="mlt_service">pixbuf</property>
  <property name="global_feed">1</property>
 </producer>
 <producer id="13" title="Anonymous Submission" in="0" out="74">
  <property name="mlt_type">mlt_producer</property>
  <property name="length">75</property>
  <property name="eof">pause</property>
  <property name="resource">/home/alex/Videos/Projects/小白也能轻松学会的Galgame制作/第3讲 耳机党福利/titles/tracks10.png</property>
  <property name="ttl">25</property>
  <property name="aspect_ratio">1</property>
  <property name="progressive">1</property>
  <property name="seekable">1</property>
  <property name="loop">1</property>
  <property name="meta.media.width">1280</property>
  <property name="meta.media.height">720</property>
  <property name="mlt_service">pixbuf</property>
  <property name="global_feed">1</property>
 </producer>
 <producer id="14" title="Anonymous Submission" in="0" out="74">
  <property name="mlt_type">mlt_producer</property>
  <property name="length">75</property>
  <property name="eof">pause</property>
  <property name="resource">/home/alex/Videos/Projects/小白也能轻松学会的Galgame制作/第3讲 耳机党福利/titles/tracks11.png</property>
  <property name="ttl">25</property>
  <property name="aspect_ratio">1</property>
  <property name="progressive">1</property>
  <property name="seekable">1</property>
  <property name="loop">1</property>
  <property name="meta.media.width">1280</property>
  <property name="meta.media.height">720</property>
  <property name="mlt_service">pixbuf</property>
  <property name="global_feed">1</property>
 </producer>
 <producer id="15" title="Anonymous Submission" in="0" out="101">
  <property name="mlt_type">mlt_producer</property>
  <property name="length">102</property>
  <property name="eof">pause</property>
  <property name="resource">/home/alex/Videos/Projects/小白也能轻松学会的Galgame制作/第3讲 耳机党福利/titles/tracks12.png</property>
  <property name="ttl">25</property>
  <property name="aspect_ratio">1</property>
  <property name="progressive">1</property>
  <property name="seekable">1</property>
  <property name="loop">1</property>
  <property name="meta.media.width">1280</property>
  <property name="meta.media.height">720</property>
  <property name="mlt_service">pixbuf</property>
  <property name="global_feed">1</property>
 </producer>
 <producer id="16" title="Anonymous Submission" in="0" out="74">
  <property name="mlt_type">mlt_producer</property>
  <property name="length">75</property>
  <property name="eof">pause</property>
  <property name="resource">/home/alex/Videos/Projects/小白也能轻松学会的Galgame制作/第3讲 耳机党福利/titles/tracks13.png</property>
  <property name="ttl">25</property>
  <property name="aspect_ratio">1</property>
  <property name="progressive">1</property>
  <property name="seekable">1</property>
  <property name="loop">1</property>
  <property name="meta.media.width">1280</property>
  <property name="meta.media.height">720</property>
  <property name="mlt_service">pixbuf</property>
  <property name="global_feed">1</property>
 </producer>
 <producer id="17" title="Anonymous Submission" in="0" out="74">
  <property name="mlt_type">mlt_producer</property>
  <property name="length">75</property>
  <property name="eof">pause</property>
  <property name="resource">/home/alex/Videos/Projects/小白也能轻松学会的Galgame制作/第3讲 耳机党福利/titles/tracks14.png</property>
  <property name="ttl">25</property>
  <property name="aspect_ratio">1</property>
  <property name="progressive">1</property>
  <property name="seekable">1</property>
  <property name="loop">1</property>
  <property name="meta.media.width">1280</property>
  <property name="meta.media.height">720</property>
  <property name="mlt_service">pixbuf</property>
  <property name="global_feed">1</property>
 </producer>
 <producer id="18" title="Anonymous Submission" in="0" out="74">
  <property name="mlt_type">mlt_producer</property>
  <property name="length">75</property>
  <property name="eof">pause</property>
  <property name="resource">/home/alex/Videos/Projects/小白也能轻松学会的Galgame制作/第3讲 耳机党福利/titles/tracks15.png</property>
  <property name="ttl">25</property>
  <property name="aspect_ratio">1</property>
  <property name="progressive">1</property>
  <property name="seekable">1</property>
  <property name="loop">1</property>
  <property name="meta.media.width">1280</property>
  <property name="meta.media.height">720</property>
  <property name="mlt_service">pixbuf</property>
  <property name="global_feed">1</property>
 </producer>
 <producer id="19" title="Anonymous Submission" in="0" out="74">
  <property name="mlt_type">mlt_producer</property>
  <property name="length">75</property>
  <property name="eof">pause</property>
  <property name="resource">/home/alex/Videos/Projects/小白也能轻松学会的Galgame制作/第3讲 耳机党福利/titles/tracks16.png</property>
  <property name="ttl">25</property>
  <property name="aspect_ratio">1</property>
  <property name="progressive">1</property>
  <property name="seekable">1</property>
  <property name="loop">1</property>
  <property name="meta.media.width">1280</property>
  <property name="meta.media.height">720</property>
  <property name="mlt_service">pixbuf</property>
  <property name="global_feed">1</property>
 </producer>
 <playlist id="playlist5">
  <blank length="3108"/>
  <entry producer="2" in="0" out="32"/>
  <entry producer="3" in="0" out="20"/>
  <entry producer="4" in="0" out="23"/>
  <entry producer="5" in="0" out="45"/>
  <entry producer="6" in="0" out="1"/>
  <entry producer="7" in="0" out="36"/>
  <entry producer="5" in="0" out="17"/>
  <entry producer="8" in="10" out="25"/>
  <entry producer="6" in="0" out="43"/>
  <entry producer="11" in="0" out="19"/>
  <entry producer="12" in="0" out="38"/>
  <entry producer="13" in="0" out="33"/>
  <entry producer="14" in="0" out="18"/>
  <entry producer="15" in="0" out="36"/>
  <entry producer="16" in="0" out="1"/>
  <entry producer="15" in="0" out="1"/>
  <entry producer="16" in="0" out="1"/>
  <entry producer="15" in="0" out="101"/>
  <entry producer="17" in="0" out="7"/>
  <entry producer="18" in="0" out="7"/>
  <entry producer="19" in="0" out="7"/>
 </playlist>
 <tractor id="maintractor" title="Anonymous Submission" in="0" global_feed="1" out="6389">
  <property name="meta.volume">1</property>
  <track producer="black_track"/>
  <track producer="playlist4"/>
  <track producer="playlist5"/>
  <transition id="transition0">
   <property name="a_track">1</property>
   <property name="b_track">2</property>
   <property name="mlt_type">transition</property>
   <property name="mlt_service">mix</property>
   <property name="always_active">1</property>
   <property name="combine">1</property>
   <property name="internal_added">237</property>
  </transition>
 </tractor>
 <kdenlivedoc version="0.88" kdenliveversion="15.04.2" projectfolder="/home/alex/Videos/Projects/小白也能轻松学会的Galgame制作/第3讲 耳机党福利" profile="/home/alex/.local/share/kdenlive//profiles/customprofile5">
  <customeffects/>
  <documentproperties documentid="1433856789685" generateimageproxy="0" position="3690" proxyimageminsize="2000" proxyparams="-f mpegts -acodec libmp3lame -ac 2 -ab 128k -vcodec mpeg2video -g 5 -s 640x480 -qscale 7" verticalzoom="1" zoom="3" generateproxy="0" zonein="0" zoneout="100" enableproxy="0" proxyminsize="1000" proxyextension="ts"/>
  <documentmetadata/>
  <documentnotes>&lt;!DOCTYPE HTML PUBLIC "-//W3C//DTD HTML 4.0//EN" "http://www.w3.org/TR/REC-html40/strict.dtd">
&lt;html>&lt;head>&lt;meta name="qrichtext" content="1" />&lt;style type="text/css">
p, li { white-space: pre-wrap; }
&lt;/style>&lt;/head>&lt;body style=" font-family:'Oxygen-Sans'; font-size:10pt; font-weight:400; font-style:normal;">
&lt;p style="-qt-paragraph-type:empty; margin-top:0px; margin-bottom:0px; margin-left:0px; margin-right:0px; -qt-block-indent:0; text-indent:0px;">&lt;br />&lt;/p>&lt;/body>&lt;/html></documentnotes>
  <profileinfo width="1280" display_aspect_den="9" sample_aspect_den="1" frame_rate_num="15" height="720" display_aspect_num="16" sample_aspect_num="1" frame_rate_den="1" description="HD 720p 15 fps" progressive="1"/>
  <tracksinfo>
   <trackinfo trackname="Video 2" blind="0" locked="0" mute="0"/>
   <trackinfo trackname="Video 1" blind="0" locked="0" mute="0"/>
  </tracksinfo>
  <kdenlive_producer pix_fmt="yuv420p" duration="8873" resource="/home/alex/Videos/Projects/小白也能轻松学会的Galgame制作/第3讲 耳机党福利/original.mp4" type="3" file_size="12602725" videocodec="HEVC (High Efficiency Video Coding)" default_audio="1" frame_size="1280x720" audio_max="63" video_max="0" videocodecid="hevc" default_video="0" file_hash="b11cbf9484b2bc041fa302ba196bc2b4" audiocodec="AAC (Advanced Audio Coding)" name="original.mp4" aspect_ratio="1.00446" colorspace="709" fps="15" channels="1" analysisdata="" id="1" frequency="22050" progressive="1">
   <metaproperty tool="" name="meta.attr.0.stream.handler_name">VideoHandler</metaproperty>
   <metaproperty tool="" name="meta.attr.1.stream.handler_name">SoundHandler</metaproperty>
   <metaproperty tool="" name="meta.attr.compatible_brands">isomiso2mp41</metaproperty>
   <metaproperty tool="" name="meta.attr.encoder">Lavf56.25.101</metaproperty>
   <metaproperty tool="" name="meta.attr.major_brand">isom</metaproperty>
   <metaproperty tool="" name="meta.attr.minor_version">512</metaproperty>
  </kdenlive_producer>
  <kdenlive_producer id="2" file_hash="ba817b7c191c1f7a55f4826239e63ab0" aspect_ratio="1" name="tracks01.png" frame_size="1280x720" in="0" analysisdata="" duration="75" file_size="17292" resource="/home/alex/Videos/Projects/小白也能轻松学会的Galgame制作/第3讲 耳机党福利/titles/tracks01.png" out="74" type="5"/>
  <kdenlive_producer id="3" file_hash="e2aa29e191e67eff1de4457a539369da" aspect_ratio="1" name="tracks02.png" frame_size="1280x720" in="0" analysisdata="" duration="75" file_size="15449" resource="/home/alex/Videos/Projects/小白也能轻松学会的Galgame制作/第3讲 耳机党福利/titles/tracks02.png" out="74" type="5"/>
  <kdenlive_producer id="4" file_hash="f1d7502d9d5f8837ef631fa5baff6dfa" aspect_ratio="1" name="tracks03.png" frame_size="1280x720" in="0" analysisdata="" duration="75" file_size="17127" resource="/home/alex/Videos/Projects/小白也能轻松学会的Galgame制作/第3讲 耳机党福利/titles/tracks03.png" out="74" type="5"/>
  <kdenlive_producer id="5" file_hash="b59c295096ca660f533c111aa13b1704" aspect_ratio="1" name="tracks04.png" frame_size="1280x720" in="0" analysisdata="" duration="75" file_size="12138" resource="/home/alex/Videos/Projects/小白也能轻松学会的Galgame制作/第3讲 耳机党福利/titles/tracks04.png" out="74" type="5"/>
  <kdenlive_producer id="6" file_hash="e93444b23aaf4805b1fa2916f17745a2" aspect_ratio="1" name="tracks05.png" frame_size="1280x720" in="0" analysisdata="" duration="75" file_size="13759" resource="/home/alex/Videos/Projects/小白也能轻松学会的Galgame制作/第3讲 耳机党福利/titles/tracks05.png" out="74" type="5"/>
  <kdenlive_producer id="7" file_hash="292b30bf0c6c0d1c5f817317aaeb963c" aspect_ratio="1" name="tracks06.png" frame_size="1280x720" in="0" analysisdata="" duration="75" file_size="14153" resource="/home/alex/Videos/Projects/小白也能轻松学会的Galgame制作/第3讲 耳机党福利/titles/tracks06.png" out="74" type="5"/>
  <kdenlive_producer id="8" file_hash="b8926afd41371bc159f6d03f330a627e" aspect_ratio="1" name="tracks07.png" frame_size="1280x720" in="0" analysisdata="" duration="75" file_size="11700" resource="/home/alex/Videos/Projects/小白也能轻松学会的Galgame制作/第3讲 耳机党福利/titles/tracks07.png" out="74" type="5"/>
  <kdenlive_producer id="11" file_hash="1fa92cba78e96397178fa65b1ffa91a0" aspect_ratio="1" name="tracks08.png" frame_size="1280x720" in="0" analysisdata="" duration="75" file_size="14916" resource="/home/alex/Videos/Projects/小白也能轻松学会的Galgame制作/第3讲 耳机党福利/titles/tracks08.png" out="74" type="5"/>
  <kdenlive_producer id="12" file_hash="facb1d2b78360e5cfc2ba62682b15cc1" aspect_ratio="1" name="tracks09.png" frame_size="1280x720" in="0" analysisdata="" duration="75" file_size="16518" resource="/home/alex/Videos/Projects/小白也能轻松学会的Galgame制作/第3讲 耳机党福利/titles/tracks09.png" out="74" type="5"/>
  <kdenlive_producer id="13" file_hash="bf6d7a1b429d59d1ab342018251bac43" aspect_ratio="1" name="tracks10.png" frame_size="1280x720" in="0" analysisdata="" duration="75" file_size="12820" resource="/home/alex/Videos/Projects/小白也能轻松学会的Galgame制作/第3讲 耳机党福利/titles/tracks10.png" out="74" type="5"/>
  <kdenlive_producer id="14" file_hash="9ca962c998a81e7508fc38ec30813f6b" aspect_ratio="1" name="tracks11.png" frame_size="1280x720" in="0" analysisdata="" duration="75" file_size="13054" resource="/home/alex/Videos/Projects/小白也能轻松学会的Galgame制作/第3讲 耳机党福利/titles/tracks11.png" out="74" type="5"/>
  <kdenlive_producer id="15" file_hash="e8b695e212b717bd68be10e8b52c9159" aspect_ratio="1" name="tracks12.png" frame_size="1280x720" in="0" analysisdata="" duration="75" file_size="15163" resource="/home/alex/Videos/Projects/小白也能轻松学会的Galgame制作/第3讲 耳机党福利/titles/tracks12.png" out="74" type="5"/>
  <kdenlive_producer id="16" file_hash="6f169b48d5dc6a86d69e9baf65693696" aspect_ratio="1" name="tracks13.png" frame_size="1280x720" in="0" analysisdata="" duration="75" file_size="14710" resource="/home/alex/Videos/Projects/小白也能轻松学会的Galgame制作/第3讲 耳机党福利/titles/tracks13.png" out="74" type="5"/>
  <kdenlive_producer id="17" file_hash="b6cdf5a2d28104bb9cb2ff45ebdddcaa" aspect_ratio="1" name="tracks14.png" frame_size="1280x720" in="0" analysisdata="" duration="75" file_size="15150" resource="/home/alex/Videos/Projects/小白也能轻松学会的Galgame制作/第3讲 耳机党福利/titles/tracks14.png" out="74" type="5"/>
  <kdenlive_producer id="18" file_hash="7706057272d6ebf397e5f809d4bb51fe" aspect_ratio="1" name="tracks15.png" frame_size="1280x720" in="0" analysisdata="" duration="75" file_size="15179" resource="/home/alex/Videos/Projects/小白也能轻松学会的Galgame制作/第3讲 耳机党福利/titles/tracks15.png" out="74" type="5"/>
  <kdenlive_producer id="19" file_hash="1b9f4cf4dee94836f5976c08f719f338" aspect_ratio="1" name="tracks16.png" frame_size="1280x720" in="0" analysisdata="" duration="75" file_size="15172" resource="/home/alex/Videos/Projects/小白也能轻松学会的Galgame制作/第3讲 耳机党福利/titles/tracks16.png" out="74" type="5"/>
  <markers/>
  <groups/>
 </kdenlivedoc>
</mlt>
