<?xml version='1.0' encoding='utf-8'?>
<mlt title="Anonymous Submission" LC_NUMERIC="en_AU.UTF-8" root="/run/media/alex/SBPD/Video/Projects/小白也能轻松学会的Galgame制作/第7讲 攻略有难度/2P" version="0.9.6">
 <profile progressive="1" sample_aspect_num="1" display_aspect_num="16" display_aspect_den="9" colorspace="709" width="1280" sample_aspect_den="1" description="HD 720p 15 fps" height="720" frame_rate_den="1" frame_rate_num="15"/>
 <producer in="0" id="black" out="500">
  <property name="mlt_type">producer</property>
  <property name="length">15000</property>
  <property name="eof">pause</property>
  <property name="resource">black</property>
  <property name="aspect_ratio">0</property>
  <property name="mlt_service">colour</property>
 </producer>
 <playlist id="black_track">
  <entry in="0" out="2439" producer="black"/>
 </playlist>
 <producer title="Anonymous Submission" in="0" id="13_2_audio" out="781">
  <property name="mlt_type">producer</property>
  <property name="length">782</property>
  <property name="eof">pause</property>
  <property name="resource">/home/alex/Videos/Projects/小白也能轻松学会的Galgame制作/第7讲 攻略有难度/2P/original/3.mp4</property>
  <property name="meta.media.nb_streams">2</property>
  <property name="meta.media.0.stream.type">video</property>
  <property name="meta.media.0.stream.frame_rate">15</property>
  <property name="meta.media.0.stream.sample_aspect_ratio">0</property>
  <property name="meta.media.0.codec.width">1600</property>
  <property name="meta.media.0.codec.height">896</property>
  <property name="meta.media.0.codec.frame_rate">15</property>
  <property name="meta.media.0.codec.pix_fmt">yuv420p</property>
  <property name="meta.media.0.codec.sample_aspect_ratio">1</property>
  <property name="meta.media.0.codec.colorspace">709</property>
  <property name="meta.media.0.codec.name">h264</property>
  <property name="meta.media.0.codec.long_name">H.264 / AVC / MPEG-4 AVC / MPEG-4 part 10</property>
  <property name="meta.media.0.codec.bit_rate">55126</property>
  <property name="meta.attr.0.stream.handler_name.markup">VideoHandler</property>
  <property name="meta.media.1.stream.type">audio</property>
  <property name="meta.media.1.codec.sample_fmt">fltp</property>
  <property name="meta.media.1.codec.sample_rate">22050</property>
  <property name="meta.media.1.codec.channels">1</property>
  <property name="meta.media.1.codec.name">aac</property>
  <property name="meta.media.1.codec.long_name">AAC (Advanced Audio Coding)</property>
  <property name="meta.media.1.codec.bit_rate">110392</property>
  <property name="meta.attr.1.stream.handler_name.markup">SoundHandler</property>
  <property name="meta.attr.major_brand.markup">isom</property>
  <property name="meta.attr.minor_version.markup">512</property>
  <property name="meta.attr.compatible_brands.markup">isomiso2avc1mp41</property>
  <property name="meta.attr.encoder.markup">Lavf56.36.100</property>
  <property name="seekable">1</property>
  <property name="meta.media.sample_aspect_num">1</property>
  <property name="meta.media.sample_aspect_den">1</property>
  <property name="aspect_ratio">1</property>
  <property name="audio_index">1</property>
  <property name="video_index">-1</property>
  <property name="mute_on_pause">1</property>
  <property name="mlt_service">avformat</property>
  <property name="global_feed">1</property>
  <property name="xml">was here</property>
 </producer>
 <playlist id="playlist1">
  <blank length="2166"/>
  <entry in="471" out="517" producer="13_2_audio"/>
 </playlist>
 <producer title="Anonymous Submission" in="0" id="1_1" out="1812">
  <property name="mlt_type">mlt_producer</property>
  <property name="length">1813</property>
  <property name="eof">pause</property>
  <property name="resource">/home/alex/Videos/Projects/小白也能轻松学会的Galgame制作/第7讲 攻略有难度/2P/original/1.mp4</property>
  <property name="meta.media.nb_streams">2</property>
  <property name="meta.media.0.stream.type">video</property>
  <property name="meta.media.0.stream.frame_rate">15</property>
  <property name="meta.media.0.stream.sample_aspect_ratio">0</property>
  <property name="meta.media.0.codec.width">1600</property>
  <property name="meta.media.0.codec.height">896</property>
  <property name="meta.media.0.codec.frame_rate">15</property>
  <property name="meta.media.0.codec.pix_fmt">yuv420p</property>
  <property name="meta.media.0.codec.sample_aspect_ratio">1</property>
  <property name="meta.media.0.codec.colorspace">709</property>
  <property name="meta.media.0.codec.name">hevc</property>
  <property name="meta.media.0.codec.long_name">HEVC (High Efficiency Video Coding)</property>
  <property name="meta.media.0.codec.bit_rate">134465</property>
  <property name="meta.attr.0.stream.handler_name.markup">VideoHandler</property>
  <property name="meta.media.1.stream.type">audio</property>
  <property name="meta.media.1.codec.sample_fmt">fltp</property>
  <property name="meta.media.1.codec.sample_rate">22050</property>
  <property name="meta.media.1.codec.channels">1</property>
  <property name="meta.media.1.codec.name">aac</property>
  <property name="meta.media.1.codec.long_name">AAC (Advanced Audio Coding)</property>
  <property name="meta.media.1.codec.bit_rate">112432</property>
  <property name="meta.attr.1.stream.handler_name.markup">SoundHandler</property>
  <property name="meta.attr.major_brand.markup">isom</property>
  <property name="meta.attr.minor_version.markup">512</property>
  <property name="meta.attr.compatible_brands.markup">isomiso2mp41</property>
  <property name="meta.attr.encoder.markup">Lavf56.36.100</property>
  <property name="seekable">1</property>
  <property name="meta.media.sample_aspect_num">1</property>
  <property name="meta.media.sample_aspect_den">1</property>
  <property name="aspect_ratio">1</property>
  <property name="audio_index">1</property>
  <property name="video_index">0</property>
  <property name="mute_on_pause">1</property>
  <property name="mlt_service">avformat</property>
  <property name="global_feed">1</property>
  <property name="xml">was here</property>
  <property name="meta.media.frame_rate_num">15</property>
  <property name="meta.media.frame_rate_den">1</property>
  <property name="meta.media.colorspace">709</property>
  <property name="meta.media.color_trc">2</property>
  <property name="meta.media.width">1600</property>
  <property name="meta.media.height">896</property>
  <property name="meta.media.top_field_first">0</property>
  <property name="meta.media.progressive">1</property>
 </producer>
 <producer title="Anonymous Submission" in="0" id="12_1" out="131">
  <property name="mlt_type">producer</property>
  <property name="length">132</property>
  <property name="eof">pause</property>
  <property name="resource">/home/alex/Videos/Projects/小白也能轻松学会的Galgame制作/第7讲 攻略有难度/2P/original/2.mp4</property>
  <property name="meta.media.nb_streams">2</property>
  <property name="meta.media.0.stream.type">video</property>
  <property name="meta.media.0.stream.frame_rate">15</property>
  <property name="meta.media.0.stream.sample_aspect_ratio">0</property>
  <property name="meta.media.0.codec.width">1600</property>
  <property name="meta.media.0.codec.height">896</property>
  <property name="meta.media.0.codec.frame_rate">15</property>
  <property name="meta.media.0.codec.pix_fmt">yuv420p</property>
  <property name="meta.media.0.codec.sample_aspect_ratio">1</property>
  <property name="meta.media.0.codec.colorspace">709</property>
  <property name="meta.media.0.codec.name">hevc</property>
  <property name="meta.media.0.codec.long_name">HEVC (High Efficiency Video Coding)</property>
  <property name="meta.media.0.codec.bit_rate">61317</property>
  <property name="meta.attr.0.stream.handler_name.markup">VideoHandler</property>
  <property name="meta.media.1.stream.type">audio</property>
  <property name="meta.media.1.codec.sample_fmt">fltp</property>
  <property name="meta.media.1.codec.sample_rate">22050</property>
  <property name="meta.media.1.codec.channels">1</property>
  <property name="meta.media.1.codec.name">aac</property>
  <property name="meta.media.1.codec.long_name">AAC (Advanced Audio Coding)</property>
  <property name="meta.media.1.codec.bit_rate">108251</property>
  <property name="meta.attr.1.stream.handler_name.markup">SoundHandler</property>
  <property name="meta.attr.major_brand.markup">isom</property>
  <property name="meta.attr.minor_version.markup">512</property>
  <property name="meta.attr.compatible_brands.markup">isomiso2mp41</property>
  <property name="meta.attr.encoder.markup">Lavf56.36.100</property>
  <property name="seekable">1</property>
  <property name="meta.media.sample_aspect_num">1</property>
  <property name="meta.media.sample_aspect_den">1</property>
  <property name="aspect_ratio">1</property>
  <property name="audio_index">1</property>
  <property name="video_index">0</property>
  <property name="mute_on_pause">1</property>
  <property name="mlt_service">avformat</property>
  <property name="global_feed">1</property>
  <property name="xml">was here</property>
  <property name="meta.media.frame_rate_num">15</property>
  <property name="meta.media.frame_rate_den">1</property>
  <property name="meta.media.colorspace">709</property>
  <property name="meta.media.color_trc">2</property>
  <property name="meta.media.width">1600</property>
  <property name="meta.media.height">896</property>
  <property name="meta.media.top_field_first">0</property>
  <property name="meta.media.progressive">1</property>
 </producer>
 <producer title="Anonymous Submission" in="0" id="13_1" out="781">
  <property name="mlt_type">producer</property>
  <property name="length">782</property>
  <property name="eof">pause</property>
  <property name="resource">/home/alex/Videos/Projects/小白也能轻松学会的Galgame制作/第7讲 攻略有难度/2P/original/3.mp4</property>
  <property name="meta.media.nb_streams">2</property>
  <property name="meta.media.0.stream.type">video</property>
  <property name="meta.media.0.stream.frame_rate">15</property>
  <property name="meta.media.0.stream.sample_aspect_ratio">0</property>
  <property name="meta.media.0.codec.width">1600</property>
  <property name="meta.media.0.codec.height">896</property>
  <property name="meta.media.0.codec.frame_rate">15</property>
  <property name="meta.media.0.codec.pix_fmt">yuv420p</property>
  <property name="meta.media.0.codec.sample_aspect_ratio">1</property>
  <property name="meta.media.0.codec.colorspace">709</property>
  <property name="meta.media.0.codec.name">h264</property>
  <property name="meta.media.0.codec.long_name">H.264 / AVC / MPEG-4 AVC / MPEG-4 part 10</property>
  <property name="meta.media.0.codec.bit_rate">55126</property>
  <property name="meta.attr.0.stream.handler_name.markup">VideoHandler</property>
  <property name="meta.media.1.stream.type">audio</property>
  <property name="meta.media.1.codec.sample_fmt">fltp</property>
  <property name="meta.media.1.codec.sample_rate">22050</property>
  <property name="meta.media.1.codec.channels">1</property>
  <property name="meta.media.1.codec.name">aac</property>
  <property name="meta.media.1.codec.long_name">AAC (Advanced Audio Coding)</property>
  <property name="meta.media.1.codec.bit_rate">110392</property>
  <property name="meta.attr.1.stream.handler_name.markup">SoundHandler</property>
  <property name="meta.attr.major_brand.markup">isom</property>
  <property name="meta.attr.minor_version.markup">512</property>
  <property name="meta.attr.compatible_brands.markup">isomiso2avc1mp41</property>
  <property name="meta.attr.encoder.markup">Lavf56.36.100</property>
  <property name="seekable">1</property>
  <property name="meta.media.sample_aspect_num">1</property>
  <property name="meta.media.sample_aspect_den">1</property>
  <property name="aspect_ratio">1</property>
  <property name="audio_index">1</property>
  <property name="video_index">0</property>
  <property name="mute_on_pause">1</property>
  <property name="mlt_service">avformat</property>
  <property name="global_feed">1</property>
  <property name="xml">was here</property>
  <property name="meta.media.frame_rate_num">15</property>
  <property name="meta.media.frame_rate_den">1</property>
  <property name="meta.media.colorspace">709</property>
  <property name="meta.media.color_trc">2</property>
  <property name="meta.media.width">1600</property>
  <property name="meta.media.height">896</property>
  <property name="meta.media.top_field_first">0</property>
  <property name="meta.media.progressive">1</property>
 </producer>
 <producer title="Anonymous Submission" in="0" id="13_2_video" out="781">
  <property name="mlt_type">producer</property>
  <property name="length">782</property>
  <property name="eof">pause</property>
  <property name="resource">/home/alex/Videos/Projects/小白也能轻松学会的Galgame制作/第7讲 攻略有难度/2P/original/3.mp4</property>
  <property name="meta.media.nb_streams">2</property>
  <property name="meta.media.0.stream.type">video</property>
  <property name="meta.media.0.stream.frame_rate">15</property>
  <property name="meta.media.0.stream.sample_aspect_ratio">0</property>
  <property name="meta.media.0.codec.width">1600</property>
  <property name="meta.media.0.codec.height">896</property>
  <property name="meta.media.0.codec.frame_rate">15</property>
  <property name="meta.media.0.codec.pix_fmt">yuv420p</property>
  <property name="meta.media.0.codec.sample_aspect_ratio">1</property>
  <property name="meta.media.0.codec.colorspace">709</property>
  <property name="meta.media.0.codec.name">h264</property>
  <property name="meta.media.0.codec.long_name">H.264 / AVC / MPEG-4 AVC / MPEG-4 part 10</property>
  <property name="meta.media.0.codec.bit_rate">55126</property>
  <property name="meta.attr.0.stream.handler_name.markup">VideoHandler</property>
  <property name="meta.media.1.stream.type">audio</property>
  <property name="meta.media.1.codec.sample_fmt">fltp</property>
  <property name="meta.media.1.codec.sample_rate">22050</property>
  <property name="meta.media.1.codec.channels">1</property>
  <property name="meta.media.1.codec.name">aac</property>
  <property name="meta.media.1.codec.long_name">AAC (Advanced Audio Coding)</property>
  <property name="meta.media.1.codec.bit_rate">110392</property>
  <property name="meta.attr.1.stream.handler_name.markup">SoundHandler</property>
  <property name="meta.attr.major_brand.markup">isom</property>
  <property name="meta.attr.minor_version.markup">512</property>
  <property name="meta.attr.compatible_brands.markup">isomiso2avc1mp41</property>
  <property name="meta.attr.encoder.markup">Lavf56.36.100</property>
  <property name="seekable">1</property>
  <property name="meta.media.sample_aspect_num">1</property>
  <property name="meta.media.sample_aspect_den">1</property>
  <property name="aspect_ratio">1</property>
  <property name="audio_index">-1</property>
  <property name="video_index">0</property>
  <property name="mute_on_pause">1</property>
  <property name="mlt_service">avformat</property>
  <property name="global_feed">1</property>
  <property name="xml">was here</property>
  <property name="meta.media.frame_rate_num">15</property>
  <property name="meta.media.frame_rate_den">1</property>
  <property name="meta.media.colorspace">709</property>
  <property name="meta.media.color_trc">2</property>
  <property name="meta.media.width">1600</property>
  <property name="meta.media.height">896</property>
  <property name="meta.media.top_field_first">0</property>
  <property name="meta.media.progressive">1</property>
 </producer>
 <playlist id="playlist2">
  <entry in="18" out="1123" producer="1_1"/>
  <entry in="1226" out="1802" producer="1_1"/>
  <entry in="13" out="110" producer="12_1"/>
  <entry in="16" out="400" producer="13_1"/>
  <entry in="401" out="447" producer="13_2_video"/>
  <entry in="518" out="552" producer="13_1"/>
  <entry in="573" out="675" producer="13_1"/>
  <entry in="693" out="781" producer="13_1"/>
 </playlist>
 <playlist id="playlist3"/>
 <tractor title="Anonymous Submission" in="0" id="maintractor" out="2439" global_feed="1">
  <property name="meta.volume">1</property>
  <track producer="black_track"/>
  <track producer="playlist1" hide="video"/>
  <track producer="playlist2"/>
  <track producer="playlist3"/>
  <transition id="transition0">
   <property name="a_track">1</property>
   <property name="b_track">2</property>
   <property name="mlt_type">transition</property>
   <property name="mlt_service">mix</property>
   <property name="always_active">1</property>
   <property name="combine">1</property>
   <property name="internal_added">237</property>
  </transition>
  <transition id="transition1">
   <property name="a_track">1</property>
   <property name="b_track">3</property>
   <property name="mlt_type">transition</property>
   <property name="mlt_service">mix</property>
   <property name="always_active">1</property>
   <property name="combine">1</property>
   <property name="internal_added">237</property>
  </transition>
 </tractor>
 <kdenlivedoc projectfolder="/home/alex/Videos/Projects/小白也能轻松学会的Galgame制作/第7讲 攻略有难度/2P" kdenliveversion="15.04.3" version="0.88" profile="/home/alex/.local/share/kdenlive//profiles/customprofile0">
  <customeffects/>
  <documentproperties proxyimageminsize="2000" proxyparams="-f mpegts -acodec libmp3lame -ac 2 -ab 128k -vcodec mpeg2video -g 5 -s 640x480 -qscale 7" zoom="3" position="2439" generateproxy="0" zonein="0" proxyextension="ts" zoneout="100" enableproxy="0" verticalzoom="1" generateimageproxy="0" proxyminsize="1000" documentid="1438601747809"/>
  <documentmetadata/>
  <documentnotes>&lt;!DOCTYPE HTML PUBLIC "-//W3C//DTD HTML 4.0//EN" "http://www.w3.org/TR/REC-html40/strict.dtd">
&lt;html>&lt;head>&lt;meta name="qrichtext" content="1" />&lt;style type="text/css">
p, li { white-space: pre-wrap; }
&lt;/style>&lt;/head>&lt;body style=" font-family:'Oxygen-Sans'; font-size:10pt; font-weight:400; font-style:normal;">
&lt;p style="-qt-paragraph-type:empty; margin-top:0px; margin-bottom:0px; margin-left:0px; margin-right:0px; -qt-block-indent:0; text-indent:0px;">&lt;br />&lt;/p>&lt;/body>&lt;/html></documentnotes>
  <profileinfo progressive="1" sample_aspect_num="1" display_aspect_num="16" display_aspect_den="9" width="1280" sample_aspect_den="1" description="HD 720p 15 fps" height="720" frame_rate_den="1" frame_rate_num="15"/>
  <tracksinfo>
   <trackinfo locked="0" blind="1" mute="0" trackname="Audio 1" type="audio"/>
   <trackinfo locked="0" blind="0" mute="0" trackname="Video 2"/>
   <trackinfo locked="0" blind="0" mute="0" trackname="Video 1"/>
  </tracksinfo>
  <kdenlive_producer video_max="0" file_size="3796908" videocodecid="hevc" duration="1813" name="1.mp4" fps="15" colorspace="709" resource="/home/alex/Videos/Projects/小白也能轻松学会的Galgame制作/第7讲 攻略有难度/2P/original/1.mp4" type="3" progressive="1" aspect_ratio="1" default_video="0" id="1" file_hash="fe15ad5ca7219da1d50f3b1ed4759be3" frequency="22050" frame_size="1600x896" audiocodec="AAC (Advanced Audio Coding)" pix_fmt="yuv420p" analysisdata="" audio_max="50" channels="1" videocodec="HEVC (High Efficiency Video Coding)" default_audio="1">
   <metaproperty tool="" name="meta.attr.0.stream.handler_name">VideoHandler</metaproperty>
   <metaproperty tool="" name="meta.attr.1.stream.handler_name">SoundHandler</metaproperty>
   <metaproperty tool="" name="meta.attr.compatible_brands">isomiso2mp41</metaproperty>
   <metaproperty tool="" name="meta.attr.encoder">Lavf56.36.100</metaproperty>
   <metaproperty tool="" name="meta.attr.major_brand">isom</metaproperty>
   <metaproperty tool="" name="meta.attr.minor_version">512</metaproperty>
  </kdenlive_producer>
  <kdenlive_producer video_max="0" file_size="1055539" videocodecid="hevc" duration="745" name="10.mp4" fps="15" colorspace="709" resource="/home/alex/Videos/Projects/小白也能轻松学会的Galgame制作/第7讲 攻略有难度/2P/original/10.mp4" type="3" progressive="1" aspect_ratio="1" default_video="0" id="2" file_hash="1fa6c3773b16089055a7834048f4012b" frequency="22050" frame_size="1600x896" audiocodec="AAC (Advanced Audio Coding)" pix_fmt="yuv420p" analysisdata="" audio_max="28" channels="1" videocodec="HEVC (High Efficiency Video Coding)" default_audio="1">
   <metaproperty tool="" name="meta.attr.0.stream.handler_name">VideoHandler</metaproperty>
   <metaproperty tool="" name="meta.attr.1.stream.handler_name">SoundHandler</metaproperty>
   <metaproperty tool="" name="meta.attr.compatible_brands">isomiso2mp41</metaproperty>
   <metaproperty tool="" name="meta.attr.encoder">Lavf56.36.100</metaproperty>
   <metaproperty tool="" name="meta.attr.major_brand">isom</metaproperty>
   <metaproperty tool="" name="meta.attr.minor_version">512</metaproperty>
  </kdenlive_producer>
  <kdenlive_producer video_max="0" file_size="716909" videocodecid="hevc" duration="489" name="11.mp4" fps="15" colorspace="709" resource="/home/alex/Videos/Projects/小白也能轻松学会的Galgame制作/第7讲 攻略有难度/2P/original/11.mp4" type="3" progressive="1" aspect_ratio="1" default_video="0" id="3" file_hash="c89dc1f42746aee3c2b853cdeebba1fa" frequency="22050" frame_size="1600x896" audiocodec="AAC (Advanced Audio Coding)" pix_fmt="yuv420p" analysisdata="" audio_max="34" channels="1" videocodec="HEVC (High Efficiency Video Coding)" default_audio="1">
   <metaproperty tool="" name="meta.attr.0.stream.handler_name">VideoHandler</metaproperty>
   <metaproperty tool="" name="meta.attr.1.stream.handler_name">SoundHandler</metaproperty>
   <metaproperty tool="" name="meta.attr.compatible_brands">isomiso2mp41</metaproperty>
   <metaproperty tool="" name="meta.attr.encoder">Lavf56.36.100</metaproperty>
   <metaproperty tool="" name="meta.attr.major_brand">isom</metaproperty>
   <metaproperty tool="" name="meta.attr.minor_version">512</metaproperty>
  </kdenlive_producer>
  <kdenlive_producer video_max="0" file_size="1048294" videocodecid="hevc" duration="483" name="12.mp4" fps="15" colorspace="709" resource="/home/alex/Videos/Projects/小白也能轻松学会的Galgame制作/第7讲 攻略有难度/2P/original/12.mp4" type="3" progressive="1" aspect_ratio="1" default_video="0" id="4" file_hash="31f6e9b634eb5b016861c8f5be70734a" frequency="22050" frame_size="1600x896" audiocodec="AAC (Advanced Audio Coding)" pix_fmt="yuv420p" analysisdata="" audio_max="29" channels="1" videocodec="HEVC (High Efficiency Video Coding)" default_audio="1">
   <metaproperty tool="" name="meta.attr.0.stream.handler_name">VideoHandler</metaproperty>
   <metaproperty tool="" name="meta.attr.1.stream.handler_name">SoundHandler</metaproperty>
   <metaproperty tool="" name="meta.attr.compatible_brands">isomiso2mp41</metaproperty>
   <metaproperty tool="" name="meta.attr.encoder">Lavf56.36.100</metaproperty>
   <metaproperty tool="" name="meta.attr.major_brand">isom</metaproperty>
   <metaproperty tool="" name="meta.attr.minor_version">512</metaproperty>
  </kdenlive_producer>
  <kdenlive_producer video_max="0" file_size="1800384" videocodecid="hevc" duration="1158" name="13.mp4" fps="15" colorspace="709" resource="/home/alex/Videos/Projects/小白也能轻松学会的Galgame制作/第7讲 攻略有难度/2P/original/13.mp4" type="3" progressive="1" aspect_ratio="1" default_video="0" id="5" file_hash="05a7de900f50a1bc297da630decef640" frequency="22050" frame_size="1600x896" audiocodec="AAC (Advanced Audio Coding)" pix_fmt="yuv420p" analysisdata="" audio_max="45" channels="1" videocodec="HEVC (High Efficiency Video Coding)" default_audio="1">
   <metaproperty tool="" name="meta.attr.0.stream.handler_name">VideoHandler</metaproperty>
   <metaproperty tool="" name="meta.attr.1.stream.handler_name">SoundHandler</metaproperty>
   <metaproperty tool="" name="meta.attr.compatible_brands">isomiso2mp41</metaproperty>
   <metaproperty tool="" name="meta.attr.encoder">Lavf56.36.100</metaproperty>
   <metaproperty tool="" name="meta.attr.major_brand">isom</metaproperty>
   <metaproperty tool="" name="meta.attr.minor_version">512</metaproperty>
  </kdenlive_producer>
  <kdenlive_producer video_max="0" file_size="983033" videocodecid="hevc" duration="696" name="14.mp4" fps="15" colorspace="709" resource="/home/alex/Videos/Projects/小白也能轻松学会的Galgame制作/第7讲 攻略有难度/2P/original/14.mp4" type="3" progressive="1" aspect_ratio="1" default_video="0" id="6" file_hash="6b5312cebfdee6604b0226316eccc257" frequency="22050" frame_size="1600x896" audiocodec="AAC (Advanced Audio Coding)" pix_fmt="yuv420p" analysisdata="" audio_max="31" channels="1" videocodec="HEVC (High Efficiency Video Coding)" default_audio="1">
   <metaproperty tool="" name="meta.attr.0.stream.handler_name">VideoHandler</metaproperty>
   <metaproperty tool="" name="meta.attr.1.stream.handler_name">SoundHandler</metaproperty>
   <metaproperty tool="" name="meta.attr.compatible_brands">isomiso2mp41</metaproperty>
   <metaproperty tool="" name="meta.attr.encoder">Lavf56.36.100</metaproperty>
   <metaproperty tool="" name="meta.attr.major_brand">isom</metaproperty>
   <metaproperty tool="" name="meta.attr.minor_version">512</metaproperty>
  </kdenlive_producer>
  <kdenlive_producer video_max="0" file_size="2084695" videocodecid="hevc" duration="910" name="15.mp4" fps="15" colorspace="709" resource="/home/alex/Videos/Projects/小白也能轻松学会的Galgame制作/第7讲 攻略有难度/2P/original/15.mp4" type="3" progressive="1" aspect_ratio="1" default_video="0" id="7" file_hash="6a82d299704c661a8799f1baadd9b202" frequency="22050" frame_size="1600x896" audiocodec="AAC (Advanced Audio Coding)" pix_fmt="yuv420p" analysisdata="" audio_max="32" channels="1" videocodec="HEVC (High Efficiency Video Coding)" default_audio="1">
   <metaproperty tool="" name="meta.attr.0.stream.handler_name">VideoHandler</metaproperty>
   <metaproperty tool="" name="meta.attr.1.stream.handler_name">SoundHandler</metaproperty>
   <metaproperty tool="" name="meta.attr.compatible_brands">isomiso2mp41</metaproperty>
   <metaproperty tool="" name="meta.attr.encoder">Lavf56.36.100</metaproperty>
   <metaproperty tool="" name="meta.attr.major_brand">isom</metaproperty>
   <metaproperty tool="" name="meta.attr.minor_version">512</metaproperty>
  </kdenlive_producer>
  <kdenlive_producer video_max="0" file_size="353593" videocodecid="hevc" duration="217" name="16.mp4" fps="15" colorspace="709" resource="/home/alex/Videos/Projects/小白也能轻松学会的Galgame制作/第7讲 攻略有难度/2P/original/16.mp4" type="3" progressive="1" aspect_ratio="1" default_video="0" id="8" file_hash="b582d205d7d6baeb596fe3b15c349252" frequency="22050" frame_size="1600x896" audiocodec="AAC (Advanced Audio Coding)" pix_fmt="yuv420p" analysisdata="" audio_max="26" channels="1" videocodec="HEVC (High Efficiency Video Coding)" default_audio="1">
   <metaproperty tool="" name="meta.attr.0.stream.handler_name">VideoHandler</metaproperty>
   <metaproperty tool="" name="meta.attr.1.stream.handler_name">SoundHandler</metaproperty>
   <metaproperty tool="" name="meta.attr.compatible_brands">isomiso2mp41</metaproperty>
   <metaproperty tool="" name="meta.attr.encoder">Lavf56.36.100</metaproperty>
   <metaproperty tool="" name="meta.attr.major_brand">isom</metaproperty>
   <metaproperty tool="" name="meta.attr.minor_version">512</metaproperty>
  </kdenlive_producer>
  <kdenlive_producer video_max="0" file_size="913386" videocodecid="hevc" duration="633" name="17.mp4" fps="15" colorspace="709" resource="/home/alex/Videos/Projects/小白也能轻松学会的Galgame制作/第7讲 攻略有难度/2P/original/17.mp4" type="3" progressive="1" aspect_ratio="1" default_video="0" id="9" file_hash="747b8cb4781407c2e0f49d175d63a2df" frequency="22050" frame_size="1600x896" audiocodec="AAC (Advanced Audio Coding)" pix_fmt="yuv420p" analysisdata="" audio_max="27" channels="1" videocodec="HEVC (High Efficiency Video Coding)" default_audio="1">
   <metaproperty tool="" name="meta.attr.0.stream.handler_name">VideoHandler</metaproperty>
   <metaproperty tool="" name="meta.attr.1.stream.handler_name">SoundHandler</metaproperty>
   <metaproperty tool="" name="meta.attr.compatible_brands">isomiso2mp41</metaproperty>
   <metaproperty tool="" name="meta.attr.encoder">Lavf56.36.100</metaproperty>
   <metaproperty tool="" name="meta.attr.major_brand">isom</metaproperty>
   <metaproperty tool="" name="meta.attr.minor_version">512</metaproperty>
  </kdenlive_producer>
  <kdenlive_producer video_max="0" file_size="540566" videocodecid="hevc" duration="287" name="18.mp4" fps="15" colorspace="709" resource="/home/alex/Videos/Projects/小白也能轻松学会的Galgame制作/第7讲 攻略有难度/2P/original/18.mp4" type="3" progressive="1" aspect_ratio="1" default_video="0" id="10" file_hash="1a33bf8e1a1756f4f61fbf62100e06b3" frequency="22050" frame_size="1600x896" audiocodec="AAC (Advanced Audio Coding)" pix_fmt="yuv420p" analysisdata="" audio_max="27" channels="1" videocodec="HEVC (High Efficiency Video Coding)" default_audio="1">
   <metaproperty tool="" name="meta.attr.0.stream.handler_name">VideoHandler</metaproperty>
   <metaproperty tool="" name="meta.attr.1.stream.handler_name">SoundHandler</metaproperty>
   <metaproperty tool="" name="meta.attr.compatible_brands">isomiso2mp41</metaproperty>
   <metaproperty tool="" name="meta.attr.encoder">Lavf56.36.100</metaproperty>
   <metaproperty tool="" name="meta.attr.major_brand">isom</metaproperty>
   <metaproperty tool="" name="meta.attr.minor_version">512</metaproperty>
  </kdenlive_producer>
  <kdenlive_producer video_max="0" file_size="1458708" videocodecid="hevc" duration="465" name="19.mp4" fps="15" colorspace="709" resource="/home/alex/Videos/Projects/小白也能轻松学会的Galgame制作/第7讲 攻略有难度/2P/original/19.mp4" type="3" progressive="1" aspect_ratio="1" default_video="0" id="11" file_hash="9e15caf7bd5690e73d9382cd75edc5c2" frequency="22050" frame_size="1600x896" audiocodec="AAC (Advanced Audio Coding)" pix_fmt="yuv420p" analysisdata="" audio_max="23" channels="1" videocodec="HEVC (High Efficiency Video Coding)" default_audio="1">
   <metaproperty tool="" name="meta.attr.0.stream.handler_name">VideoHandler</metaproperty>
   <metaproperty tool="" name="meta.attr.1.stream.handler_name">SoundHandler</metaproperty>
   <metaproperty tool="" name="meta.attr.compatible_brands">isomiso2mp41</metaproperty>
   <metaproperty tool="" name="meta.attr.encoder">Lavf56.36.100</metaproperty>
   <metaproperty tool="" name="meta.attr.major_brand">isom</metaproperty>
   <metaproperty tool="" name="meta.attr.minor_version">512</metaproperty>
  </kdenlive_producer>
  <kdenlive_producer video_max="0" file_size="193543" videocodecid="hevc" duration="132" name="2.mp4" fps="15" colorspace="709" resource="/home/alex/Videos/Projects/小白也能轻松学会的Galgame制作/第7讲 攻略有难度/2P/original/2.mp4" type="3" progressive="1" aspect_ratio="1" default_video="0" id="12" file_hash="e94f2823ac3c4af14c8adc84e47555d8" frequency="22050" frame_size="1600x896" audiocodec="AAC (Advanced Audio Coding)" pix_fmt="yuv420p" analysisdata="" audio_max="26" channels="1" videocodec="HEVC (High Efficiency Video Coding)" default_audio="1">
   <metaproperty tool="" name="meta.attr.0.stream.handler_name">VideoHandler</metaproperty>
   <metaproperty tool="" name="meta.attr.1.stream.handler_name">SoundHandler</metaproperty>
   <metaproperty tool="" name="meta.attr.compatible_brands">isomiso2mp41</metaproperty>
   <metaproperty tool="" name="meta.attr.encoder">Lavf56.36.100</metaproperty>
   <metaproperty tool="" name="meta.attr.major_brand">isom</metaproperty>
   <metaproperty tool="" name="meta.attr.minor_version">512</metaproperty>
  </kdenlive_producer>
  <kdenlive_producer video_max="0" file_size="1105898" videocodecid="h264" duration="782" name="3.mp4" fps="15" colorspace="709" resource="/home/alex/Videos/Projects/小白也能轻松学会的Galgame制作/第7讲 攻略有难度/2P/original/3.mp4" type="3" progressive="1" aspect_ratio="1" default_video="0" id="13" file_hash="da58a49a2e3ac6cd10934630d110888a" frequency="22050" frame_size="1600x896" audiocodec="AAC (Advanced Audio Coding)" pix_fmt="yuv420p" analysisdata="" audio_max="37" channels="1" videocodec="H.264 / AVC / MPEG-4 AVC / MPEG-4 part 10" default_audio="1">
   <metaproperty tool="" name="meta.attr.0.stream.handler_name">VideoHandler</metaproperty>
   <metaproperty tool="" name="meta.attr.1.stream.handler_name">SoundHandler</metaproperty>
   <metaproperty tool="" name="meta.attr.compatible_brands">isomiso2avc1mp41</metaproperty>
   <metaproperty tool="" name="meta.attr.encoder">Lavf56.36.100</metaproperty>
   <metaproperty tool="" name="meta.attr.major_brand">isom</metaproperty>
   <metaproperty tool="" name="meta.attr.minor_version">512</metaproperty>
  </kdenlive_producer>
  <kdenlive_producer video_max="0" file_size="2138110" videocodecid="hevc" duration="1093" name="4.mp4" fps="15" colorspace="709" resource="/home/alex/Videos/Projects/小白也能轻松学会的Galgame制作/第7讲 攻略有难度/2P/original/4.mp4" type="3" progressive="1" aspect_ratio="1" default_video="0" id="14" file_hash="1e12d52a867ccd8f973d9bcca7afd06f" frequency="22050" frame_size="1600x896" audiocodec="AAC (Advanced Audio Coding)" pix_fmt="yuv420p" analysisdata="" audio_max="43" channels="1" videocodec="HEVC (High Efficiency Video Coding)" default_audio="1">
   <metaproperty tool="" name="meta.attr.0.stream.handler_name">VideoHandler</metaproperty>
   <metaproperty tool="" name="meta.attr.1.stream.handler_name">SoundHandler</metaproperty>
   <metaproperty tool="" name="meta.attr.compatible_brands">isomiso2mp41</metaproperty>
   <metaproperty tool="" name="meta.attr.encoder">Lavf56.36.100</metaproperty>
   <metaproperty tool="" name="meta.attr.major_brand">isom</metaproperty>
   <metaproperty tool="" name="meta.attr.minor_version">512</metaproperty>
  </kdenlive_producer>
  <kdenlive_producer video_max="0" file_size="735486" videocodecid="hevc" duration="426" name="6.mp4" fps="15" colorspace="709" resource="/home/alex/Videos/Projects/小白也能轻松学会的Galgame制作/第7讲 攻略有难度/2P/original/6.mp4" type="3" progressive="1" aspect_ratio="1" default_video="0" id="15" file_hash="12c762b19eae412a833a39e245bfa182" frequency="22050" frame_size="1600x896" audiocodec="AAC (Advanced Audio Coding)" pix_fmt="yuv420p" analysisdata="" audio_max="30" channels="1" videocodec="HEVC (High Efficiency Video Coding)" default_audio="1">
   <metaproperty tool="" name="meta.attr.0.stream.handler_name">VideoHandler</metaproperty>
   <metaproperty tool="" name="meta.attr.1.stream.handler_name">SoundHandler</metaproperty>
   <metaproperty tool="" name="meta.attr.compatible_brands">isomiso2mp41</metaproperty>
   <metaproperty tool="" name="meta.attr.encoder">Lavf56.36.100</metaproperty>
   <metaproperty tool="" name="meta.attr.major_brand">isom</metaproperty>
   <metaproperty tool="" name="meta.attr.minor_version">512</metaproperty>
  </kdenlive_producer>
  <kdenlive_producer video_max="0" file_size="2844704" videocodecid="hevc" duration="1347" name="7.mp4" fps="15" colorspace="709" resource="/home/alex/Videos/Projects/小白也能轻松学会的Galgame制作/第7讲 攻略有难度/2P/original/7.mp4" type="3" progressive="1" aspect_ratio="1" default_video="0" id="16" file_hash="f0d5d626debf6f77a216dcd9db4f3c21" frequency="22050" frame_size="1600x896" audiocodec="AAC (Advanced Audio Coding)" pix_fmt="yuv420p" analysisdata="" audio_max="35" channels="1" videocodec="HEVC (High Efficiency Video Coding)" default_audio="1">
   <metaproperty tool="" name="meta.attr.0.stream.handler_name">VideoHandler</metaproperty>
   <metaproperty tool="" name="meta.attr.1.stream.handler_name">SoundHandler</metaproperty>
   <metaproperty tool="" name="meta.attr.compatible_brands">isomiso2mp41</metaproperty>
   <metaproperty tool="" name="meta.attr.encoder">Lavf56.36.100</metaproperty>
   <metaproperty tool="" name="meta.attr.major_brand">isom</metaproperty>
   <metaproperty tool="" name="meta.attr.minor_version">512</metaproperty>
  </kdenlive_producer>
  <kdenlive_producer video_max="0" file_size="1050726" videocodecid="hevc" duration="697" name="9.mp4" fps="15" colorspace="709" resource="/home/alex/Videos/Projects/小白也能轻松学会的Galgame制作/第7讲 攻略有难度/2P/original/9.mp4" type="3" progressive="1" aspect_ratio="1" default_video="0" id="17" file_hash="598f42143ec4b8feab88895bc8d06fb3" frequency="22050" frame_size="1600x896" audiocodec="AAC (Advanced Audio Coding)" pix_fmt="yuv420p" analysisdata="" audio_max="35" channels="1" videocodec="HEVC (High Efficiency Video Coding)" default_audio="1">
   <metaproperty tool="" name="meta.attr.0.stream.handler_name">VideoHandler</metaproperty>
   <metaproperty tool="" name="meta.attr.1.stream.handler_name">SoundHandler</metaproperty>
   <metaproperty tool="" name="meta.attr.compatible_brands">isomiso2mp41</metaproperty>
   <metaproperty tool="" name="meta.attr.encoder">Lavf56.36.100</metaproperty>
   <metaproperty tool="" name="meta.attr.major_brand">isom</metaproperty>
   <metaproperty tool="" name="meta.attr.minor_version">512</metaproperty>
  </kdenlive_producer>
  <markers/>
  <groups/>
 </kdenlivedoc>
</mlt>
