<?xml version='1.0' encoding='utf-8'?>
<mlt LC_NUMERIC="en_AU.UTF-8" version="0.9.6" root="/run/media/alex/SBPD/Video/Projects/小白也能轻松学会的Galgame制作/第7讲 攻略有难度/2P" title="Anonymous Submission">
 <profile display_aspect_num="16" colorspace="709" description="HD 720p 15 fps" progressive="1" sample_aspect_num="1" display_aspect_den="9" height="720" frame_rate_num="15" width="1280" sample_aspect_den="1" frame_rate_den="1"/>
 <producer out="500" id="black" in="0">
  <property name="mlt_type">producer</property>
  <property name="length">15000</property>
  <property name="eof">pause</property>
  <property name="resource">black</property>
  <property name="aspect_ratio">0</property>
  <property name="mlt_service">colour</property>
 </producer>
 <playlist id="black_track">
  <entry out="9676" in="0" producer="black"/>
 </playlist>
 <producer out="781" id="13_2_audio" in="0" title="Anonymous Submission">
  <property name="mlt_type">producer</property>
  <property name="length">782</property>
  <property name="eof">pause</property>
  <property name="resource">/home/alex/Videos/Projects/小白也能轻松学会的Galgame制作/第7讲 攻略有难度/2P/original/3.mp4</property>
  <property name="meta.media.nb_streams">2</property>
  <property name="meta.media.0.stream.type">video</property>
  <property name="meta.media.0.stream.frame_rate">15</property>
  <property name="meta.media.0.stream.sample_aspect_ratio">0</property>
  <property name="meta.media.0.codec.width">1600</property>
  <property name="meta.media.0.codec.height">896</property>
  <property name="meta.media.0.codec.frame_rate">15</property>
  <property name="meta.media.0.codec.pix_fmt">yuv420p</property>
  <property name="meta.media.0.codec.sample_aspect_ratio">1</property>
  <property name="meta.media.0.codec.colorspace">709</property>
  <property name="meta.media.0.codec.name">h264</property>
  <property name="meta.media.0.codec.long_name">H.264 / AVC / MPEG-4 AVC / MPEG-4 part 10</property>
  <property name="meta.media.0.codec.bit_rate">55126</property>
  <property name="meta.attr.0.stream.handler_name.markup">VideoHandler</property>
  <property name="meta.media.1.stream.type">audio</property>
  <property name="meta.media.1.codec.sample_fmt">fltp</property>
  <property name="meta.media.1.codec.sample_rate">22050</property>
  <property name="meta.media.1.codec.channels">1</property>
  <property name="meta.media.1.codec.name">aac</property>
  <property name="meta.media.1.codec.long_name">AAC (Advanced Audio Coding)</property>
  <property name="meta.media.1.codec.bit_rate">110392</property>
  <property name="meta.attr.1.stream.handler_name.markup">SoundHandler</property>
  <property name="meta.attr.major_brand.markup">isom</property>
  <property name="meta.attr.minor_version.markup">512</property>
  <property name="meta.attr.compatible_brands.markup">isomiso2avc1mp41</property>
  <property name="meta.attr.encoder.markup">Lavf56.36.100</property>
  <property name="seekable">1</property>
  <property name="meta.media.sample_aspect_num">1</property>
  <property name="meta.media.sample_aspect_den">1</property>
  <property name="aspect_ratio">1</property>
  <property name="audio_index">1</property>
  <property name="video_index">-1</property>
  <property name="mute_on_pause">1</property>
  <property name="mlt_service">avformat</property>
  <property name="global_feed">1</property>
  <property name="xml">was here</property>
 </producer>
 <producer out="909" id="7_2_audio" in="0" title="Anonymous Submission">
  <property name="mlt_type">producer</property>
  <property name="length">910</property>
  <property name="eof">pause</property>
  <property name="resource">/home/alex/Videos/Projects/小白也能轻松学会的Galgame制作/第7讲 攻略有难度/2P/original/15.mp4</property>
  <property name="meta.media.nb_streams">2</property>
  <property name="meta.media.0.stream.type">video</property>
  <property name="meta.media.0.stream.frame_rate">15</property>
  <property name="meta.media.0.stream.sample_aspect_ratio">0</property>
  <property name="meta.media.0.codec.width">1600</property>
  <property name="meta.media.0.codec.height">896</property>
  <property name="meta.media.0.codec.frame_rate">15</property>
  <property name="meta.media.0.codec.pix_fmt">yuv420p</property>
  <property name="meta.media.0.codec.sample_aspect_ratio">1</property>
  <property name="meta.media.0.codec.colorspace">709</property>
  <property name="meta.media.0.codec.name">hevc</property>
  <property name="meta.media.0.codec.long_name">HEVC (High Efficiency Video Coding)</property>
  <property name="meta.media.0.codec.bit_rate">161366</property>
  <property name="meta.attr.0.stream.handler_name.markup">VideoHandler</property>
  <property name="meta.media.1.stream.type">audio</property>
  <property name="meta.media.1.codec.sample_fmt">fltp</property>
  <property name="meta.media.1.codec.sample_rate">22050</property>
  <property name="meta.media.1.codec.channels">1</property>
  <property name="meta.media.1.codec.name">aac</property>
  <property name="meta.media.1.codec.long_name">AAC (Advanced Audio Coding)</property>
  <property name="meta.media.1.codec.bit_rate">109019</property>
  <property name="meta.attr.1.stream.handler_name.markup">SoundHandler</property>
  <property name="meta.attr.major_brand.markup">isom</property>
  <property name="meta.attr.minor_version.markup">512</property>
  <property name="meta.attr.compatible_brands.markup">isomiso2mp41</property>
  <property name="meta.attr.encoder.markup">Lavf56.36.100</property>
  <property name="seekable">1</property>
  <property name="meta.media.sample_aspect_num">1</property>
  <property name="meta.media.sample_aspect_den">1</property>
  <property name="aspect_ratio">1</property>
  <property name="audio_index">1</property>
  <property name="video_index">-1</property>
  <property name="mute_on_pause">1</property>
  <property name="mlt_service">avformat</property>
  <property name="global_feed">1</property>
  <property name="xml">was here</property>
 </producer>
 <producer out="286" id="10_2_audio" in="0" title="Anonymous Submission">
  <property name="mlt_type">producer</property>
  <property name="length">287</property>
  <property name="eof">pause</property>
  <property name="resource">/home/alex/Videos/Projects/小白也能轻松学会的Galgame制作/第7讲 攻略有难度/2P/original/18.mp4</property>
  <property name="meta.media.nb_streams">2</property>
  <property name="meta.media.0.stream.type">video</property>
  <property name="meta.media.0.stream.frame_rate">15</property>
  <property name="meta.media.0.stream.sample_aspect_ratio">0</property>
  <property name="meta.media.0.codec.width">1600</property>
  <property name="meta.media.0.codec.height">896</property>
  <property name="meta.media.0.codec.frame_rate">15</property>
  <property name="meta.media.0.codec.pix_fmt">yuv420p</property>
  <property name="meta.media.0.codec.sample_aspect_ratio">1</property>
  <property name="meta.media.0.codec.colorspace">709</property>
  <property name="meta.media.0.codec.name">hevc</property>
  <property name="meta.media.0.codec.long_name">HEVC (High Efficiency Video Coding)</property>
  <property name="meta.media.0.codec.bit_rate">113306</property>
  <property name="meta.attr.0.stream.handler_name.markup">VideoHandler</property>
  <property name="meta.media.1.stream.type">audio</property>
  <property name="meta.media.1.codec.sample_fmt">fltp</property>
  <property name="meta.media.1.codec.sample_rate">22050</property>
  <property name="meta.media.1.codec.channels">1</property>
  <property name="meta.media.1.codec.name">aac</property>
  <property name="meta.media.1.codec.long_name">AAC (Advanced Audio Coding)</property>
  <property name="meta.media.1.codec.bit_rate">108683</property>
  <property name="meta.attr.1.stream.handler_name.markup">SoundHandler</property>
  <property name="meta.attr.major_brand.markup">isom</property>
  <property name="meta.attr.minor_version.markup">512</property>
  <property name="meta.attr.compatible_brands.markup">isomiso2mp41</property>
  <property name="meta.attr.encoder.markup">Lavf56.36.100</property>
  <property name="seekable">1</property>
  <property name="meta.media.sample_aspect_num">1</property>
  <property name="meta.media.sample_aspect_den">1</property>
  <property name="aspect_ratio">1</property>
  <property name="audio_index">1</property>
  <property name="video_index">-1</property>
  <property name="mute_on_pause">1</property>
  <property name="mlt_service">avformat</property>
  <property name="global_feed">1</property>
  <property name="xml">was here</property>
 </producer>
 <producer out="464" id="11_2_audio" in="0" title="Anonymous Submission">
  <property name="mlt_type">producer</property>
  <property name="length">465</property>
  <property name="eof">pause</property>
  <property name="resource">/home/alex/Videos/Projects/小白也能轻松学会的Galgame制作/第7讲 攻略有难度/2P/original/19.mp4</property>
  <property name="meta.media.nb_streams">2</property>
  <property name="meta.media.0.stream.type">video</property>
  <property name="meta.media.0.stream.frame_rate">15</property>
  <property name="meta.media.0.stream.sample_aspect_ratio">0</property>
  <property name="meta.media.0.codec.width">1600</property>
  <property name="meta.media.0.codec.height">896</property>
  <property name="meta.media.0.codec.frame_rate">15</property>
  <property name="meta.media.0.codec.pix_fmt">yuv420p</property>
  <property name="meta.media.0.codec.sample_aspect_ratio">1</property>
  <property name="meta.media.0.codec.colorspace">709</property>
  <property name="meta.media.0.codec.name">hevc</property>
  <property name="meta.media.0.codec.long_name">HEVC (High Efficiency Video Coding)</property>
  <property name="meta.media.0.codec.bit_rate">263772</property>
  <property name="meta.attr.0.stream.handler_name.markup">VideoHandler</property>
  <property name="meta.media.1.stream.type">audio</property>
  <property name="meta.media.1.codec.sample_fmt">fltp</property>
  <property name="meta.media.1.codec.sample_rate">22050</property>
  <property name="meta.media.1.codec.channels">1</property>
  <property name="meta.media.1.codec.name">aac</property>
  <property name="meta.media.1.codec.long_name">AAC (Advanced Audio Coding)</property>
  <property name="meta.media.1.codec.bit_rate">108381</property>
  <property name="meta.attr.1.stream.handler_name.markup">SoundHandler</property>
  <property name="meta.attr.major_brand.markup">isom</property>
  <property name="meta.attr.minor_version.markup">512</property>
  <property name="meta.attr.compatible_brands.markup">isomiso2mp41</property>
  <property name="meta.attr.encoder.markup">Lavf56.36.100</property>
  <property name="seekable">1</property>
  <property name="meta.media.sample_aspect_num">1</property>
  <property name="meta.media.sample_aspect_den">1</property>
  <property name="aspect_ratio">1</property>
  <property name="audio_index">1</property>
  <property name="video_index">-1</property>
  <property name="mute_on_pause">1</property>
  <property name="mlt_service">avformat</property>
  <property name="global_feed">1</property>
  <property name="xml">was here</property>
 </producer>
 <playlist id="playlist1">
  <blank length="2166"/>
  <entry out="517" in="471" producer="13_2_audio"/>
  <blank length="5874"/>
  <entry out="251" in="223" producer="7_2_audio"/>
  <blank length="955"/>
  <entry out="93" in="11" producer="10_2_audio"/>
  <blank length="170"/>
  <entry out="144" in="65" producer="11_2_audio"/>
 </playlist>
 <producer out="1812" id="1_1" in="0" title="Anonymous Submission">
  <property name="mlt_type">mlt_producer</property>
  <property name="length">1813</property>
  <property name="eof">pause</property>
  <property name="resource">/home/alex/Videos/Projects/小白也能轻松学会的Galgame制作/第7讲 攻略有难度/2P/original/1.mp4</property>
  <property name="meta.media.nb_streams">2</property>
  <property name="meta.media.0.stream.type">video</property>
  <property name="meta.media.0.stream.frame_rate">15</property>
  <property name="meta.media.0.stream.sample_aspect_ratio">0</property>
  <property name="meta.media.0.codec.width">1600</property>
  <property name="meta.media.0.codec.height">896</property>
  <property name="meta.media.0.codec.frame_rate">15</property>
  <property name="meta.media.0.codec.pix_fmt">yuv420p</property>
  <property name="meta.media.0.codec.sample_aspect_ratio">1</property>
  <property name="meta.media.0.codec.colorspace">709</property>
  <property name="meta.media.0.codec.name">hevc</property>
  <property name="meta.media.0.codec.long_name">HEVC (High Efficiency Video Coding)</property>
  <property name="meta.media.0.codec.bit_rate">134465</property>
  <property name="meta.attr.0.stream.handler_name.markup">VideoHandler</property>
  <property name="meta.media.1.stream.type">audio</property>
  <property name="meta.media.1.codec.sample_fmt">fltp</property>
  <property name="meta.media.1.codec.sample_rate">22050</property>
  <property name="meta.media.1.codec.channels">1</property>
  <property name="meta.media.1.codec.name">aac</property>
  <property name="meta.media.1.codec.long_name">AAC (Advanced Audio Coding)</property>
  <property name="meta.media.1.codec.bit_rate">112432</property>
  <property name="meta.attr.1.stream.handler_name.markup">SoundHandler</property>
  <property name="meta.attr.major_brand.markup">isom</property>
  <property name="meta.attr.minor_version.markup">512</property>
  <property name="meta.attr.compatible_brands.markup">isomiso2mp41</property>
  <property name="meta.attr.encoder.markup">Lavf56.36.100</property>
  <property name="seekable">1</property>
  <property name="meta.media.sample_aspect_num">1</property>
  <property name="meta.media.sample_aspect_den">1</property>
  <property name="aspect_ratio">1</property>
  <property name="audio_index">1</property>
  <property name="video_index">0</property>
  <property name="mute_on_pause">1</property>
  <property name="mlt_service">avformat</property>
  <property name="global_feed">1</property>
  <property name="xml">was here</property>
  <property name="meta.media.frame_rate_num">15</property>
  <property name="meta.media.frame_rate_den">1</property>
  <property name="meta.media.colorspace">709</property>
  <property name="meta.media.color_trc">2</property>
  <property name="meta.media.width">1600</property>
  <property name="meta.media.height">896</property>
  <property name="meta.media.top_field_first">0</property>
  <property name="meta.media.progressive">1</property>
 </producer>
 <producer out="131" id="12_1" in="0" title="Anonymous Submission">
  <property name="mlt_type">producer</property>
  <property name="length">132</property>
  <property name="eof">pause</property>
  <property name="resource">/home/alex/Videos/Projects/小白也能轻松学会的Galgame制作/第7讲 攻略有难度/2P/original/2.mp4</property>
  <property name="meta.media.nb_streams">2</property>
  <property name="meta.media.0.stream.type">video</property>
  <property name="meta.media.0.stream.frame_rate">15</property>
  <property name="meta.media.0.stream.sample_aspect_ratio">0</property>
  <property name="meta.media.0.codec.width">1600</property>
  <property name="meta.media.0.codec.height">896</property>
  <property name="meta.media.0.codec.frame_rate">15</property>
  <property name="meta.media.0.codec.pix_fmt">yuv420p</property>
  <property name="meta.media.0.codec.sample_aspect_ratio">1</property>
  <property name="meta.media.0.codec.colorspace">709</property>
  <property name="meta.media.0.codec.name">hevc</property>
  <property name="meta.media.0.codec.long_name">HEVC (High Efficiency Video Coding)</property>
  <property name="meta.media.0.codec.bit_rate">61317</property>
  <property name="meta.attr.0.stream.handler_name.markup">VideoHandler</property>
  <property name="meta.media.1.stream.type">audio</property>
  <property name="meta.media.1.codec.sample_fmt">fltp</property>
  <property name="meta.media.1.codec.sample_rate">22050</property>
  <property name="meta.media.1.codec.channels">1</property>
  <property name="meta.media.1.codec.name">aac</property>
  <property name="meta.media.1.codec.long_name">AAC (Advanced Audio Coding)</property>
  <property name="meta.media.1.codec.bit_rate">108251</property>
  <property name="meta.attr.1.stream.handler_name.markup">SoundHandler</property>
  <property name="meta.attr.major_brand.markup">isom</property>
  <property name="meta.attr.minor_version.markup">512</property>
  <property name="meta.attr.compatible_brands.markup">isomiso2mp41</property>
  <property name="meta.attr.encoder.markup">Lavf56.36.100</property>
  <property name="seekable">1</property>
  <property name="meta.media.sample_aspect_num">1</property>
  <property name="meta.media.sample_aspect_den">1</property>
  <property name="aspect_ratio">1</property>
  <property name="audio_index">1</property>
  <property name="video_index">0</property>
  <property name="mute_on_pause">1</property>
  <property name="mlt_service">avformat</property>
  <property name="global_feed">1</property>
  <property name="xml">was here</property>
  <property name="meta.media.frame_rate_num">15</property>
  <property name="meta.media.frame_rate_den">1</property>
  <property name="meta.media.colorspace">709</property>
  <property name="meta.media.color_trc">2</property>
  <property name="meta.media.width">1600</property>
  <property name="meta.media.height">896</property>
  <property name="meta.media.top_field_first">0</property>
  <property name="meta.media.progressive">1</property>
 </producer>
 <producer out="781" id="13_1" in="0" title="Anonymous Submission">
  <property name="mlt_type">producer</property>
  <property name="length">782</property>
  <property name="eof">pause</property>
  <property name="resource">/home/alex/Videos/Projects/小白也能轻松学会的Galgame制作/第7讲 攻略有难度/2P/original/3.mp4</property>
  <property name="meta.media.nb_streams">2</property>
  <property name="meta.media.0.stream.type">video</property>
  <property name="meta.media.0.stream.frame_rate">15</property>
  <property name="meta.media.0.stream.sample_aspect_ratio">0</property>
  <property name="meta.media.0.codec.width">1600</property>
  <property name="meta.media.0.codec.height">896</property>
  <property name="meta.media.0.codec.frame_rate">15</property>
  <property name="meta.media.0.codec.pix_fmt">yuv420p</property>
  <property name="meta.media.0.codec.sample_aspect_ratio">1</property>
  <property name="meta.media.0.codec.colorspace">709</property>
  <property name="meta.media.0.codec.name">h264</property>
  <property name="meta.media.0.codec.long_name">H.264 / AVC / MPEG-4 AVC / MPEG-4 part 10</property>
  <property name="meta.media.0.codec.bit_rate">55126</property>
  <property name="meta.attr.0.stream.handler_name.markup">VideoHandler</property>
  <property name="meta.media.1.stream.type">audio</property>
  <property name="meta.media.1.codec.sample_fmt">fltp</property>
  <property name="meta.media.1.codec.sample_rate">22050</property>
  <property name="meta.media.1.codec.channels">1</property>
  <property name="meta.media.1.codec.name">aac</property>
  <property name="meta.media.1.codec.long_name">AAC (Advanced Audio Coding)</property>
  <property name="meta.media.1.codec.bit_rate">110392</property>
  <property name="meta.attr.1.stream.handler_name.markup">SoundHandler</property>
  <property name="meta.attr.major_brand.markup">isom</property>
  <property name="meta.attr.minor_version.markup">512</property>
  <property name="meta.attr.compatible_brands.markup">isomiso2avc1mp41</property>
  <property name="meta.attr.encoder.markup">Lavf56.36.100</property>
  <property name="seekable">1</property>
  <property name="meta.media.sample_aspect_num">1</property>
  <property name="meta.media.sample_aspect_den">1</property>
  <property name="aspect_ratio">1</property>
  <property name="audio_index">1</property>
  <property name="video_index">0</property>
  <property name="mute_on_pause">1</property>
  <property name="mlt_service">avformat</property>
  <property name="global_feed">1</property>
  <property name="xml">was here</property>
  <property name="meta.media.frame_rate_num">15</property>
  <property name="meta.media.frame_rate_den">1</property>
  <property name="meta.media.colorspace">709</property>
  <property name="meta.media.color_trc">2</property>
  <property name="meta.media.width">1600</property>
  <property name="meta.media.height">896</property>
  <property name="meta.media.top_field_first">0</property>
  <property name="meta.media.progressive">1</property>
 </producer>
 <producer out="781" id="13_2_video" in="0" title="Anonymous Submission">
  <property name="mlt_type">producer</property>
  <property name="length">782</property>
  <property name="eof">pause</property>
  <property name="resource">/home/alex/Videos/Projects/小白也能轻松学会的Galgame制作/第7讲 攻略有难度/2P/original/3.mp4</property>
  <property name="meta.media.nb_streams">2</property>
  <property name="meta.media.0.stream.type">video</property>
  <property name="meta.media.0.stream.frame_rate">15</property>
  <property name="meta.media.0.stream.sample_aspect_ratio">0</property>
  <property name="meta.media.0.codec.width">1600</property>
  <property name="meta.media.0.codec.height">896</property>
  <property name="meta.media.0.codec.frame_rate">15</property>
  <property name="meta.media.0.codec.pix_fmt">yuv420p</property>
  <property name="meta.media.0.codec.sample_aspect_ratio">1</property>
  <property name="meta.media.0.codec.colorspace">709</property>
  <property name="meta.media.0.codec.name">h264</property>
  <property name="meta.media.0.codec.long_name">H.264 / AVC / MPEG-4 AVC / MPEG-4 part 10</property>
  <property name="meta.media.0.codec.bit_rate">55126</property>
  <property name="meta.attr.0.stream.handler_name.markup">VideoHandler</property>
  <property name="meta.media.1.stream.type">audio</property>
  <property name="meta.media.1.codec.sample_fmt">fltp</property>
  <property name="meta.media.1.codec.sample_rate">22050</property>
  <property name="meta.media.1.codec.channels">1</property>
  <property name="meta.media.1.codec.name">aac</property>
  <property name="meta.media.1.codec.long_name">AAC (Advanced Audio Coding)</property>
  <property name="meta.media.1.codec.bit_rate">110392</property>
  <property name="meta.attr.1.stream.handler_name.markup">SoundHandler</property>
  <property name="meta.attr.major_brand.markup">isom</property>
  <property name="meta.attr.minor_version.markup">512</property>
  <property name="meta.attr.compatible_brands.markup">isomiso2avc1mp41</property>
  <property name="meta.attr.encoder.markup">Lavf56.36.100</property>
  <property name="seekable">1</property>
  <property name="meta.media.sample_aspect_num">1</property>
  <property name="meta.media.sample_aspect_den">1</property>
  <property name="aspect_ratio">1</property>
  <property name="audio_index">-1</property>
  <property name="video_index">0</property>
  <property name="mute_on_pause">1</property>
  <property name="mlt_service">avformat</property>
  <property name="global_feed">1</property>
  <property name="xml">was here</property>
  <property name="meta.media.frame_rate_num">15</property>
  <property name="meta.media.frame_rate_den">1</property>
  <property name="meta.media.colorspace">709</property>
  <property name="meta.media.color_trc">2</property>
  <property name="meta.media.width">1600</property>
  <property name="meta.media.height">896</property>
  <property name="meta.media.top_field_first">0</property>
  <property name="meta.media.progressive">1</property>
 </producer>
 <producer out="1092" id="14_1" in="0" title="Anonymous Submission">
  <property name="mlt_type">producer</property>
  <property name="length">1093</property>
  <property name="eof">pause</property>
  <property name="resource">/home/alex/Videos/Projects/小白也能轻松学会的Galgame制作/第7讲 攻略有难度/2P/original/4.mp4</property>
  <property name="meta.media.nb_streams">2</property>
  <property name="meta.media.0.stream.type">video</property>
  <property name="meta.media.0.stream.frame_rate">15</property>
  <property name="meta.media.0.stream.sample_aspect_ratio">0</property>
  <property name="meta.media.0.codec.width">1600</property>
  <property name="meta.media.0.codec.height">896</property>
  <property name="meta.media.0.codec.frame_rate">15</property>
  <property name="meta.media.0.codec.pix_fmt">yuv420p</property>
  <property name="meta.media.0.codec.sample_aspect_ratio">1</property>
  <property name="meta.media.0.codec.colorspace">709</property>
  <property name="meta.media.0.codec.name">hevc</property>
  <property name="meta.media.0.codec.long_name">HEVC (High Efficiency Video Coding)</property>
  <property name="meta.media.0.codec.bit_rate">121084</property>
  <property name="meta.attr.0.stream.handler_name.markup">VideoHandler</property>
  <property name="meta.media.1.stream.type">audio</property>
  <property name="meta.media.1.codec.sample_fmt">fltp</property>
  <property name="meta.media.1.codec.sample_rate">22050</property>
  <property name="meta.media.1.codec.channels">1</property>
  <property name="meta.media.1.codec.name">aac</property>
  <property name="meta.media.1.codec.long_name">AAC (Advanced Audio Coding)</property>
  <property name="meta.media.1.codec.bit_rate">109235</property>
  <property name="meta.attr.1.stream.handler_name.markup">SoundHandler</property>
  <property name="meta.attr.major_brand.markup">isom</property>
  <property name="meta.attr.minor_version.markup">512</property>
  <property name="meta.attr.compatible_brands.markup">isomiso2mp41</property>
  <property name="meta.attr.encoder.markup">Lavf56.36.100</property>
  <property name="seekable">1</property>
  <property name="meta.media.sample_aspect_num">1</property>
  <property name="meta.media.sample_aspect_den">1</property>
  <property name="aspect_ratio">1</property>
  <property name="audio_index">1</property>
  <property name="video_index">0</property>
  <property name="mute_on_pause">1</property>
  <property name="mlt_service">avformat</property>
  <property name="global_feed">1</property>
  <property name="xml">was here</property>
  <property name="meta.media.frame_rate_num">15</property>
  <property name="meta.media.frame_rate_den">1</property>
  <property name="meta.media.colorspace">709</property>
  <property name="meta.media.color_trc">2</property>
  <property name="meta.media.width">1600</property>
  <property name="meta.media.height">896</property>
  <property name="meta.media.top_field_first">0</property>
  <property name="meta.media.progressive">1</property>
 </producer>
 <producer out="74" id="18" in="0" title="Anonymous Submission">
  <property name="mlt_type">mlt_producer</property>
  <property name="length">75</property>
  <property name="eof">pause</property>
  <property name="resource">/home/alex/Videos/Projects/小白也能轻松学会的Galgame制作/第7讲 攻略有难度/2P/original/5/snapshot19.png</property>
  <property name="ttl">25</property>
  <property name="aspect_ratio">1</property>
  <property name="progressive">1</property>
  <property name="seekable">1</property>
  <property name="loop">1</property>
  <property name="meta.media.width">1600</property>
  <property name="meta.media.height">900</property>
  <property name="mlt_service">pixbuf</property>
  <property name="global_feed">1</property>
 </producer>
 <producer out="74" id="19" in="0" title="Anonymous Submission">
  <property name="mlt_type">mlt_producer</property>
  <property name="length">75</property>
  <property name="eof">pause</property>
  <property name="resource">/home/alex/Videos/Projects/小白也能轻松学会的Galgame制作/第7讲 攻略有难度/2P/original/5/snapshot20.png</property>
  <property name="ttl">25</property>
  <property name="aspect_ratio">1</property>
  <property name="progressive">1</property>
  <property name="seekable">1</property>
  <property name="loop">1</property>
  <property name="meta.media.width">1600</property>
  <property name="meta.media.height">900</property>
  <property name="mlt_service">pixbuf</property>
  <property name="global_feed">1</property>
 </producer>
 <producer out="74" id="20" in="0" title="Anonymous Submission">
  <property name="mlt_type">mlt_producer</property>
  <property name="length">75</property>
  <property name="eof">pause</property>
  <property name="resource">/home/alex/Videos/Projects/小白也能轻松学会的Galgame制作/第7讲 攻略有难度/2P/original/5/snapshot21.png</property>
  <property name="ttl">25</property>
  <property name="aspect_ratio">1</property>
  <property name="progressive">1</property>
  <property name="seekable">1</property>
  <property name="loop">1</property>
  <property name="meta.media.width">1600</property>
  <property name="meta.media.height">900</property>
  <property name="mlt_service">pixbuf</property>
  <property name="global_feed">1</property>
 </producer>
 <producer out="74" id="21" in="0" title="Anonymous Submission">
  <property name="mlt_type">mlt_producer</property>
  <property name="length">75</property>
  <property name="eof">pause</property>
  <property name="resource">/home/alex/Videos/Projects/小白也能轻松学会的Galgame制作/第7讲 攻略有难度/2P/original/5/snapshot22.png</property>
  <property name="ttl">25</property>
  <property name="aspect_ratio">1</property>
  <property name="progressive">1</property>
  <property name="seekable">1</property>
  <property name="loop">1</property>
  <property name="meta.media.width">1600</property>
  <property name="meta.media.height">900</property>
  <property name="mlt_service">pixbuf</property>
  <property name="global_feed">1</property>
 </producer>
 <producer out="74" id="22" in="0" title="Anonymous Submission">
  <property name="mlt_type">mlt_producer</property>
  <property name="length">75</property>
  <property name="eof">pause</property>
  <property name="resource">/home/alex/Videos/Projects/小白也能轻松学会的Galgame制作/第7讲 攻略有难度/2P/original/5/snapshot23.png</property>
  <property name="ttl">25</property>
  <property name="aspect_ratio">1</property>
  <property name="progressive">1</property>
  <property name="seekable">1</property>
  <property name="loop">1</property>
  <property name="meta.media.width">1600</property>
  <property name="meta.media.height">900</property>
  <property name="mlt_service">pixbuf</property>
  <property name="global_feed">1</property>
 </producer>
 <producer out="74" id="23" in="0" title="Anonymous Submission">
  <property name="mlt_type">mlt_producer</property>
  <property name="length">75</property>
  <property name="eof">pause</property>
  <property name="resource">/home/alex/Videos/Projects/小白也能轻松学会的Galgame制作/第7讲 攻略有难度/2P/original/5/snapshot24.png</property>
  <property name="ttl">25</property>
  <property name="aspect_ratio">1</property>
  <property name="progressive">1</property>
  <property name="seekable">1</property>
  <property name="loop">1</property>
  <property name="meta.media.width">1600</property>
  <property name="meta.media.height">900</property>
  <property name="mlt_service">pixbuf</property>
  <property name="global_feed">1</property>
 </producer>
 <producer out="74" id="24" in="0" title="Anonymous Submission">
  <property name="mlt_type">mlt_producer</property>
  <property name="length">75</property>
  <property name="eof">pause</property>
  <property name="resource">/home/alex/Videos/Projects/小白也能轻松学会的Galgame制作/第7讲 攻略有难度/2P/original/5/snapshot25.png</property>
  <property name="ttl">25</property>
  <property name="aspect_ratio">1</property>
  <property name="progressive">1</property>
  <property name="seekable">1</property>
  <property name="loop">1</property>
  <property name="meta.media.width">1600</property>
  <property name="meta.media.height">900</property>
  <property name="mlt_service">pixbuf</property>
  <property name="global_feed">1</property>
 </producer>
 <producer out="74" id="25" in="0" title="Anonymous Submission">
  <property name="mlt_type">mlt_producer</property>
  <property name="length">75</property>
  <property name="eof">pause</property>
  <property name="resource">/home/alex/Videos/Projects/小白也能轻松学会的Galgame制作/第7讲 攻略有难度/2P/original/5/snapshot26.png</property>
  <property name="ttl">25</property>
  <property name="aspect_ratio">1</property>
  <property name="progressive">1</property>
  <property name="seekable">1</property>
  <property name="loop">1</property>
  <property name="meta.media.width">1600</property>
  <property name="meta.media.height">900</property>
  <property name="mlt_service">pixbuf</property>
  <property name="global_feed">1</property>
 </producer>
 <producer out="74" id="26" in="0" title="Anonymous Submission">
  <property name="mlt_type">mlt_producer</property>
  <property name="length">75</property>
  <property name="eof">pause</property>
  <property name="resource">/home/alex/Videos/Projects/小白也能轻松学会的Galgame制作/第7讲 攻略有难度/2P/original/5/snapshot27.png</property>
  <property name="ttl">25</property>
  <property name="aspect_ratio">1</property>
  <property name="progressive">1</property>
  <property name="seekable">1</property>
  <property name="loop">1</property>
  <property name="meta.media.width">1600</property>
  <property name="meta.media.height">900</property>
  <property name="mlt_service">pixbuf</property>
  <property name="global_feed">1</property>
 </producer>
 <producer out="74" id="27" in="0" title="Anonymous Submission">
  <property name="mlt_type">mlt_producer</property>
  <property name="length">75</property>
  <property name="eof">pause</property>
  <property name="resource">/home/alex/Videos/Projects/小白也能轻松学会的Galgame制作/第7讲 攻略有难度/2P/original/5/snapshot28.png</property>
  <property name="ttl">25</property>
  <property name="aspect_ratio">1</property>
  <property name="progressive">1</property>
  <property name="seekable">1</property>
  <property name="loop">1</property>
  <property name="meta.media.width">1600</property>
  <property name="meta.media.height">900</property>
  <property name="mlt_service">pixbuf</property>
  <property name="global_feed">1</property>
 </producer>
 <producer out="74" id="28" in="0" title="Anonymous Submission">
  <property name="mlt_type">mlt_producer</property>
  <property name="length">75</property>
  <property name="eof">pause</property>
  <property name="resource">/home/alex/Videos/Projects/小白也能轻松学会的Galgame制作/第7讲 攻略有难度/2P/original/5/snapshot29.png</property>
  <property name="ttl">25</property>
  <property name="aspect_ratio">1</property>
  <property name="progressive">1</property>
  <property name="seekable">1</property>
  <property name="loop">1</property>
  <property name="meta.media.width">1600</property>
  <property name="meta.media.height">900</property>
  <property name="mlt_service">pixbuf</property>
  <property name="global_feed">1</property>
 </producer>
 <producer out="74" id="29" in="0" title="Anonymous Submission">
  <property name="mlt_type">mlt_producer</property>
  <property name="length">75</property>
  <property name="eof">pause</property>
  <property name="resource">/home/alex/Videos/Projects/小白也能轻松学会的Galgame制作/第7讲 攻略有难度/2P/original/5/snapshot30.png</property>
  <property name="ttl">25</property>
  <property name="aspect_ratio">1</property>
  <property name="progressive">1</property>
  <property name="seekable">1</property>
  <property name="loop">1</property>
  <property name="meta.media.width">1600</property>
  <property name="meta.media.height">900</property>
  <property name="mlt_service">pixbuf</property>
  <property name="global_feed">1</property>
 </producer>
 <producer out="74" id="30" in="0" title="Anonymous Submission">
  <property name="mlt_type">mlt_producer</property>
  <property name="length">75</property>
  <property name="eof">pause</property>
  <property name="resource">/home/alex/Videos/Projects/小白也能轻松学会的Galgame制作/第7讲 攻略有难度/2P/original/5/snapshot31.png</property>
  <property name="ttl">25</property>
  <property name="aspect_ratio">1</property>
  <property name="progressive">1</property>
  <property name="seekable">1</property>
  <property name="loop">1</property>
  <property name="meta.media.width">1600</property>
  <property name="meta.media.height">900</property>
  <property name="mlt_service">pixbuf</property>
  <property name="global_feed">1</property>
 </producer>
 <producer out="74" id="31" in="0" title="Anonymous Submission">
  <property name="mlt_type">mlt_producer</property>
  <property name="length">75</property>
  <property name="eof">pause</property>
  <property name="resource">/home/alex/Videos/Projects/小白也能轻松学会的Galgame制作/第7讲 攻略有难度/2P/original/5/snapshot32.png</property>
  <property name="ttl">25</property>
  <property name="aspect_ratio">1</property>
  <property name="progressive">1</property>
  <property name="seekable">1</property>
  <property name="loop">1</property>
  <property name="meta.media.width">1600</property>
  <property name="meta.media.height">900</property>
  <property name="mlt_service">pixbuf</property>
  <property name="global_feed">1</property>
 </producer>
 <producer out="74" id="32" in="0" title="Anonymous Submission">
  <property name="mlt_type">mlt_producer</property>
  <property name="length">75</property>
  <property name="eof">pause</property>
  <property name="resource">/home/alex/Videos/Projects/小白也能轻松学会的Galgame制作/第7讲 攻略有难度/2P/original/5/snapshot33.png</property>
  <property name="ttl">25</property>
  <property name="aspect_ratio">1</property>
  <property name="progressive">1</property>
  <property name="seekable">1</property>
  <property name="loop">1</property>
  <property name="meta.media.width">1600</property>
  <property name="meta.media.height">900</property>
  <property name="mlt_service">pixbuf</property>
  <property name="global_feed">1</property>
 </producer>
 <producer out="74" id="33" in="0" title="Anonymous Submission">
  <property name="mlt_type">mlt_producer</property>
  <property name="length">75</property>
  <property name="eof">pause</property>
  <property name="resource">/home/alex/Videos/Projects/小白也能轻松学会的Galgame制作/第7讲 攻略有难度/2P/original/5/snapshot34.png</property>
  <property name="ttl">25</property>
  <property name="aspect_ratio">1</property>
  <property name="progressive">1</property>
  <property name="seekable">1</property>
  <property name="loop">1</property>
  <property name="meta.media.width">1600</property>
  <property name="meta.media.height">900</property>
  <property name="mlt_service">pixbuf</property>
  <property name="global_feed">1</property>
 </producer>
 <producer out="74" id="34" in="0" title="Anonymous Submission">
  <property name="mlt_type">mlt_producer</property>
  <property name="length">75</property>
  <property name="eof">pause</property>
  <property name="resource">/home/alex/Videos/Projects/小白也能轻松学会的Galgame制作/第7讲 攻略有难度/2P/original/5/snapshot35.png</property>
  <property name="ttl">25</property>
  <property name="aspect_ratio">1</property>
  <property name="progressive">1</property>
  <property name="seekable">1</property>
  <property name="loop">1</property>
  <property name="meta.media.width">1600</property>
  <property name="meta.media.height">900</property>
  <property name="mlt_service">pixbuf</property>
  <property name="global_feed">1</property>
 </producer>
 <producer out="74" id="35" in="0" title="Anonymous Submission">
  <property name="mlt_type">mlt_producer</property>
  <property name="length">75</property>
  <property name="eof">pause</property>
  <property name="resource">/home/alex/Videos/Projects/小白也能轻松学会的Galgame制作/第7讲 攻略有难度/2P/original/5/snapshot36.png</property>
  <property name="ttl">25</property>
  <property name="aspect_ratio">1</property>
  <property name="progressive">1</property>
  <property name="seekable">1</property>
  <property name="loop">1</property>
  <property name="meta.media.width">1600</property>
  <property name="meta.media.height">900</property>
  <property name="mlt_service">pixbuf</property>
  <property name="global_feed">1</property>
 </producer>
 <producer out="74" id="36" in="0" title="Anonymous Submission">
  <property name="mlt_type">mlt_producer</property>
  <property name="length">75</property>
  <property name="eof">pause</property>
  <property name="resource">/home/alex/Videos/Projects/小白也能轻松学会的Galgame制作/第7讲 攻略有难度/2P/original/5/snapshot37.png</property>
  <property name="ttl">25</property>
  <property name="aspect_ratio">1</property>
  <property name="progressive">1</property>
  <property name="seekable">1</property>
  <property name="loop">1</property>
  <property name="meta.media.width">1600</property>
  <property name="meta.media.height">900</property>
  <property name="mlt_service">pixbuf</property>
  <property name="global_feed">1</property>
 </producer>
 <producer out="74" id="37" in="0" title="Anonymous Submission">
  <property name="mlt_type">mlt_producer</property>
  <property name="length">75</property>
  <property name="eof">pause</property>
  <property name="resource">/home/alex/Videos/Projects/小白也能轻松学会的Galgame制作/第7讲 攻略有难度/2P/original/5/snapshot38.png</property>
  <property name="ttl">25</property>
  <property name="aspect_ratio">1</property>
  <property name="progressive">1</property>
  <property name="seekable">1</property>
  <property name="loop">1</property>
  <property name="meta.media.width">1600</property>
  <property name="meta.media.height">900</property>
  <property name="mlt_service">pixbuf</property>
  <property name="global_feed">1</property>
 </producer>
 <producer out="74" id="38" in="0" title="Anonymous Submission">
  <property name="mlt_type">mlt_producer</property>
  <property name="length">75</property>
  <property name="eof">pause</property>
  <property name="resource">/home/alex/Videos/Projects/小白也能轻松学会的Galgame制作/第7讲 攻略有难度/2P/original/5/snapshot39.png</property>
  <property name="ttl">25</property>
  <property name="aspect_ratio">1</property>
  <property name="progressive">1</property>
  <property name="seekable">1</property>
  <property name="loop">1</property>
  <property name="meta.media.width">1600</property>
  <property name="meta.media.height">900</property>
  <property name="mlt_service">pixbuf</property>
  <property name="global_feed">1</property>
 </producer>
 <producer out="74" id="39" in="0" title="Anonymous Submission">
  <property name="mlt_type">mlt_producer</property>
  <property name="length">75</property>
  <property name="eof">pause</property>
  <property name="resource">/home/alex/Videos/Projects/小白也能轻松学会的Galgame制作/第7讲 攻略有难度/2P/original/5/snapshot40.png</property>
  <property name="ttl">25</property>
  <property name="aspect_ratio">1</property>
  <property name="progressive">1</property>
  <property name="seekable">1</property>
  <property name="loop">1</property>
  <property name="meta.media.width">1600</property>
  <property name="meta.media.height">900</property>
  <property name="mlt_service">pixbuf</property>
  <property name="global_feed">1</property>
 </producer>
 <producer out="74" id="40" in="0" title="Anonymous Submission">
  <property name="mlt_type">mlt_producer</property>
  <property name="length">75</property>
  <property name="eof">pause</property>
  <property name="resource">/home/alex/Videos/Projects/小白也能轻松学会的Galgame制作/第7讲 攻略有难度/2P/original/5/snapshot41.png</property>
  <property name="ttl">25</property>
  <property name="aspect_ratio">1</property>
  <property name="progressive">1</property>
  <property name="seekable">1</property>
  <property name="loop">1</property>
  <property name="meta.media.width">1600</property>
  <property name="meta.media.height">900</property>
  <property name="mlt_service">pixbuf</property>
  <property name="global_feed">1</property>
 </producer>
 <producer out="74" id="41" in="0" title="Anonymous Submission">
  <property name="mlt_type">mlt_producer</property>
  <property name="length">75</property>
  <property name="eof">pause</property>
  <property name="resource">/home/alex/Videos/Projects/小白也能轻松学会的Galgame制作/第7讲 攻略有难度/2P/original/5/snapshot42.png</property>
  <property name="ttl">25</property>
  <property name="aspect_ratio">1</property>
  <property name="progressive">1</property>
  <property name="seekable">1</property>
  <property name="loop">1</property>
  <property name="meta.media.width">1600</property>
  <property name="meta.media.height">900</property>
  <property name="mlt_service">pixbuf</property>
  <property name="global_feed">1</property>
 </producer>
 <producer out="74" id="42" in="0" title="Anonymous Submission">
  <property name="mlt_type">mlt_producer</property>
  <property name="length">75</property>
  <property name="eof">pause</property>
  <property name="resource">/home/alex/Videos/Projects/小白也能轻松学会的Galgame制作/第7讲 攻略有难度/2P/original/5/snapshot43.png</property>
  <property name="ttl">25</property>
  <property name="aspect_ratio">1</property>
  <property name="progressive">1</property>
  <property name="seekable">1</property>
  <property name="loop">1</property>
  <property name="meta.media.width">1600</property>
  <property name="meta.media.height">900</property>
  <property name="mlt_service">pixbuf</property>
  <property name="global_feed">1</property>
 </producer>
 <producer out="74" id="43" in="0" title="Anonymous Submission">
  <property name="mlt_type">mlt_producer</property>
  <property name="length">75</property>
  <property name="eof">pause</property>
  <property name="resource">/home/alex/Videos/Projects/小白也能轻松学会的Galgame制作/第7讲 攻略有难度/2P/original/5/snapshot44.png</property>
  <property name="ttl">25</property>
  <property name="aspect_ratio">1</property>
  <property name="progressive">1</property>
  <property name="seekable">1</property>
  <property name="loop">1</property>
  <property name="meta.media.width">1600</property>
  <property name="meta.media.height">900</property>
  <property name="mlt_service">pixbuf</property>
  <property name="global_feed">1</property>
 </producer>
 <producer out="74" id="44" in="0" title="Anonymous Submission">
  <property name="mlt_type">mlt_producer</property>
  <property name="length">75</property>
  <property name="eof">pause</property>
  <property name="resource">/home/alex/Videos/Projects/小白也能轻松学会的Galgame制作/第7讲 攻略有难度/2P/original/5/snapshot45.png</property>
  <property name="ttl">25</property>
  <property name="aspect_ratio">1</property>
  <property name="progressive">1</property>
  <property name="seekable">1</property>
  <property name="loop">1</property>
  <property name="meta.media.width">1600</property>
  <property name="meta.media.height">900</property>
  <property name="mlt_service">pixbuf</property>
  <property name="global_feed">1</property>
 </producer>
 <producer out="74" id="45" in="0" title="Anonymous Submission">
  <property name="mlt_type">mlt_producer</property>
  <property name="length">75</property>
  <property name="eof">pause</property>
  <property name="resource">/home/alex/Videos/Projects/小白也能轻松学会的Galgame制作/第7讲 攻略有难度/2P/original/5/snapshot46.png</property>
  <property name="ttl">25</property>
  <property name="aspect_ratio">1</property>
  <property name="progressive">1</property>
  <property name="seekable">1</property>
  <property name="loop">1</property>
  <property name="meta.media.width">1600</property>
  <property name="meta.media.height">900</property>
  <property name="mlt_service">pixbuf</property>
  <property name="global_feed">1</property>
 </producer>
 <producer out="74" id="46" in="0" title="Anonymous Submission">
  <property name="mlt_type">mlt_producer</property>
  <property name="length">75</property>
  <property name="eof">pause</property>
  <property name="resource">/home/alex/Videos/Projects/小白也能轻松学会的Galgame制作/第7讲 攻略有难度/2P/original/5/snapshot47.png</property>
  <property name="ttl">25</property>
  <property name="aspect_ratio">1</property>
  <property name="progressive">1</property>
  <property name="seekable">1</property>
  <property name="loop">1</property>
  <property name="meta.media.width">1600</property>
  <property name="meta.media.height">900</property>
  <property name="mlt_service">pixbuf</property>
  <property name="global_feed">1</property>
 </producer>
 <producer out="74" id="47" in="0" title="Anonymous Submission">
  <property name="mlt_type">mlt_producer</property>
  <property name="length">75</property>
  <property name="eof">pause</property>
  <property name="resource">/home/alex/Videos/Projects/小白也能轻松学会的Galgame制作/第7讲 攻略有难度/2P/original/5/snapshot48.png</property>
  <property name="ttl">25</property>
  <property name="aspect_ratio">1</property>
  <property name="progressive">1</property>
  <property name="seekable">1</property>
  <property name="loop">1</property>
  <property name="meta.media.width">1600</property>
  <property name="meta.media.height">900</property>
  <property name="mlt_service">pixbuf</property>
  <property name="global_feed">1</property>
 </producer>
 <producer out="425" id="15_1" in="0" title="Anonymous Submission">
  <property name="mlt_type">producer</property>
  <property name="length">426</property>
  <property name="eof">pause</property>
  <property name="resource">/home/alex/Videos/Projects/小白也能轻松学会的Galgame制作/第7讲 攻略有难度/2P/original/6.mp4</property>
  <property name="meta.media.nb_streams">2</property>
  <property name="meta.media.0.stream.type">video</property>
  <property name="meta.media.0.stream.frame_rate">15</property>
  <property name="meta.media.0.stream.sample_aspect_ratio">0</property>
  <property name="meta.media.0.codec.width">1600</property>
  <property name="meta.media.0.codec.height">896</property>
  <property name="meta.media.0.codec.frame_rate">15</property>
  <property name="meta.media.0.codec.pix_fmt">yuv420p</property>
  <property name="meta.media.0.codec.sample_aspect_ratio">1</property>
  <property name="meta.media.0.codec.colorspace">709</property>
  <property name="meta.media.0.codec.name">hevc</property>
  <property name="meta.media.0.codec.long_name">HEVC (High Efficiency Video Coding)</property>
  <property name="meta.media.0.codec.bit_rate">94396</property>
  <property name="meta.attr.0.stream.handler_name.markup">VideoHandler</property>
  <property name="meta.media.1.stream.type">audio</property>
  <property name="meta.media.1.codec.sample_fmt">fltp</property>
  <property name="meta.media.1.codec.sample_rate">22050</property>
  <property name="meta.media.1.codec.channels">1</property>
  <property name="meta.media.1.codec.name">aac</property>
  <property name="meta.media.1.codec.long_name">AAC (Advanced Audio Coding)</property>
  <property name="meta.media.1.codec.bit_rate">108985</property>
  <property name="meta.attr.1.stream.handler_name.markup">SoundHandler</property>
  <property name="meta.attr.major_brand.markup">isom</property>
  <property name="meta.attr.minor_version.markup">512</property>
  <property name="meta.attr.compatible_brands.markup">isomiso2mp41</property>
  <property name="meta.attr.encoder.markup">Lavf56.36.100</property>
  <property name="seekable">1</property>
  <property name="meta.media.sample_aspect_num">1</property>
  <property name="meta.media.sample_aspect_den">1</property>
  <property name="aspect_ratio">1</property>
  <property name="audio_index">1</property>
  <property name="video_index">0</property>
  <property name="mute_on_pause">1</property>
  <property name="mlt_service">avformat</property>
  <property name="global_feed">1</property>
  <property name="xml">was here</property>
  <property name="meta.media.frame_rate_num">15</property>
  <property name="meta.media.frame_rate_den">1</property>
  <property name="meta.media.colorspace">709</property>
  <property name="meta.media.color_trc">2</property>
  <property name="meta.media.width">1600</property>
  <property name="meta.media.height">896</property>
  <property name="meta.media.top_field_first">0</property>
  <property name="meta.media.progressive">1</property>
 </producer>
 <producer out="1346" id="16_1" in="0" title="Anonymous Submission">
  <property name="mlt_type">producer</property>
  <property name="length">1347</property>
  <property name="eof">pause</property>
  <property name="resource">/home/alex/Videos/Projects/小白也能轻松学会的Galgame制作/第7讲 攻略有难度/2P/original/7.mp4</property>
  <property name="meta.media.nb_streams">2</property>
  <property name="meta.media.0.stream.type">video</property>
  <property name="meta.media.0.stream.frame_rate">15</property>
  <property name="meta.media.0.stream.sample_aspect_ratio">0</property>
  <property name="meta.media.0.codec.width">1600</property>
  <property name="meta.media.0.codec.height">896</property>
  <property name="meta.media.0.codec.frame_rate">15</property>
  <property name="meta.media.0.codec.pix_fmt">yuv420p</property>
  <property name="meta.media.0.codec.sample_aspect_ratio">1</property>
  <property name="meta.media.0.codec.colorspace">709</property>
  <property name="meta.media.0.codec.name">hevc</property>
  <property name="meta.media.0.codec.long_name">HEVC (High Efficiency Video Coding)</property>
  <property name="meta.media.0.codec.bit_rate">139393</property>
  <property name="meta.attr.0.stream.handler_name.markup">VideoHandler</property>
  <property name="meta.media.1.stream.type">audio</property>
  <property name="meta.media.1.codec.sample_fmt">fltp</property>
  <property name="meta.media.1.codec.sample_rate">22050</property>
  <property name="meta.media.1.codec.channels">1</property>
  <property name="meta.media.1.codec.name">aac</property>
  <property name="meta.media.1.codec.long_name">AAC (Advanced Audio Coding)</property>
  <property name="meta.media.1.codec.bit_rate">109453</property>
  <property name="meta.attr.1.stream.handler_name.markup">SoundHandler</property>
  <property name="meta.attr.major_brand.markup">isom</property>
  <property name="meta.attr.minor_version.markup">512</property>
  <property name="meta.attr.compatible_brands.markup">isomiso2mp41</property>
  <property name="meta.attr.encoder.markup">Lavf56.36.100</property>
  <property name="seekable">1</property>
  <property name="meta.media.sample_aspect_num">1</property>
  <property name="meta.media.sample_aspect_den">1</property>
  <property name="aspect_ratio">1</property>
  <property name="audio_index">1</property>
  <property name="video_index">0</property>
  <property name="mute_on_pause">1</property>
  <property name="mlt_service">avformat</property>
  <property name="global_feed">1</property>
  <property name="xml">was here</property>
  <property name="meta.media.frame_rate_num">15</property>
  <property name="meta.media.frame_rate_den">1</property>
  <property name="meta.media.colorspace">709</property>
  <property name="meta.media.color_trc">2</property>
  <property name="meta.media.width">1600</property>
  <property name="meta.media.height">896</property>
  <property name="meta.media.top_field_first">0</property>
  <property name="meta.media.progressive">1</property>
 </producer>
 <producer out="133" id="slowmotion:16:10" in="0">
  <property name="mlt_type">producer</property>
  <property name="length">134</property>
  <property name="eof">pause</property>
  <property name="resource">/home/alex/Videos/Projects/小白也能轻松学会的Galgame制作/第7讲 攻略有难度/2P/original/7.mp4?10</property>
  <property name="aspect_ratio">1</property>
  <property name="mlt_service">framebuffer</property>
  <property name="strobe">1</property>
 </producer>
 <producer out="74" id="49" in="0" title="Anonymous Submission">
  <property name="mlt_type">mlt_producer</property>
  <property name="length">75</property>
  <property name="eof">pause</property>
  <property name="resource">/home/alex/Videos/Projects/小白也能轻松学会的Galgame制作/第7讲 攻略有难度/2P/original/8/snapshot50.png</property>
  <property name="ttl">25</property>
  <property name="aspect_ratio">1</property>
  <property name="progressive">1</property>
  <property name="seekable">1</property>
  <property name="loop">1</property>
  <property name="meta.media.width">1600</property>
  <property name="meta.media.height">900</property>
  <property name="mlt_service">pixbuf</property>
  <property name="global_feed">1</property>
 </producer>
 <producer out="74" id="50" in="0" title="Anonymous Submission">
  <property name="mlt_type">mlt_producer</property>
  <property name="length">75</property>
  <property name="eof">pause</property>
  <property name="resource">/home/alex/Videos/Projects/小白也能轻松学会的Galgame制作/第7讲 攻略有难度/2P/original/8/snapshot51.png</property>
  <property name="ttl">25</property>
  <property name="aspect_ratio">1</property>
  <property name="progressive">1</property>
  <property name="seekable">1</property>
  <property name="loop">1</property>
  <property name="meta.media.width">1600</property>
  <property name="meta.media.height">900</property>
  <property name="mlt_service">pixbuf</property>
  <property name="global_feed">1</property>
 </producer>
 <producer out="74" id="51" in="0" title="Anonymous Submission">
  <property name="mlt_type">mlt_producer</property>
  <property name="length">75</property>
  <property name="eof">pause</property>
  <property name="resource">/home/alex/Videos/Projects/小白也能轻松学会的Galgame制作/第7讲 攻略有难度/2P/original/8/snapshot52.png</property>
  <property name="ttl">25</property>
  <property name="aspect_ratio">1</property>
  <property name="progressive">1</property>
  <property name="seekable">1</property>
  <property name="loop">1</property>
  <property name="meta.media.width">1600</property>
  <property name="meta.media.height">900</property>
  <property name="mlt_service">pixbuf</property>
  <property name="global_feed">1</property>
 </producer>
 <producer out="74" id="52" in="0" title="Anonymous Submission">
  <property name="mlt_type">mlt_producer</property>
  <property name="length">75</property>
  <property name="eof">pause</property>
  <property name="resource">/home/alex/Videos/Projects/小白也能轻松学会的Galgame制作/第7讲 攻略有难度/2P/original/8/snapshot53.png</property>
  <property name="ttl">25</property>
  <property name="aspect_ratio">1</property>
  <property name="progressive">1</property>
  <property name="seekable">1</property>
  <property name="loop">1</property>
  <property name="meta.media.width">1600</property>
  <property name="meta.media.height">900</property>
  <property name="mlt_service">pixbuf</property>
  <property name="global_feed">1</property>
 </producer>
 <producer out="74" id="53" in="0" title="Anonymous Submission">
  <property name="mlt_type">mlt_producer</property>
  <property name="length">75</property>
  <property name="eof">pause</property>
  <property name="resource">/home/alex/Videos/Projects/小白也能轻松学会的Galgame制作/第7讲 攻略有难度/2P/original/8/snapshot54.png</property>
  <property name="ttl">25</property>
  <property name="aspect_ratio">1</property>
  <property name="progressive">1</property>
  <property name="seekable">1</property>
  <property name="loop">1</property>
  <property name="meta.media.width">1600</property>
  <property name="meta.media.height">900</property>
  <property name="mlt_service">pixbuf</property>
  <property name="global_feed">1</property>
 </producer>
 <producer out="74" id="54" in="0" title="Anonymous Submission">
  <property name="mlt_type">mlt_producer</property>
  <property name="length">75</property>
  <property name="eof">pause</property>
  <property name="resource">/home/alex/Videos/Projects/小白也能轻松学会的Galgame制作/第7讲 攻略有难度/2P/original/8/snapshot55.png</property>
  <property name="ttl">25</property>
  <property name="aspect_ratio">1</property>
  <property name="progressive">1</property>
  <property name="seekable">1</property>
  <property name="loop">1</property>
  <property name="meta.media.width">1600</property>
  <property name="meta.media.height">900</property>
  <property name="mlt_service">pixbuf</property>
  <property name="global_feed">1</property>
 </producer>
 <producer out="74" id="55" in="0" title="Anonymous Submission">
  <property name="mlt_type">mlt_producer</property>
  <property name="length">75</property>
  <property name="eof">pause</property>
  <property name="resource">/home/alex/Videos/Projects/小白也能轻松学会的Galgame制作/第7讲 攻略有难度/2P/original/8/snapshot56.png</property>
  <property name="ttl">25</property>
  <property name="aspect_ratio">1</property>
  <property name="progressive">1</property>
  <property name="seekable">1</property>
  <property name="loop">1</property>
  <property name="meta.media.width">1600</property>
  <property name="meta.media.height">900</property>
  <property name="mlt_service">pixbuf</property>
  <property name="global_feed">1</property>
 </producer>
 <producer out="74" id="56" in="0" title="Anonymous Submission">
  <property name="mlt_type">mlt_producer</property>
  <property name="length">75</property>
  <property name="eof">pause</property>
  <property name="resource">/home/alex/Videos/Projects/小白也能轻松学会的Galgame制作/第7讲 攻略有难度/2P/original/8/snapshot57.png</property>
  <property name="ttl">25</property>
  <property name="aspect_ratio">1</property>
  <property name="progressive">1</property>
  <property name="seekable">1</property>
  <property name="loop">1</property>
  <property name="meta.media.width">1600</property>
  <property name="meta.media.height">900</property>
  <property name="mlt_service">pixbuf</property>
  <property name="global_feed">1</property>
 </producer>
 <producer out="696" id="17_1" in="0" title="Anonymous Submission">
  <property name="mlt_type">producer</property>
  <property name="length">697</property>
  <property name="eof">pause</property>
  <property name="resource">/home/alex/Videos/Projects/小白也能轻松学会的Galgame制作/第7讲 攻略有难度/2P/original/9.mp4</property>
  <property name="meta.media.nb_streams">2</property>
  <property name="meta.media.0.stream.type">video</property>
  <property name="meta.media.0.stream.frame_rate">15</property>
  <property name="meta.media.0.stream.sample_aspect_ratio">0</property>
  <property name="meta.media.0.codec.width">1600</property>
  <property name="meta.media.0.codec.height">896</property>
  <property name="meta.media.0.codec.frame_rate">15</property>
  <property name="meta.media.0.codec.pix_fmt">yuv420p</property>
  <property name="meta.media.0.codec.sample_aspect_ratio">1</property>
  <property name="meta.media.0.codec.colorspace">709</property>
  <property name="meta.media.0.codec.name">hevc</property>
  <property name="meta.media.0.codec.long_name">HEVC (High Efficiency Video Coding)</property>
  <property name="meta.media.0.codec.bit_rate">66684</property>
  <property name="meta.attr.0.stream.handler_name.markup">VideoHandler</property>
  <property name="meta.media.1.stream.type">audio</property>
  <property name="meta.media.1.codec.sample_fmt">fltp</property>
  <property name="meta.media.1.codec.sample_rate">22050</property>
  <property name="meta.media.1.codec.channels">1</property>
  <property name="meta.media.1.codec.name">aac</property>
  <property name="meta.media.1.codec.long_name">AAC (Advanced Audio Coding)</property>
  <property name="meta.media.1.codec.bit_rate">109859</property>
  <property name="meta.attr.1.stream.handler_name.markup">SoundHandler</property>
  <property name="meta.attr.major_brand.markup">isom</property>
  <property name="meta.attr.minor_version.markup">512</property>
  <property name="meta.attr.compatible_brands.markup">isomiso2mp41</property>
  <property name="meta.attr.encoder.markup">Lavf56.36.100</property>
  <property name="seekable">1</property>
  <property name="meta.media.sample_aspect_num">1</property>
  <property name="meta.media.sample_aspect_den">1</property>
  <property name="aspect_ratio">1</property>
  <property name="audio_index">1</property>
  <property name="video_index">0</property>
  <property name="mute_on_pause">1</property>
  <property name="mlt_service">avformat</property>
  <property name="global_feed">1</property>
  <property name="xml">was here</property>
  <property name="meta.media.frame_rate_num">15</property>
  <property name="meta.media.frame_rate_den">1</property>
  <property name="meta.media.colorspace">709</property>
  <property name="meta.media.color_trc">2</property>
  <property name="meta.media.width">1600</property>
  <property name="meta.media.height">896</property>
  <property name="meta.media.top_field_first">0</property>
  <property name="meta.media.progressive">1</property>
 </producer>
 <producer out="744" id="2_1" in="0" title="Anonymous Submission">
  <property name="mlt_type">producer</property>
  <property name="length">745</property>
  <property name="eof">pause</property>
  <property name="resource">/home/alex/Videos/Projects/小白也能轻松学会的Galgame制作/第7讲 攻略有难度/2P/original/10.mp4</property>
  <property name="meta.media.nb_streams">2</property>
  <property name="meta.media.0.stream.type">video</property>
  <property name="meta.media.0.stream.frame_rate">15</property>
  <property name="meta.media.0.stream.sample_aspect_ratio">0</property>
  <property name="meta.media.0.codec.width">1600</property>
  <property name="meta.media.0.codec.height">896</property>
  <property name="meta.media.0.codec.frame_rate">15</property>
  <property name="meta.media.0.codec.pix_fmt">yuv420p</property>
  <property name="meta.media.0.codec.sample_aspect_ratio">1</property>
  <property name="meta.media.0.codec.colorspace">709</property>
  <property name="meta.media.0.codec.name">hevc</property>
  <property name="meta.media.0.codec.long_name">HEVC (High Efficiency Video Coding)</property>
  <property name="meta.media.0.codec.bit_rate">57800</property>
  <property name="meta.attr.0.stream.handler_name.markup">VideoHandler</property>
  <property name="meta.media.1.stream.type">audio</property>
  <property name="meta.media.1.codec.sample_fmt">fltp</property>
  <property name="meta.media.1.codec.sample_rate">22050</property>
  <property name="meta.media.1.codec.channels">1</property>
  <property name="meta.media.1.codec.name">aac</property>
  <property name="meta.media.1.codec.long_name">AAC (Advanced Audio Coding)</property>
  <property name="meta.media.1.codec.bit_rate">108274</property>
  <property name="meta.attr.1.stream.handler_name.markup">SoundHandler</property>
  <property name="meta.attr.major_brand.markup">isom</property>
  <property name="meta.attr.minor_version.markup">512</property>
  <property name="meta.attr.compatible_brands.markup">isomiso2mp41</property>
  <property name="meta.attr.encoder.markup">Lavf56.36.100</property>
  <property name="seekable">1</property>
  <property name="meta.media.sample_aspect_num">1</property>
  <property name="meta.media.sample_aspect_den">1</property>
  <property name="aspect_ratio">1</property>
  <property name="audio_index">1</property>
  <property name="video_index">0</property>
  <property name="mute_on_pause">1</property>
  <property name="mlt_service">avformat</property>
  <property name="global_feed">1</property>
  <property name="xml">was here</property>
  <property name="meta.media.frame_rate_num">15</property>
  <property name="meta.media.frame_rate_den">1</property>
  <property name="meta.media.colorspace">709</property>
  <property name="meta.media.color_trc">2</property>
  <property name="meta.media.width">1600</property>
  <property name="meta.media.height">896</property>
  <property name="meta.media.top_field_first">0</property>
  <property name="meta.media.progressive">1</property>
 </producer>
 <producer out="488" id="3_1" in="0" title="Anonymous Submission">
  <property name="mlt_type">producer</property>
  <property name="length">489</property>
  <property name="eof">pause</property>
  <property name="resource">/home/alex/Videos/Projects/小白也能轻松学会的Galgame制作/第7讲 攻略有难度/2P/original/11.mp4</property>
  <property name="meta.media.nb_streams">2</property>
  <property name="meta.media.0.stream.type">video</property>
  <property name="meta.media.0.stream.frame_rate">15</property>
  <property name="meta.media.0.stream.sample_aspect_ratio">0</property>
  <property name="meta.media.0.codec.width">1600</property>
  <property name="meta.media.0.codec.height">896</property>
  <property name="meta.media.0.codec.frame_rate">15</property>
  <property name="meta.media.0.codec.pix_fmt">yuv420p</property>
  <property name="meta.media.0.codec.sample_aspect_ratio">1</property>
  <property name="meta.media.0.codec.colorspace">709</property>
  <property name="meta.media.0.codec.name">hevc</property>
  <property name="meta.media.0.codec.long_name">HEVC (High Efficiency Video Coding)</property>
  <property name="meta.media.0.codec.bit_rate">61187</property>
  <property name="meta.attr.0.stream.handler_name.markup">VideoHandler</property>
  <property name="meta.media.1.stream.type">audio</property>
  <property name="meta.media.1.codec.sample_fmt">fltp</property>
  <property name="meta.media.1.codec.sample_rate">22050</property>
  <property name="meta.media.1.codec.channels">1</property>
  <property name="meta.media.1.codec.name">aac</property>
  <property name="meta.media.1.codec.long_name">AAC (Advanced Audio Coding)</property>
  <property name="meta.media.1.codec.bit_rate">109829</property>
  <property name="meta.attr.1.stream.handler_name.markup">SoundHandler</property>
  <property name="meta.attr.major_brand.markup">isom</property>
  <property name="meta.attr.minor_version.markup">512</property>
  <property name="meta.attr.compatible_brands.markup">isomiso2mp41</property>
  <property name="meta.attr.encoder.markup">Lavf56.36.100</property>
  <property name="seekable">1</property>
  <property name="meta.media.sample_aspect_num">1</property>
  <property name="meta.media.sample_aspect_den">1</property>
  <property name="aspect_ratio">1</property>
  <property name="audio_index">1</property>
  <property name="video_index">0</property>
  <property name="mute_on_pause">1</property>
  <property name="mlt_service">avformat</property>
  <property name="global_feed">1</property>
  <property name="xml">was here</property>
  <property name="meta.media.frame_rate_num">15</property>
  <property name="meta.media.frame_rate_den">1</property>
  <property name="meta.media.colorspace">709</property>
  <property name="meta.media.color_trc">2</property>
  <property name="meta.media.width">1600</property>
  <property name="meta.media.height">896</property>
  <property name="meta.media.top_field_first">0</property>
  <property name="meta.media.progressive">1</property>
 </producer>
 <producer out="482" id="4_1" in="0" title="Anonymous Submission">
  <property name="mlt_type">producer</property>
  <property name="length">483</property>
  <property name="eof">pause</property>
  <property name="resource">/home/alex/Videos/Projects/小白也能轻松学会的Galgame制作/第7讲 攻略有难度/2P/original/12.mp4</property>
  <property name="meta.media.nb_streams">2</property>
  <property name="meta.media.0.stream.type">video</property>
  <property name="meta.media.0.stream.frame_rate">15</property>
  <property name="meta.media.0.stream.sample_aspect_ratio">0</property>
  <property name="meta.media.0.codec.width">1600</property>
  <property name="meta.media.0.codec.height">896</property>
  <property name="meta.media.0.codec.frame_rate">15</property>
  <property name="meta.media.0.codec.pix_fmt">yuv420p</property>
  <property name="meta.media.0.codec.sample_aspect_ratio">1</property>
  <property name="meta.media.0.codec.colorspace">709</property>
  <property name="meta.media.0.codec.name">hevc</property>
  <property name="meta.media.0.codec.long_name">HEVC (High Efficiency Video Coding)</property>
  <property name="meta.media.0.codec.bit_rate">147479</property>
  <property name="meta.attr.0.stream.handler_name.markup">VideoHandler</property>
  <property name="meta.media.1.stream.type">audio</property>
  <property name="meta.media.1.codec.sample_fmt">fltp</property>
  <property name="meta.media.1.codec.sample_rate">22050</property>
  <property name="meta.media.1.codec.channels">1</property>
  <property name="meta.media.1.codec.name">aac</property>
  <property name="meta.media.1.codec.long_name">AAC (Advanced Audio Coding)</property>
  <property name="meta.media.1.codec.bit_rate">108433</property>
  <property name="meta.attr.1.stream.handler_name.markup">SoundHandler</property>
  <property name="meta.attr.major_brand.markup">isom</property>
  <property name="meta.attr.minor_version.markup">512</property>
  <property name="meta.attr.compatible_brands.markup">isomiso2mp41</property>
  <property name="meta.attr.encoder.markup">Lavf56.36.100</property>
  <property name="seekable">1</property>
  <property name="meta.media.sample_aspect_num">1</property>
  <property name="meta.media.sample_aspect_den">1</property>
  <property name="aspect_ratio">1</property>
  <property name="audio_index">1</property>
  <property name="video_index">0</property>
  <property name="mute_on_pause">1</property>
  <property name="mlt_service">avformat</property>
  <property name="global_feed">1</property>
  <property name="xml">was here</property>
  <property name="meta.media.frame_rate_num">15</property>
  <property name="meta.media.frame_rate_den">1</property>
  <property name="meta.media.colorspace">709</property>
  <property name="meta.media.color_trc">2</property>
  <property name="meta.media.width">1600</property>
  <property name="meta.media.height">896</property>
  <property name="meta.media.top_field_first">0</property>
  <property name="meta.media.progressive">1</property>
 </producer>
 <producer out="160" id="slowmotion:4:3" in="0">
  <property name="mlt_type">producer</property>
  <property name="length">161</property>
  <property name="eof">pause</property>
  <property name="resource">/home/alex/Videos/Projects/小白也能轻松学会的Galgame制作/第7讲 攻略有难度/2P/original/12.mp4?3</property>
  <property name="aspect_ratio">1</property>
  <property name="mlt_service">framebuffer</property>
 </producer>
 <producer out="1157" id="5_1" in="0" title="Anonymous Submission">
  <property name="mlt_type">producer</property>
  <property name="length">1158</property>
  <property name="eof">pause</property>
  <property name="resource">/home/alex/Videos/Projects/小白也能轻松学会的Galgame制作/第7讲 攻略有难度/2P/original/13.mp4</property>
  <property name="meta.media.nb_streams">2</property>
  <property name="meta.media.0.stream.type">video</property>
  <property name="meta.media.0.stream.frame_rate">15</property>
  <property name="meta.media.0.stream.sample_aspect_ratio">0</property>
  <property name="meta.media.0.codec.width">1600</property>
  <property name="meta.media.0.codec.height">896</property>
  <property name="meta.media.0.codec.frame_rate">15</property>
  <property name="meta.media.0.codec.pix_fmt">yuv420p</property>
  <property name="meta.media.0.codec.sample_aspect_ratio">1</property>
  <property name="meta.media.0.codec.colorspace">709</property>
  <property name="meta.media.0.codec.name">hevc</property>
  <property name="meta.media.0.codec.long_name">HEVC (High Efficiency Video Coding)</property>
  <property name="meta.media.0.codec.bit_rate">72488</property>
  <property name="meta.attr.0.stream.handler_name.markup">VideoHandler</property>
  <property name="meta.media.1.stream.type">audio</property>
  <property name="meta.media.1.codec.sample_fmt">fltp</property>
  <property name="meta.media.1.codec.sample_rate">22050</property>
  <property name="meta.media.1.codec.channels">1</property>
  <property name="meta.media.1.codec.name">aac</property>
  <property name="meta.media.1.codec.long_name">AAC (Advanced Audio Coding)</property>
  <property name="meta.media.1.codec.bit_rate">109500</property>
  <property name="meta.attr.1.stream.handler_name.markup">SoundHandler</property>
  <property name="meta.attr.major_brand.markup">isom</property>
  <property name="meta.attr.minor_version.markup">512</property>
  <property name="meta.attr.compatible_brands.markup">isomiso2mp41</property>
  <property name="meta.attr.encoder.markup">Lavf56.36.100</property>
  <property name="seekable">1</property>
  <property name="meta.media.sample_aspect_num">1</property>
  <property name="meta.media.sample_aspect_den">1</property>
  <property name="aspect_ratio">1</property>
  <property name="audio_index">1</property>
  <property name="video_index">0</property>
  <property name="mute_on_pause">1</property>
  <property name="mlt_service">avformat</property>
  <property name="global_feed">1</property>
  <property name="xml">was here</property>
  <property name="meta.media.frame_rate_num">15</property>
  <property name="meta.media.frame_rate_den">1</property>
  <property name="meta.media.colorspace">709</property>
  <property name="meta.media.color_trc">2</property>
  <property name="meta.media.width">1600</property>
  <property name="meta.media.height">896</property>
  <property name="meta.media.top_field_first">0</property>
  <property name="meta.media.progressive">1</property>
 </producer>
 <producer out="695" id="6_1" in="0" title="Anonymous Submission">
  <property name="mlt_type">producer</property>
  <property name="length">696</property>
  <property name="eof">pause</property>
  <property name="resource">/home/alex/Videos/Projects/小白也能轻松学会的Galgame制作/第7讲 攻略有难度/2P/original/14.mp4</property>
  <property name="meta.media.nb_streams">2</property>
  <property name="meta.media.0.stream.type">video</property>
  <property name="meta.media.0.stream.frame_rate">15</property>
  <property name="meta.media.0.stream.sample_aspect_ratio">0</property>
  <property name="meta.media.0.codec.width">1600</property>
  <property name="meta.media.0.codec.height">896</property>
  <property name="meta.media.0.codec.frame_rate">15</property>
  <property name="meta.media.0.codec.pix_fmt">yuv420p</property>
  <property name="meta.media.0.codec.sample_aspect_ratio">1</property>
  <property name="meta.media.0.codec.colorspace">709</property>
  <property name="meta.media.0.codec.name">hevc</property>
  <property name="meta.media.0.codec.long_name">HEVC (High Efficiency Video Coding)</property>
  <property name="meta.media.0.codec.bit_rate">56193</property>
  <property name="meta.attr.0.stream.handler_name.markup">VideoHandler</property>
  <property name="meta.media.1.stream.type">audio</property>
  <property name="meta.media.1.codec.sample_fmt">fltp</property>
  <property name="meta.media.1.codec.sample_rate">22050</property>
  <property name="meta.media.1.codec.channels">1</property>
  <property name="meta.media.1.codec.name">aac</property>
  <property name="meta.media.1.codec.long_name">AAC (Advanced Audio Coding)</property>
  <property name="meta.media.1.codec.bit_rate">108957</property>
  <property name="meta.attr.1.stream.handler_name.markup">SoundHandler</property>
  <property name="meta.attr.major_brand.markup">isom</property>
  <property name="meta.attr.minor_version.markup">512</property>
  <property name="meta.attr.compatible_brands.markup">isomiso2mp41</property>
  <property name="meta.attr.encoder.markup">Lavf56.36.100</property>
  <property name="seekable">1</property>
  <property name="meta.media.sample_aspect_num">1</property>
  <property name="meta.media.sample_aspect_den">1</property>
  <property name="aspect_ratio">1</property>
  <property name="audio_index">1</property>
  <property name="video_index">0</property>
  <property name="mute_on_pause">1</property>
  <property name="mlt_service">avformat</property>
  <property name="global_feed">1</property>
  <property name="xml">was here</property>
  <property name="meta.media.frame_rate_num">15</property>
  <property name="meta.media.frame_rate_den">1</property>
  <property name="meta.media.colorspace">709</property>
  <property name="meta.media.color_trc">2</property>
  <property name="meta.media.width">1600</property>
  <property name="meta.media.height">896</property>
  <property name="meta.media.top_field_first">0</property>
  <property name="meta.media.progressive">1</property>
 </producer>
 <producer out="909" id="7_1" in="0" title="Anonymous Submission">
  <property name="mlt_type">producer</property>
  <property name="length">910</property>
  <property name="eof">pause</property>
  <property name="resource">/home/alex/Videos/Projects/小白也能轻松学会的Galgame制作/第7讲 攻略有难度/2P/original/15.mp4</property>
  <property name="meta.media.nb_streams">2</property>
  <property name="meta.media.0.stream.type">video</property>
  <property name="meta.media.0.stream.frame_rate">15</property>
  <property name="meta.media.0.stream.sample_aspect_ratio">0</property>
  <property name="meta.media.0.codec.width">1600</property>
  <property name="meta.media.0.codec.height">896</property>
  <property name="meta.media.0.codec.frame_rate">15</property>
  <property name="meta.media.0.codec.pix_fmt">yuv420p</property>
  <property name="meta.media.0.codec.sample_aspect_ratio">1</property>
  <property name="meta.media.0.codec.colorspace">709</property>
  <property name="meta.media.0.codec.name">hevc</property>
  <property name="meta.media.0.codec.long_name">HEVC (High Efficiency Video Coding)</property>
  <property name="meta.media.0.codec.bit_rate">161366</property>
  <property name="meta.attr.0.stream.handler_name.markup">VideoHandler</property>
  <property name="meta.media.1.stream.type">audio</property>
  <property name="meta.media.1.codec.sample_fmt">fltp</property>
  <property name="meta.media.1.codec.sample_rate">22050</property>
  <property name="meta.media.1.codec.channels">1</property>
  <property name="meta.media.1.codec.name">aac</property>
  <property name="meta.media.1.codec.long_name">AAC (Advanced Audio Coding)</property>
  <property name="meta.media.1.codec.bit_rate">109019</property>
  <property name="meta.attr.1.stream.handler_name.markup">SoundHandler</property>
  <property name="meta.attr.major_brand.markup">isom</property>
  <property name="meta.attr.minor_version.markup">512</property>
  <property name="meta.attr.compatible_brands.markup">isomiso2mp41</property>
  <property name="meta.attr.encoder.markup">Lavf56.36.100</property>
  <property name="seekable">1</property>
  <property name="meta.media.sample_aspect_num">1</property>
  <property name="meta.media.sample_aspect_den">1</property>
  <property name="aspect_ratio">1</property>
  <property name="audio_index">1</property>
  <property name="video_index">0</property>
  <property name="mute_on_pause">1</property>
  <property name="mlt_service">avformat</property>
  <property name="global_feed">1</property>
  <property name="xml">was here</property>
  <property name="meta.media.frame_rate_num">15</property>
  <property name="meta.media.frame_rate_den">1</property>
  <property name="meta.media.colorspace">709</property>
  <property name="meta.media.color_trc">2</property>
  <property name="meta.media.width">1600</property>
  <property name="meta.media.height">896</property>
  <property name="meta.media.top_field_first">0</property>
  <property name="meta.media.progressive">1</property>
 </producer>
 <producer out="90" id="slowmotion:7_1_video:10" in="0">
  <property name="mlt_type">producer</property>
  <property name="length">91</property>
  <property name="eof">pause</property>
  <property name="resource">/home/alex/Videos/Projects/小白也能轻松学会的Galgame制作/第7讲 攻略有难度/2P/original/15.mp4?10</property>
  <property name="aspect_ratio">1</property>
  <property name="mlt_service">framebuffer</property>
 </producer>
 <producer out="909" id="7_2_video" in="0" title="Anonymous Submission">
  <property name="mlt_type">mlt_producer</property>
  <property name="length">910</property>
  <property name="eof">pause</property>
  <property name="resource">/home/alex/Videos/Projects/小白也能轻松学会的Galgame制作/第7讲 攻略有难度/2P/original/15.mp4</property>
  <property name="meta.media.nb_streams">2</property>
  <property name="meta.media.0.stream.type">video</property>
  <property name="meta.media.0.stream.frame_rate">15</property>
  <property name="meta.media.0.stream.sample_aspect_ratio">0</property>
  <property name="meta.media.0.codec.width">1600</property>
  <property name="meta.media.0.codec.height">896</property>
  <property name="meta.media.0.codec.frame_rate">15</property>
  <property name="meta.media.0.codec.pix_fmt">yuv420p</property>
  <property name="meta.media.0.codec.sample_aspect_ratio">1</property>
  <property name="meta.media.0.codec.colorspace">709</property>
  <property name="meta.media.0.codec.name">hevc</property>
  <property name="meta.media.0.codec.long_name">HEVC (High Efficiency Video Coding)</property>
  <property name="meta.media.0.codec.bit_rate">161366</property>
  <property name="meta.attr.0.stream.handler_name.markup">VideoHandler</property>
  <property name="meta.media.1.stream.type">audio</property>
  <property name="meta.media.1.codec.sample_fmt">fltp</property>
  <property name="meta.media.1.codec.sample_rate">22050</property>
  <property name="meta.media.1.codec.channels">1</property>
  <property name="meta.media.1.codec.name">aac</property>
  <property name="meta.media.1.codec.long_name">AAC (Advanced Audio Coding)</property>
  <property name="meta.media.1.codec.bit_rate">109019</property>
  <property name="meta.attr.1.stream.handler_name.markup">SoundHandler</property>
  <property name="meta.attr.major_brand.markup">isom</property>
  <property name="meta.attr.minor_version.markup">512</property>
  <property name="meta.attr.compatible_brands.markup">isomiso2mp41</property>
  <property name="meta.attr.encoder.markup">Lavf56.36.100</property>
  <property name="seekable">1</property>
  <property name="meta.media.sample_aspect_num">1</property>
  <property name="meta.media.sample_aspect_den">1</property>
  <property name="aspect_ratio">1</property>
  <property name="audio_index">-1</property>
  <property name="video_index">0</property>
  <property name="mute_on_pause">1</property>
  <property name="mlt_service">avformat</property>
  <property name="global_feed">1</property>
  <property name="xml">was here</property>
  <property name="meta.media.frame_rate_num">15</property>
  <property name="meta.media.frame_rate_den">1</property>
  <property name="meta.media.colorspace">709</property>
  <property name="meta.media.color_trc">2</property>
  <property name="meta.media.width">1600</property>
  <property name="meta.media.height">896</property>
  <property name="meta.media.top_field_first">0</property>
  <property name="meta.media.progressive">1</property>
 </producer>
 <producer out="216" id="8_1" in="0" title="Anonymous Submission">
  <property name="mlt_type">producer</property>
  <property name="length">217</property>
  <property name="eof">pause</property>
  <property name="resource">/home/alex/Videos/Projects/小白也能轻松学会的Galgame制作/第7讲 攻略有难度/2P/original/16.mp4</property>
  <property name="meta.media.nb_streams">2</property>
  <property name="meta.media.0.stream.type">video</property>
  <property name="meta.media.0.stream.frame_rate">15</property>
  <property name="meta.media.0.stream.sample_aspect_ratio">0</property>
  <property name="meta.media.0.codec.width">1600</property>
  <property name="meta.media.0.codec.height">896</property>
  <property name="meta.media.0.codec.frame_rate">15</property>
  <property name="meta.media.0.codec.pix_fmt">yuv420p</property>
  <property name="meta.media.0.codec.sample_aspect_ratio">1</property>
  <property name="meta.media.0.codec.colorspace">709</property>
  <property name="meta.media.0.codec.name">hevc</property>
  <property name="meta.media.0.codec.long_name">HEVC (High Efficiency Video Coding)</property>
  <property name="meta.media.0.codec.bit_rate">81223</property>
  <property name="meta.attr.0.stream.handler_name.markup">VideoHandler</property>
  <property name="meta.media.1.stream.type">audio</property>
  <property name="meta.media.1.codec.sample_fmt">fltp</property>
  <property name="meta.media.1.codec.sample_rate">22050</property>
  <property name="meta.media.1.codec.channels">1</property>
  <property name="meta.media.1.codec.name">aac</property>
  <property name="meta.media.1.codec.long_name">AAC (Advanced Audio Coding)</property>
  <property name="meta.media.1.codec.bit_rate">109069</property>
  <property name="meta.attr.1.stream.handler_name.markup">SoundHandler</property>
  <property name="meta.attr.major_brand.markup">isom</property>
  <property name="meta.attr.minor_version.markup">512</property>
  <property name="meta.attr.compatible_brands.markup">isomiso2mp41</property>
  <property name="meta.attr.encoder.markup">Lavf56.36.100</property>
  <property name="seekable">1</property>
  <property name="meta.media.sample_aspect_num">1</property>
  <property name="meta.media.sample_aspect_den">1</property>
  <property name="aspect_ratio">1</property>
  <property name="audio_index">1</property>
  <property name="video_index">0</property>
  <property name="mute_on_pause">1</property>
  <property name="mlt_service">avformat</property>
  <property name="global_feed">1</property>
  <property name="xml">was here</property>
  <property name="meta.media.frame_rate_num">15</property>
  <property name="meta.media.frame_rate_den">1</property>
  <property name="meta.media.colorspace">709</property>
  <property name="meta.media.color_trc">2</property>
  <property name="meta.media.width">1600</property>
  <property name="meta.media.height">896</property>
  <property name="meta.media.top_field_first">0</property>
  <property name="meta.media.progressive">1</property>
 </producer>
 <producer out="632" id="9_1" in="0" title="Anonymous Submission">
  <property name="mlt_type">producer</property>
  <property name="length">633</property>
  <property name="eof">pause</property>
  <property name="resource">/home/alex/Videos/Projects/小白也能轻松学会的Galgame制作/第7讲 攻略有难度/2P/original/17.mp4</property>
  <property name="meta.media.nb_streams">2</property>
  <property name="meta.media.0.stream.type">video</property>
  <property name="meta.media.0.stream.frame_rate">15</property>
  <property name="meta.media.0.stream.sample_aspect_ratio">0</property>
  <property name="meta.media.0.codec.width">1600</property>
  <property name="meta.media.0.codec.height">896</property>
  <property name="meta.media.0.codec.frame_rate">15</property>
  <property name="meta.media.0.codec.pix_fmt">yuv420p</property>
  <property name="meta.media.0.codec.sample_aspect_ratio">1</property>
  <property name="meta.media.0.codec.colorspace">709</property>
  <property name="meta.media.0.codec.name">hevc</property>
  <property name="meta.media.0.codec.long_name">HEVC (High Efficiency Video Coding)</property>
  <property name="meta.media.0.codec.bit_rate">59454</property>
  <property name="meta.attr.0.stream.handler_name.markup">VideoHandler</property>
  <property name="meta.media.1.stream.type">audio</property>
  <property name="meta.media.1.codec.sample_fmt">fltp</property>
  <property name="meta.media.1.codec.sample_rate">22050</property>
  <property name="meta.media.1.codec.channels">1</property>
  <property name="meta.media.1.codec.name">aac</property>
  <property name="meta.media.1.codec.long_name">AAC (Advanced Audio Coding)</property>
  <property name="meta.media.1.codec.bit_rate">108902</property>
  <property name="meta.attr.1.stream.handler_name.markup">SoundHandler</property>
  <property name="meta.attr.major_brand.markup">isom</property>
  <property name="meta.attr.minor_version.markup">512</property>
  <property name="meta.attr.compatible_brands.markup">isomiso2mp41</property>
  <property name="meta.attr.encoder.markup">Lavf56.36.100</property>
  <property name="seekable">1</property>
  <property name="meta.media.sample_aspect_num">1</property>
  <property name="meta.media.sample_aspect_den">1</property>
  <property name="aspect_ratio">1</property>
  <property name="audio_index">1</property>
  <property name="video_index">0</property>
  <property name="mute_on_pause">1</property>
  <property name="mlt_service">avformat</property>
  <property name="global_feed">1</property>
  <property name="xml">was here</property>
  <property name="meta.media.frame_rate_num">15</property>
  <property name="meta.media.frame_rate_den">1</property>
  <property name="meta.media.colorspace">709</property>
  <property name="meta.media.color_trc">2</property>
  <property name="meta.media.width">1600</property>
  <property name="meta.media.height">896</property>
  <property name="meta.media.top_field_first">0</property>
  <property name="meta.media.progressive">1</property>
 </producer>
 <producer out="286" id="10_2_video" in="0" title="Anonymous Submission">
  <property name="mlt_type">producer</property>
  <property name="length">287</property>
  <property name="eof">pause</property>
  <property name="resource">/home/alex/Videos/Projects/小白也能轻松学会的Galgame制作/第7讲 攻略有难度/2P/original/18.mp4</property>
  <property name="meta.media.nb_streams">2</property>
  <property name="meta.media.0.stream.type">video</property>
  <property name="meta.media.0.stream.frame_rate">15</property>
  <property name="meta.media.0.stream.sample_aspect_ratio">0</property>
  <property name="meta.media.0.codec.width">1600</property>
  <property name="meta.media.0.codec.height">896</property>
  <property name="meta.media.0.codec.frame_rate">15</property>
  <property name="meta.media.0.codec.pix_fmt">yuv420p</property>
  <property name="meta.media.0.codec.sample_aspect_ratio">1</property>
  <property name="meta.media.0.codec.colorspace">709</property>
  <property name="meta.media.0.codec.name">hevc</property>
  <property name="meta.media.0.codec.long_name">HEVC (High Efficiency Video Coding)</property>
  <property name="meta.media.0.codec.bit_rate">113306</property>
  <property name="meta.attr.0.stream.handler_name.markup">VideoHandler</property>
  <property name="meta.media.1.stream.type">audio</property>
  <property name="meta.media.1.codec.sample_fmt">fltp</property>
  <property name="meta.media.1.codec.sample_rate">22050</property>
  <property name="meta.media.1.codec.channels">1</property>
  <property name="meta.media.1.codec.name">aac</property>
  <property name="meta.media.1.codec.long_name">AAC (Advanced Audio Coding)</property>
  <property name="meta.media.1.codec.bit_rate">108683</property>
  <property name="meta.attr.1.stream.handler_name.markup">SoundHandler</property>
  <property name="meta.attr.major_brand.markup">isom</property>
  <property name="meta.attr.minor_version.markup">512</property>
  <property name="meta.attr.compatible_brands.markup">isomiso2mp41</property>
  <property name="meta.attr.encoder.markup">Lavf56.36.100</property>
  <property name="seekable">1</property>
  <property name="meta.media.sample_aspect_num">1</property>
  <property name="meta.media.sample_aspect_den">1</property>
  <property name="aspect_ratio">1</property>
  <property name="audio_index">-1</property>
  <property name="video_index">0</property>
  <property name="mute_on_pause">1</property>
  <property name="mlt_service">avformat</property>
  <property name="global_feed">1</property>
  <property name="xml">was here</property>
  <property name="meta.media.frame_rate_num">15</property>
  <property name="meta.media.frame_rate_den">1</property>
  <property name="meta.media.colorspace">709</property>
  <property name="meta.media.color_trc">2</property>
  <property name="meta.media.width">1600</property>
  <property name="meta.media.height">896</property>
  <property name="meta.media.top_field_first">0</property>
  <property name="meta.media.progressive">1</property>
 </producer>
 <producer out="286" id="10_1" in="0" title="Anonymous Submission">
  <property name="mlt_type">producer</property>
  <property name="length">287</property>
  <property name="eof">pause</property>
  <property name="resource">/home/alex/Videos/Projects/小白也能轻松学会的Galgame制作/第7讲 攻略有难度/2P/original/18.mp4</property>
  <property name="meta.media.nb_streams">2</property>
  <property name="meta.media.0.stream.type">video</property>
  <property name="meta.media.0.stream.frame_rate">15</property>
  <property name="meta.media.0.stream.sample_aspect_ratio">0</property>
  <property name="meta.media.0.codec.width">1600</property>
  <property name="meta.media.0.codec.height">896</property>
  <property name="meta.media.0.codec.frame_rate">15</property>
  <property name="meta.media.0.codec.pix_fmt">yuv420p</property>
  <property name="meta.media.0.codec.sample_aspect_ratio">1</property>
  <property name="meta.media.0.codec.colorspace">709</property>
  <property name="meta.media.0.codec.name">hevc</property>
  <property name="meta.media.0.codec.long_name">HEVC (High Efficiency Video Coding)</property>
  <property name="meta.media.0.codec.bit_rate">113306</property>
  <property name="meta.attr.0.stream.handler_name.markup">VideoHandler</property>
  <property name="meta.media.1.stream.type">audio</property>
  <property name="meta.media.1.codec.sample_fmt">fltp</property>
  <property name="meta.media.1.codec.sample_rate">22050</property>
  <property name="meta.media.1.codec.channels">1</property>
  <property name="meta.media.1.codec.name">aac</property>
  <property name="meta.media.1.codec.long_name">AAC (Advanced Audio Coding)</property>
  <property name="meta.media.1.codec.bit_rate">108683</property>
  <property name="meta.attr.1.stream.handler_name.markup">SoundHandler</property>
  <property name="meta.attr.major_brand.markup">isom</property>
  <property name="meta.attr.minor_version.markup">512</property>
  <property name="meta.attr.compatible_brands.markup">isomiso2mp41</property>
  <property name="meta.attr.encoder.markup">Lavf56.36.100</property>
  <property name="seekable">1</property>
  <property name="meta.media.sample_aspect_num">1</property>
  <property name="meta.media.sample_aspect_den">1</property>
  <property name="aspect_ratio">1</property>
  <property name="audio_index">1</property>
  <property name="video_index">0</property>
  <property name="mute_on_pause">1</property>
  <property name="mlt_service">avformat</property>
  <property name="global_feed">1</property>
  <property name="xml">was here</property>
  <property name="meta.media.frame_rate_num">15</property>
  <property name="meta.media.frame_rate_den">1</property>
  <property name="meta.media.colorspace">709</property>
  <property name="meta.media.color_trc">2</property>
  <property name="meta.media.width">1600</property>
  <property name="meta.media.height">896</property>
  <property name="meta.media.top_field_first">0</property>
  <property name="meta.media.progressive">1</property>
 </producer>
 <producer out="464" id="11_1" in="0" title="Anonymous Submission">
  <property name="mlt_type">producer</property>
  <property name="length">465</property>
  <property name="eof">pause</property>
  <property name="resource">/home/alex/Videos/Projects/小白也能轻松学会的Galgame制作/第7讲 攻略有难度/2P/original/19.mp4</property>
  <property name="meta.media.nb_streams">2</property>
  <property name="meta.media.0.stream.type">video</property>
  <property name="meta.media.0.stream.frame_rate">15</property>
  <property name="meta.media.0.stream.sample_aspect_ratio">0</property>
  <property name="meta.media.0.codec.width">1600</property>
  <property name="meta.media.0.codec.height">896</property>
  <property name="meta.media.0.codec.frame_rate">15</property>
  <property name="meta.media.0.codec.pix_fmt">yuv420p</property>
  <property name="meta.media.0.codec.sample_aspect_ratio">1</property>
  <property name="meta.media.0.codec.colorspace">709</property>
  <property name="meta.media.0.codec.name">hevc</property>
  <property name="meta.media.0.codec.long_name">HEVC (High Efficiency Video Coding)</property>
  <property name="meta.media.0.codec.bit_rate">263772</property>
  <property name="meta.attr.0.stream.handler_name.markup">VideoHandler</property>
  <property name="meta.media.1.stream.type">audio</property>
  <property name="meta.media.1.codec.sample_fmt">fltp</property>
  <property name="meta.media.1.codec.sample_rate">22050</property>
  <property name="meta.media.1.codec.channels">1</property>
  <property name="meta.media.1.codec.name">aac</property>
  <property name="meta.media.1.codec.long_name">AAC (Advanced Audio Coding)</property>
  <property name="meta.media.1.codec.bit_rate">108381</property>
  <property name="meta.attr.1.stream.handler_name.markup">SoundHandler</property>
  <property name="meta.attr.major_brand.markup">isom</property>
  <property name="meta.attr.minor_version.markup">512</property>
  <property name="meta.attr.compatible_brands.markup">isomiso2mp41</property>
  <property name="meta.attr.encoder.markup">Lavf56.36.100</property>
  <property name="seekable">1</property>
  <property name="meta.media.sample_aspect_num">1</property>
  <property name="meta.media.sample_aspect_den">1</property>
  <property name="aspect_ratio">1</property>
  <property name="audio_index">1</property>
  <property name="video_index">0</property>
  <property name="mute_on_pause">1</property>
  <property name="mlt_service">avformat</property>
  <property name="global_feed">1</property>
  <property name="xml">was here</property>
  <property name="meta.media.frame_rate_num">15</property>
  <property name="meta.media.frame_rate_den">1</property>
  <property name="meta.media.colorspace">709</property>
  <property name="meta.media.color_trc">2</property>
  <property name="meta.media.width">1600</property>
  <property name="meta.media.height">896</property>
  <property name="meta.media.top_field_first">0</property>
  <property name="meta.media.progressive">1</property>
 </producer>
 <producer out="464" id="11_2_video" in="0" title="Anonymous Submission">
  <property name="mlt_type">mlt_producer</property>
  <property name="length">465</property>
  <property name="eof">pause</property>
  <property name="resource">/home/alex/Videos/Projects/小白也能轻松学会的Galgame制作/第7讲 攻略有难度/2P/original/19.mp4</property>
  <property name="meta.media.nb_streams">2</property>
  <property name="meta.media.0.stream.type">video</property>
  <property name="meta.media.0.stream.frame_rate">15</property>
  <property name="meta.media.0.stream.sample_aspect_ratio">0</property>
  <property name="meta.media.0.codec.width">1600</property>
  <property name="meta.media.0.codec.height">896</property>
  <property name="meta.media.0.codec.frame_rate">15</property>
  <property name="meta.media.0.codec.pix_fmt">yuv420p</property>
  <property name="meta.media.0.codec.sample_aspect_ratio">1</property>
  <property name="meta.media.0.codec.colorspace">709</property>
  <property name="meta.media.0.codec.name">hevc</property>
  <property name="meta.media.0.codec.long_name">HEVC (High Efficiency Video Coding)</property>
  <property name="meta.media.0.codec.bit_rate">263772</property>
  <property name="meta.attr.0.stream.handler_name.markup">VideoHandler</property>
  <property name="meta.media.1.stream.type">audio</property>
  <property name="meta.media.1.codec.sample_fmt">fltp</property>
  <property name="meta.media.1.codec.sample_rate">22050</property>
  <property name="meta.media.1.codec.channels">1</property>
  <property name="meta.media.1.codec.name">aac</property>
  <property name="meta.media.1.codec.long_name">AAC (Advanced Audio Coding)</property>
  <property name="meta.media.1.codec.bit_rate">108381</property>
  <property name="meta.attr.1.stream.handler_name.markup">SoundHandler</property>
  <property name="meta.attr.major_brand.markup">isom</property>
  <property name="meta.attr.minor_version.markup">512</property>
  <property name="meta.attr.compatible_brands.markup">isomiso2mp41</property>
  <property name="meta.attr.encoder.markup">Lavf56.36.100</property>
  <property name="seekable">1</property>
  <property name="meta.media.sample_aspect_num">1</property>
  <property name="meta.media.sample_aspect_den">1</property>
  <property name="aspect_ratio">1</property>
  <property name="audio_index">-1</property>
  <property name="video_index">0</property>
  <property name="mute_on_pause">1</property>
  <property name="mlt_service">avformat</property>
  <property name="global_feed">1</property>
  <property name="xml">was here</property>
  <property name="meta.media.frame_rate_num">15</property>
  <property name="meta.media.frame_rate_den">1</property>
  <property name="meta.media.colorspace">709</property>
  <property name="meta.media.color_trc">2</property>
  <property name="meta.media.width">1600</property>
  <property name="meta.media.height">896</property>
  <property name="meta.media.top_field_first">0</property>
  <property name="meta.media.progressive">1</property>
 </producer>
 <playlist id="playlist2">
  <entry out="1123" in="18" producer="1_1"/>
  <entry out="1802" in="1226" producer="1_1"/>
  <entry out="110" in="13" producer="12_1"/>
  <entry out="400" in="16" producer="13_1"/>
  <entry out="447" in="401" producer="13_2_video"/>
  <entry out="552" in="518" producer="13_1"/>
  <entry out="675" in="573" producer="13_1"/>
  <entry out="548" in="11" producer="14_1"/>
  <entry out="772" in="617" producer="14_1"/>
  <entry out="943" in="876" producer="14_1"/>
  <entry out="1043" in="970" producer="14_1"/>
  <entry out="7" in="0" producer="18"/>
  <entry out="7" in="0" producer="19"/>
  <entry out="7" in="0" producer="20"/>
  <entry out="7" in="0" producer="21"/>
  <entry out="7" in="0" producer="22"/>
  <entry out="7" in="0" producer="23"/>
  <entry out="7" in="0" producer="24"/>
  <entry out="7" in="0" producer="25"/>
  <entry out="7" in="0" producer="26"/>
  <entry out="7" in="0" producer="27"/>
  <entry out="7" in="0" producer="28"/>
  <entry out="7" in="0" producer="29"/>
  <entry out="7" in="0" producer="30"/>
  <entry out="7" in="0" producer="31"/>
  <entry out="7" in="0" producer="32"/>
  <entry out="7" in="0" producer="33"/>
  <entry out="7" in="0" producer="34"/>
  <entry out="7" in="0" producer="35"/>
  <entry out="7" in="0" producer="36"/>
  <entry out="7" in="0" producer="37"/>
  <entry out="7" in="0" producer="38"/>
  <entry out="7" in="0" producer="39"/>
  <entry out="7" in="0" producer="40"/>
  <entry out="7" in="0" producer="41"/>
  <entry out="7" in="0" producer="42"/>
  <entry out="7" in="0" producer="43"/>
  <entry out="7" in="0" producer="44"/>
  <entry out="7" in="0" producer="45"/>
  <entry out="7" in="0" producer="46"/>
  <entry out="7" in="0" producer="47"/>
  <entry out="98" in="13" producer="15_1"/>
  <entry out="188" in="161" producer="15_1"/>
  <entry out="266" in="206" producer="15_1"/>
  <entry out="364" in="280" producer="15_1"/>
  <entry out="396" in="370" producer="15_1"/>
  <entry out="163" in="10" producer="16_1"/>
  <entry out="21" in="16" producer="slowmotion:16:10"/>
  <entry out="313" in="224" producer="16_1"/>
  <entry out="493" in="353" producer="16_1"/>
  <entry out="560" in="538" producer="16_1"/>
  <entry out="660" in="598" producer="16_1"/>
  <entry out="1004" in="720" producer="16_1"/>
  <entry out="1128" in="1039" producer="16_1"/>
  <entry out="1185" in="1161" producer="16_1"/>
  <entry out="1239" in="1205" producer="16_1"/>
  <entry out="1329" in="1269" producer="16_1"/>
  <entry out="7" in="0" producer="49"/>
  <entry out="7" in="0" producer="50"/>
  <entry out="7" in="0" producer="51"/>
  <entry out="7" in="0" producer="52"/>
  <entry out="7" in="0" producer="53"/>
  <entry out="7" in="0" producer="54"/>
  <entry out="7" in="0" producer="55"/>
  <entry out="7" in="0" producer="56"/>
  <entry out="151" in="11" producer="17_1"/>
  <entry out="336" in="260" producer="17_1"/>
  <entry out="523" in="362" producer="17_1"/>
  <entry out="544" in="529" producer="17_1"/>
  <entry out="677" in="562" producer="17_1"/>
  <entry out="268" in="8" producer="2_1"/>
  <entry out="317" in="313" producer="2_1"/>
  <entry out="320" in="319" producer="2_1"/>
  <entry out="411" in="324" producer="2_1"/>
  <entry out="420" in="417" producer="2_1"/>
  <entry out="463" in="442" producer="2_1"/>
  <entry out="717" in="502" producer="2_1"/>
  <entry out="160" in="11" producer="3_1"/>
  <entry out="200" in="167" producer="3_1"/>
  <entry out="336" in="208" producer="3_1"/>
  <entry out="466" in="345" producer="3_1"/>
  <entry out="129" in="15" producer="4_1"/>
  <entry out="55" in="43" producer="slowmotion:4:3"/>
  <entry out="341" in="227" producer="4_1"/>
  <entry out="465" in="392" producer="4_1"/>
  <entry out="87" in="7" producer="5_1"/>
  <entry out="156" in="117" producer="5_1"/>
  <entry out="352" in="289" producer="5_1"/>
  <entry out="463" in="363" producer="5_1"/>
  <entry out="532" in="501" producer="5_1"/>
  <entry out="801" in="643" producer="5_1"/>
  <entry out="1061" in="844" producer="5_1"/>
  <entry out="1143" in="1078" producer="5_1"/>
  <entry out="263" in="27" producer="6_1"/>
  <entry out="373" in="303" producer="6_1"/>
  <entry out="583" in="430" producer="6_1"/>
  <entry out="671" in="618" producer="6_1"/>
  <entry out="103" in="6" producer="7_1"/>
  <entry out="222" in="124" producer="7_1"/>
  <entry out="29" in="22" producer="slowmotion:7_1_video:10"/>
  <entry out="320" in="300" producer="7_2_video"/>
  <entry out="411" in="336" producer="7_1"/>
  <entry out="461" in="431" producer="7_1"/>
  <entry out="515" in="471" producer="7_1"/>
  <entry out="600" in="533" producer="7_1"/>
  <entry out="216" in="10" producer="8_1"/>
  <entry out="239" in="13" producer="9_1"/>
  <entry out="325" in="266" producer="9_1"/>
  <entry out="470" in="331" producer="9_1"/>
  <entry out="567" in="505" producer="9_1"/>
  <entry out="611" in="574" producer="9_1"/>
  <entry out="93" in="11" producer="10_2_video"/>
  <entry out="233" in="117" producer="10_1"/>
  <entry out="64" in="12" producer="11_1"/>
  <entry out="182" in="103" producer="11_2_video"/>
  <entry out="464" in="192" producer="11_1"/>
 </playlist>
 <producer out="74" id="48" in="0" title="Anonymous Submission">
  <property name="mlt_type">mlt_producer</property>
  <property name="length">75</property>
  <property name="eof">pause</property>
  <property name="resource">/home/alex/Videos/Projects/小白也能轻松学会的Galgame制作/第7讲 攻略有难度/2P/chart.png</property>
  <property name="ttl">25</property>
  <property name="aspect_ratio">1</property>
  <property name="progressive">1</property>
  <property name="seekable">1</property>
  <property name="loop">1</property>
  <property name="meta.media.width">1058</property>
  <property name="meta.media.height">794</property>
  <property name="mlt_service">pixbuf</property>
  <property name="global_feed">1</property>
 </producer>
 <playlist id="playlist3">
  <blank length="3777"/>
  <entry out="74" in="0" producer="48"/>
  <blank length="1159"/>
  <entry out="74" in="0" producer="48"/>
 </playlist>
 <tractor out="9676" id="maintractor" in="0" global_feed="1" title="Anonymous Submission">
  <property name="meta.volume">1</property>
  <track producer="black_track"/>
  <track hide="video" producer="playlist1"/>
  <track producer="playlist2"/>
  <track producer="playlist3"/>
  <transition id="transition0">
   <property name="a_track">1</property>
   <property name="b_track">2</property>
   <property name="mlt_type">transition</property>
   <property name="mlt_service">mix</property>
   <property name="always_active">1</property>
   <property name="combine">1</property>
   <property name="internal_added">237</property>
  </transition>
  <transition id="transition1">
   <property name="a_track">1</property>
   <property name="b_track">3</property>
   <property name="mlt_type">transition</property>
   <property name="mlt_service">mix</property>
   <property name="always_active">1</property>
   <property name="combine">1</property>
   <property name="internal_added">237</property>
  </transition>
 </tractor>
 <kdenlivedoc kdenliveversion="15.04.3" projectfolder="/home/alex/Videos/Projects/小白也能轻松学会的Galgame制作/第7讲 攻略有难度/2P" version="0.88" profile="/home/alex/.local/share/kdenlive//profiles/customprofile0">
  <customeffects/>
  <documentproperties renderaudiobitrate="160" renderrescalewidth="320" verticalzoom="1" renderplay="0" proxyextension="ts" renderbitrate="20" renderrescale="0" proxyparams="-f mpegts -acodec libmp3lame -ac 2 -ab 128k -vcodec mpeg2video -g 5 -s 640x480 -qscale 7" generateimageproxy="0" rendertctype="0" renderscanning="0" rendertcoverlay="0" enableproxy="0" generateproxy="0" rendercategory="MP4" renderzone="0" position="9676" renderrescaleheight="180" zoom="3" documentid="1438601747809" renderurl="/home/alex/Videos/Projects/小白也能轻松学会的Galgame制作/第7讲 攻略有难度/2P/untitled.mp4" renderguide="0" renderendguide="-1" renderstartguide="-1" renderprofile="H.264/AAC High Profile" renderratio="1" zonein="0" renderdestination="" proxyminsize="1000" zoneout="100" rendertwopass="0" renderexportaudio="0" proxyimageminsize="2000"/>
  <documentmetadata/>
  <documentnotes>&lt;!DOCTYPE HTML PUBLIC "-//W3C//DTD HTML 4.0//EN" "http://www.w3.org/TR/REC-html40/strict.dtd">
&lt;html>&lt;head>&lt;meta name="qrichtext" content="1" />&lt;style type="text/css">
p, li { white-space: pre-wrap; }
&lt;/style>&lt;/head>&lt;body style=" font-family:'Oxygen-Sans'; font-size:10pt; font-weight:400; font-style:normal;">
&lt;p style="-qt-paragraph-type:empty; margin-top:0px; margin-bottom:0px; margin-left:0px; margin-right:0px; -qt-block-indent:0; text-indent:0px;">&lt;br />&lt;/p>&lt;/body>&lt;/html></documentnotes>
  <profileinfo display_aspect_num="16" description="HD 720p 15 fps" progressive="1" sample_aspect_num="1" display_aspect_den="9" height="720" frame_rate_num="15" frame_rate_den="1" width="1280" sample_aspect_den="1"/>
  <tracksinfo>
   <trackinfo blind="1" locked="0" type="audio" trackname="Audio 1" mute="0"/>
   <trackinfo blind="0" locked="0" trackname="Video 2" mute="0"/>
   <trackinfo blind="0" locked="0" trackname="Video 1" mute="0"/>
  </tracksinfo>
  <folder id="1" name="5"/>
  <folder id="2" name="8"/>
  <kdenlive_producer channels="1" file_size="3796908" frame_size="1600x896" resource="/home/alex/Videos/Projects/小白也能轻松学会的Galgame制作/第7讲 攻略有难度/2P/original/1.mp4" videocodec="HEVC (High Efficiency Video Coding)" pix_fmt="yuv420p" colorspace="709" type="3" file_hash="fe15ad5ca7219da1d50f3b1ed4759be3" default_audio="1" name="1.mp4" progressive="1" audio_max="50" duration="1813" default_video="0" video_max="0" fps="15" id="1" analysisdata="" frequency="22050" aspect_ratio="1" audiocodec="AAC (Advanced Audio Coding)" videocodecid="hevc">
   <metaproperty tool="" name="meta.attr.0.stream.handler_name">VideoHandler</metaproperty>
   <metaproperty tool="" name="meta.attr.1.stream.handler_name">SoundHandler</metaproperty>
   <metaproperty tool="" name="meta.attr.compatible_brands">isomiso2mp41</metaproperty>
   <metaproperty tool="" name="meta.attr.encoder">Lavf56.36.100</metaproperty>
   <metaproperty tool="" name="meta.attr.major_brand">isom</metaproperty>
   <metaproperty tool="" name="meta.attr.minor_version">512</metaproperty>
  </kdenlive_producer>
  <kdenlive_producer channels="1" file_size="1055539" frame_size="1600x896" resource="/home/alex/Videos/Projects/小白也能轻松学会的Galgame制作/第7讲 攻略有难度/2P/original/10.mp4" videocodec="HEVC (High Efficiency Video Coding)" pix_fmt="yuv420p" colorspace="709" type="3" file_hash="1fa6c3773b16089055a7834048f4012b" default_audio="1" name="10.mp4" progressive="1" audio_max="28" duration="745" default_video="0" video_max="0" fps="15" id="2" analysisdata="" frequency="22050" aspect_ratio="1" audiocodec="AAC (Advanced Audio Coding)" videocodecid="hevc">
   <metaproperty tool="" name="meta.attr.0.stream.handler_name">VideoHandler</metaproperty>
   <metaproperty tool="" name="meta.attr.1.stream.handler_name">SoundHandler</metaproperty>
   <metaproperty tool="" name="meta.attr.compatible_brands">isomiso2mp41</metaproperty>
   <metaproperty tool="" name="meta.attr.encoder">Lavf56.36.100</metaproperty>
   <metaproperty tool="" name="meta.attr.major_brand">isom</metaproperty>
   <metaproperty tool="" name="meta.attr.minor_version">512</metaproperty>
  </kdenlive_producer>
  <kdenlive_producer channels="1" file_size="716909" frame_size="1600x896" resource="/home/alex/Videos/Projects/小白也能轻松学会的Galgame制作/第7讲 攻略有难度/2P/original/11.mp4" videocodec="HEVC (High Efficiency Video Coding)" pix_fmt="yuv420p" colorspace="709" type="3" file_hash="c89dc1f42746aee3c2b853cdeebba1fa" default_audio="1" name="11.mp4" progressive="1" audio_max="34" duration="489" default_video="0" video_max="0" fps="15" id="3" analysisdata="" frequency="22050" aspect_ratio="1" audiocodec="AAC (Advanced Audio Coding)" videocodecid="hevc">
   <metaproperty tool="" name="meta.attr.0.stream.handler_name">VideoHandler</metaproperty>
   <metaproperty tool="" name="meta.attr.1.stream.handler_name">SoundHandler</metaproperty>
   <metaproperty tool="" name="meta.attr.compatible_brands">isomiso2mp41</metaproperty>
   <metaproperty tool="" name="meta.attr.encoder">Lavf56.36.100</metaproperty>
   <metaproperty tool="" name="meta.attr.major_brand">isom</metaproperty>
   <metaproperty tool="" name="meta.attr.minor_version">512</metaproperty>
  </kdenlive_producer>
  <kdenlive_producer channels="1" file_size="1048294" frame_size="1600x896" resource="/home/alex/Videos/Projects/小白也能轻松学会的Galgame制作/第7讲 攻略有难度/2P/original/12.mp4" videocodec="HEVC (High Efficiency Video Coding)" pix_fmt="yuv420p" colorspace="709" type="3" file_hash="31f6e9b634eb5b016861c8f5be70734a" default_audio="1" name="12.mp4" progressive="1" audio_max="29" duration="483" default_video="0" video_max="0" fps="15" id="4" analysisdata="" frequency="22050" aspect_ratio="1" audiocodec="AAC (Advanced Audio Coding)" videocodecid="hevc">
   <metaproperty tool="" name="meta.attr.0.stream.handler_name">VideoHandler</metaproperty>
   <metaproperty tool="" name="meta.attr.1.stream.handler_name">SoundHandler</metaproperty>
   <metaproperty tool="" name="meta.attr.compatible_brands">isomiso2mp41</metaproperty>
   <metaproperty tool="" name="meta.attr.encoder">Lavf56.36.100</metaproperty>
   <metaproperty tool="" name="meta.attr.major_brand">isom</metaproperty>
   <metaproperty tool="" name="meta.attr.minor_version">512</metaproperty>
  </kdenlive_producer>
  <kdenlive_producer channels="1" file_size="1800384" frame_size="1600x896" resource="/home/alex/Videos/Projects/小白也能轻松学会的Galgame制作/第7讲 攻略有难度/2P/original/13.mp4" videocodec="HEVC (High Efficiency Video Coding)" pix_fmt="yuv420p" colorspace="709" type="3" file_hash="05a7de900f50a1bc297da630decef640" default_audio="1" name="13.mp4" progressive="1" audio_max="45" duration="1158" default_video="0" video_max="0" fps="15" id="5" analysisdata="" frequency="22050" aspect_ratio="1" audiocodec="AAC (Advanced Audio Coding)" videocodecid="hevc">
   <metaproperty tool="" name="meta.attr.0.stream.handler_name">VideoHandler</metaproperty>
   <metaproperty tool="" name="meta.attr.1.stream.handler_name">SoundHandler</metaproperty>
   <metaproperty tool="" name="meta.attr.compatible_brands">isomiso2mp41</metaproperty>
   <metaproperty tool="" name="meta.attr.encoder">Lavf56.36.100</metaproperty>
   <metaproperty tool="" name="meta.attr.major_brand">isom</metaproperty>
   <metaproperty tool="" name="meta.attr.minor_version">512</metaproperty>
  </kdenlive_producer>
  <kdenlive_producer channels="1" file_size="983033" frame_size="1600x896" resource="/home/alex/Videos/Projects/小白也能轻松学会的Galgame制作/第7讲 攻略有难度/2P/original/14.mp4" videocodec="HEVC (High Efficiency Video Coding)" pix_fmt="yuv420p" colorspace="709" type="3" file_hash="6b5312cebfdee6604b0226316eccc257" default_audio="1" name="14.mp4" progressive="1" audio_max="31" duration="696" default_video="0" video_max="0" fps="15" id="6" analysisdata="" frequency="22050" aspect_ratio="1" audiocodec="AAC (Advanced Audio Coding)" videocodecid="hevc">
   <metaproperty tool="" name="meta.attr.0.stream.handler_name">VideoHandler</metaproperty>
   <metaproperty tool="" name="meta.attr.1.stream.handler_name">SoundHandler</metaproperty>
   <metaproperty tool="" name="meta.attr.compatible_brands">isomiso2mp41</metaproperty>
   <metaproperty tool="" name="meta.attr.encoder">Lavf56.36.100</metaproperty>
   <metaproperty tool="" name="meta.attr.major_brand">isom</metaproperty>
   <metaproperty tool="" name="meta.attr.minor_version">512</metaproperty>
  </kdenlive_producer>
  <kdenlive_producer channels="1" file_size="2084695" frame_size="1600x896" resource="/home/alex/Videos/Projects/小白也能轻松学会的Galgame制作/第7讲 攻略有难度/2P/original/15.mp4" videocodec="HEVC (High Efficiency Video Coding)" pix_fmt="yuv420p" colorspace="709" type="3" file_hash="6a82d299704c661a8799f1baadd9b202" default_audio="1" name="15.mp4" progressive="1" audio_max="32" duration="910" default_video="0" video_max="0" fps="15" id="7" analysisdata="" frequency="22050" aspect_ratio="1" audiocodec="AAC (Advanced Audio Coding)" videocodecid="hevc">
   <metaproperty tool="" name="meta.attr.0.stream.handler_name">VideoHandler</metaproperty>
   <metaproperty tool="" name="meta.attr.1.stream.handler_name">SoundHandler</metaproperty>
   <metaproperty tool="" name="meta.attr.compatible_brands">isomiso2mp41</metaproperty>
   <metaproperty tool="" name="meta.attr.encoder">Lavf56.36.100</metaproperty>
   <metaproperty tool="" name="meta.attr.major_brand">isom</metaproperty>
   <metaproperty tool="" name="meta.attr.minor_version">512</metaproperty>
  </kdenlive_producer>
  <kdenlive_producer channels="1" file_size="353593" frame_size="1600x896" resource="/home/alex/Videos/Projects/小白也能轻松学会的Galgame制作/第7讲 攻略有难度/2P/original/16.mp4" videocodec="HEVC (High Efficiency Video Coding)" pix_fmt="yuv420p" colorspace="709" type="3" file_hash="b582d205d7d6baeb596fe3b15c349252" default_audio="1" name="16.mp4" progressive="1" audio_max="26" duration="217" default_video="0" video_max="0" fps="15" id="8" analysisdata="" frequency="22050" aspect_ratio="1" audiocodec="AAC (Advanced Audio Coding)" videocodecid="hevc">
   <metaproperty tool="" name="meta.attr.0.stream.handler_name">VideoHandler</metaproperty>
   <metaproperty tool="" name="meta.attr.1.stream.handler_name">SoundHandler</metaproperty>
   <metaproperty tool="" name="meta.attr.compatible_brands">isomiso2mp41</metaproperty>
   <metaproperty tool="" name="meta.attr.encoder">Lavf56.36.100</metaproperty>
   <metaproperty tool="" name="meta.attr.major_brand">isom</metaproperty>
   <metaproperty tool="" name="meta.attr.minor_version">512</metaproperty>
  </kdenlive_producer>
  <kdenlive_producer channels="1" file_size="913386" frame_size="1600x896" resource="/home/alex/Videos/Projects/小白也能轻松学会的Galgame制作/第7讲 攻略有难度/2P/original/17.mp4" videocodec="HEVC (High Efficiency Video Coding)" pix_fmt="yuv420p" colorspace="709" type="3" file_hash="747b8cb4781407c2e0f49d175d63a2df" default_audio="1" name="17.mp4" progressive="1" audio_max="27" duration="633" default_video="0" video_max="0" fps="15" id="9" analysisdata="" frequency="22050" aspect_ratio="1" audiocodec="AAC (Advanced Audio Coding)" videocodecid="hevc">
   <metaproperty tool="" name="meta.attr.0.stream.handler_name">VideoHandler</metaproperty>
   <metaproperty tool="" name="meta.attr.1.stream.handler_name">SoundHandler</metaproperty>
   <metaproperty tool="" name="meta.attr.compatible_brands">isomiso2mp41</metaproperty>
   <metaproperty tool="" name="meta.attr.encoder">Lavf56.36.100</metaproperty>
   <metaproperty tool="" name="meta.attr.major_brand">isom</metaproperty>
   <metaproperty tool="" name="meta.attr.minor_version">512</metaproperty>
  </kdenlive_producer>
  <kdenlive_producer channels="1" file_size="540566" frame_size="1600x896" resource="/home/alex/Videos/Projects/小白也能轻松学会的Galgame制作/第7讲 攻略有难度/2P/original/18.mp4" videocodec="HEVC (High Efficiency Video Coding)" pix_fmt="yuv420p" colorspace="709" type="3" file_hash="1a33bf8e1a1756f4f61fbf62100e06b3" default_audio="1" name="18.mp4" progressive="1" audio_max="27" duration="287" default_video="0" video_max="0" fps="15" id="10" analysisdata="" frequency="22050" aspect_ratio="1" audiocodec="AAC (Advanced Audio Coding)" videocodecid="hevc">
   <metaproperty tool="" name="meta.attr.0.stream.handler_name">VideoHandler</metaproperty>
   <metaproperty tool="" name="meta.attr.1.stream.handler_name">SoundHandler</metaproperty>
   <metaproperty tool="" name="meta.attr.compatible_brands">isomiso2mp41</metaproperty>
   <metaproperty tool="" name="meta.attr.encoder">Lavf56.36.100</metaproperty>
   <metaproperty tool="" name="meta.attr.major_brand">isom</metaproperty>
   <metaproperty tool="" name="meta.attr.minor_version">512</metaproperty>
  </kdenlive_producer>
  <kdenlive_producer channels="1" file_size="1458708" frame_size="1600x896" resource="/home/alex/Videos/Projects/小白也能轻松学会的Galgame制作/第7讲 攻略有难度/2P/original/19.mp4" videocodec="HEVC (High Efficiency Video Coding)" pix_fmt="yuv420p" colorspace="709" type="3" file_hash="9e15caf7bd5690e73d9382cd75edc5c2" default_audio="1" name="19.mp4" progressive="1" audio_max="23" duration="465" default_video="0" video_max="0" fps="15" id="11" analysisdata="" frequency="22050" aspect_ratio="1" audiocodec="AAC (Advanced Audio Coding)" videocodecid="hevc">
   <metaproperty tool="" name="meta.attr.0.stream.handler_name">VideoHandler</metaproperty>
   <metaproperty tool="" name="meta.attr.1.stream.handler_name">SoundHandler</metaproperty>
   <metaproperty tool="" name="meta.attr.compatible_brands">isomiso2mp41</metaproperty>
   <metaproperty tool="" name="meta.attr.encoder">Lavf56.36.100</metaproperty>
   <metaproperty tool="" name="meta.attr.major_brand">isom</metaproperty>
   <metaproperty tool="" name="meta.attr.minor_version">512</metaproperty>
  </kdenlive_producer>
  <kdenlive_producer channels="1" file_size="193543" frame_size="1600x896" resource="/home/alex/Videos/Projects/小白也能轻松学会的Galgame制作/第7讲 攻略有难度/2P/original/2.mp4" videocodec="HEVC (High Efficiency Video Coding)" pix_fmt="yuv420p" colorspace="709" type="3" file_hash="e94f2823ac3c4af14c8adc84e47555d8" default_audio="1" name="2.mp4" progressive="1" audio_max="26" duration="132" default_video="0" video_max="0" fps="15" id="12" analysisdata="" frequency="22050" aspect_ratio="1" audiocodec="AAC (Advanced Audio Coding)" videocodecid="hevc">
   <metaproperty tool="" name="meta.attr.0.stream.handler_name">VideoHandler</metaproperty>
   <metaproperty tool="" name="meta.attr.1.stream.handler_name">SoundHandler</metaproperty>
   <metaproperty tool="" name="meta.attr.compatible_brands">isomiso2mp41</metaproperty>
   <metaproperty tool="" name="meta.attr.encoder">Lavf56.36.100</metaproperty>
   <metaproperty tool="" name="meta.attr.major_brand">isom</metaproperty>
   <metaproperty tool="" name="meta.attr.minor_version">512</metaproperty>
  </kdenlive_producer>
  <kdenlive_producer channels="1" file_size="1105898" frame_size="1600x896" resource="/home/alex/Videos/Projects/小白也能轻松学会的Galgame制作/第7讲 攻略有难度/2P/original/3.mp4" videocodec="H.264 / AVC / MPEG-4 AVC / MPEG-4 part 10" pix_fmt="yuv420p" colorspace="709" type="3" file_hash="da58a49a2e3ac6cd10934630d110888a" default_audio="1" name="3.mp4" progressive="1" audio_max="37" duration="782" default_video="0" video_max="0" fps="15" id="13" analysisdata="" frequency="22050" aspect_ratio="1" audiocodec="AAC (Advanced Audio Coding)" videocodecid="h264">
   <metaproperty tool="" name="meta.attr.0.stream.handler_name">VideoHandler</metaproperty>
   <metaproperty tool="" name="meta.attr.1.stream.handler_name">SoundHandler</metaproperty>
   <metaproperty tool="" name="meta.attr.compatible_brands">isomiso2avc1mp41</metaproperty>
   <metaproperty tool="" name="meta.attr.encoder">Lavf56.36.100</metaproperty>
   <metaproperty tool="" name="meta.attr.major_brand">isom</metaproperty>
   <metaproperty tool="" name="meta.attr.minor_version">512</metaproperty>
  </kdenlive_producer>
  <kdenlive_producer channels="1" file_size="2138110" frame_size="1600x896" resource="/home/alex/Videos/Projects/小白也能轻松学会的Galgame制作/第7讲 攻略有难度/2P/original/4.mp4" videocodec="HEVC (High Efficiency Video Coding)" pix_fmt="yuv420p" colorspace="709" type="3" file_hash="1e12d52a867ccd8f973d9bcca7afd06f" default_audio="1" name="4.mp4" progressive="1" audio_max="43" duration="1093" default_video="0" video_max="0" fps="15" id="14" analysisdata="" frequency="22050" aspect_ratio="1" audiocodec="AAC (Advanced Audio Coding)" videocodecid="hevc">
   <metaproperty tool="" name="meta.attr.0.stream.handler_name">VideoHandler</metaproperty>
   <metaproperty tool="" name="meta.attr.1.stream.handler_name">SoundHandler</metaproperty>
   <metaproperty tool="" name="meta.attr.compatible_brands">isomiso2mp41</metaproperty>
   <metaproperty tool="" name="meta.attr.encoder">Lavf56.36.100</metaproperty>
   <metaproperty tool="" name="meta.attr.major_brand">isom</metaproperty>
   <metaproperty tool="" name="meta.attr.minor_version">512</metaproperty>
  </kdenlive_producer>
  <kdenlive_producer channels="1" file_size="735486" frame_size="1600x896" resource="/home/alex/Videos/Projects/小白也能轻松学会的Galgame制作/第7讲 攻略有难度/2P/original/6.mp4" videocodec="HEVC (High Efficiency Video Coding)" pix_fmt="yuv420p" colorspace="709" type="3" file_hash="12c762b19eae412a833a39e245bfa182" default_audio="1" name="6.mp4" progressive="1" audio_max="30" duration="426" default_video="0" video_max="0" fps="15" id="15" analysisdata="" frequency="22050" aspect_ratio="1" audiocodec="AAC (Advanced Audio Coding)" videocodecid="hevc">
   <metaproperty tool="" name="meta.attr.0.stream.handler_name">VideoHandler</metaproperty>
   <metaproperty tool="" name="meta.attr.1.stream.handler_name">SoundHandler</metaproperty>
   <metaproperty tool="" name="meta.attr.compatible_brands">isomiso2mp41</metaproperty>
   <metaproperty tool="" name="meta.attr.encoder">Lavf56.36.100</metaproperty>
   <metaproperty tool="" name="meta.attr.major_brand">isom</metaproperty>
   <metaproperty tool="" name="meta.attr.minor_version">512</metaproperty>
  </kdenlive_producer>
  <kdenlive_producer channels="1" file_size="2844704" frame_size="1600x896" resource="/home/alex/Videos/Projects/小白也能轻松学会的Galgame制作/第7讲 攻略有难度/2P/original/7.mp4" videocodec="HEVC (High Efficiency Video Coding)" pix_fmt="yuv420p" colorspace="709" type="3" file_hash="f0d5d626debf6f77a216dcd9db4f3c21" default_audio="1" name="7.mp4" progressive="1" audio_max="35" duration="1347" default_video="0" video_max="0" fps="15" id="16" analysisdata="" frequency="22050" aspect_ratio="1" audiocodec="AAC (Advanced Audio Coding)" videocodecid="hevc">
   <metaproperty tool="" name="meta.attr.0.stream.handler_name">VideoHandler</metaproperty>
   <metaproperty tool="" name="meta.attr.1.stream.handler_name">SoundHandler</metaproperty>
   <metaproperty tool="" name="meta.attr.compatible_brands">isomiso2mp41</metaproperty>
   <metaproperty tool="" name="meta.attr.encoder">Lavf56.36.100</metaproperty>
   <metaproperty tool="" name="meta.attr.major_brand">isom</metaproperty>
   <metaproperty tool="" name="meta.attr.minor_version">512</metaproperty>
  </kdenlive_producer>
  <kdenlive_producer channels="1" file_size="1050726" frame_size="1600x896" resource="/home/alex/Videos/Projects/小白也能轻松学会的Galgame制作/第7讲 攻略有难度/2P/original/9.mp4" videocodec="HEVC (High Efficiency Video Coding)" pix_fmt="yuv420p" colorspace="709" type="3" file_hash="598f42143ec4b8feab88895bc8d06fb3" default_audio="1" name="9.mp4" progressive="1" audio_max="35" duration="697" default_video="0" video_max="0" fps="15" id="17" analysisdata="" frequency="22050" aspect_ratio="1" audiocodec="AAC (Advanced Audio Coding)" videocodecid="hevc">
   <metaproperty tool="" name="meta.attr.0.stream.handler_name">VideoHandler</metaproperty>
   <metaproperty tool="" name="meta.attr.1.stream.handler_name">SoundHandler</metaproperty>
   <metaproperty tool="" name="meta.attr.compatible_brands">isomiso2mp41</metaproperty>
   <metaproperty tool="" name="meta.attr.encoder">Lavf56.36.100</metaproperty>
   <metaproperty tool="" name="meta.attr.major_brand">isom</metaproperty>
   <metaproperty tool="" name="meta.attr.minor_version">512</metaproperty>
  </kdenlive_producer>
  <kdenlive_producer out="74" resource="/home/alex/Videos/Projects/小白也能轻松学会的Galgame制作/第7讲 攻略有难度/2P/original/5/snapshot19.png" aspect_ratio="1" file_size="164903" id="18" in="0" analysisdata="" name="snapshot19.png" groupid="1" groupname="5" file_hash="9057d4cc4cd897e9f579928a13479faf" type="5" duration="75" frame_size="1600x900"/>
  <kdenlive_producer out="74" resource="/home/alex/Videos/Projects/小白也能轻松学会的Galgame制作/第7讲 攻略有难度/2P/original/5/snapshot20.png" aspect_ratio="1" file_size="164352" id="19" in="0" analysisdata="" name="snapshot20.png" groupid="1" groupname="5" file_hash="ed9b39a516a3f264b2a2af79033fc616" type="5" duration="75" frame_size="1600x900"/>
  <kdenlive_producer out="74" resource="/home/alex/Videos/Projects/小白也能轻松学会的Galgame制作/第7讲 攻略有难度/2P/original/5/snapshot21.png" aspect_ratio="1" file_size="163395" id="20" in="0" analysisdata="" name="snapshot21.png" groupid="1" groupname="5" file_hash="01e7f586793392ae0cb91e47560a1819" type="5" duration="75" frame_size="1600x900"/>
  <kdenlive_producer out="74" resource="/home/alex/Videos/Projects/小白也能轻松学会的Galgame制作/第7讲 攻略有难度/2P/original/5/snapshot22.png" aspect_ratio="1" file_size="163551" id="21" in="0" analysisdata="" name="snapshot22.png" groupid="1" groupname="5" file_hash="e75de00b51b05e2cc46a9ece6e0c2227" type="5" duration="75" frame_size="1600x900"/>
  <kdenlive_producer out="74" resource="/home/alex/Videos/Projects/小白也能轻松学会的Galgame制作/第7讲 攻略有难度/2P/original/5/snapshot23.png" aspect_ratio="1" file_size="168522" id="22" in="0" analysisdata="" name="snapshot23.png" groupid="1" groupname="5" file_hash="3854102988bce18c58381849a0e1ad17" type="5" duration="75" frame_size="1600x900"/>
  <kdenlive_producer out="74" resource="/home/alex/Videos/Projects/小白也能轻松学会的Galgame制作/第7讲 攻略有难度/2P/original/5/snapshot24.png" aspect_ratio="1" file_size="174765" id="23" in="0" analysisdata="" name="snapshot24.png" groupid="1" groupname="5" file_hash="8f8626733c99c4e42755904184e63703" type="5" duration="75" frame_size="1600x900"/>
  <kdenlive_producer out="74" resource="/home/alex/Videos/Projects/小白也能轻松学会的Galgame制作/第7讲 攻略有难度/2P/original/5/snapshot25.png" aspect_ratio="1" file_size="178706" id="24" in="0" analysisdata="" name="snapshot25.png" groupid="1" groupname="5" file_hash="7c293494bfba5827bf64e2b7fafed0a2" type="5" duration="75" frame_size="1600x900"/>
  <kdenlive_producer out="74" resource="/home/alex/Videos/Projects/小白也能轻松学会的Galgame制作/第7讲 攻略有难度/2P/original/5/snapshot26.png" aspect_ratio="1" file_size="175003" id="25" in="0" analysisdata="" name="snapshot26.png" groupid="1" groupname="5" file_hash="445ff300c2b341dd55d122d11997ae5b" type="5" duration="75" frame_size="1600x900"/>
  <kdenlive_producer out="74" resource="/home/alex/Videos/Projects/小白也能轻松学会的Galgame制作/第7讲 攻略有难度/2P/original/5/snapshot27.png" aspect_ratio="1" file_size="179618" id="26" in="0" analysisdata="" name="snapshot27.png" groupid="1" groupname="5" file_hash="a58c24dd93c7acc8569c8fdea366c41c" type="5" duration="75" frame_size="1600x900"/>
  <kdenlive_producer out="74" resource="/home/alex/Videos/Projects/小白也能轻松学会的Galgame制作/第7讲 攻略有难度/2P/original/5/snapshot28.png" aspect_ratio="1" file_size="173123" id="27" in="0" analysisdata="" name="snapshot28.png" groupid="1" groupname="5" file_hash="7c51f64294eac08081126f0ef58313b0" type="5" duration="75" frame_size="1600x900"/>
  <kdenlive_producer out="74" resource="/home/alex/Videos/Projects/小白也能轻松学会的Galgame制作/第7讲 攻略有难度/2P/original/5/snapshot29.png" aspect_ratio="1" file_size="180982" id="28" in="0" analysisdata="" name="snapshot29.png" groupid="1" groupname="5" file_hash="3223f225e4a5f6d31abf3f60838f6bb8" type="5" duration="75" frame_size="1600x900"/>
  <kdenlive_producer out="74" resource="/home/alex/Videos/Projects/小白也能轻松学会的Galgame制作/第7讲 攻略有难度/2P/original/5/snapshot30.png" aspect_ratio="1" file_size="173963" id="29" in="0" analysisdata="" name="snapshot30.png" groupid="1" groupname="5" file_hash="f75f9fa7f90b0960bd3dc32fe1f9f9ba" type="5" duration="75" frame_size="1600x900"/>
  <kdenlive_producer out="74" resource="/home/alex/Videos/Projects/小白也能轻松学会的Galgame制作/第7讲 攻略有难度/2P/original/5/snapshot31.png" aspect_ratio="1" file_size="171165" id="30" in="0" analysisdata="" name="snapshot31.png" groupid="1" groupname="5" file_hash="a4a402ed559918cf685f5c8cd0075eff" type="5" duration="75" frame_size="1600x900"/>
  <kdenlive_producer out="74" resource="/home/alex/Videos/Projects/小白也能轻松学会的Galgame制作/第7讲 攻略有难度/2P/original/5/snapshot32.png" aspect_ratio="1" file_size="158412" id="31" in="0" analysisdata="" name="snapshot32.png" groupid="1" groupname="5" file_hash="c9e87feaf40b9f5180355135028b6a15" type="5" duration="75" frame_size="1600x900"/>
  <kdenlive_producer out="74" resource="/home/alex/Videos/Projects/小白也能轻松学会的Galgame制作/第7讲 攻略有难度/2P/original/5/snapshot33.png" aspect_ratio="1" file_size="158185" id="32" in="0" analysisdata="" name="snapshot33.png" groupid="1" groupname="5" file_hash="289f05312044ed8ff1f28562802e118f" type="5" duration="75" frame_size="1600x900"/>
  <kdenlive_producer out="74" resource="/home/alex/Videos/Projects/小白也能轻松学会的Galgame制作/第7讲 攻略有难度/2P/original/5/snapshot34.png" aspect_ratio="1" file_size="152782" id="33" in="0" analysisdata="" name="snapshot34.png" groupid="1" groupname="5" file_hash="269f1e79110cd4980f9a26ae58c57430" type="5" duration="75" frame_size="1600x900"/>
  <kdenlive_producer out="74" resource="/home/alex/Videos/Projects/小白也能轻松学会的Galgame制作/第7讲 攻略有难度/2P/original/5/snapshot35.png" aspect_ratio="1" file_size="150341" id="34" in="0" analysisdata="" name="snapshot35.png" groupid="1" groupname="5" file_hash="b3024cb037ff09f2f4cee3796ceb886f" type="5" duration="75" frame_size="1600x900"/>
  <kdenlive_producer out="74" resource="/home/alex/Videos/Projects/小白也能轻松学会的Galgame制作/第7讲 攻略有难度/2P/original/5/snapshot36.png" aspect_ratio="1" file_size="146657" id="35" in="0" analysisdata="" name="snapshot36.png" groupid="1" groupname="5" file_hash="b6a6577e30f16a5dd32bf9b1cf9901e8" type="5" duration="75" frame_size="1600x900"/>
  <kdenlive_producer out="74" resource="/home/alex/Videos/Projects/小白也能轻松学会的Galgame制作/第7讲 攻略有难度/2P/original/5/snapshot37.png" aspect_ratio="1" file_size="157916" id="36" in="0" analysisdata="" name="snapshot37.png" groupid="1" groupname="5" file_hash="f58d0d2a4e975da73f6556f31d5b4ec2" type="5" duration="75" frame_size="1600x900"/>
  <kdenlive_producer out="74" resource="/home/alex/Videos/Projects/小白也能轻松学会的Galgame制作/第7讲 攻略有难度/2P/original/5/snapshot38.png" aspect_ratio="1" file_size="164570" id="37" in="0" analysisdata="" name="snapshot38.png" groupid="1" groupname="5" file_hash="170fe0586bf5faee53ea2551b268601e" type="5" duration="75" frame_size="1600x900"/>
  <kdenlive_producer out="74" resource="/home/alex/Videos/Projects/小白也能轻松学会的Galgame制作/第7讲 攻略有难度/2P/original/5/snapshot39.png" aspect_ratio="1" file_size="163394" id="38" in="0" analysisdata="" name="snapshot39.png" groupid="1" groupname="5" file_hash="a4f7f3d140a6bc3c42859a29982aadbf" type="5" duration="75" frame_size="1600x900"/>
  <kdenlive_producer out="74" resource="/home/alex/Videos/Projects/小白也能轻松学会的Galgame制作/第7讲 攻略有难度/2P/original/5/snapshot40.png" aspect_ratio="1" file_size="167377" id="39" in="0" analysisdata="" name="snapshot40.png" groupid="1" groupname="5" file_hash="30408f75ef1eff0b3c019d2d890cabd4" type="5" duration="75" frame_size="1600x900"/>
  <kdenlive_producer out="74" resource="/home/alex/Videos/Projects/小白也能轻松学会的Galgame制作/第7讲 攻略有难度/2P/original/5/snapshot41.png" aspect_ratio="1" file_size="165737" id="40" in="0" analysisdata="" name="snapshot41.png" groupid="1" groupname="5" file_hash="03d48b8b366eb01047fa6b7c3cc35131" type="5" duration="75" frame_size="1600x900"/>
  <kdenlive_producer out="74" resource="/home/alex/Videos/Projects/小白也能轻松学会的Galgame制作/第7讲 攻略有难度/2P/original/5/snapshot42.png" aspect_ratio="1" file_size="167354" id="41" in="0" analysisdata="" name="snapshot42.png" groupid="1" groupname="5" file_hash="5aa27c2507d6be54aeca512cae13ef9f" type="5" duration="75" frame_size="1600x900"/>
  <kdenlive_producer out="74" resource="/home/alex/Videos/Projects/小白也能轻松学会的Galgame制作/第7讲 攻略有难度/2P/original/5/snapshot43.png" aspect_ratio="1" file_size="167639" id="42" in="0" analysisdata="" name="snapshot43.png" groupid="1" groupname="5" file_hash="d32021edd07ecfbc919c8468acfad8b8" type="5" duration="75" frame_size="1600x900"/>
  <kdenlive_producer out="74" resource="/home/alex/Videos/Projects/小白也能轻松学会的Galgame制作/第7讲 攻略有难度/2P/original/5/snapshot44.png" aspect_ratio="1" file_size="167519" id="43" in="0" analysisdata="" name="snapshot44.png" groupid="1" groupname="5" file_hash="51fb4624774c3a05d4d237bae1964413" type="5" duration="75" frame_size="1600x900"/>
  <kdenlive_producer out="74" resource="/home/alex/Videos/Projects/小白也能轻松学会的Galgame制作/第7讲 攻略有难度/2P/original/5/snapshot45.png" aspect_ratio="1" file_size="168727" id="44" in="0" analysisdata="" name="snapshot45.png" groupid="1" groupname="5" file_hash="1a88e92266f8516bb03b0e342bc5b745" type="5" duration="75" frame_size="1600x900"/>
  <kdenlive_producer out="74" resource="/home/alex/Videos/Projects/小白也能轻松学会的Galgame制作/第7讲 攻略有难度/2P/original/5/snapshot46.png" aspect_ratio="1" file_size="178336" id="45" in="0" analysisdata="" name="snapshot46.png" groupid="1" groupname="5" file_hash="b2831144f44a2e520300e57bf8aaefc8" type="5" duration="75" frame_size="1600x900"/>
  <kdenlive_producer out="74" resource="/home/alex/Videos/Projects/小白也能轻松学会的Galgame制作/第7讲 攻略有难度/2P/original/5/snapshot47.png" aspect_ratio="1" file_size="182930" id="46" in="0" analysisdata="" name="snapshot47.png" groupid="1" groupname="5" file_hash="f8054e0585f9b0a989837959a2cc84d3" type="5" duration="75" frame_size="1600x900"/>
  <kdenlive_producer out="74" resource="/home/alex/Videos/Projects/小白也能轻松学会的Galgame制作/第7讲 攻略有难度/2P/original/5/snapshot48.png" aspect_ratio="1" file_size="184717" id="47" in="0" analysisdata="" name="snapshot48.png" groupid="1" groupname="5" file_hash="4c60ae37eb311e799bd4c76aaa68a40a" type="5" duration="75" frame_size="1600x900"/>
  <kdenlive_producer out="74" resource="/home/alex/Videos/Projects/小白也能轻松学会的Galgame制作/第7讲 攻略有难度/2P/chart.png" aspect_ratio="1" file_size="90850" id="48" in="0" analysisdata="" name="chart.png" file_hash="adf322551107abbf8866de6002bdf7ee" type="5" duration="75" frame_size="1058x794"/>
  <kdenlive_producer out="74" resource="/home/alex/Videos/Projects/小白也能轻松学会的Galgame制作/第7讲 攻略有难度/2P/original/8/snapshot50.png" aspect_ratio="1" file_size="165715" id="49" in="0" analysisdata="" name="snapshot50.png" groupid="2" groupname="8" file_hash="550a66ee88e138c868a4657ab88e52cb" type="5" duration="75" frame_size="1600x900"/>
  <kdenlive_producer out="74" resource="/home/alex/Videos/Projects/小白也能轻松学会的Galgame制作/第7讲 攻略有难度/2P/original/8/snapshot51.png" aspect_ratio="1" file_size="165024" id="50" in="0" analysisdata="" name="snapshot51.png" groupid="2" groupname="8" file_hash="4652556c5126b3613fd7b185a0e3d5b4" type="5" duration="75" frame_size="1600x900"/>
  <kdenlive_producer out="74" resource="/home/alex/Videos/Projects/小白也能轻松学会的Galgame制作/第7讲 攻略有难度/2P/original/8/snapshot52.png" aspect_ratio="1" file_size="172094" id="51" in="0" analysisdata="" name="snapshot52.png" groupid="2" groupname="8" file_hash="fdd067c9ee298fd73a0c6b10f543cd2a" type="5" duration="75" frame_size="1600x900"/>
  <kdenlive_producer out="74" resource="/home/alex/Videos/Projects/小白也能轻松学会的Galgame制作/第7讲 攻略有难度/2P/original/8/snapshot53.png" aspect_ratio="1" file_size="170355" id="52" in="0" analysisdata="" name="snapshot53.png" groupid="2" groupname="8" file_hash="5e7706c87383778a5a3afbfe6cc434c4" type="5" duration="75" frame_size="1600x900"/>
  <kdenlive_producer out="74" resource="/home/alex/Videos/Projects/小白也能轻松学会的Galgame制作/第7讲 攻略有难度/2P/original/8/snapshot54.png" aspect_ratio="1" file_size="170271" id="53" in="0" analysisdata="" name="snapshot54.png" groupid="2" groupname="8" file_hash="11435641ae2e968f179802024b794cfa" type="5" duration="75" frame_size="1600x900"/>
  <kdenlive_producer out="74" resource="/home/alex/Videos/Projects/小白也能轻松学会的Galgame制作/第7讲 攻略有难度/2P/original/8/snapshot55.png" aspect_ratio="1" file_size="160656" id="54" in="0" analysisdata="" name="snapshot55.png" groupid="2" groupname="8" file_hash="3e14f6c1a4ffb2df1421e0aee59aded9" type="5" duration="75" frame_size="1600x900"/>
  <kdenlive_producer out="74" resource="/home/alex/Videos/Projects/小白也能轻松学会的Galgame制作/第7讲 攻略有难度/2P/original/8/snapshot56.png" aspect_ratio="1" file_size="152748" id="55" in="0" analysisdata="" name="snapshot56.png" groupid="2" groupname="8" file_hash="fcdc3bed3db4d56fd5d1ad4854be1813" type="5" duration="75" frame_size="1600x900"/>
  <kdenlive_producer out="74" resource="/home/alex/Videos/Projects/小白也能轻松学会的Galgame制作/第7讲 攻略有难度/2P/original/8/snapshot57.png" aspect_ratio="1" file_size="151593" id="56" in="0" analysisdata="" name="snapshot57.png" groupid="2" groupname="8" file_hash="e0b08811f51ca6cce3e28e20c2ab9e4f" type="5" duration="75" frame_size="1600x900"/>
  <markers/>
  <groups/>
 </kdenlivedoc>
</mlt>
