<?xml version='1.0' encoding='utf-8'?>
<mlt title="Anonymous Submission" version="0.9.6" LC_NUMERIC="en_AU.UTF-8" root="/run/media/alex/SBPD/Video/Projects/小白也能轻松学会的Galgame制作/第1讲 上帝说，要有光/精简版">
 <profile progressive="1" sample_aspect_den="1" sample_aspect_num="1" colorspace="709" frame_rate_den="1" display_aspect_num="16" display_aspect_den="9" width="1280" height="720" description="HD 720p 24 fps" frame_rate_num="24"/>
 <producer id="black" out="32122" in="0">
  <property name="mlt_type">producer</property>
  <property name="length">32123</property>
  <property name="eof">pause</property>
  <property name="resource">black</property>
  <property name="aspect_ratio">0</property>
  <property name="mlt_service">colour</property>
 </producer>
 <playlist id="black_track">
  <entry out="29562" in="0" producer="black"/>
 </playlist>
 <producer id="1_1_audio" title="Anonymous Submission" out="32122" in="0">
  <property name="mlt_type">producer</property>
  <property name="length">32123</property>
  <property name="eof">pause</property>
  <property name="resource">/home/alex/Videos/Projects/小白也能轻松学会的Galgame制作/第1讲 上帝说，要有光/精简版/full.mp4</property>
  <property name="meta.media.nb_streams">2</property>
  <property name="meta.media.0.stream.type">video</property>
  <property name="meta.media.0.stream.frame_rate">15</property>
  <property name="meta.media.0.stream.sample_aspect_ratio">1.00446</property>
  <property name="meta.media.0.codec.width">1280</property>
  <property name="meta.media.0.codec.height">720</property>
  <property name="meta.media.0.codec.frame_rate">15</property>
  <property name="meta.media.0.codec.pix_fmt">yuv420p</property>
  <property name="meta.media.0.codec.sample_aspect_ratio">1.00446</property>
  <property name="meta.media.0.codec.colorspace">709</property>
  <property name="meta.media.0.codec.name">h264</property>
  <property name="meta.media.0.codec.long_name">H.264 / AVC / MPEG-4 AVC / MPEG-4 part 10</property>
  <property name="meta.media.0.codec.bit_rate">207083</property>
  <property name="meta.attr.0.stream.handler_name.markup">VideoHandler</property>
  <property name="meta.media.1.stream.type">audio</property>
  <property name="meta.media.1.codec.sample_fmt">fltp</property>
  <property name="meta.media.1.codec.sample_rate">22050</property>
  <property name="meta.media.1.codec.channels">1</property>
  <property name="meta.media.1.codec.name">aac</property>
  <property name="meta.media.1.codec.long_name">AAC (Advanced Audio Coding)</property>
  <property name="meta.media.1.codec.bit_rate">108644</property>
  <property name="meta.attr.1.stream.handler_name.markup">SoundHandler</property>
  <property name="meta.attr.major_brand.markup">isom</property>
  <property name="meta.attr.minor_version.markup">512</property>
  <property name="meta.attr.compatible_brands.markup">isomiso2avc1mp41</property>
  <property name="meta.attr.encoder.markup">Lavf56.25.101</property>
  <property name="seekable">1</property>
  <property name="meta.media.sample_aspect_num">225</property>
  <property name="meta.media.sample_aspect_den">224</property>
  <property name="aspect_ratio">1.00446</property>
  <property name="audio_index">1</property>
  <property name="video_index">-1</property>
  <property name="mute_on_pause">1</property>
  <property name="mlt_service">avformat</property>
  <property name="global_feed">1</property>
  <property name="xml">was here</property>
 </producer>
 <playlist id="playlist0">
  <blank length="4650"/>
  <entry out="6343" in="6295" producer="1_1_audio"/>
 </playlist>
 <producer id="1" title="Anonymous Submission" out="32122" in="0">
  <property name="mlt_type">mlt_producer</property>
  <property name="length">32123</property>
  <property name="eof">pause</property>
  <property name="resource">/home/alex/Videos/Projects/小白也能轻松学会的Galgame制作/第1讲 上帝说，要有光/精简版/full.mp4</property>
  <property name="meta.media.nb_streams">2</property>
  <property name="meta.media.0.stream.type">video</property>
  <property name="meta.media.0.stream.frame_rate">15</property>
  <property name="meta.media.0.stream.sample_aspect_ratio">1.00446</property>
  <property name="meta.media.0.codec.width">1280</property>
  <property name="meta.media.0.codec.height">720</property>
  <property name="meta.media.0.codec.frame_rate">15</property>
  <property name="meta.media.0.codec.pix_fmt">yuv420p</property>
  <property name="meta.media.0.codec.sample_aspect_ratio">1.00446</property>
  <property name="meta.media.0.codec.colorspace">709</property>
  <property name="meta.media.0.codec.name">h264</property>
  <property name="meta.media.0.codec.long_name">H.264 / AVC / MPEG-4 AVC / MPEG-4 part 10</property>
  <property name="meta.media.0.codec.bit_rate">207083</property>
  <property name="meta.attr.0.stream.handler_name.markup">VideoHandler</property>
  <property name="meta.media.1.stream.type">audio</property>
  <property name="meta.media.1.codec.sample_fmt">fltp</property>
  <property name="meta.media.1.codec.sample_rate">22050</property>
  <property name="meta.media.1.codec.channels">1</property>
  <property name="meta.media.1.codec.name">aac</property>
  <property name="meta.media.1.codec.long_name">AAC (Advanced Audio Coding)</property>
  <property name="meta.media.1.codec.bit_rate">108644</property>
  <property name="meta.attr.1.stream.handler_name.markup">SoundHandler</property>
  <property name="meta.attr.major_brand.markup">isom</property>
  <property name="meta.attr.minor_version.markup">512</property>
  <property name="meta.attr.compatible_brands.markup">isomiso2avc1mp41</property>
  <property name="meta.attr.encoder.markup">Lavf56.25.101</property>
  <property name="seekable">1</property>
  <property name="meta.media.sample_aspect_num">225</property>
  <property name="meta.media.sample_aspect_den">224</property>
  <property name="aspect_ratio">1.00446</property>
  <property name="audio_index">1</property>
  <property name="video_index">0</property>
  <property name="mute_on_pause">1</property>
  <property name="mlt_service">avformat</property>
  <property name="meta.media.frame_rate_num">15</property>
  <property name="meta.media.frame_rate_den">1</property>
  <property name="meta.media.colorspace">709</property>
  <property name="meta.media.color_trc">2</property>
  <property name="meta.media.width">1280</property>
  <property name="meta.media.height">720</property>
  <property name="meta.media.top_field_first">0</property>
  <property name="meta.media.progressive">1</property>
  <property name="global_feed">1</property>
 </producer>
 <producer id="slowmotion:1:6" out="5352" in="0">
  <property name="mlt_type">producer</property>
  <property name="length">5353</property>
  <property name="eof">pause</property>
  <property name="resource">/home/alex/Videos/Projects/小白也能轻松学会的Galgame制作/第1讲 上帝说，要有光/精简版/full.mp4?6</property>
  <property name="aspect_ratio">1.00446</property>
  <property name="mlt_service">framebuffer</property>
  <property name="strobe">1</property>
 </producer>
 <producer id="1_1_video" title="Anonymous Submission" out="32122" in="0">
  <property name="mlt_type">mlt_producer</property>
  <property name="length">32123</property>
  <property name="eof">pause</property>
  <property name="resource">/home/alex/Videos/Projects/小白也能轻松学会的Galgame制作/第1讲 上帝说，要有光/精简版/full.mp4</property>
  <property name="meta.media.nb_streams">2</property>
  <property name="meta.media.0.stream.type">video</property>
  <property name="meta.media.0.stream.frame_rate">15</property>
  <property name="meta.media.0.stream.sample_aspect_ratio">1.00446</property>
  <property name="meta.media.0.codec.width">1280</property>
  <property name="meta.media.0.codec.height">720</property>
  <property name="meta.media.0.codec.frame_rate">15</property>
  <property name="meta.media.0.codec.pix_fmt">yuv420p</property>
  <property name="meta.media.0.codec.sample_aspect_ratio">1.00446</property>
  <property name="meta.media.0.codec.colorspace">709</property>
  <property name="meta.media.0.codec.name">h264</property>
  <property name="meta.media.0.codec.long_name">H.264 / AVC / MPEG-4 AVC / MPEG-4 part 10</property>
  <property name="meta.media.0.codec.bit_rate">207083</property>
  <property name="meta.attr.0.stream.handler_name.markup">VideoHandler</property>
  <property name="meta.media.1.stream.type">audio</property>
  <property name="meta.media.1.codec.sample_fmt">fltp</property>
  <property name="meta.media.1.codec.sample_rate">22050</property>
  <property name="meta.media.1.codec.channels">1</property>
  <property name="meta.media.1.codec.name">aac</property>
  <property name="meta.media.1.codec.long_name">AAC (Advanced Audio Coding)</property>
  <property name="meta.media.1.codec.bit_rate">108644</property>
  <property name="meta.attr.1.stream.handler_name.markup">SoundHandler</property>
  <property name="meta.attr.major_brand.markup">isom</property>
  <property name="meta.attr.minor_version.markup">512</property>
  <property name="meta.attr.compatible_brands.markup">isomiso2avc1mp41</property>
  <property name="meta.attr.encoder.markup">Lavf56.25.101</property>
  <property name="seekable">1</property>
  <property name="meta.media.sample_aspect_num">225</property>
  <property name="meta.media.sample_aspect_den">224</property>
  <property name="aspect_ratio">1.00446</property>
  <property name="audio_index">-1</property>
  <property name="video_index">0</property>
  <property name="mute_on_pause">1</property>
  <property name="mlt_service">avformat</property>
  <property name="global_feed">1</property>
  <property name="xml">was here</property>
  <property name="meta.media.frame_rate_num">15</property>
  <property name="meta.media.frame_rate_den">1</property>
  <property name="meta.media.colorspace">709</property>
  <property name="meta.media.color_trc">2</property>
  <property name="meta.media.width">1280</property>
  <property name="meta.media.height">720</property>
  <property name="meta.media.top_field_first">0</property>
  <property name="meta.media.progressive">1</property>
 </producer>
 <playlist id="playlist1">
  <entry out="554" in="0" producer="1"/>
  <entry out="841" in="634" producer="1"/>
  <entry out="1067" in="883" producer="1"/>
  <entry out="1263" in="1172" producer="1"/>
  <entry out="1675" in="1301" producer="1"/>
  <entry out="2282" in="1803" producer="1"/>
  <entry out="2656" in="2344" producer="1"/>
  <entry out="2721" in="2684" producer="1"/>
  <entry out="3016" in="2750" producer="1"/>
  <entry out="3511" in="3064" producer="1"/>
  <entry out="3651" in="3537" producer="1"/>
  <entry out="3759" in="3680" producer="1"/>
  <entry out="4102" in="3795" producer="1"/>
  <entry out="828" in="683" producer="slowmotion:1:6">
   <filter id="dynamictext">
    <property name="track">0</property>
    <property name="argument">x6 >></property>
    <property name="geometry">0/0:1280x720:100</property>
    <property name="family">DejaVu Sans</property>
    <property name="size">48</property>
    <property name="weight">400</property>
    <property name="fgcolour">0xff0000ff</property>
    <property name="bgcolour">0x00000000</property>
    <property name="olcolour">0x00000000</property>
    <property name="pad">0</property>
    <property name="halign">left</property>
    <property name="valign">bottom</property>
    <property name="outline">0</property>
    <property name="mlt_type">filter</property>
    <property name="mlt_service">dynamictext</property>
    <property name="kdenlive_id">dynamictext</property>
    <property name="tag">dynamictext</property>
    <property name="kdenlive_ix">2</property>
    <property name="kdenlive_info">1/-1/</property>
   </filter>
   <filter id="filter0">
    <property name="track">0</property>
    <property name="argument">以此类推，在每句话的后面加上@或反斜杠。</property>
    <property name="geometry">0/0:1280x720:100</property>
    <property name="family">DejaVu Sans</property>
    <property name="size">48</property>
    <property name="weight">400</property>
    <property name="fgcolour">0x000000ff</property>
    <property name="bgcolour">0xffffff20</property>
    <property name="olcolour">0x00000000</property>
    <property name="pad">0</property>
    <property name="halign">centre</property>
    <property name="valign">middle</property>
    <property name="outline">0</property>
    <property name="mlt_type">filter</property>
    <property name="mlt_service">dynamictext</property>
    <property name="kdenlive_id">dynamictext</property>
    <property name="tag">dynamictext</property>
    <property name="kdenlive_ix">3</property>
    <property name="kdenlive_info">1/-1/</property>
   </filter>
  </entry>
  <entry out="6294" in="5255" producer="1"/>
  <entry out="6309" in="6295" producer="1_1_video"/>
  <entry out="6988" in="6570" producer="1"/>
  <entry out="7122" in="7030" producer="1"/>
  <entry out="7379" in="7290" producer="1"/>
  <entry out="7642" in="7408" producer="1"/>
  <entry out="8578" in="7751" producer="1"/>
  <entry out="9322" in="8611" producer="1"/>
  <entry out="9422" in="9393" producer="1"/>
  <entry out="9583" in="9451" producer="1"/>
  <entry out="9713" in="9649" producer="1"/>
  <entry out="9888" in="9767" producer="1"/>
  <entry out="10130" in="9919" producer="1"/>
  <entry out="32122" in="10164" producer="1"/>
 </playlist>
 <tractor id="maintractor" title="Anonymous Submission" out="29562" in="0" global_feed="1">
  <property name="meta.volume">1</property>
  <track producer="black_track"/>
  <track hide="video" producer="playlist0"/>
  <track producer="playlist1"/>
  <transition id="transition0">
   <property name="a_track">1</property>
   <property name="b_track">2</property>
   <property name="mlt_type">transition</property>
   <property name="mlt_service">mix</property>
   <property name="always_active">1</property>
   <property name="internal_added">237</property>
   <property name="combine">1</property>
  </transition>
 </tractor>
 <kdenlivedoc version="0.88" kdenliveversion="15.04.1" profile="atsc_720p_24" projectfolder="/home/alex/Videos/Projects/小白也能轻松学会的Galgame制作/第1讲 上帝说，要有光/精简版/">
  <customeffects/>
  <documentproperties zoom="7" proxyimageminsize="2000" proxyparams="-f mpegts -acodec libmp3lame -ac 2 -ab 128k -vcodec mpeg2video -g 5 -s 640x480 -qscale 7" generateproxy="0" verticalzoom="1" enableproxy="0" generateimageproxy="0" proxyminsize="1000" documentid="1432110662206" proxyextension="ts" zonein="0" position="7717" zoneout="0"/>
  <documentmetadata/>
  <documentnotes>&lt;!DOCTYPE HTML PUBLIC "-//W3C//DTD HTML 4.0//EN" "http://www.w3.org/TR/REC-html40/strict.dtd">
&lt;html>&lt;head>&lt;meta name="qrichtext" content="1" />&lt;style type="text/css">
p, li { white-space: pre-wrap; }
&lt;/style>&lt;/head>&lt;body style=" font-family:'Oxygen-Sans'; font-size:10pt; font-weight:400; font-style:normal;">
&lt;p style="-qt-paragraph-type:empty; margin-top:0px; margin-bottom:0px; margin-left:0px; margin-right:0px; -qt-block-indent:0; text-indent:0px;">&lt;br />&lt;/p>&lt;/body>&lt;/html></documentnotes>
  <profileinfo progressive="1" sample_aspect_den="1" sample_aspect_num="1" frame_rate_den="1" display_aspect_num="16" display_aspect_den="9" width="1280" height="720" description="HD 720p 24 fps" frame_rate_num="24"/>
  <tracksinfo>
   <trackinfo trackname="Audio 1" mute="0" locked="0" blind="1" type="audio"/>
   <trackinfo trackname="Video 1" mute="0" locked="0" blind="0"/>
  </tracksinfo>
  <kdenlive_producer default_video="0" audiocodec="AAC (Advanced Audio Coding)" channels="1" colorspace="709" videocodecid="h264" resource="/home/alex/Videos/Projects/小白也能轻松学会的Galgame制作/第1讲 上帝说，要有光/精简版/full.mp4" fps="15" audio_max="63" frequency="22050" type="3" default_audio="1" videocodec="H.264 / AVC / MPEG-4 AVC / MPEG-4 part 10" file_size="53566528" progressive="1" frame_size="1280x720" id="1" analysisdata="" aspect_ratio="1.00446" name="full.mp4" video_max="0" file_hash="01316c0bf1d04caf118d3ce8fca54fda" duration="32123" pix_fmt="yuv420p">
   <metaproperty name="meta.attr.0.stream.handler_name" tool="">VideoHandler</metaproperty>
   <metaproperty name="meta.attr.1.stream.handler_name" tool="">SoundHandler</metaproperty>
   <metaproperty name="meta.attr.compatible_brands" tool="">isomiso2avc1mp41</metaproperty>
   <metaproperty name="meta.attr.encoder" tool="">Lavf56.25.101</metaproperty>
   <metaproperty name="meta.attr.major_brand" tool="">isom</metaproperty>
   <metaproperty name="meta.attr.minor_version" tool="">512</metaproperty>
  </kdenlive_producer>
  <markers/>
  <groups/>
 </kdenlivedoc>
</mlt>
