<?xml version='1.0' encoding='utf-8'?>
<mlt LC_NUMERIC="en_AU.UTF-8" version="0.9.6" root="/home/alex/Videos/Projects/小白也能轻松学会的Galgame制作/第1讲 上帝说，要有光/软件安利" title="Anonymous Submission">
 <profile frame_rate_den="1" progressive="1" display_aspect_den="9" colorspace="709" sample_aspect_den="1" width="1280" display_aspect_num="16" sample_aspect_num="1" description="HD 720p 24 fps" height="720" frame_rate_num="24"/>
 <producer in="0" out="15574" id="black">
  <property name="mlt_type">producer</property>
  <property name="length">15575</property>
  <property name="eof">pause</property>
  <property name="resource">black</property>
  <property name="aspect_ratio">0</property>
  <property name="mlt_service">colour</property>
 </producer>
 <playlist id="black_track">
  <entry in="0" out="13889" producer="black"/>
 </playlist>
 <producer in="0" out="3187" id="2_1" title="Anonymous Submission">
  <property name="mlt_type">producer</property>
  <property name="length">3188</property>
  <property name="eof">pause</property>
  <property name="resource">Are You OK?.mp3</property>
  <property name="meta.media.nb_streams">1</property>
  <property name="meta.media.0.stream.type">audio</property>
  <property name="meta.media.0.codec.sample_fmt">s16p</property>
  <property name="meta.media.0.codec.sample_rate">44100</property>
  <property name="meta.media.0.codec.channels">2</property>
  <property name="meta.media.0.codec.name">mp3</property>
  <property name="meta.media.0.codec.long_name">MP3 (MPEG audio layer 3)</property>
  <property name="meta.media.0.codec.bit_rate">128000</property>
  <property name="meta.attr.0.stream.encoder.markup">Lavc56.26</property>
  <property name="meta.attr.major_brand.markup">isom</property>
  <property name="meta.attr.minor_version.markup">512</property>
  <property name="meta.attr.compatible_brands.markup">isomiso2avc1mp41</property>
  <property name="meta.attr.encoder.markup">Lavf56.25.101</property>
  <property name="seekable">1</property>
  <property name="audio_index">0</property>
  <property name="video_index">-1</property>
  <property name="mute_on_pause">1</property>
  <property name="mlt_service">avformat</property>
  <property name="global_feed">1</property>
  <property name="xml">was here</property>
 </producer>
 <playlist id="playlist1">
  <entry in="36" out="3118" producer="2_1">
   <filter in="36" id="volume">
    <property name="track">0</property>
    <property name="window">75</property>
    <property name="max_gain">20dB</property>
    <property name="mlt_type">filter</property>
    <property name="mlt_service">volume</property>
    <property name="kdenlive_id">volume</property>
    <property name="tag">volume</property>
    <property name="kdenlive_ix">1</property>
    <property name="kdenlive_info"/>
    <property name="gain">0.2</property>
   </filter>
  </entry>
  <entry in="37" out="3114" producer="2_1">
   <filter in="37" id="filter0">
    <property name="track">0</property>
    <property name="window">75</property>
    <property name="max_gain">20dB</property>
    <property name="mlt_type">filter</property>
    <property name="mlt_service">volume</property>
    <property name="kdenlive_id">volume</property>
    <property name="tag">volume</property>
    <property name="kdenlive_ix">1</property>
    <property name="kdenlive_info"/>
    <property name="gain">0.2</property>
   </filter>
  </entry>
  <entry in="36" out="3118" producer="2_1">
   <filter in="36" id="filter1">
    <property name="track">0</property>
    <property name="window">75</property>
    <property name="max_gain">20dB</property>
    <property name="mlt_type">filter</property>
    <property name="mlt_service">volume</property>
    <property name="kdenlive_id">volume</property>
    <property name="tag">volume</property>
    <property name="kdenlive_ix">1</property>
    <property name="kdenlive_info"/>
    <property name="gain">0.2</property>
   </filter>
  </entry>
  <entry in="35" out="3117" producer="2_1">
   <filter in="35" id="filter2">
    <property name="track">0</property>
    <property name="window">75</property>
    <property name="max_gain">20dB</property>
    <property name="mlt_type">filter</property>
    <property name="mlt_service">volume</property>
    <property name="kdenlive_id">volume</property>
    <property name="tag">volume</property>
    <property name="kdenlive_ix">1</property>
    <property name="kdenlive_info"/>
    <property name="gain">0.2</property>
   </filter>
  </entry>
  <entry in="36" out="1598" producer="2_1">
   <filter in="1506" out="1598" id="fadeout">
    <property name="track">0</property>
    <property name="window">75</property>
    <property name="max_gain">20dB</property>
    <property name="mlt_type">filter</property>
    <property name="mlt_service">volume</property>
    <property name="kdenlive_id">fadeout</property>
    <property name="tag">volume</property>
    <property name="kdenlive_ix">1</property>
    <property name="gain">1</property>
    <property name="end">0</property>
    <property name="kdenlive_info"/>
   </filter>
   <filter in="36" id="filter3">
    <property name="track">0</property>
    <property name="window">75</property>
    <property name="max_gain">20dB</property>
    <property name="mlt_type">filter</property>
    <property name="mlt_service">volume</property>
    <property name="kdenlive_id">volume</property>
    <property name="tag">volume</property>
    <property name="kdenlive_ix">2</property>
    <property name="kdenlive_info"/>
    <property name="gain">0.2</property>
   </filter>
  </entry>
 </playlist>
 <producer in="0" out="14610" id="1" title="Anonymous Submission">
  <property name="mlt_type">mlt_producer</property>
  <property name="length">14611</property>
  <property name="eof">pause</property>
  <property name="resource">original.mp4</property>
  <property name="meta.media.nb_streams">2</property>
  <property name="meta.media.0.stream.type">video</property>
  <property name="meta.media.0.stream.frame_rate">15</property>
  <property name="meta.media.0.stream.sample_aspect_ratio">1.00446</property>
  <property name="meta.media.0.codec.width">1280</property>
  <property name="meta.media.0.codec.height">720</property>
  <property name="meta.media.0.codec.frame_rate">15</property>
  <property name="meta.media.0.codec.pix_fmt">yuv420p</property>
  <property name="meta.media.0.codec.sample_aspect_ratio">1.00446</property>
  <property name="meta.media.0.codec.colorspace">709</property>
  <property name="meta.media.0.codec.name">h264</property>
  <property name="meta.media.0.codec.long_name">H.264 / AVC / MPEG-4 AVC / MPEG-4 part 10</property>
  <property name="meta.media.0.codec.bit_rate">243126</property>
  <property name="meta.attr.0.stream.handler_name.markup">VideoHandler</property>
  <property name="meta.media.1.stream.type">audio</property>
  <property name="meta.media.1.codec.sample_fmt">fltp</property>
  <property name="meta.media.1.codec.sample_rate">22050</property>
  <property name="meta.media.1.codec.channels">1</property>
  <property name="meta.media.1.codec.name">aac</property>
  <property name="meta.media.1.codec.long_name">AAC (Advanced Audio Coding)</property>
  <property name="meta.media.1.codec.bit_rate">109889</property>
  <property name="meta.attr.1.stream.handler_name.markup">SoundHandler</property>
  <property name="meta.attr.major_brand.markup">isom</property>
  <property name="meta.attr.minor_version.markup">512</property>
  <property name="meta.attr.compatible_brands.markup">isomiso2avc1mp41</property>
  <property name="meta.attr.encoder.markup">Lavf56.25.101</property>
  <property name="seekable">1</property>
  <property name="meta.media.sample_aspect_num">225</property>
  <property name="meta.media.sample_aspect_den">224</property>
  <property name="aspect_ratio">1.00446</property>
  <property name="audio_index">1</property>
  <property name="video_index">0</property>
  <property name="mute_on_pause">1</property>
  <property name="mlt_service">avformat</property>
  <property name="meta.media.frame_rate_num">15</property>
  <property name="meta.media.frame_rate_den">1</property>
  <property name="meta.media.colorspace">709</property>
  <property name="meta.media.color_trc">2</property>
  <property name="meta.media.width">1280</property>
  <property name="meta.media.height">720</property>
  <property name="meta.media.top_field_first">0</property>
  <property name="meta.media.progressive">1</property>
  <property name="global_feed">1</property>
 </producer>
 <producer in="0" out="2921" id="slowmotion:1:5">
  <property name="mlt_type">producer</property>
  <property name="length">2922</property>
  <property name="eof">pause</property>
  <property name="resource">original.mp4?5</property>
  <property name="aspect_ratio">1.00446</property>
  <property name="mlt_service">framebuffer</property>
  <property name="strobe">1</property>
 </producer>
 <producer in="0" out="119" id="3">
  <property name="mlt_type">producer</property>
  <property name="length">120</property>
  <property name="eof">pause</property>
  <property name="resource">0x000000ff</property>
  <property name="aspect_ratio">1</property>
  <property name="mlt_service">colour</property>
 </producer>
 <playlist id="playlist2">
  <entry in="0" out="7905" producer="1"/>
  <entry in="1580" out="1739" producer="slowmotion:1:5">
   <filter id="dynamictext">
    <property name="track">0</property>
    <property name="argument">5倍速加速中……#frame#</property>
    <property name="geometry">213.333/429.444:495x60:100</property>
    <property name="family">DejaVu Sans</property>
    <property name="size">48</property>
    <property name="weight">400</property>
    <property name="fgcolour">0x000000ff</property>
    <property name="bgcolour">0x00000000</property>
    <property name="olcolour">0xffffffff</property>
    <property name="pad">0</property>
    <property name="halign">left</property>
    <property name="valign">top</property>
    <property name="outline">1</property>
    <property name="mlt_type">filter</property>
    <property name="mlt_service">dynamictext</property>
    <property name="kdenlive_id">dynamictext</property>
    <property name="tag">dynamictext</property>
    <property name="kdenlive_ix">1</property>
    <property name="kdenlive_info">1/-1/</property>
    <property name="disable">0</property>
   </filter>
  </entry>
  <entry in="8880" out="14610" producer="1"/>
  <entry in="0" out="92" producer="3">
   <filter id="filter4">
    <property name="track">0</property>
    <property name="argument">感谢观看！</property>
    <property name="geometry">0/-300:1280x720:100</property>
    <property name="family">DejaVu Sans</property>
    <property name="size">48</property>
    <property name="weight">400</property>
    <property name="fgcolour">0xffffffff</property>
    <property name="bgcolour">0x00000020</property>
    <property name="olcolour">0x00000000</property>
    <property name="pad">0</property>
    <property name="halign">centre</property>
    <property name="valign">middle</property>
    <property name="outline">0</property>
    <property name="mlt_type">filter</property>
    <property name="mlt_service">dynamictext</property>
    <property name="kdenlive_id">dynamictext</property>
    <property name="tag">dynamictext</property>
    <property name="kdenlive_ix">1</property>
    <property name="kdenlive_info">1/-1/</property>
   </filter>
   <filter id="filter5">
    <property name="track">0</property>
    <property name="argument">您的点击、硬币和收藏就是我将视频做下去最大的动力！</property>
    <property name="geometry">0/100:1280x720:100</property>
    <property name="family">DejaVu Sans</property>
    <property name="size">48</property>
    <property name="weight">400</property>
    <property name="fgcolour">0xffffffff</property>
    <property name="bgcolour">0x00000020</property>
    <property name="olcolour">0x00000000</property>
    <property name="pad">0</property>
    <property name="halign">centre</property>
    <property name="valign">middle</property>
    <property name="outline">0</property>
    <property name="mlt_type">filter</property>
    <property name="mlt_service">dynamictext</property>
    <property name="kdenlive_id">dynamictext</property>
    <property name="tag">dynamictext</property>
    <property name="kdenlive_ix">2</property>
    <property name="kdenlive_info">1/-1/</property>
   </filter>
   <filter id="filter6">
    <property name="track">0</property>
    <property name="argument">敬请期待下一期的内容。</property>
    <property name="geometry">0/-100:1280x720:100</property>
    <property name="family">DejaVu Sans</property>
    <property name="size">48</property>
    <property name="weight">400</property>
    <property name="fgcolour">0xffffffff</property>
    <property name="bgcolour">0x00000020</property>
    <property name="olcolour">0x00000000</property>
    <property name="pad">0</property>
    <property name="halign">centre</property>
    <property name="valign">middle</property>
    <property name="outline">0</property>
    <property name="mlt_type">filter</property>
    <property name="mlt_service">dynamictext</property>
    <property name="kdenlive_id">dynamictext</property>
    <property name="tag">dynamictext</property>
    <property name="kdenlive_ix">3</property>
    <property name="kdenlive_info">1/-1/</property>
   </filter>
  </entry>
 </playlist>
 <tractor global_feed="1" in="0" out="13889" id="maintractor" title="Anonymous Submission">
  <property name="meta.volume">1</property>
  <track producer="black_track"/>
  <track hide="video" producer="playlist1"/>
  <track producer="playlist2"/>
  <transition id="transition0">
   <property name="a_track">1</property>
   <property name="b_track">2</property>
   <property name="mlt_type">transition</property>
   <property name="mlt_service">mix</property>
   <property name="always_active">1</property>
   <property name="combine">1</property>
   <property name="internal_added">237</property>
  </transition>
  <transition in="13796" out="13808" id="transition1">
   <property name="a_track">0</property>
   <property name="b_track">2</property>
   <property name="factory">loader</property>
   <property name="mlt_type">transition</property>
   <property name="mlt_service">luma</property>
   <property name="automatic">1</property>
   <property name="kdenlive_id">dissolve</property>
   <property name="force_track">0</property>
   <property name="reverse">0</property>
  </transition>
 </tractor>
 <kdenlivedoc kdenliveversion="15.04.1" version="0.88" projectfolder="/home/alex/Videos/Projects/小白也能轻松学会的Galgame制作/第1讲 上帝说，要有光/软件安利/" profile="atsc_720p_24">
  <customeffects/>
  <documentproperties verticalzoom="1" zoom="5" proxyparams="-f mpegts -acodec libmp3lame -ac 2 -ab 128k -vcodec mpeg2video -g 5 -s 640x480 -qscale 7" zonein="7971" generateimageproxy="0" proxyextension="ts" position="13889" generateproxy="0" enableproxy="0" proxyminsize="1000" documentid="1431960092097" zoneout="13796" proxyimageminsize="2000"/>
  <documentmetadata/>
  <documentnotes>&lt;!DOCTYPE HTML PUBLIC "-//W3C//DTD HTML 4.0//EN" "http://www.w3.org/TR/REC-html40/strict.dtd">
&lt;html>&lt;head>&lt;meta name="qrichtext" content="1" />&lt;style type="text/css">
p, li { white-space: pre-wrap; }
&lt;/style>&lt;/head>&lt;body style=" font-family:'Oxygen-Sans'; font-size:10pt; font-weight:400; font-style:normal;">
&lt;p style="-qt-paragraph-type:empty; margin-top:0px; margin-bottom:0px; margin-left:0px; margin-right:0px; -qt-block-indent:0; text-indent:0px;">&lt;br />&lt;/p>&lt;/body>&lt;/html></documentnotes>
  <profileinfo frame_rate_den="1" progressive="1" display_aspect_den="9" sample_aspect_den="1" width="1280" display_aspect_num="16" sample_aspect_num="1" description="HD 720p 24 fps" frame_rate_num="24" height="720"/>
  <tracksinfo>
   <trackinfo trackname="Audio 1" mute="0" blind="1" type="audio" locked="0"/>
   <trackinfo trackname="Video 1" mute="0" blind="0" locked="0"/>
  </tracksinfo>
  <kdenlive_producer duration="14611" fps="15" channels="1" type="3" videocodec="H.264 / AVC / MPEG-4 AVC / MPEG-4 part 10" audio_max="63" frame_size="1280x720" video_max="0" resource="/home/alex/Videos/Projects/小白也能轻松学会的Galgame制作/第1讲 上帝说，要有光/软件安利/original.mp4" name="original.mp4" frequency="22050" id="1" file_hash="ad9d328f929257ac95e34dbadfb67585" file_size="27203253" audiocodec="AAC (Advanced Audio Coding)" pix_fmt="yuv420p" default_video="0" aspect_ratio="1.00446" videocodecid="h264" colorspace="709" progressive="1" analysisdata="" default_audio="1">
   <metaproperty tool="" name="meta.attr.0.stream.handler_name">VideoHandler</metaproperty>
   <metaproperty tool="" name="meta.attr.1.stream.handler_name">SoundHandler</metaproperty>
   <metaproperty tool="" name="meta.attr.compatible_brands">isomiso2avc1mp41</metaproperty>
   <metaproperty tool="" name="meta.attr.encoder">Lavf56.25.101</metaproperty>
   <metaproperty tool="" name="meta.attr.major_brand">isom</metaproperty>
   <metaproperty tool="" name="meta.attr.minor_version">512</metaproperty>
  </kdenlive_producer>
  <kdenlive_producer audio_max="63" file_hash="31f5770ffda896cc544e3ed800cba768" resource="/home/alex/Videos/Projects/小白也能轻松学会的Galgame制作/第1讲 上帝说，要有光/软件安利/Are You OK?.mp3" aspect_ratio="0" frame_size="1280x720" frequency="44100" file_size="2125678" analysisdata="" duration="3188" audiocodec="MP3 (MPEG audio layer 3)" channels="2" id="2" type="1" name="Are You OK?.mp3">
   <metaproperty tool="" name="meta.attr.0.stream.encoder">Lavc56.26</metaproperty>
   <metaproperty tool="" name="meta.attr.compatible_brands">isomiso2avc1mp41</metaproperty>
   <metaproperty tool="" name="meta.attr.encoder">Lavf56.25.101</metaproperty>
   <metaproperty tool="" name="meta.attr.major_brand">isom</metaproperty>
   <metaproperty tool="" name="meta.attr.minor_version">512</metaproperty>
  </kdenlive_producer>
  <kdenlive_producer aspect_ratio="1" frame_size="1280x720" in="0" colour="0x000000ff" analysisdata="" duration="120" out="119" thumbnail="100" id="3" mlt_service="colour" type="4" name="Color Clip"/>
  <markers/>
  <groups/>
 </kdenlivedoc>
</mlt>
