<?xml version='1.0' encoding='utf-8'?>
<mlt LC_NUMERIC="en_AU.UTF-8" version="0.9.6" title="Anonymous Submission" root="/run/media/alex/SBPD/Video/Projects/小白也能轻松学会的Galgame制作/第2讲 从百草园，到三味书屋">
 <profile height="720" frame_rate_den="1" description="HD 720p 24 fps" width="1280" sample_aspect_num="1" sample_aspect_den="1" colorspace="709" frame_rate_num="24" display_aspect_den="9" progressive="1" display_aspect_num="16"/>
 <producer id="black" in="0" out="15571">
  <property name="mlt_type">producer</property>
  <property name="length">15572</property>
  <property name="eof">pause</property>
  <property name="resource">black</property>
  <property name="aspect_ratio">0</property>
  <property name="mlt_service">colour</property>
 </producer>
 <playlist id="black_track">
  <entry producer="black" in="0" out="12990"/>
 </playlist>
 <producer id="1_1_audio" title="Anonymous Submission" in="0" out="15571">
  <property name="mlt_type">producer</property>
  <property name="length">15572</property>
  <property name="eof">pause</property>
  <property name="resource">/home/alex/Videos/Projects/小白也能轻松学会的Galgame制作/第2讲 从百草园，到三味书屋/original.mp4</property>
  <property name="meta.media.nb_streams">2</property>
  <property name="meta.media.0.stream.type">video</property>
  <property name="meta.media.0.stream.frame_rate">15</property>
  <property name="meta.media.0.stream.sample_aspect_ratio">1.00446</property>
  <property name="meta.media.0.codec.width">1280</property>
  <property name="meta.media.0.codec.height">720</property>
  <property name="meta.media.0.codec.frame_rate">15</property>
  <property name="meta.media.0.codec.pix_fmt">yuv420p</property>
  <property name="meta.media.0.codec.sample_aspect_ratio">1.00446</property>
  <property name="meta.media.0.codec.colorspace">709</property>
  <property name="meta.media.0.codec.name">h264</property>
  <property name="meta.media.0.codec.long_name">H.264 / AVC / MPEG-4 AVC / MPEG-4 part 10</property>
  <property name="meta.media.0.codec.bit_rate">93570</property>
  <property name="meta.attr.0.stream.handler_name.markup">VideoHandler</property>
  <property name="meta.media.1.stream.type">audio</property>
  <property name="meta.media.1.codec.sample_fmt">fltp</property>
  <property name="meta.media.1.codec.sample_rate">22050</property>
  <property name="meta.media.1.codec.channels">1</property>
  <property name="meta.media.1.codec.name">aac</property>
  <property name="meta.media.1.codec.long_name">AAC (Advanced Audio Coding)</property>
  <property name="meta.media.1.codec.bit_rate">109487</property>
  <property name="meta.attr.1.stream.handler_name.markup">SoundHandler</property>
  <property name="meta.attr.major_brand.markup">isom</property>
  <property name="meta.attr.minor_version.markup">512</property>
  <property name="meta.attr.compatible_brands.markup">isomiso2avc1mp41</property>
  <property name="meta.attr.encoder.markup">Lavf56.25.101</property>
  <property name="seekable">1</property>
  <property name="meta.media.sample_aspect_num">225</property>
  <property name="meta.media.sample_aspect_den">224</property>
  <property name="aspect_ratio">1.00446</property>
  <property name="audio_index">1</property>
  <property name="video_index">-1</property>
  <property name="mute_on_pause">1</property>
  <property name="mlt_service">avformat</property>
  <property name="global_feed">1</property>
  <property name="xml">was here</property>
 </producer>
 <playlist id="playlist1">
  <blank length="9739"/>
  <entry producer="1_1_audio" in="12472" out="12481"/>
  <blank length="270"/>
  <entry producer="1_1_audio" in="12472" out="12482"/>
 </playlist>
 <producer id="1" title="Anonymous Submission" in="0" out="15571">
  <property name="mlt_type">mlt_producer</property>
  <property name="length">15572</property>
  <property name="eof">pause</property>
  <property name="resource">/home/alex/Videos/Projects/小白也能轻松学会的Galgame制作/第2讲 从百草园，到三味书屋/original.mp4</property>
  <property name="meta.media.nb_streams">2</property>
  <property name="meta.media.0.stream.type">video</property>
  <property name="meta.media.0.stream.frame_rate">15</property>
  <property name="meta.media.0.stream.sample_aspect_ratio">1.00446</property>
  <property name="meta.media.0.codec.width">1280</property>
  <property name="meta.media.0.codec.height">720</property>
  <property name="meta.media.0.codec.frame_rate">15</property>
  <property name="meta.media.0.codec.pix_fmt">yuv420p</property>
  <property name="meta.media.0.codec.sample_aspect_ratio">1.00446</property>
  <property name="meta.media.0.codec.colorspace">709</property>
  <property name="meta.media.0.codec.name">h264</property>
  <property name="meta.media.0.codec.long_name">H.264 / AVC / MPEG-4 AVC / MPEG-4 part 10</property>
  <property name="meta.media.0.codec.bit_rate">93570</property>
  <property name="meta.attr.0.stream.handler_name.markup">VideoHandler</property>
  <property name="meta.media.1.stream.type">audio</property>
  <property name="meta.media.1.codec.sample_fmt">fltp</property>
  <property name="meta.media.1.codec.sample_rate">22050</property>
  <property name="meta.media.1.codec.channels">1</property>
  <property name="meta.media.1.codec.name">aac</property>
  <property name="meta.media.1.codec.long_name">AAC (Advanced Audio Coding)</property>
  <property name="meta.media.1.codec.bit_rate">109487</property>
  <property name="meta.attr.1.stream.handler_name.markup">SoundHandler</property>
  <property name="meta.attr.major_brand.markup">isom</property>
  <property name="meta.attr.minor_version.markup">512</property>
  <property name="meta.attr.compatible_brands.markup">isomiso2avc1mp41</property>
  <property name="meta.attr.encoder.markup">Lavf56.25.101</property>
  <property name="seekable">1</property>
  <property name="meta.media.sample_aspect_num">225</property>
  <property name="meta.media.sample_aspect_den">224</property>
  <property name="aspect_ratio">1.00446</property>
  <property name="audio_index">1</property>
  <property name="video_index">0</property>
  <property name="mute_on_pause">1</property>
  <property name="mlt_service">avformat</property>
  <property name="meta.media.frame_rate_num">15</property>
  <property name="meta.media.frame_rate_den">1</property>
  <property name="meta.media.colorspace">709</property>
  <property name="meta.media.color_trc">2</property>
  <property name="meta.media.width">1280</property>
  <property name="meta.media.height">720</property>
  <property name="meta.media.top_field_first">0</property>
  <property name="meta.media.progressive">1</property>
  <property name="global_feed">1</property>
 </producer>
 <producer id="1_1_video" title="Anonymous Submission" in="0" out="15571">
  <property name="mlt_type">mlt_producer</property>
  <property name="length">15572</property>
  <property name="eof">pause</property>
  <property name="resource">/home/alex/Videos/Projects/小白也能轻松学会的Galgame制作/第2讲 从百草园，到三味书屋/original.mp4</property>
  <property name="meta.media.nb_streams">2</property>
  <property name="meta.media.0.stream.type">video</property>
  <property name="meta.media.0.stream.frame_rate">15</property>
  <property name="meta.media.0.stream.sample_aspect_ratio">1.00446</property>
  <property name="meta.media.0.codec.width">1280</property>
  <property name="meta.media.0.codec.height">720</property>
  <property name="meta.media.0.codec.frame_rate">15</property>
  <property name="meta.media.0.codec.pix_fmt">yuv420p</property>
  <property name="meta.media.0.codec.sample_aspect_ratio">1.00446</property>
  <property name="meta.media.0.codec.colorspace">709</property>
  <property name="meta.media.0.codec.name">h264</property>
  <property name="meta.media.0.codec.long_name">H.264 / AVC / MPEG-4 AVC / MPEG-4 part 10</property>
  <property name="meta.media.0.codec.bit_rate">93570</property>
  <property name="meta.attr.0.stream.handler_name.markup">VideoHandler</property>
  <property name="meta.media.1.stream.type">audio</property>
  <property name="meta.media.1.codec.sample_fmt">fltp</property>
  <property name="meta.media.1.codec.sample_rate">22050</property>
  <property name="meta.media.1.codec.channels">1</property>
  <property name="meta.media.1.codec.name">aac</property>
  <property name="meta.media.1.codec.long_name">AAC (Advanced Audio Coding)</property>
  <property name="meta.media.1.codec.bit_rate">109487</property>
  <property name="meta.attr.1.stream.handler_name.markup">SoundHandler</property>
  <property name="meta.attr.major_brand.markup">isom</property>
  <property name="meta.attr.minor_version.markup">512</property>
  <property name="meta.attr.compatible_brands.markup">isomiso2avc1mp41</property>
  <property name="meta.attr.encoder.markup">Lavf56.25.101</property>
  <property name="seekable">1</property>
  <property name="meta.media.sample_aspect_num">225</property>
  <property name="meta.media.sample_aspect_den">224</property>
  <property name="aspect_ratio">1.00446</property>
  <property name="audio_index">-1</property>
  <property name="video_index">0</property>
  <property name="mute_on_pause">1</property>
  <property name="mlt_service">avformat</property>
  <property name="global_feed">1</property>
  <property name="xml">was here</property>
  <property name="meta.media.frame_rate_num">15</property>
  <property name="meta.media.frame_rate_den">1</property>
  <property name="meta.media.colorspace">709</property>
  <property name="meta.media.color_trc">2</property>
  <property name="meta.media.width">1280</property>
  <property name="meta.media.height">720</property>
  <property name="meta.media.top_field_first">0</property>
  <property name="meta.media.progressive">1</property>
 </producer>
 <playlist id="playlist2">
  <entry producer="1" in="0" out="164"/>
  <entry producer="1" in="182" out="202"/>
  <entry producer="1" in="287" out="390"/>
  <entry producer="1" in="426" out="891"/>
  <entry producer="1" in="896" out="908"/>
  <entry producer="1" in="921" out="953"/>
  <entry producer="1" in="992" out="1071"/>
  <entry producer="1" in="1081" out="1097"/>
  <entry producer="1" in="1100" out="1149"/>
  <entry producer="1" in="1153" out="1170"/>
  <entry producer="1" in="1190" out="1286"/>
  <entry producer="1" in="1289" out="1292"/>
  <entry producer="1" in="1300" out="1302"/>
  <entry producer="1" in="1305" out="1318"/>
  <entry producer="1" in="1340" out="1475"/>
  <entry producer="1" in="1477" out="1506"/>
  <entry producer="1" in="1509" out="1701"/>
  <entry producer="1" in="1714" out="1873"/>
  <entry producer="1" in="1887" out="1907"/>
  <entry producer="1" in="1924" out="2189"/>
  <entry producer="1" in="2193" out="2200"/>
  <entry producer="1" in="2205" out="2212"/>
  <entry producer="1" in="2218" out="2229"/>
  <entry producer="1" in="2241" out="2251"/>
  <entry producer="1" in="2263" out="2491"/>
  <entry producer="1" in="2502" out="2574"/>
  <entry producer="1" in="2594" out="2785"/>
  <entry producer="1" in="2788" out="2793"/>
  <entry producer="1" in="2796" out="2805"/>
  <entry producer="1" in="2813" out="3429"/>
  <entry producer="1" in="3447" out="3505"/>
  <entry producer="1" in="3514" out="3524"/>
  <entry producer="1" in="3528" out="3559"/>
  <entry producer="1" in="3587" out="3720"/>
  <entry producer="1" in="3738" out="3949"/>
  <entry producer="1" in="3988" out="4010"/>
  <entry producer="1" in="4018" out="4025"/>
  <entry producer="1" in="4033" out="4666"/>
  <entry producer="1" in="4717" out="4748"/>
  <entry producer="1" in="4773" out="4816"/>
  <entry producer="1" in="4860" out="4863"/>
  <entry producer="1" in="4871" out="4951"/>
  <entry producer="1" in="4963" out="5225"/>
  <entry producer="1" in="5275" out="5285"/>
  <entry producer="1" in="5295" out="5412"/>
  <entry producer="1" in="5452" out="5761"/>
  <entry producer="1" in="5786" out="5886"/>
  <entry producer="1" in="5937" out="5961"/>
  <entry producer="1" in="6024" out="6046"/>
  <entry producer="1" in="6049" out="6080"/>
  <entry producer="1" in="6094" out="6608"/>
  <entry producer="1" in="6643" out="6695"/>
  <entry producer="1" in="6740" out="6806"/>
  <entry producer="1" in="6852" out="6877"/>
  <entry producer="1" in="6892" out="6970"/>
  <entry producer="1" in="7010" out="7187"/>
  <entry producer="1" in="7194" out="7608"/>
  <entry producer="1" in="7640" out="7746"/>
  <entry producer="1" in="7772" out="7819"/>
  <entry producer="1" in="7831" out="7855"/>
  <entry producer="1" in="7863" out="7946"/>
  <entry producer="1" in="7989" out="8053"/>
  <entry producer="1" in="8058" out="8116"/>
  <entry producer="1" in="8138" out="8170"/>
  <entry producer="1" in="8182" out="8190"/>
  <entry producer="1" in="8209" out="8270"/>
  <entry producer="1" in="8323" out="8347"/>
  <entry producer="1" in="8372" out="8439"/>
  <entry producer="1" in="8558" out="8622"/>
  <entry producer="1" in="8642" out="8678"/>
  <entry producer="1" in="8685" out="8737"/>
  <entry producer="1" in="8797" out="8802"/>
  <entry producer="1" in="8809" out="8942"/>
  <entry producer="1" in="8953" out="8960"/>
  <entry producer="1" in="8967" out="9093"/>
  <entry producer="1" in="9135" out="9434"/>
  <entry producer="1" in="9485" out="9509"/>
  <entry producer="1" in="9548" out="9623"/>
  <entry producer="1" in="9651" out="9666"/>
  <entry producer="1" in="9677" out="9691"/>
  <entry producer="1" in="9733" out="9761"/>
  <entry producer="1" in="9802" out="9808"/>
  <entry producer="1" in="9812" out="9933"/>
  <entry producer="1" in="9956" out="10037"/>
  <entry producer="1" in="10063" out="10477"/>
  <entry producer="1" in="10527" out="10613"/>
  <entry producer="1" in="10861" out="10872"/>
  <entry producer="1" in="10881" out="10992"/>
  <entry producer="1" in="11018" out="11165"/>
  <entry producer="1" in="11214" out="11281"/>
  <entry producer="1" in="11320" out="11325"/>
  <entry producer="1" in="11337" out="11412"/>
  <entry producer="1" in="11446" out="11463"/>
  <entry producer="1" in="11470" out="11528"/>
  <entry producer="1" in="11542" out="11615"/>
  <entry producer="1" in="11625" out="11651"/>
  <entry producer="1" in="11707" out="11755"/>
  <entry producer="1" in="11818" out="12132"/>
  <entry producer="1" in="12133" out="12146"/>
  <entry producer="1" in="12158" out="12182"/>
  <entry producer="1_1_video" in="12192" out="12201"/>
  <entry producer="1" in="12202" out="12471"/>
  <entry producer="1_1_video" in="12472" out="12482"/>
  <entry producer="1" in="12483" out="12521"/>
  <entry producer="1" in="12636" out="12643"/>
  <entry producer="1" in="12658" out="15571"/>
 </playlist>
 <tractor id="maintractor" title="Anonymous Submission" in="0" out="12990" global_feed="1">
  <property name="meta.volume">1</property>
  <track producer="black_track"/>
  <track producer="playlist1" hide="video"/>
  <track producer="playlist2"/>
  <transition id="transition0">
   <property name="a_track">1</property>
   <property name="b_track">2</property>
   <property name="mlt_type">transition</property>
   <property name="mlt_service">mix</property>
   <property name="always_active">1</property>
   <property name="combine">1</property>
   <property name="internal_added">237</property>
  </transition>
 </tractor>
 <kdenlivedoc kdenliveversion="15.04.1" version="0.88" projectfolder="/home/alex/Videos/Projects/小白也能轻松学会的Galgame制作/第2讲 从百草园，到三味书屋" profile="atsc_720p_24">
  <customeffects/>
  <documentproperties documentid="1432551912507" proxyparams="-f mpegts -acodec libmp3lame -ac 2 -ab 128k -vcodec mpeg2video -g 5 -s 640x480 -qscale 7" zoneout="1" zoom="3" proxyextension="ts" generateproxy="0" proxyimageminsize="2000" verticalzoom="1" proxyminsize="1000" generateimageproxy="0" zonein="0" enableproxy="0" position="9716"/>
  <documentmetadata/>
  <documentnotes>&lt;!DOCTYPE HTML PUBLIC "-//W3C//DTD HTML 4.0//EN" "http://www.w3.org/TR/REC-html40/strict.dtd">
&lt;html>&lt;head>&lt;meta name="qrichtext" content="1" />&lt;style type="text/css">
p, li { white-space: pre-wrap; }
&lt;/style>&lt;/head>&lt;body style=" font-family:'Oxygen-Sans'; font-size:10pt; font-weight:400; font-style:normal;">
&lt;p style="-qt-paragraph-type:empty; margin-top:0px; margin-bottom:0px; margin-left:0px; margin-right:0px; -qt-block-indent:0; text-indent:0px;">&lt;br />&lt;/p>&lt;/body>&lt;/html></documentnotes>
  <profileinfo frame_rate_den="1" height="720" description="HD 720p 24 fps" width="1280" sample_aspect_num="1" sample_aspect_den="1" frame_rate_num="24" display_aspect_den="9" progressive="1" display_aspect_num="16"/>
  <tracksinfo>
   <trackinfo trackname="Audio 1" locked="0" type="audio" blind="1" mute="0"/>
   <trackinfo trackname="Video 1" locked="0" blind="0" mute="0"/>
  </tracksinfo>
  <kdenlive_producer name="original.mp4" video_max="0" frame_size="1280x720" frequency="22050" file_hash="ca12911b31ec9f70f095afad132eb43f" audiocodec="AAC (Advanced Audio Coding)" id="1" videocodec="H.264 / AVC / MPEG-4 AVC / MPEG-4 part 10" fps="15" pix_fmt="yuv420p" duration="15572" progressive="1" aspect_ratio="1.00446" channels="1" videocodecid="h264" type="3" default_audio="1" colorspace="709" resource="/home/alex/Videos/Projects/小白也能轻松学会的Galgame制作/第2讲 从百草园，到三味书屋/original.mp4" default_video="0" analysisdata="" audio_max="53" file_size="16810177">
   <metaproperty name="meta.attr.0.stream.handler_name" tool="">VideoHandler</metaproperty>
   <metaproperty name="meta.attr.1.stream.handler_name" tool="">SoundHandler</metaproperty>
   <metaproperty name="meta.attr.compatible_brands" tool="">isomiso2avc1mp41</metaproperty>
   <metaproperty name="meta.attr.encoder" tool="">Lavf56.25.101</metaproperty>
   <metaproperty name="meta.attr.major_brand" tool="">isom</metaproperty>
   <metaproperty name="meta.attr.minor_version" tool="">512</metaproperty>
  </kdenlive_producer>
  <markers/>
  <groups/>
 </kdenlivedoc>
</mlt>
