<?xml version='1.0' encoding='utf-8'?>
<mlt LC_NUMERIC="en_AU.UTF-8" version="0.9.6" title="Anonymous Submission" root="/run/media/alex/SBPD/Video/Projects/小白也能轻松学会的Galgame制作/第2讲 从百草园，到三味书屋">
 <profile frame_rate_num="24" description="HD 720p 24 fps" frame_rate_den="1" progressive="1" sample_aspect_num="1" sample_aspect_den="1" display_aspect_num="16" colorspace="709" display_aspect_den="9" width="1280" height="720"/>
 <producer id="black" in="0" out="15571">
  <property name="mlt_type">producer</property>
  <property name="length">15572</property>
  <property name="eof">pause</property>
  <property name="resource">black</property>
  <property name="aspect_ratio">0</property>
  <property name="mlt_service">colour</property>
 </producer>
 <playlist id="black_track">
  <entry producer="black" in="0" out="11141"/>
 </playlist>
 <playlist id="playlist1"/>
 <producer id="2_2" title="Anonymous Submission" in="0" out="2140">
  <property name="mlt_type">producer</property>
  <property name="length">2141</property>
  <property name="eof">pause</property>
  <property name="resource">/home/alex/Videos/Projects/小白也能轻松学会的Galgame制作/第2讲 从百草园，到三味书屋/original2.mp4</property>
  <property name="meta.media.nb_streams">2</property>
  <property name="meta.media.0.stream.type">video</property>
  <property name="meta.media.0.stream.frame_rate">15</property>
  <property name="meta.media.0.stream.sample_aspect_ratio">1.00446</property>
  <property name="meta.media.0.codec.width">1280</property>
  <property name="meta.media.0.codec.height">720</property>
  <property name="meta.media.0.codec.frame_rate">15</property>
  <property name="meta.media.0.codec.pix_fmt">yuv420p</property>
  <property name="meta.media.0.codec.sample_aspect_ratio">1.00446</property>
  <property name="meta.media.0.codec.colorspace">709</property>
  <property name="meta.media.0.codec.name">h264</property>
  <property name="meta.media.0.codec.long_name">H.264 / AVC / MPEG-4 AVC / MPEG-4 part 10</property>
  <property name="meta.media.0.codec.bit_rate">97617</property>
  <property name="meta.attr.0.stream.handler_name.markup">VideoHandler</property>
  <property name="meta.media.1.stream.type">audio</property>
  <property name="meta.media.1.codec.sample_fmt">fltp</property>
  <property name="meta.media.1.codec.sample_rate">22050</property>
  <property name="meta.media.1.codec.channels">1</property>
  <property name="meta.media.1.codec.name">aac</property>
  <property name="meta.media.1.codec.long_name">AAC (Advanced Audio Coding)</property>
  <property name="meta.media.1.codec.bit_rate">109548</property>
  <property name="meta.attr.1.stream.handler_name.markup">SoundHandler</property>
  <property name="meta.attr.major_brand.markup">isom</property>
  <property name="meta.attr.minor_version.markup">512</property>
  <property name="meta.attr.compatible_brands.markup">isomiso2avc1mp41</property>
  <property name="meta.attr.encoder.markup">Lavf56.25.101</property>
  <property name="seekable">1</property>
  <property name="meta.media.sample_aspect_num">225</property>
  <property name="meta.media.sample_aspect_den">224</property>
  <property name="aspect_ratio">1.00446</property>
  <property name="audio_index">1</property>
  <property name="video_index">0</property>
  <property name="mute_on_pause">1</property>
  <property name="mlt_service">avformat</property>
  <property name="global_feed">1</property>
  <property name="xml">was here</property>
 </producer>
 <playlist id="playlist0">
  <blank length="9008"/>
  <entry producer="2_2" in="26" out="111">
   <filter id="volume" in="26">
    <property name="track">0</property>
    <property name="window">75</property>
    <property name="max_gain">20dB</property>
    <property name="mlt_type">filter</property>
    <property name="mlt_service">volume</property>
    <property name="kdenlive_id">volume</property>
    <property name="tag">volume</property>
    <property name="kdenlive_ix">1</property>
    <property name="kdenlive_info"/>
    <property name="gain">0.46</property>
    <property name="disable">0</property>
   </filter>
   <filter id="ladspa.1049">
    <property name="track">0</property>
    <property name="mlt_type">filter</property>
    <property name="mlt_service">ladspa.1049</property>
    <property name="kdenlive_id">ladspa.1049</property>
    <property name="tag">ladspa.1049</property>
    <property name="kdenlive_ix">2</property>
    <property name="kdenlive_info"/>
    <property name="0">0</property>
    <property name="wetness">0.394</property>
    <property name="disable">0</property>
   </filter>
  </entry>
  <entry producer="2_2" in="127" out="184">
   <filter id="filter0" in="26">
    <property name="track">0</property>
    <property name="window">75</property>
    <property name="max_gain">20dB</property>
    <property name="mlt_type">filter</property>
    <property name="mlt_service">volume</property>
    <property name="kdenlive_id">volume</property>
    <property name="tag">volume</property>
    <property name="kdenlive_ix">1</property>
    <property name="kdenlive_info"/>
    <property name="disable">0</property>
    <property name="gain">0.46</property>
   </filter>
   <filter id="filter1">
    <property name="track">0</property>
    <property name="mlt_type">filter</property>
    <property name="mlt_service">ladspa.1049</property>
    <property name="kdenlive_id">ladspa.1049</property>
    <property name="tag">ladspa.1049</property>
    <property name="kdenlive_ix">2</property>
    <property name="kdenlive_info"/>
    <property name="disable">0</property>
    <property name="0">0</property>
    <property name="wetness">0.394</property>
   </filter>
  </entry>
  <entry producer="2_2" in="201" out="253">
   <filter id="filter2" in="26">
    <property name="track">0</property>
    <property name="window">75</property>
    <property name="max_gain">20dB</property>
    <property name="mlt_type">filter</property>
    <property name="mlt_service">volume</property>
    <property name="kdenlive_id">volume</property>
    <property name="tag">volume</property>
    <property name="kdenlive_ix">1</property>
    <property name="kdenlive_info"/>
    <property name="disable">0</property>
    <property name="gain">0.46</property>
   </filter>
   <filter id="filter3">
    <property name="track">0</property>
    <property name="mlt_type">filter</property>
    <property name="mlt_service">ladspa.1049</property>
    <property name="kdenlive_id">ladspa.1049</property>
    <property name="tag">ladspa.1049</property>
    <property name="kdenlive_ix">2</property>
    <property name="kdenlive_info"/>
    <property name="disable">0</property>
    <property name="0">0</property>
    <property name="wetness">0.394</property>
   </filter>
  </entry>
  <entry producer="2_2" in="255" out="264">
   <filter id="filter4" in="26">
    <property name="track">0</property>
    <property name="window">75</property>
    <property name="max_gain">20dB</property>
    <property name="mlt_type">filter</property>
    <property name="mlt_service">volume</property>
    <property name="kdenlive_id">volume</property>
    <property name="tag">volume</property>
    <property name="kdenlive_ix">1</property>
    <property name="kdenlive_info"/>
    <property name="disable">0</property>
    <property name="gain">0.46</property>
   </filter>
   <filter id="filter5">
    <property name="track">0</property>
    <property name="mlt_type">filter</property>
    <property name="mlt_service">ladspa.1049</property>
    <property name="kdenlive_id">ladspa.1049</property>
    <property name="tag">ladspa.1049</property>
    <property name="kdenlive_ix">2</property>
    <property name="kdenlive_info"/>
    <property name="disable">0</property>
    <property name="0">0</property>
    <property name="wetness">0.394</property>
   </filter>
  </entry>
  <entry producer="2_2" in="268" out="317">
   <filter id="filter6" in="26">
    <property name="track">0</property>
    <property name="window">75</property>
    <property name="max_gain">20dB</property>
    <property name="mlt_type">filter</property>
    <property name="mlt_service">volume</property>
    <property name="kdenlive_id">volume</property>
    <property name="tag">volume</property>
    <property name="kdenlive_ix">1</property>
    <property name="kdenlive_info"/>
    <property name="disable">0</property>
    <property name="gain">0.46</property>
   </filter>
   <filter id="filter7">
    <property name="track">0</property>
    <property name="mlt_type">filter</property>
    <property name="mlt_service">ladspa.1049</property>
    <property name="kdenlive_id">ladspa.1049</property>
    <property name="tag">ladspa.1049</property>
    <property name="kdenlive_ix">2</property>
    <property name="kdenlive_info"/>
    <property name="disable">0</property>
    <property name="0">0</property>
    <property name="wetness">0.394</property>
   </filter>
  </entry>
  <entry producer="2_2" in="349" out="451">
   <filter id="filter8" in="26">
    <property name="track">0</property>
    <property name="window">75</property>
    <property name="max_gain">20dB</property>
    <property name="mlt_type">filter</property>
    <property name="mlt_service">volume</property>
    <property name="kdenlive_id">volume</property>
    <property name="tag">volume</property>
    <property name="kdenlive_ix">1</property>
    <property name="kdenlive_info"/>
    <property name="disable">0</property>
    <property name="gain">0.46</property>
   </filter>
   <filter id="filter9">
    <property name="track">0</property>
    <property name="mlt_type">filter</property>
    <property name="mlt_service">ladspa.1049</property>
    <property name="kdenlive_id">ladspa.1049</property>
    <property name="tag">ladspa.1049</property>
    <property name="kdenlive_ix">2</property>
    <property name="kdenlive_info"/>
    <property name="disable">0</property>
    <property name="0">0</property>
    <property name="wetness">0.394</property>
   </filter>
  </entry>
  <entry producer="2_2" in="469" out="493">
   <filter id="filter10" in="26">
    <property name="track">0</property>
    <property name="window">75</property>
    <property name="max_gain">20dB</property>
    <property name="mlt_type">filter</property>
    <property name="mlt_service">volume</property>
    <property name="kdenlive_id">volume</property>
    <property name="tag">volume</property>
    <property name="kdenlive_ix">1</property>
    <property name="kdenlive_info"/>
    <property name="disable">0</property>
    <property name="gain">0.46</property>
   </filter>
   <filter id="filter11">
    <property name="track">0</property>
    <property name="mlt_type">filter</property>
    <property name="mlt_service">ladspa.1049</property>
    <property name="kdenlive_id">ladspa.1049</property>
    <property name="tag">ladspa.1049</property>
    <property name="kdenlive_ix">2</property>
    <property name="kdenlive_info"/>
    <property name="disable">0</property>
    <property name="0">0</property>
    <property name="wetness">0.394</property>
   </filter>
  </entry>
  <entry producer="2_2" in="524" out="607">
   <filter id="filter12" in="26">
    <property name="track">0</property>
    <property name="window">75</property>
    <property name="max_gain">20dB</property>
    <property name="mlt_type">filter</property>
    <property name="mlt_service">volume</property>
    <property name="kdenlive_id">volume</property>
    <property name="tag">volume</property>
    <property name="kdenlive_ix">1</property>
    <property name="kdenlive_info"/>
    <property name="disable">0</property>
    <property name="gain">0.46</property>
   </filter>
   <filter id="filter13">
    <property name="track">0</property>
    <property name="mlt_type">filter</property>
    <property name="mlt_service">ladspa.1049</property>
    <property name="kdenlive_id">ladspa.1049</property>
    <property name="tag">ladspa.1049</property>
    <property name="kdenlive_ix">2</property>
    <property name="kdenlive_info"/>
    <property name="disable">0</property>
    <property name="0">0</property>
    <property name="wetness">0.394</property>
   </filter>
  </entry>
  <entry producer="2_2" in="649" out="803">
   <filter id="filter14" in="26">
    <property name="track">0</property>
    <property name="window">75</property>
    <property name="max_gain">20dB</property>
    <property name="mlt_type">filter</property>
    <property name="mlt_service">volume</property>
    <property name="kdenlive_id">volume</property>
    <property name="tag">volume</property>
    <property name="kdenlive_ix">1</property>
    <property name="kdenlive_info"/>
    <property name="disable">0</property>
    <property name="gain">0.46</property>
   </filter>
   <filter id="filter15">
    <property name="track">0</property>
    <property name="mlt_type">filter</property>
    <property name="mlt_service">ladspa.1049</property>
    <property name="kdenlive_id">ladspa.1049</property>
    <property name="tag">ladspa.1049</property>
    <property name="kdenlive_ix">2</property>
    <property name="kdenlive_info"/>
    <property name="disable">0</property>
    <property name="0">0</property>
    <property name="wetness">0.394</property>
   </filter>
  </entry>
  <entry producer="2_2" in="845" out="874">
   <filter id="filter16" in="26">
    <property name="track">0</property>
    <property name="window">75</property>
    <property name="max_gain">20dB</property>
    <property name="mlt_type">filter</property>
    <property name="mlt_service">volume</property>
    <property name="kdenlive_id">volume</property>
    <property name="tag">volume</property>
    <property name="kdenlive_ix">1</property>
    <property name="kdenlive_info"/>
    <property name="disable">0</property>
    <property name="gain">0.46</property>
   </filter>
   <filter id="filter17">
    <property name="track">0</property>
    <property name="mlt_type">filter</property>
    <property name="mlt_service">ladspa.1049</property>
    <property name="kdenlive_id">ladspa.1049</property>
    <property name="tag">ladspa.1049</property>
    <property name="kdenlive_ix">2</property>
    <property name="kdenlive_info"/>
    <property name="disable">0</property>
    <property name="0">0</property>
    <property name="wetness">0.394</property>
   </filter>
  </entry>
  <entry producer="2_2" in="878" out="1222">
   <filter id="filter18" in="26">
    <property name="track">0</property>
    <property name="window">75</property>
    <property name="max_gain">20dB</property>
    <property name="mlt_type">filter</property>
    <property name="mlt_service">volume</property>
    <property name="kdenlive_id">volume</property>
    <property name="tag">volume</property>
    <property name="kdenlive_ix">1</property>
    <property name="kdenlive_info"/>
    <property name="disable">0</property>
    <property name="gain">0.46</property>
   </filter>
   <filter id="filter19">
    <property name="track">0</property>
    <property name="mlt_type">filter</property>
    <property name="mlt_service">ladspa.1049</property>
    <property name="kdenlive_id">ladspa.1049</property>
    <property name="tag">ladspa.1049</property>
    <property name="kdenlive_ix">2</property>
    <property name="kdenlive_info"/>
    <property name="disable">0</property>
    <property name="0">0</property>
    <property name="wetness">0.394</property>
   </filter>
  </entry>
  <entry producer="2_2" in="1311" out="1400">
   <filter id="filter20" in="26">
    <property name="track">0</property>
    <property name="window">75</property>
    <property name="max_gain">20dB</property>
    <property name="mlt_type">filter</property>
    <property name="mlt_service">volume</property>
    <property name="kdenlive_id">volume</property>
    <property name="tag">volume</property>
    <property name="kdenlive_ix">1</property>
    <property name="kdenlive_info"/>
    <property name="disable">0</property>
    <property name="gain">0.46</property>
   </filter>
   <filter id="filter21">
    <property name="track">0</property>
    <property name="mlt_type">filter</property>
    <property name="mlt_service">ladspa.1049</property>
    <property name="kdenlive_id">ladspa.1049</property>
    <property name="tag">ladspa.1049</property>
    <property name="kdenlive_ix">2</property>
    <property name="kdenlive_info"/>
    <property name="disable">0</property>
    <property name="0">0</property>
    <property name="wetness">0.394</property>
   </filter>
  </entry>
  <entry producer="2_2" in="1424" out="1445">
   <filter id="filter22" in="26">
    <property name="track">0</property>
    <property name="window">75</property>
    <property name="max_gain">20dB</property>
    <property name="mlt_type">filter</property>
    <property name="mlt_service">volume</property>
    <property name="kdenlive_id">volume</property>
    <property name="tag">volume</property>
    <property name="kdenlive_ix">1</property>
    <property name="kdenlive_info"/>
    <property name="disable">0</property>
    <property name="gain">0.46</property>
   </filter>
   <filter id="filter23">
    <property name="track">0</property>
    <property name="mlt_type">filter</property>
    <property name="mlt_service">ladspa.1049</property>
    <property name="kdenlive_id">ladspa.1049</property>
    <property name="tag">ladspa.1049</property>
    <property name="kdenlive_ix">2</property>
    <property name="kdenlive_info"/>
    <property name="disable">0</property>
    <property name="0">0</property>
    <property name="wetness">0.394</property>
   </filter>
  </entry>
  <entry producer="2_2" in="1465" out="1526">
   <filter id="filter24" in="26">
    <property name="track">0</property>
    <property name="window">75</property>
    <property name="max_gain">20dB</property>
    <property name="mlt_type">filter</property>
    <property name="mlt_service">volume</property>
    <property name="kdenlive_id">volume</property>
    <property name="tag">volume</property>
    <property name="kdenlive_ix">1</property>
    <property name="kdenlive_info"/>
    <property name="disable">0</property>
    <property name="gain">0.46</property>
   </filter>
   <filter id="filter25">
    <property name="track">0</property>
    <property name="mlt_type">filter</property>
    <property name="mlt_service">ladspa.1049</property>
    <property name="kdenlive_id">ladspa.1049</property>
    <property name="tag">ladspa.1049</property>
    <property name="kdenlive_ix">2</property>
    <property name="kdenlive_info"/>
    <property name="disable">0</property>
    <property name="0">0</property>
    <property name="wetness">0.394</property>
   </filter>
  </entry>
  <entry producer="2_2" in="1543" out="1608">
   <filter id="filter26" in="26">
    <property name="track">0</property>
    <property name="window">75</property>
    <property name="max_gain">20dB</property>
    <property name="mlt_type">filter</property>
    <property name="mlt_service">volume</property>
    <property name="kdenlive_id">volume</property>
    <property name="tag">volume</property>
    <property name="kdenlive_ix">1</property>
    <property name="kdenlive_info"/>
    <property name="disable">0</property>
    <property name="gain">0.46</property>
   </filter>
   <filter id="filter27">
    <property name="track">0</property>
    <property name="mlt_type">filter</property>
    <property name="mlt_service">ladspa.1049</property>
    <property name="kdenlive_id">ladspa.1049</property>
    <property name="tag">ladspa.1049</property>
    <property name="kdenlive_ix">2</property>
    <property name="kdenlive_info"/>
    <property name="disable">0</property>
    <property name="0">0</property>
    <property name="wetness">0.394</property>
   </filter>
  </entry>
  <entry producer="2_2" in="1623" out="1645">
   <filter id="filter28" in="26">
    <property name="track">0</property>
    <property name="window">75</property>
    <property name="max_gain">20dB</property>
    <property name="mlt_type">filter</property>
    <property name="mlt_service">volume</property>
    <property name="kdenlive_id">volume</property>
    <property name="tag">volume</property>
    <property name="kdenlive_ix">1</property>
    <property name="kdenlive_info"/>
    <property name="disable">0</property>
    <property name="gain">0.46</property>
   </filter>
   <filter id="filter29">
    <property name="track">0</property>
    <property name="mlt_type">filter</property>
    <property name="mlt_service">ladspa.1049</property>
    <property name="kdenlive_id">ladspa.1049</property>
    <property name="tag">ladspa.1049</property>
    <property name="kdenlive_ix">2</property>
    <property name="kdenlive_info"/>
    <property name="disable">0</property>
    <property name="0">0</property>
    <property name="wetness">0.394</property>
   </filter>
  </entry>
  <entry producer="2_2" in="1669" out="1695">
   <filter id="filter30" in="26">
    <property name="track">0</property>
    <property name="window">75</property>
    <property name="max_gain">20dB</property>
    <property name="mlt_type">filter</property>
    <property name="mlt_service">volume</property>
    <property name="kdenlive_id">volume</property>
    <property name="tag">volume</property>
    <property name="kdenlive_ix">1</property>
    <property name="kdenlive_info"/>
    <property name="disable">0</property>
    <property name="gain">0.46</property>
   </filter>
   <filter id="filter31">
    <property name="track">0</property>
    <property name="mlt_type">filter</property>
    <property name="mlt_service">ladspa.1049</property>
    <property name="kdenlive_id">ladspa.1049</property>
    <property name="tag">ladspa.1049</property>
    <property name="kdenlive_ix">2</property>
    <property name="kdenlive_info"/>
    <property name="disable">0</property>
    <property name="0">0</property>
    <property name="wetness">0.394</property>
   </filter>
  </entry>
  <entry producer="2_2" in="1716" out="1745">
   <filter id="filter32" in="26">
    <property name="track">0</property>
    <property name="window">75</property>
    <property name="max_gain">20dB</property>
    <property name="mlt_type">filter</property>
    <property name="mlt_service">volume</property>
    <property name="kdenlive_id">volume</property>
    <property name="tag">volume</property>
    <property name="kdenlive_ix">1</property>
    <property name="kdenlive_info"/>
    <property name="disable">0</property>
    <property name="gain">0.46</property>
   </filter>
   <filter id="filter33">
    <property name="track">0</property>
    <property name="mlt_type">filter</property>
    <property name="mlt_service">ladspa.1049</property>
    <property name="kdenlive_id">ladspa.1049</property>
    <property name="tag">ladspa.1049</property>
    <property name="kdenlive_ix">2</property>
    <property name="kdenlive_info"/>
    <property name="disable">0</property>
    <property name="0">0</property>
    <property name="wetness">0.394</property>
   </filter>
  </entry>
  <entry producer="2_2" in="1789" out="1825">
   <filter id="filter34" in="26">
    <property name="track">0</property>
    <property name="window">75</property>
    <property name="max_gain">20dB</property>
    <property name="mlt_type">filter</property>
    <property name="mlt_service">volume</property>
    <property name="kdenlive_id">volume</property>
    <property name="tag">volume</property>
    <property name="kdenlive_ix">1</property>
    <property name="kdenlive_info"/>
    <property name="disable">0</property>
    <property name="gain">0.46</property>
   </filter>
   <filter id="filter35">
    <property name="track">0</property>
    <property name="mlt_type">filter</property>
    <property name="mlt_service">ladspa.1049</property>
    <property name="kdenlive_id">ladspa.1049</property>
    <property name="tag">ladspa.1049</property>
    <property name="kdenlive_ix">2</property>
    <property name="kdenlive_info"/>
    <property name="disable">0</property>
    <property name="0">0</property>
    <property name="wetness">0.394</property>
   </filter>
  </entry>
  <entry producer="2_2" in="1863" out="1911">
   <filter id="filter36" in="26">
    <property name="track">0</property>
    <property name="window">75</property>
    <property name="max_gain">20dB</property>
    <property name="mlt_type">filter</property>
    <property name="mlt_service">volume</property>
    <property name="kdenlive_id">volume</property>
    <property name="tag">volume</property>
    <property name="kdenlive_ix">1</property>
    <property name="kdenlive_info"/>
    <property name="disable">0</property>
    <property name="gain">0.46</property>
   </filter>
   <filter id="filter37">
    <property name="track">0</property>
    <property name="mlt_type">filter</property>
    <property name="mlt_service">ladspa.1049</property>
    <property name="kdenlive_id">ladspa.1049</property>
    <property name="tag">ladspa.1049</property>
    <property name="kdenlive_ix">2</property>
    <property name="kdenlive_info"/>
    <property name="disable">0</property>
    <property name="0">0</property>
    <property name="wetness">0.394</property>
   </filter>
  </entry>
  <entry producer="2_2" in="1939" out="1958">
   <filter id="filter38" in="26">
    <property name="track">0</property>
    <property name="window">75</property>
    <property name="max_gain">20dB</property>
    <property name="mlt_type">filter</property>
    <property name="mlt_service">volume</property>
    <property name="kdenlive_id">volume</property>
    <property name="tag">volume</property>
    <property name="kdenlive_ix">1</property>
    <property name="kdenlive_info"/>
    <property name="disable">0</property>
    <property name="gain">0.46</property>
   </filter>
   <filter id="filter39">
    <property name="track">0</property>
    <property name="mlt_type">filter</property>
    <property name="mlt_service">ladspa.1049</property>
    <property name="kdenlive_id">ladspa.1049</property>
    <property name="tag">ladspa.1049</property>
    <property name="kdenlive_ix">2</property>
    <property name="kdenlive_info"/>
    <property name="disable">0</property>
    <property name="0">0</property>
    <property name="wetness">0.394</property>
   </filter>
  </entry>
  <entry producer="2_2" in="2012" out="2026">
   <filter id="filter40" in="26">
    <property name="track">0</property>
    <property name="window">75</property>
    <property name="max_gain">20dB</property>
    <property name="mlt_type">filter</property>
    <property name="mlt_service">volume</property>
    <property name="kdenlive_id">volume</property>
    <property name="tag">volume</property>
    <property name="kdenlive_ix">1</property>
    <property name="kdenlive_info"/>
    <property name="disable">0</property>
    <property name="gain">0.46</property>
   </filter>
   <filter id="filter41">
    <property name="track">0</property>
    <property name="mlt_type">filter</property>
    <property name="mlt_service">ladspa.1049</property>
    <property name="kdenlive_id">ladspa.1049</property>
    <property name="tag">ladspa.1049</property>
    <property name="kdenlive_ix">2</property>
    <property name="kdenlive_info"/>
    <property name="disable">0</property>
    <property name="0">0</property>
    <property name="wetness">0.394</property>
   </filter>
  </entry>
  <entry producer="2_2" in="2032" out="2119">
   <filter id="filter42" in="26">
    <property name="track">0</property>
    <property name="window">75</property>
    <property name="max_gain">20dB</property>
    <property name="mlt_type">filter</property>
    <property name="mlt_service">volume</property>
    <property name="kdenlive_id">volume</property>
    <property name="tag">volume</property>
    <property name="kdenlive_ix">1</property>
    <property name="kdenlive_info"/>
    <property name="disable">0</property>
    <property name="gain">0.46</property>
   </filter>
   <filter id="filter43">
    <property name="track">0</property>
    <property name="mlt_type">filter</property>
    <property name="mlt_service">ladspa.1049</property>
    <property name="kdenlive_id">ladspa.1049</property>
    <property name="tag">ladspa.1049</property>
    <property name="kdenlive_ix">2</property>
    <property name="kdenlive_info"/>
    <property name="disable">0</property>
    <property name="0">0</property>
    <property name="wetness">0.394</property>
   </filter>
  </entry>
  <entry producer="2_2" in="2120" out="2140">
   <filter id="filter44" in="26">
    <property name="track">0</property>
    <property name="window">75</property>
    <property name="max_gain">20dB</property>
    <property name="mlt_type">filter</property>
    <property name="mlt_service">volume</property>
    <property name="kdenlive_id">volume</property>
    <property name="tag">volume</property>
    <property name="kdenlive_ix">1</property>
    <property name="kdenlive_info"/>
    <property name="disable">0</property>
    <property name="gain">0.46</property>
   </filter>
   <filter id="filter45">
    <property name="track">0</property>
    <property name="mlt_type">filter</property>
    <property name="mlt_service">ladspa.1049</property>
    <property name="kdenlive_id">ladspa.1049</property>
    <property name="tag">ladspa.1049</property>
    <property name="kdenlive_ix">2</property>
    <property name="kdenlive_info"/>
    <property name="disable">0</property>
    <property name="0">0</property>
    <property name="wetness">0.394</property>
   </filter>
  </entry>
 </playlist>
 <producer id="1_1" title="Anonymous Submission" in="0" out="15571">
  <property name="mlt_type">mlt_producer</property>
  <property name="length">15572</property>
  <property name="eof">pause</property>
  <property name="resource">/home/alex/Videos/Projects/小白也能轻松学会的Galgame制作/第2讲 从百草园，到三味书屋/original.mp4</property>
  <property name="meta.media.nb_streams">2</property>
  <property name="meta.media.0.stream.type">video</property>
  <property name="meta.media.0.stream.frame_rate">15</property>
  <property name="meta.media.0.stream.sample_aspect_ratio">1.00446</property>
  <property name="meta.media.0.codec.width">1280</property>
  <property name="meta.media.0.codec.height">720</property>
  <property name="meta.media.0.codec.frame_rate">15</property>
  <property name="meta.media.0.codec.pix_fmt">yuv420p</property>
  <property name="meta.media.0.codec.sample_aspect_ratio">1.00446</property>
  <property name="meta.media.0.codec.colorspace">709</property>
  <property name="meta.media.0.codec.name">h264</property>
  <property name="meta.media.0.codec.long_name">H.264 / AVC / MPEG-4 AVC / MPEG-4 part 10</property>
  <property name="meta.media.0.codec.bit_rate">93570</property>
  <property name="meta.attr.0.stream.handler_name.markup">VideoHandler</property>
  <property name="meta.media.1.stream.type">audio</property>
  <property name="meta.media.1.codec.sample_fmt">fltp</property>
  <property name="meta.media.1.codec.sample_rate">22050</property>
  <property name="meta.media.1.codec.channels">1</property>
  <property name="meta.media.1.codec.name">aac</property>
  <property name="meta.media.1.codec.long_name">AAC (Advanced Audio Coding)</property>
  <property name="meta.media.1.codec.bit_rate">109487</property>
  <property name="meta.attr.1.stream.handler_name.markup">SoundHandler</property>
  <property name="meta.attr.major_brand.markup">isom</property>
  <property name="meta.attr.minor_version.markup">512</property>
  <property name="meta.attr.compatible_brands.markup">isomiso2avc1mp41</property>
  <property name="meta.attr.encoder.markup">Lavf56.25.101</property>
  <property name="seekable">1</property>
  <property name="meta.media.sample_aspect_num">225</property>
  <property name="meta.media.sample_aspect_den">224</property>
  <property name="aspect_ratio">1.00446</property>
  <property name="audio_index">1</property>
  <property name="video_index">0</property>
  <property name="mute_on_pause">1</property>
  <property name="mlt_service">avformat</property>
  <property name="global_feed">1</property>
  <property name="xml">was here</property>
  <property name="meta.media.frame_rate_num">15</property>
  <property name="meta.media.frame_rate_den">1</property>
  <property name="meta.media.colorspace">709</property>
  <property name="meta.media.color_trc">2</property>
  <property name="meta.media.width">1280</property>
  <property name="meta.media.height">720</property>
  <property name="meta.media.top_field_first">0</property>
  <property name="meta.media.progressive">1</property>
 </producer>
 <playlist id="playlist2">
  <entry producer="1_1" in="0" out="164"/>
  <entry producer="1_1" in="182" out="202"/>
  <entry producer="1_1" in="287" out="390"/>
  <entry producer="1_1" in="426" out="891"/>
  <entry producer="1_1" in="896" out="908"/>
  <entry producer="1_1" in="921" out="953"/>
  <entry producer="1_1" in="992" out="1071"/>
  <entry producer="1_1" in="1081" out="1097"/>
  <entry producer="1_1" in="1100" out="1149"/>
  <entry producer="1_1" in="1153" out="1170"/>
  <entry producer="1_1" in="1190" out="1286"/>
  <entry producer="1_1" in="1289" out="1292"/>
  <entry producer="1_1" in="1300" out="1302"/>
  <entry producer="1_1" in="1305" out="1318"/>
  <entry producer="1_1" in="1340" out="1475"/>
  <entry producer="1_1" in="1477" out="1506"/>
  <entry producer="1_1" in="1509" out="1701"/>
  <entry producer="1_1" in="1714" out="1873"/>
  <entry producer="1_1" in="1887" out="1907"/>
  <entry producer="1_1" in="1924" out="2189"/>
  <entry producer="1_1" in="2193" out="2200"/>
  <entry producer="1_1" in="2205" out="2212"/>
  <entry producer="1_1" in="2218" out="2229"/>
  <entry producer="1_1" in="2241" out="2251"/>
  <entry producer="1_1" in="2263" out="2322"/>
  <entry producer="1_1" in="2323" out="2393">
   <filter id="dynamictext">
    <property name="track">0</property>
    <property name="argument">偁</property>
    <property name="geometry">0/0:1280x720:100</property>
    <property name="family">DejaVu Sans</property>
    <property name="size">200</property>
    <property name="weight">400</property>
    <property name="fgcolour">0x000000ff</property>
    <property name="bgcolour">0xffffffff</property>
    <property name="olcolour">0x00000000</property>
    <property name="pad">0</property>
    <property name="halign">centre</property>
    <property name="valign">middle</property>
    <property name="outline">0</property>
    <property name="mlt_type">filter</property>
    <property name="mlt_service">dynamictext</property>
    <property name="kdenlive_id">dynamictext</property>
    <property name="tag">dynamictext</property>
    <property name="kdenlive_ix">1</property>
    <property name="kdenlive_info">1/-1/</property>
   </filter>
  </entry>
  <entry producer="1_1" in="2394" out="2491"/>
  <entry producer="1_1" in="2502" out="2574"/>
  <entry producer="1_1" in="2594" out="2785"/>
  <entry producer="1_1" in="2788" out="2793"/>
  <entry producer="1_1" in="2796" out="2805"/>
  <entry producer="1_1" in="2813" out="3429"/>
  <entry producer="1_1" in="3447" out="3505"/>
  <entry producer="1_1" in="3514" out="3524"/>
  <entry producer="1_1" in="3528" out="3559"/>
  <entry producer="1_1" in="3587" out="3720"/>
  <entry producer="1_1" in="3738" out="3949"/>
  <entry producer="1_1" in="3988" out="4010"/>
  <entry producer="1_1" in="4018" out="4025"/>
  <entry producer="1_1" in="4033" out="4666"/>
  <entry producer="1_1" in="4717" out="4748"/>
  <entry producer="1_1" in="4773" out="4816"/>
  <entry producer="1_1" in="4860" out="4863"/>
  <entry producer="1_1" in="4871" out="4951"/>
  <entry producer="1_1" in="4963" out="5225"/>
  <entry producer="1_1" in="5275" out="5285"/>
  <entry producer="1_1" in="5295" out="5412"/>
  <entry producer="1_1" in="5452" out="5761"/>
  <entry producer="1_1" in="5786" out="5886"/>
  <entry producer="1_1" in="5937" out="5961"/>
  <entry producer="1_1" in="6024" out="6046"/>
  <entry producer="1_1" in="6049" out="6080"/>
  <entry producer="1_1" in="6094" out="6608"/>
  <entry producer="1_1" in="6643" out="6695"/>
  <entry producer="1_1" in="6740" out="6806"/>
  <entry producer="1_1" in="6852" out="6877"/>
  <entry producer="1_1" in="6892" out="6970"/>
  <entry producer="1_1" in="7010" out="7187"/>
  <entry producer="1_1" in="7194" out="7608"/>
  <entry producer="1_1" in="7640" out="7746"/>
  <entry producer="1_1" in="7772" out="7819"/>
  <entry producer="1_1" in="7831" out="7855"/>
  <entry producer="1_1" in="7863" out="7946"/>
  <entry producer="1_1" in="7989" out="8053"/>
  <entry producer="1_1" in="8058" out="8116"/>
  <entry producer="1_1" in="8138" out="8170"/>
  <entry producer="1_1" in="8182" out="8190"/>
  <entry producer="1_1" in="8209" out="8270"/>
  <entry producer="1_1" in="8323" out="8347"/>
  <entry producer="1_1" in="8372" out="8439"/>
  <entry producer="1_1" in="8558" out="8622"/>
  <entry producer="1_1" in="8642" out="8678"/>
  <entry producer="1_1" in="8685" out="8737"/>
  <entry producer="1_1" in="8797" out="8802"/>
  <entry producer="1_1" in="8809" out="8942"/>
  <entry producer="1_1" in="8953" out="8960"/>
  <entry producer="1_1" in="8967" out="9093"/>
  <entry producer="1_1" in="9135" out="9434"/>
  <entry producer="1_1" in="9485" out="9509"/>
  <entry producer="1_1" in="9548" out="9623"/>
  <entry producer="1_1" in="9651" out="9666"/>
  <entry producer="1_1" in="9677" out="9691"/>
  <entry producer="1_1" in="9733" out="9761"/>
  <entry producer="1_1" in="9802" out="9808"/>
  <entry producer="1_1" in="9812" out="9933"/>
  <entry producer="1_1" in="9956" out="10037"/>
  <entry producer="1_1" in="10063" out="10477"/>
  <entry producer="1_1" in="10527" out="10613"/>
  <entry producer="1_1" in="10861" out="10872"/>
  <entry producer="1_1" in="10881" out="10992"/>
  <entry producer="1_1" in="11018" out="11165"/>
  <blank length="1549"/>
  <entry producer="1_1" in="14918" out="15032"/>
  <entry producer="1_1" in="15043" out="15131"/>
  <entry producer="1_1" in="15139" out="15195"/>
  <entry producer="1_1" in="15204" out="15245"/>
  <entry producer="1_1" in="15262" out="15338"/>
  <entry producer="1_1" in="15357" out="15358"/>
  <entry producer="1_1" in="15369" out="15571"/>
 </playlist>
 <producer id="4" title="Anonymous Submission" in="0" out="119">
  <property name="mlt_type">mlt_producer</property>
  <property name="length">120</property>
  <property name="eof">pause</property>
  <property name="resource">/home/alex/Videos/Projects/小白也能轻松学会的Galgame制作/第2讲 从百草园，到三味书屋/titles/xyaxes.png</property>
  <property name="ttl">25</property>
  <property name="aspect_ratio">1</property>
  <property name="progressive">1</property>
  <property name="seekable">1</property>
  <property name="loop">1</property>
  <property name="meta.media.width">1280</property>
  <property name="meta.media.height">720</property>
  <property name="mlt_service">pixbuf</property>
  <property name="global_feed">1</property>
 </producer>
 <producer id="3" title="Anonymous Submission" in="0" out="224">
  <property name="mlt_type">mlt_producer</property>
  <property name="length">225</property>
  <property name="eof">pause</property>
  <property name="resource">/home/alex/Videos/Projects/小白也能轻松学会的Galgame制作/第2讲 从百草园，到三味书屋/titles/xasxis.png</property>
  <property name="ttl">25</property>
  <property name="aspect_ratio">1</property>
  <property name="progressive">1</property>
  <property name="seekable">1</property>
  <property name="loop">1</property>
  <property name="meta.media.width">1280</property>
  <property name="meta.media.height">720</property>
  <property name="mlt_service">pixbuf</property>
  <property name="global_feed">1</property>
 </producer>
 <playlist id="playlist3">
  <blank length="5796"/>
  <entry producer="4" in="0" out="52"/>
  <entry producer="3" in="0" out="224"/>
 </playlist>
 <tractor global_feed="1" id="maintractor" title="Anonymous Submission" in="0" out="11141">
  <property name="meta.volume">1</property>
  <track producer="black_track"/>
  <track producer="playlist1" hide="video"/>
  <track producer="playlist0"/>
  <track producer="playlist2"/>
  <track producer="playlist3"/>
  <transition id="transition0">
   <property name="a_track">1</property>
   <property name="b_track">2</property>
   <property name="mlt_type">transition</property>
   <property name="mlt_service">mix</property>
   <property name="always_active">1</property>
   <property name="combine">1</property>
   <property name="internal_added">237</property>
  </transition>
  <transition id="transition1">
   <property name="a_track">1</property>
   <property name="b_track">3</property>
   <property name="mlt_type">transition</property>
   <property name="mlt_service">mix</property>
   <property name="always_active">1</property>
   <property name="internal_added">237</property>
   <property name="combine">1</property>
  </transition>
  <transition id="transition2">
   <property name="a_track">1</property>
   <property name="b_track">4</property>
   <property name="mlt_type">transition</property>
   <property name="mlt_service">mix</property>
   <property name="always_active">1</property>
   <property name="internal_added">237</property>
   <property name="combine">1</property>
  </transition>
  <transition id="transition3" in="5796" out="5848">
   <property name="a_track">3</property>
   <property name="b_track">4</property>
   <property name="distort">0</property>
   <property name="geometry">0/0:100%x100%:100%</property>
   <property name="fill">1</property>
   <property name="mlt_type">transition</property>
   <property name="mlt_service">affine</property>
   <property name="automatic">1</property>
   <property name="force_track">0</property>
   <property name="keyed">1</property>
   <property name="rotate_x">0</property>
   <property name="rotate_y">0</property>
   <property name="rotate_z">0</property>
   <property name="shear_x">0</property>
   <property name="shear_y">0</property>
   <property name="shear_z">0</property>
  </transition>
  <transition id="transition4" in="5849" out="6073">
   <property name="a_track">3</property>
   <property name="b_track">4</property>
   <property name="distort">0</property>
   <property name="geometry">0/0:100%x100%:100%</property>
   <property name="fill">1</property>
   <property name="mlt_type">transition</property>
   <property name="mlt_service">affine</property>
   <property name="automatic">1</property>
   <property name="force_track">0</property>
   <property name="keyed">1</property>
   <property name="rotate_x">0</property>
   <property name="rotate_y">0</property>
   <property name="rotate_z">0</property>
   <property name="shear_x">0</property>
   <property name="shear_y">0</property>
   <property name="shear_z">0</property>
  </transition>
 </tractor>
 <kdenlivedoc projectfolder="/home/alex/Videos/Projects/小白也能轻松学会的Galgame制作/第2讲 从百草园，到三味书屋" profile="atsc_720p_24" version="0.88" kdenliveversion="15.04.1">
  <customeffects/>
  <documentproperties enableproxy="0" proxyextension="ts" proxyparams="-f mpegts -acodec libmp3lame -ac 2 -ab 128k -vcodec mpeg2video -g 5 -s 640x480 -qscale 7" documentid="1432551912507" generateimageproxy="0" proxyimageminsize="2000" verticalzoom="1" zoneout="11142" generateproxy="0" position="6252" zoom="3" zonein="0" proxyminsize="1000"/>
  <documentmetadata/>
  <documentnotes>&lt;!DOCTYPE HTML PUBLIC "-//W3C//DTD HTML 4.0//EN" "http://www.w3.org/TR/REC-html40/strict.dtd">
&lt;html>&lt;head>&lt;meta name="qrichtext" content="1" />&lt;style type="text/css">
p, li { white-space: pre-wrap; }
&lt;/style>&lt;/head>&lt;body style=" font-family:'Oxygen-Sans'; font-size:10pt; font-weight:400; font-style:normal;">
&lt;p style="-qt-paragraph-type:empty; margin-top:0px; margin-bottom:0px; margin-left:0px; margin-right:0px; -qt-block-indent:0; text-indent:0px;">&lt;br />&lt;/p>&lt;/body>&lt;/html></documentnotes>
  <profileinfo frame_rate_num="24" description="HD 720p 24 fps" frame_rate_den="1" progressive="1" sample_aspect_num="1" sample_aspect_den="1" display_aspect_num="16" display_aspect_den="9" width="1280" height="720"/>
  <tracksinfo>
   <trackinfo locked="0" mute="0" blind="1" trackname="Audio 1" type="audio"/>
   <trackinfo locked="0" mute="0" blind="0" trackname="Video 3"/>
   <trackinfo locked="0" mute="0" blind="0" trackname="Video 2"/>
   <trackinfo locked="0" mute="0" blind="0" trackname="Video 1"/>
  </tracksinfo>
  <kdenlive_producer videocodec="H.264 / AVC / MPEG-4 AVC / MPEG-4 part 10" file_size="16810177" videocodecid="h264" fps="15" aspect_ratio="1.00446" audiocodec="AAC (Advanced Audio Coding)" file_hash="ca12911b31ec9f70f095afad132eb43f" frequency="22050" audio_max="53" video_max="0" progressive="1" pix_fmt="yuv420p" colorspace="709" channels="1" default_audio="1" id="1" default_video="0" name="original.mp4" resource="/home/alex/Videos/Projects/小白也能轻松学会的Galgame制作/第2讲 从百草园，到三味书屋/original.mp4" type="3" analysisdata="" duration="15572" frame_size="1280x720">
   <metaproperty tool="" name="meta.attr.0.stream.handler_name">VideoHandler</metaproperty>
   <metaproperty tool="" name="meta.attr.1.stream.handler_name">SoundHandler</metaproperty>
   <metaproperty tool="" name="meta.attr.compatible_brands">isomiso2avc1mp41</metaproperty>
   <metaproperty tool="" name="meta.attr.encoder">Lavf56.25.101</metaproperty>
   <metaproperty tool="" name="meta.attr.major_brand">isom</metaproperty>
   <metaproperty tool="" name="meta.attr.minor_version">512</metaproperty>
  </kdenlive_producer>
  <kdenlive_producer videocodec="H.264 / AVC / MPEG-4 AVC / MPEG-4 part 10" file_size="2361068" videocodecid="h264" fps="15" aspect_ratio="1.00446" audiocodec="AAC (Advanced Audio Coding)" file_hash="476bb907459adc5af5d6cd81a2798043" frequency="22050" audio_max="63" video_max="0" progressive="1" pix_fmt="yuv420p" colorspace="709" channels="1" default_audio="1" id="2" default_video="0" name="original2.mp4" resource="/home/alex/Videos/Projects/小白也能轻松学会的Galgame制作/第2讲 从百草园，到三味书屋/original2.mp4" type="3" analysisdata="" duration="2141" frame_size="1280x720">
   <metaproperty tool="" name="meta.attr.0.stream.handler_name">VideoHandler</metaproperty>
   <metaproperty tool="" name="meta.attr.1.stream.handler_name">SoundHandler</metaproperty>
   <metaproperty tool="" name="meta.attr.compatible_brands">isomiso2avc1mp41</metaproperty>
   <metaproperty tool="" name="meta.attr.encoder">Lavf56.25.101</metaproperty>
   <metaproperty tool="" name="meta.attr.major_brand">isom</metaproperty>
   <metaproperty tool="" name="meta.attr.minor_version">512</metaproperty>
  </kdenlive_producer>
  <kdenlive_producer frame_size="1280x720" thumbnail="100" id="3" resource="/home/alex/Videos/Projects/小白也能轻松学会的Galgame制作/第2讲 从百草园，到三味书屋/titles/xasxis.png" analysisdata="" duration="120" file_hash="9baf100a68859ed26c74250249e1957a" file_size="8995" in="0" name="xasxis.png" transparency="1" aspect_ratio="1" out="119" type="5"/>
  <kdenlive_producer frame_size="1280x720" thumbnail="100" id="4" resource="/home/alex/Videos/Projects/小白也能轻松学会的Galgame制作/第2讲 从百草园，到三味书屋/titles/xyaxes.png" analysisdata="" duration="120" file_hash="aae3b266721fcbf90a6feabd2a194538" file_size="6200" in="0" name="xyaxes.png" transparency="1" aspect_ratio="1" out="119" type="5"/>
  <kdenlive_producer frame_size="1280x720" thumbnail="100" id="5" resource="/home/alex/Videos/Projects/小白也能轻松学会的Galgame制作/第2讲 从百草园，到三味书屋/titles/yasxis.png" analysisdata="" duration="120" file_hash="f6222acccf64142d0243669583d4d1a0" file_size="8662" in="0" name="yasxis.png" transparency="1" aspect_ratio="1" out="119" type="5"/>
  <markers/>
  <groups/>
 </kdenlivedoc>
</mlt>
