<?xml version='1.0' encoding='utf-8'?>
<mlt LC_NUMERIC="en_AU.UTF-8" version="0.9.8" root="/home/alex" title="Anonymous Submission">
 <profile progressive="1" height="720" display_aspect_num="16" frame_rate_den="1" sample_aspect_den="1" display_aspect_den="9" width="1280" colorspace="709" sample_aspect_num="1" description="HD 720p 15 fps" frame_rate_num="15"/>
 <producer in="0" out="500" id="black">
  <property name="mlt_type">producer</property>
  <property name="length">15000</property>
  <property name="eof">pause</property>
  <property name="resource">black</property>
  <property name="aspect_ratio">0</property>
  <property name="mlt_service">colour</property>
 </producer>
 <playlist id="black_track">
  <entry in="0" out="10471" producer="black"/>
 </playlist>
 <playlist id="playlist1"/>
 <producer in="0" out="443" id="1_1" title="Anonymous Submission">
  <property name="mlt_type">producer</property>
  <property name="length">444</property>
  <property name="eof">pause</property>
  <property name="resource">Videos/Projects/小白也能轻松学会的Galgame制作/第9讲 只要有标题画面，语文水平再差也没有问题/original/01.ogv</property>
  <property name="meta.media.nb_streams">3</property>
  <property name="meta.media.1.stream.type">video</property>
  <property name="meta.media.1.stream.frame_rate">15</property>
  <property name="meta.media.1.stream.sample_aspect_ratio">1</property>
  <property name="meta.media.1.codec.width">1600</property>
  <property name="meta.media.1.codec.height">896</property>
  <property name="meta.media.1.codec.frame_rate">15</property>
  <property name="meta.media.1.codec.pix_fmt">yuv420p</property>
  <property name="meta.media.1.codec.sample_aspect_ratio">1</property>
  <property name="meta.media.1.codec.colorspace">709</property>
  <property name="meta.media.1.codec.name">theora</property>
  <property name="meta.media.1.codec.long_name">Theora</property>
  <property name="meta.media.1.codec.bit_rate">0</property>
  <property name="meta.attr.1.stream.RECORDMYDESKTOP.markup">0.3.8.1</property>
  <property name="meta.media.2.stream.type">audio</property>
  <property name="meta.media.2.codec.sample_fmt">fltp</property>
  <property name="meta.media.2.codec.sample_rate">22050</property>
  <property name="meta.media.2.codec.channels">1</property>
  <property name="meta.media.2.codec.name">vorbis</property>
  <property name="meta.media.2.codec.long_name">Vorbis</property>
  <property name="meta.media.2.codec.bit_rate">89991</property>
  <property name="seekable">1</property>
  <property name="meta.media.sample_aspect_num">1</property>
  <property name="meta.media.sample_aspect_den">1</property>
  <property name="aspect_ratio">1</property>
  <property name="audio_index">2</property>
  <property name="video_index">1</property>
  <property name="mute_on_pause">1</property>
  <property name="mlt_service">avformat</property>
  <property name="global_feed">1</property>
  <property name="xml">was here</property>
  <property name="meta.media.frame_rate_num">15</property>
  <property name="meta.media.frame_rate_den">1</property>
  <property name="meta.media.colorspace">709</property>
  <property name="meta.media.color_trc">2</property>
  <property name="meta.media.width">1600</property>
  <property name="meta.media.height">896</property>
  <property name="meta.media.top_field_first">0</property>
  <property name="meta.media.progressive">1</property>
 </producer>
 <producer in="0" out="637" id="2_1" title="Anonymous Submission">
  <property name="mlt_type">producer</property>
  <property name="length">638</property>
  <property name="eof">pause</property>
  <property name="resource">Videos/Projects/小白也能轻松学会的Galgame制作/第9讲 只要有标题画面，语文水平再差也没有问题/original/02.ogv</property>
  <property name="meta.media.nb_streams">3</property>
  <property name="meta.media.1.stream.type">video</property>
  <property name="meta.media.1.stream.frame_rate">15</property>
  <property name="meta.media.1.stream.sample_aspect_ratio">1</property>
  <property name="meta.media.1.codec.width">1600</property>
  <property name="meta.media.1.codec.height">896</property>
  <property name="meta.media.1.codec.frame_rate">15</property>
  <property name="meta.media.1.codec.pix_fmt">yuv420p</property>
  <property name="meta.media.1.codec.sample_aspect_ratio">1</property>
  <property name="meta.media.1.codec.colorspace">709</property>
  <property name="meta.media.1.codec.name">theora</property>
  <property name="meta.media.1.codec.long_name">Theora</property>
  <property name="meta.media.1.codec.bit_rate">0</property>
  <property name="meta.attr.1.stream.RECORDMYDESKTOP.markup">0.3.8.1</property>
  <property name="meta.media.2.stream.type">audio</property>
  <property name="meta.media.2.codec.sample_fmt">fltp</property>
  <property name="meta.media.2.codec.sample_rate">22050</property>
  <property name="meta.media.2.codec.channels">1</property>
  <property name="meta.media.2.codec.name">vorbis</property>
  <property name="meta.media.2.codec.long_name">Vorbis</property>
  <property name="meta.media.2.codec.bit_rate">89991</property>
  <property name="seekable">1</property>
  <property name="meta.media.sample_aspect_num">1</property>
  <property name="meta.media.sample_aspect_den">1</property>
  <property name="aspect_ratio">1</property>
  <property name="audio_index">2</property>
  <property name="video_index">1</property>
  <property name="mute_on_pause">1</property>
  <property name="mlt_service">avformat</property>
  <property name="global_feed">1</property>
  <property name="xml">was here</property>
  <property name="meta.media.frame_rate_num">15</property>
  <property name="meta.media.frame_rate_den">1</property>
  <property name="meta.media.colorspace">709</property>
  <property name="meta.media.color_trc">2</property>
  <property name="meta.media.width">1600</property>
  <property name="meta.media.height">896</property>
  <property name="meta.media.top_field_first">0</property>
  <property name="meta.media.progressive">1</property>
 </producer>
 <producer in="0" out="892" id="3_1" title="Anonymous Submission">
  <property name="mlt_type">producer</property>
  <property name="length">893</property>
  <property name="eof">pause</property>
  <property name="resource">Videos/Projects/小白也能轻松学会的Galgame制作/第9讲 只要有标题画面，语文水平再差也没有问题/original/03.ogv</property>
  <property name="meta.media.nb_streams">3</property>
  <property name="meta.media.1.stream.type">video</property>
  <property name="meta.media.1.stream.frame_rate">15</property>
  <property name="meta.media.1.stream.sample_aspect_ratio">1</property>
  <property name="meta.media.1.codec.width">1600</property>
  <property name="meta.media.1.codec.height">896</property>
  <property name="meta.media.1.codec.frame_rate">15</property>
  <property name="meta.media.1.codec.pix_fmt">yuv420p</property>
  <property name="meta.media.1.codec.sample_aspect_ratio">1</property>
  <property name="meta.media.1.codec.colorspace">709</property>
  <property name="meta.media.1.codec.name">theora</property>
  <property name="meta.media.1.codec.long_name">Theora</property>
  <property name="meta.media.1.codec.bit_rate">0</property>
  <property name="meta.attr.1.stream.RECORDMYDESKTOP.markup">0.3.8.1</property>
  <property name="meta.media.2.stream.type">audio</property>
  <property name="meta.media.2.codec.sample_fmt">fltp</property>
  <property name="meta.media.2.codec.sample_rate">22050</property>
  <property name="meta.media.2.codec.channels">1</property>
  <property name="meta.media.2.codec.name">vorbis</property>
  <property name="meta.media.2.codec.long_name">Vorbis</property>
  <property name="meta.media.2.codec.bit_rate">89991</property>
  <property name="seekable">1</property>
  <property name="meta.media.sample_aspect_num">1</property>
  <property name="meta.media.sample_aspect_den">1</property>
  <property name="aspect_ratio">1</property>
  <property name="audio_index">2</property>
  <property name="video_index">1</property>
  <property name="mute_on_pause">1</property>
  <property name="mlt_service">avformat</property>
  <property name="global_feed">1</property>
  <property name="xml">was here</property>
  <property name="meta.media.frame_rate_num">15</property>
  <property name="meta.media.frame_rate_den">1</property>
  <property name="meta.media.colorspace">709</property>
  <property name="meta.media.color_trc">2</property>
  <property name="meta.media.width">1600</property>
  <property name="meta.media.height">896</property>
  <property name="meta.media.top_field_first">0</property>
  <property name="meta.media.progressive">1</property>
 </producer>
 <producer in="0" out="4295" id="4_1" title="Anonymous Submission">
  <property name="mlt_type">producer</property>
  <property name="length">4296</property>
  <property name="eof">pause</property>
  <property name="resource">Videos/Projects/小白也能轻松学会的Galgame制作/第9讲 只要有标题画面，语文水平再差也没有问题/original/04.ogv</property>
  <property name="meta.media.nb_streams">3</property>
  <property name="meta.media.1.stream.type">video</property>
  <property name="meta.media.1.stream.frame_rate">-nan</property>
  <property name="meta.media.1.stream.sample_aspect_ratio">1</property>
  <property name="meta.media.1.codec.width">1600</property>
  <property name="meta.media.1.codec.height">896</property>
  <property name="meta.media.1.codec.frame_rate">15</property>
  <property name="meta.media.1.codec.pix_fmt">yuv420p</property>
  <property name="meta.media.1.codec.sample_aspect_ratio">1</property>
  <property name="meta.media.1.codec.colorspace">709</property>
  <property name="meta.media.1.codec.name">theora</property>
  <property name="meta.media.1.codec.long_name">Theora</property>
  <property name="meta.media.1.codec.bit_rate">0</property>
  <property name="meta.attr.1.stream.RECORDMYDESKTOP.markup">0.3.8.1</property>
  <property name="meta.media.2.stream.type">audio</property>
  <property name="meta.media.2.codec.sample_fmt">fltp</property>
  <property name="meta.media.2.codec.sample_rate">22050</property>
  <property name="meta.media.2.codec.channels">1</property>
  <property name="meta.media.2.codec.name">vorbis</property>
  <property name="meta.media.2.codec.long_name">Vorbis</property>
  <property name="meta.media.2.codec.bit_rate">89991</property>
  <property name="seekable">1</property>
  <property name="meta.media.sample_aspect_num">1</property>
  <property name="meta.media.sample_aspect_den">1</property>
  <property name="aspect_ratio">1</property>
  <property name="audio_index">2</property>
  <property name="video_index">1</property>
  <property name="mute_on_pause">1</property>
  <property name="mlt_service">avformat</property>
  <property name="global_feed">1</property>
  <property name="xml">was here</property>
  <property name="meta.media.frame_rate_num">15</property>
  <property name="meta.media.frame_rate_den">1</property>
  <property name="meta.media.colorspace">709</property>
  <property name="meta.media.color_trc">2</property>
  <property name="meta.media.width">1600</property>
  <property name="meta.media.height">896</property>
  <property name="meta.media.top_field_first">0</property>
  <property name="meta.media.progressive">1</property>
 </producer>
 <producer in="0" out="2514" id="5_1" title="Anonymous Submission">
  <property name="mlt_type">producer</property>
  <property name="length">2515</property>
  <property name="eof">pause</property>
  <property name="resource">Videos/Projects/小白也能轻松学会的Galgame制作/第9讲 只要有标题画面，语文水平再差也没有问题/original/05.ogv</property>
  <property name="meta.media.nb_streams">3</property>
  <property name="meta.media.1.stream.type">video</property>
  <property name="meta.media.1.stream.frame_rate">15</property>
  <property name="meta.media.1.stream.sample_aspect_ratio">1</property>
  <property name="meta.media.1.codec.width">1600</property>
  <property name="meta.media.1.codec.height">896</property>
  <property name="meta.media.1.codec.frame_rate">15</property>
  <property name="meta.media.1.codec.pix_fmt">yuv420p</property>
  <property name="meta.media.1.codec.sample_aspect_ratio">1</property>
  <property name="meta.media.1.codec.colorspace">709</property>
  <property name="meta.media.1.codec.name">theora</property>
  <property name="meta.media.1.codec.long_name">Theora</property>
  <property name="meta.media.1.codec.bit_rate">0</property>
  <property name="meta.attr.1.stream.RECORDMYDESKTOP.markup">0.3.8.1</property>
  <property name="meta.media.2.stream.type">audio</property>
  <property name="meta.media.2.codec.sample_fmt">fltp</property>
  <property name="meta.media.2.codec.sample_rate">22050</property>
  <property name="meta.media.2.codec.channels">1</property>
  <property name="meta.media.2.codec.name">vorbis</property>
  <property name="meta.media.2.codec.long_name">Vorbis</property>
  <property name="meta.media.2.codec.bit_rate">89991</property>
  <property name="seekable">1</property>
  <property name="meta.media.sample_aspect_num">1</property>
  <property name="meta.media.sample_aspect_den">1</property>
  <property name="aspect_ratio">1</property>
  <property name="audio_index">2</property>
  <property name="video_index">1</property>
  <property name="mute_on_pause">1</property>
  <property name="mlt_service">avformat</property>
  <property name="global_feed">1</property>
  <property name="xml">was here</property>
  <property name="meta.media.frame_rate_num">15</property>
  <property name="meta.media.frame_rate_den">1</property>
  <property name="meta.media.colorspace">709</property>
  <property name="meta.media.color_trc">2</property>
  <property name="meta.media.width">1600</property>
  <property name="meta.media.height">896</property>
  <property name="meta.media.top_field_first">0</property>
  <property name="meta.media.progressive">1</property>
 </producer>
 <producer in="0" out="4299" id="6_1" title="Anonymous Submission">
  <property name="mlt_type">producer</property>
  <property name="length">4300</property>
  <property name="eof">pause</property>
  <property name="resource">Videos/Projects/小白也能轻松学会的Galgame制作/第9讲 只要有标题画面，语文水平再差也没有问题/original/06.ogv</property>
  <property name="meta.media.nb_streams">3</property>
  <property name="meta.media.1.stream.type">video</property>
  <property name="meta.media.1.stream.frame_rate">15</property>
  <property name="meta.media.1.stream.sample_aspect_ratio">1</property>
  <property name="meta.media.1.codec.width">1600</property>
  <property name="meta.media.1.codec.height">896</property>
  <property name="meta.media.1.codec.frame_rate">15</property>
  <property name="meta.media.1.codec.pix_fmt">yuv420p</property>
  <property name="meta.media.1.codec.sample_aspect_ratio">1</property>
  <property name="meta.media.1.codec.colorspace">709</property>
  <property name="meta.media.1.codec.name">theora</property>
  <property name="meta.media.1.codec.long_name">Theora</property>
  <property name="meta.media.1.codec.bit_rate">0</property>
  <property name="meta.attr.1.stream.RECORDMYDESKTOP.markup">0.3.8.1</property>
  <property name="meta.media.2.stream.type">audio</property>
  <property name="meta.media.2.codec.sample_fmt">fltp</property>
  <property name="meta.media.2.codec.sample_rate">22050</property>
  <property name="meta.media.2.codec.channels">1</property>
  <property name="meta.media.2.codec.name">vorbis</property>
  <property name="meta.media.2.codec.long_name">Vorbis</property>
  <property name="meta.media.2.codec.bit_rate">89991</property>
  <property name="seekable">1</property>
  <property name="meta.media.sample_aspect_num">1</property>
  <property name="meta.media.sample_aspect_den">1</property>
  <property name="aspect_ratio">1</property>
  <property name="audio_index">2</property>
  <property name="video_index">1</property>
  <property name="mute_on_pause">1</property>
  <property name="mlt_service">avformat</property>
  <property name="global_feed">1</property>
  <property name="xml">was here</property>
  <property name="meta.media.frame_rate_num">15</property>
  <property name="meta.media.frame_rate_den">1</property>
  <property name="meta.media.colorspace">709</property>
  <property name="meta.media.color_trc">2</property>
  <property name="meta.media.width">1600</property>
  <property name="meta.media.height">896</property>
  <property name="meta.media.top_field_first">0</property>
  <property name="meta.media.progressive">1</property>
 </producer>
 <playlist id="playlist2">
  <entry in="17" out="350" producer="1_1"/>
  <entry in="373" out="421" producer="1_1"/>
  <entry in="12" out="480" producer="2_1"/>
  <entry in="487" out="520" producer="2_1"/>
  <entry in="556" out="612" producer="2_1"/>
  <entry in="14" out="302" producer="3_1"/>
  <entry in="353" out="427" producer="3_1"/>
  <entry in="445" out="577" producer="3_1"/>
  <entry in="589" out="643" producer="3_1"/>
  <entry in="652" out="873" producer="3_1"/>
  <entry in="12" out="54" producer="4_1"/>
  <entry in="71" out="351" producer="4_1"/>
  <entry in="399" out="460" producer="4_1"/>
  <entry in="482" out="498" producer="4_1"/>
  <entry in="604" out="616" producer="4_1"/>
  <entry in="646" out="679" producer="4_1"/>
  <entry in="729" out="736" producer="4_1"/>
  <entry in="817" out="846" producer="4_1"/>
  <entry in="979" out="994" producer="4_1"/>
  <entry in="1066" out="1162" producer="4_1"/>
  <entry in="1225" out="1248" producer="4_1"/>
  <entry in="1273" out="1304" producer="4_1"/>
  <entry in="1329" out="1360" producer="4_1"/>
  <entry in="1386" out="1429" producer="4_1"/>
  <entry in="1481" out="1573" producer="4_1"/>
  <entry in="1629" out="1807" producer="4_1"/>
  <entry in="1816" out="1820" producer="4_1"/>
  <entry in="1884" out="1916" producer="4_1"/>
  <entry in="2091" out="2293" producer="4_1"/>
  <entry in="2334" out="2372" producer="4_1"/>
  <entry in="2419" out="2462" producer="4_1"/>
  <entry in="2490" out="2521" producer="4_1"/>
  <entry in="2538" out="2628" producer="4_1"/>
  <entry in="2679" out="2765" producer="4_1"/>
  <entry in="2824" out="2906" producer="4_1"/>
  <entry in="2925" out="2950" producer="4_1"/>
  <entry in="3043" out="3127" producer="4_1"/>
  <entry in="3186" out="3196" producer="4_1"/>
  <entry in="3213" out="3362" producer="4_1"/>
  <entry in="3375" out="3466" producer="4_1"/>
  <entry in="3474" out="3512" producer="4_1"/>
  <entry in="3540" out="3579" producer="4_1"/>
  <entry in="3586" out="3646" producer="4_1"/>
  <entry in="3718" out="3922" producer="4_1"/>
  <entry in="3931" out="3978" producer="4_1"/>
  <entry in="4019" out="4112" producer="4_1"/>
  <entry in="4148" out="4186" producer="4_1"/>
  <entry in="4215" out="4253" producer="4_1"/>
  <entry in="4265" out="4275" producer="4_1"/>
  <entry in="21" out="408" producer="5_1"/>
  <entry in="439" out="491" producer="5_1"/>
  <entry in="500" out="508" producer="5_1"/>
  <entry in="510" out="520" producer="5_1"/>
  <entry in="531" out="745" producer="5_1"/>
  <entry in="758" out="775" producer="5_1"/>
  <entry in="780" out="827" producer="5_1"/>
  <entry in="849" out="917" producer="5_1"/>
  <entry in="923" out="970" producer="5_1"/>
  <entry in="986" out="1073" producer="5_1"/>
  <entry in="1081" out="1132" producer="5_1"/>
  <entry in="1142" out="1161" producer="5_1"/>
  <entry in="1185" out="1214" producer="5_1"/>
  <entry in="1243" out="1328" producer="5_1"/>
  <entry in="1350" out="1395" producer="5_1"/>
  <entry in="1398" out="1407" producer="5_1"/>
  <entry in="1417" out="1528" producer="5_1"/>
  <entry in="1556" out="1572" producer="5_1"/>
  <entry in="1575" out="1621" producer="5_1"/>
  <entry in="1623" out="1779" producer="5_1"/>
  <entry in="1781" out="1787" producer="5_1"/>
  <entry in="1967" out="2119" producer="5_1"/>
  <entry in="2141" out="2201" producer="5_1"/>
  <entry in="2211" out="2259" producer="5_1"/>
  <entry in="2291" out="2315" producer="5_1"/>
  <entry in="2362" out="2390" producer="5_1"/>
  <entry in="2403" out="2447" producer="5_1"/>
  <entry in="2470" out="2481" producer="5_1"/>
  <entry in="2497" out="2501" producer="5_1"/>
  <entry in="17" out="4299" producer="6_1"/>
 </playlist>
 <playlist id="playlist3"/>
 <tractor in="0" out="10471" id="maintractor" title="Anonymous Submission" global_feed="1">
  <property name="meta.volume">1</property>
  <track producer="black_track"/>
  <track hide="video" producer="playlist1"/>
  <track producer="playlist2"/>
  <track producer="playlist3"/>
  <transition id="transition0">
   <property name="a_track">1</property>
   <property name="b_track">2</property>
   <property name="mlt_type">transition</property>
   <property name="mlt_service">mix</property>
   <property name="always_active">1</property>
   <property name="combine">1</property>
   <property name="internal_added">237</property>
  </transition>
  <transition id="transition1">
   <property name="a_track">1</property>
   <property name="b_track">3</property>
   <property name="mlt_type">transition</property>
   <property name="mlt_service">mix</property>
   <property name="always_active">1</property>
   <property name="combine">1</property>
   <property name="internal_added">237</property>
  </transition>
 </tractor>
 <kdenlivedoc kdenliveversion="15.04.3" profile="/home/alex/.local/share/kdenlive//profiles/customprofile0" version="0.88" projectfolder="/home/alex/Videos/Projects/小白也能轻松学会的Galgame制作/第9讲 只要有标题画面，语文水平再差也没有问题">
  <customeffects/>
  <documentproperties zoneout="100" proxyminsize="1000" zoom="3" generateimageproxy="0" proxyextension="ts" proxyimageminsize="2000" position="6457" zonein="0" generateproxy="0" proxyparams="-f mpegts -acodec libmp3lame -ac 2 -ab 128k -vcodec mpeg2video -g 5 -s 640x480 -qscale 7" enableproxy="0" documentid="1440304421904" verticalzoom="1"/>
  <documentmetadata/>
  <documentnotes>&lt;!DOCTYPE HTML PUBLIC "-//W3C//DTD HTML 4.0//EN" "http://www.w3.org/TR/REC-html40/strict.dtd">
&lt;html>&lt;head>&lt;meta name="qrichtext" content="1" />&lt;style type="text/css">
p, li { white-space: pre-wrap; }
&lt;/style>&lt;/head>&lt;body style=" font-family:'Oxygen-Sans'; font-size:10pt; font-weight:400; font-style:normal;">
&lt;p style="-qt-paragraph-type:empty; margin-top:0px; margin-bottom:0px; margin-left:0px; margin-right:0px; -qt-block-indent:0; text-indent:0px;">&lt;br />&lt;/p>&lt;/body>&lt;/html></documentnotes>
  <profileinfo progressive="1" frame_rate_den="1" height="720" display_aspect_num="16" sample_aspect_den="1" display_aspect_den="9" width="1280" sample_aspect_num="1" description="HD 720p 15 fps" frame_rate_num="15"/>
  <tracksinfo>
   <trackinfo trackname="Audio 1" locked="0" blind="1" type="audio" mute="0"/>
   <trackinfo trackname="Video 2" locked="0" blind="0" mute="0"/>
   <trackinfo trackname="Video 1" locked="0" blind="0" mute="0"/>
  </tracksinfo>
  <kdenlive_producer default_audio="2" audio_max="53" videocodec="Theora" fps="15" videocodecid="theora" file_hash="ae55a92005d7a3d09aad32858447bdb6" name="01.ogv" frame_size="1600x896" duration="444" id="1" channels="1" type="3" analysisdata="" default_video="1" progressive="1" aspect_ratio="1" pix_fmt="yuv420p" colorspace="709" resource="/home/alex/Videos/Projects/小白也能轻松学会的Galgame制作/第9讲 只要有标题画面，语文水平再差也没有问题/original/01.ogv" frequency="22050" audiocodec="Vorbis" video_max="1" file_size="1701366">
   <metaproperty name="meta.attr.1.stream.RECORDMYDESKTOP" tool="">0.3.8.1</metaproperty>
  </kdenlive_producer>
  <kdenlive_producer default_audio="2" audio_max="63" videocodec="Theora" fps="15" videocodecid="theora" file_hash="fde1254a18827783d28b0e85f4bfae5d" name="02.ogv" frame_size="1600x896" duration="638" id="2" channels="1" type="3" analysisdata="" default_video="1" progressive="1" aspect_ratio="1" pix_fmt="yuv420p" colorspace="709" resource="/home/alex/Videos/Projects/小白也能轻松学会的Galgame制作/第9讲 只要有标题画面，语文水平再差也没有问题/original/02.ogv" frequency="22050" audiocodec="Vorbis" video_max="1" file_size="3938994">
   <metaproperty name="meta.attr.1.stream.RECORDMYDESKTOP" tool="">0.3.8.1</metaproperty>
  </kdenlive_producer>
  <kdenlive_producer default_audio="2" audio_max="48" videocodec="Theora" fps="15" videocodecid="theora" file_hash="6c63284595c455da6749533526d298af" name="03.ogv" frame_size="1600x896" duration="893" id="3" channels="1" type="3" analysisdata="" default_video="1" progressive="1" aspect_ratio="1" pix_fmt="yuv420p" colorspace="709" resource="/home/alex/Videos/Projects/小白也能轻松学会的Galgame制作/第9讲 只要有标题画面，语文水平再差也没有问题/original/03.ogv" frequency="22050" audiocodec="Vorbis" video_max="1" file_size="4181810">
   <metaproperty name="meta.attr.1.stream.RECORDMYDESKTOP" tool="">0.3.8.1</metaproperty>
  </kdenlive_producer>
  <kdenlive_producer default_audio="2" audio_max="61" videocodec="Theora" fps="-nan" videocodecid="theora" file_hash="2e2c5dac7c8b0b75a01e8c6fed58b129" name="04.ogv" frame_size="1600x896" duration="4296" id="4" channels="1" type="3" analysisdata="" default_video="1" progressive="1" aspect_ratio="1" pix_fmt="yuv420p" colorspace="709" resource="/home/alex/Videos/Projects/小白也能轻松学会的Galgame制作/第9讲 只要有标题画面，语文水平再差也没有问题/original/04.ogv" frequency="22050" audiocodec="Vorbis" video_max="1" file_size="25462890">
   <metaproperty name="meta.attr.1.stream.RECORDMYDESKTOP" tool="">0.3.8.1</metaproperty>
  </kdenlive_producer>
  <kdenlive_producer default_audio="2" audio_max="49" videocodec="Theora" fps="15" videocodecid="theora" file_hash="b257471de0cdf3d6cd2acd8c2921d398" name="05.ogv" frame_size="1600x896" duration="2515" id="5" channels="1" type="3" analysisdata="" default_video="1" progressive="1" aspect_ratio="1" pix_fmt="yuv420p" colorspace="709" resource="/home/alex/Videos/Projects/小白也能轻松学会的Galgame制作/第9讲 只要有标题画面，语文水平再差也没有问题/original/05.ogv" frequency="22050" audiocodec="Vorbis" video_max="1" file_size="11573995">
   <metaproperty name="meta.attr.1.stream.RECORDMYDESKTOP" tool="">0.3.8.1</metaproperty>
  </kdenlive_producer>
  <kdenlive_producer default_audio="2" audio_max="58" videocodec="Theora" fps="15" videocodecid="theora" file_hash="daa5716e2efd6eb0f9cbdf0da29be193" name="06.ogv" frame_size="1600x896" duration="4300" id="6" channels="1" type="3" analysisdata="" default_video="1" progressive="1" aspect_ratio="1" pix_fmt="yuv420p" colorspace="709" resource="/home/alex/Videos/Projects/小白也能轻松学会的Galgame制作/第9讲 只要有标题画面，语文水平再差也没有问题/original/06.ogv" frequency="22050" audiocodec="Vorbis" video_max="1" file_size="23819463">
   <metaproperty name="meta.attr.1.stream.RECORDMYDESKTOP" tool="">0.3.8.1</metaproperty>
  </kdenlive_producer>
  <kdenlive_producer default_audio="2" audio_max="50" videocodec="Theora" fps="15" videocodecid="theora" file_hash="f60fb26b3f815c92be7d753666946ae3" name="07.ogv" frame_size="1600x896" duration="1681" id="7" channels="1" type="3" analysisdata="" default_video="1" progressive="1" aspect_ratio="1" pix_fmt="yuv420p" colorspace="709" resource="/home/alex/Videos/Projects/小白也能轻松学会的Galgame制作/第9讲 只要有标题画面，语文水平再差也没有问题/original/07.ogv" frequency="22050" audiocodec="Vorbis" video_max="1" file_size="6509797">
   <metaproperty name="meta.attr.1.stream.RECORDMYDESKTOP" tool="">0.3.8.1</metaproperty>
  </kdenlive_producer>
  <markers/>
  <groups/>
 </kdenlivedoc>
</mlt>
