<?xml version='1.0' encoding='utf-8'?>
<mlt LC_NUMERIC="en_AU.UTF-8" version="0.9.6" root="/run/media/alex/SBPD/Video/Projects/小白也能轻松学会的Galgame制作/第8讲 没有尖耳朵的精灵" title="Anonymous Submission">
 <profile frame_rate_den="1" colorspace="709" sample_aspect_den="1" width="1280" progressive="1" display_aspect_num="16" display_aspect_den="9" description="HD 720p 15 fps" frame_rate_num="15" height="720" sample_aspect_num="1"/>
 <producer id="black" out="500" in="0">
  <property name="mlt_type">producer</property>
  <property name="length">15000</property>
  <property name="eof">pause</property>
  <property name="resource">black</property>
  <property name="aspect_ratio">0</property>
  <property name="mlt_service">colour</property>
 </producer>
 <playlist id="black_track">
  <entry producer="black" out="9566" in="0"/>
 </playlist>
 <producer id="3_2_audio" out="525" title="Anonymous Submission" in="0">
  <property name="mlt_type">producer</property>
  <property name="length">526</property>
  <property name="eof">pause</property>
  <property name="resource">/home/alex/Videos/Projects/小白也能轻松学会的Galgame制作/第8讲 没有尖耳朵的精灵/original/03.mp4</property>
  <property name="meta.media.nb_streams">2</property>
  <property name="meta.media.0.stream.type">video</property>
  <property name="meta.media.0.stream.frame_rate">15</property>
  <property name="meta.media.0.stream.sample_aspect_ratio">0</property>
  <property name="meta.media.0.codec.width">1600</property>
  <property name="meta.media.0.codec.height">896</property>
  <property name="meta.media.0.codec.frame_rate">15</property>
  <property name="meta.media.0.codec.pix_fmt">yuv420p</property>
  <property name="meta.media.0.codec.sample_aspect_ratio">1</property>
  <property name="meta.media.0.codec.colorspace">709</property>
  <property name="meta.media.0.codec.name">h264</property>
  <property name="meta.media.0.codec.long_name">H.264 / AVC / MPEG-4 AVC / MPEG-4 part 10</property>
  <property name="meta.media.0.codec.bit_rate">98040</property>
  <property name="meta.attr.0.stream.handler_name.markup">VideoHandler</property>
  <property name="meta.media.1.stream.type">audio</property>
  <property name="meta.media.1.codec.sample_fmt">fltp</property>
  <property name="meta.media.1.codec.sample_rate">22050</property>
  <property name="meta.media.1.codec.channels">1</property>
  <property name="meta.media.1.codec.name">aac</property>
  <property name="meta.media.1.codec.long_name">AAC (Advanced Audio Coding)</property>
  <property name="meta.media.1.codec.bit_rate">108945</property>
  <property name="meta.attr.1.stream.handler_name.markup">SoundHandler</property>
  <property name="meta.attr.major_brand.markup">isom</property>
  <property name="meta.attr.minor_version.markup">512</property>
  <property name="meta.attr.compatible_brands.markup">isomiso2avc1mp41</property>
  <property name="meta.attr.encoder.markup">Lavf56.36.100</property>
  <property name="seekable">1</property>
  <property name="meta.media.sample_aspect_num">1</property>
  <property name="meta.media.sample_aspect_den">1</property>
  <property name="aspect_ratio">1</property>
  <property name="audio_index">1</property>
  <property name="video_index">-1</property>
  <property name="mute_on_pause">1</property>
  <property name="mlt_service">avformat</property>
  <property name="global_feed">1</property>
  <property name="xml">was here</property>
 </producer>
 <producer id="5_2_audio" out="1110" title="Anonymous Submission" in="0">
  <property name="mlt_type">producer</property>
  <property name="length">1111</property>
  <property name="eof">pause</property>
  <property name="resource">/home/alex/Videos/Projects/小白也能轻松学会的Galgame制作/第8讲 没有尖耳朵的精灵/original/05.mp4</property>
  <property name="meta.media.nb_streams">2</property>
  <property name="meta.media.0.stream.type">video</property>
  <property name="meta.media.0.stream.frame_rate">15</property>
  <property name="meta.media.0.stream.sample_aspect_ratio">0</property>
  <property name="meta.media.0.codec.width">1600</property>
  <property name="meta.media.0.codec.height">896</property>
  <property name="meta.media.0.codec.frame_rate">15</property>
  <property name="meta.media.0.codec.pix_fmt">yuv420p</property>
  <property name="meta.media.0.codec.sample_aspect_ratio">1</property>
  <property name="meta.media.0.codec.colorspace">709</property>
  <property name="meta.media.0.codec.name">h264</property>
  <property name="meta.media.0.codec.long_name">H.264 / AVC / MPEG-4 AVC / MPEG-4 part 10</property>
  <property name="meta.media.0.codec.bit_rate">58783</property>
  <property name="meta.attr.0.stream.handler_name.markup">VideoHandler</property>
  <property name="meta.media.1.stream.type">audio</property>
  <property name="meta.media.1.codec.sample_fmt">fltp</property>
  <property name="meta.media.1.codec.sample_rate">22050</property>
  <property name="meta.media.1.codec.channels">1</property>
  <property name="meta.media.1.codec.name">aac</property>
  <property name="meta.media.1.codec.long_name">AAC (Advanced Audio Coding)</property>
  <property name="meta.media.1.codec.bit_rate">109974</property>
  <property name="meta.attr.1.stream.handler_name.markup">SoundHandler</property>
  <property name="meta.attr.major_brand.markup">isom</property>
  <property name="meta.attr.minor_version.markup">512</property>
  <property name="meta.attr.compatible_brands.markup">isomiso2avc1mp41</property>
  <property name="meta.attr.encoder.markup">Lavf56.36.100</property>
  <property name="seekable">1</property>
  <property name="meta.media.sample_aspect_num">1</property>
  <property name="meta.media.sample_aspect_den">1</property>
  <property name="aspect_ratio">1</property>
  <property name="audio_index">1</property>
  <property name="video_index">-1</property>
  <property name="mute_on_pause">1</property>
  <property name="mlt_service">avformat</property>
  <property name="global_feed">1</property>
  <property name="xml">was here</property>
 </producer>
 <playlist id="playlist1">
  <blank length="1699"/>
  <entry producer="3_2_audio" out="118" in="100"/>
  <blank length="2136"/>
  <entry producer="5_2_audio" out="919" in="914"/>
  <entry producer="5_2_audio" out="930" in="920"/>
 </playlist>
 <producer id="1_1" out="1020" title="Anonymous Submission" in="0">
  <property name="mlt_type">mlt_producer</property>
  <property name="length">1021</property>
  <property name="eof">pause</property>
  <property name="resource">/home/alex/Videos/Projects/小白也能轻松学会的Galgame制作/第8讲 没有尖耳朵的精灵/original/01.mp4</property>
  <property name="meta.media.nb_streams">2</property>
  <property name="meta.media.0.stream.type">video</property>
  <property name="meta.media.0.stream.frame_rate">15</property>
  <property name="meta.media.0.stream.sample_aspect_ratio">0</property>
  <property name="meta.media.0.codec.width">1600</property>
  <property name="meta.media.0.codec.height">896</property>
  <property name="meta.media.0.codec.frame_rate">15</property>
  <property name="meta.media.0.codec.pix_fmt">yuv420p</property>
  <property name="meta.media.0.codec.sample_aspect_ratio">1</property>
  <property name="meta.media.0.codec.colorspace">709</property>
  <property name="meta.media.0.codec.name">h264</property>
  <property name="meta.media.0.codec.long_name">H.264 / AVC / MPEG-4 AVC / MPEG-4 part 10</property>
  <property name="meta.media.0.codec.bit_rate">214633</property>
  <property name="meta.attr.0.stream.handler_name.markup">VideoHandler</property>
  <property name="meta.media.1.stream.type">audio</property>
  <property name="meta.media.1.codec.sample_fmt">fltp</property>
  <property name="meta.media.1.codec.sample_rate">22050</property>
  <property name="meta.media.1.codec.channels">1</property>
  <property name="meta.media.1.codec.name">aac</property>
  <property name="meta.media.1.codec.long_name">AAC (Advanced Audio Coding)</property>
  <property name="meta.media.1.codec.bit_rate">109359</property>
  <property name="meta.attr.1.stream.handler_name.markup">SoundHandler</property>
  <property name="meta.attr.major_brand.markup">isom</property>
  <property name="meta.attr.minor_version.markup">512</property>
  <property name="meta.attr.compatible_brands.markup">isomiso2avc1mp41</property>
  <property name="meta.attr.encoder.markup">Lavf56.36.100</property>
  <property name="seekable">1</property>
  <property name="meta.media.sample_aspect_num">1</property>
  <property name="meta.media.sample_aspect_den">1</property>
  <property name="aspect_ratio">1</property>
  <property name="audio_index">1</property>
  <property name="video_index">0</property>
  <property name="mute_on_pause">1</property>
  <property name="mlt_service">avformat</property>
  <property name="global_feed">1</property>
  <property name="xml">was here</property>
  <property name="meta.media.frame_rate_num">15</property>
  <property name="meta.media.frame_rate_den">1</property>
  <property name="meta.media.colorspace">709</property>
  <property name="meta.media.color_trc">2</property>
  <property name="meta.media.width">1600</property>
  <property name="meta.media.height">896</property>
  <property name="meta.media.top_field_first">0</property>
  <property name="meta.media.progressive">1</property>
 </producer>
 <producer id="2_1" out="918" title="Anonymous Submission" in="0">
  <property name="mlt_type">producer</property>
  <property name="length">919</property>
  <property name="eof">pause</property>
  <property name="resource">/home/alex/Videos/Projects/小白也能轻松学会的Galgame制作/第8讲 没有尖耳朵的精灵/original/02.mp4</property>
  <property name="meta.media.nb_streams">2</property>
  <property name="meta.media.0.stream.type">video</property>
  <property name="meta.media.0.stream.frame_rate">15</property>
  <property name="meta.media.0.stream.sample_aspect_ratio">0</property>
  <property name="meta.media.0.codec.width">1600</property>
  <property name="meta.media.0.codec.height">896</property>
  <property name="meta.media.0.codec.frame_rate">15</property>
  <property name="meta.media.0.codec.pix_fmt">yuv420p</property>
  <property name="meta.media.0.codec.sample_aspect_ratio">1</property>
  <property name="meta.media.0.codec.colorspace">709</property>
  <property name="meta.media.0.codec.name">h264</property>
  <property name="meta.media.0.codec.long_name">H.264 / AVC / MPEG-4 AVC / MPEG-4 part 10</property>
  <property name="meta.media.0.codec.bit_rate">89812</property>
  <property name="meta.attr.0.stream.handler_name.markup">VideoHandler</property>
  <property name="meta.media.1.stream.type">audio</property>
  <property name="meta.media.1.codec.sample_fmt">fltp</property>
  <property name="meta.media.1.codec.sample_rate">22050</property>
  <property name="meta.media.1.codec.channels">1</property>
  <property name="meta.media.1.codec.name">aac</property>
  <property name="meta.media.1.codec.long_name">AAC (Advanced Audio Coding)</property>
  <property name="meta.media.1.codec.bit_rate">110150</property>
  <property name="meta.attr.1.stream.handler_name.markup">SoundHandler</property>
  <property name="meta.attr.major_brand.markup">isom</property>
  <property name="meta.attr.minor_version.markup">512</property>
  <property name="meta.attr.compatible_brands.markup">isomiso2avc1mp41</property>
  <property name="meta.attr.encoder.markup">Lavf56.36.100</property>
  <property name="seekable">1</property>
  <property name="meta.media.sample_aspect_num">1</property>
  <property name="meta.media.sample_aspect_den">1</property>
  <property name="aspect_ratio">1</property>
  <property name="audio_index">1</property>
  <property name="video_index">0</property>
  <property name="mute_on_pause">1</property>
  <property name="mlt_service">avformat</property>
  <property name="global_feed">1</property>
  <property name="xml">was here</property>
  <property name="meta.media.frame_rate_num">15</property>
  <property name="meta.media.frame_rate_den">1</property>
  <property name="meta.media.colorspace">709</property>
  <property name="meta.media.color_trc">2</property>
  <property name="meta.media.width">1600</property>
  <property name="meta.media.height">896</property>
  <property name="meta.media.top_field_first">0</property>
  <property name="meta.media.progressive">1</property>
 </producer>
 <producer id="3_1" out="525" title="Anonymous Submission" in="0">
  <property name="mlt_type">producer</property>
  <property name="length">526</property>
  <property name="eof">pause</property>
  <property name="resource">/home/alex/Videos/Projects/小白也能轻松学会的Galgame制作/第8讲 没有尖耳朵的精灵/original/03.mp4</property>
  <property name="meta.media.nb_streams">2</property>
  <property name="meta.media.0.stream.type">video</property>
  <property name="meta.media.0.stream.frame_rate">15</property>
  <property name="meta.media.0.stream.sample_aspect_ratio">0</property>
  <property name="meta.media.0.codec.width">1600</property>
  <property name="meta.media.0.codec.height">896</property>
  <property name="meta.media.0.codec.frame_rate">15</property>
  <property name="meta.media.0.codec.pix_fmt">yuv420p</property>
  <property name="meta.media.0.codec.sample_aspect_ratio">1</property>
  <property name="meta.media.0.codec.colorspace">709</property>
  <property name="meta.media.0.codec.name">h264</property>
  <property name="meta.media.0.codec.long_name">H.264 / AVC / MPEG-4 AVC / MPEG-4 part 10</property>
  <property name="meta.media.0.codec.bit_rate">98040</property>
  <property name="meta.attr.0.stream.handler_name.markup">VideoHandler</property>
  <property name="meta.media.1.stream.type">audio</property>
  <property name="meta.media.1.codec.sample_fmt">fltp</property>
  <property name="meta.media.1.codec.sample_rate">22050</property>
  <property name="meta.media.1.codec.channels">1</property>
  <property name="meta.media.1.codec.name">aac</property>
  <property name="meta.media.1.codec.long_name">AAC (Advanced Audio Coding)</property>
  <property name="meta.media.1.codec.bit_rate">108945</property>
  <property name="meta.attr.1.stream.handler_name.markup">SoundHandler</property>
  <property name="meta.attr.major_brand.markup">isom</property>
  <property name="meta.attr.minor_version.markup">512</property>
  <property name="meta.attr.compatible_brands.markup">isomiso2avc1mp41</property>
  <property name="meta.attr.encoder.markup">Lavf56.36.100</property>
  <property name="seekable">1</property>
  <property name="meta.media.sample_aspect_num">1</property>
  <property name="meta.media.sample_aspect_den">1</property>
  <property name="aspect_ratio">1</property>
  <property name="audio_index">1</property>
  <property name="video_index">0</property>
  <property name="mute_on_pause">1</property>
  <property name="mlt_service">avformat</property>
  <property name="global_feed">1</property>
  <property name="xml">was here</property>
  <property name="meta.media.frame_rate_num">15</property>
  <property name="meta.media.frame_rate_den">1</property>
  <property name="meta.media.colorspace">709</property>
  <property name="meta.media.color_trc">2</property>
  <property name="meta.media.width">1600</property>
  <property name="meta.media.height">896</property>
  <property name="meta.media.top_field_first">0</property>
  <property name="meta.media.progressive">1</property>
 </producer>
 <producer id="3_2_video" out="525" title="Anonymous Submission" in="0">
  <property name="mlt_type">producer</property>
  <property name="length">526</property>
  <property name="eof">pause</property>
  <property name="resource">/home/alex/Videos/Projects/小白也能轻松学会的Galgame制作/第8讲 没有尖耳朵的精灵/original/03.mp4</property>
  <property name="meta.media.nb_streams">2</property>
  <property name="meta.media.0.stream.type">video</property>
  <property name="meta.media.0.stream.frame_rate">15</property>
  <property name="meta.media.0.stream.sample_aspect_ratio">0</property>
  <property name="meta.media.0.codec.width">1600</property>
  <property name="meta.media.0.codec.height">896</property>
  <property name="meta.media.0.codec.frame_rate">15</property>
  <property name="meta.media.0.codec.pix_fmt">yuv420p</property>
  <property name="meta.media.0.codec.sample_aspect_ratio">1</property>
  <property name="meta.media.0.codec.colorspace">709</property>
  <property name="meta.media.0.codec.name">h264</property>
  <property name="meta.media.0.codec.long_name">H.264 / AVC / MPEG-4 AVC / MPEG-4 part 10</property>
  <property name="meta.media.0.codec.bit_rate">98040</property>
  <property name="meta.attr.0.stream.handler_name.markup">VideoHandler</property>
  <property name="meta.media.1.stream.type">audio</property>
  <property name="meta.media.1.codec.sample_fmt">fltp</property>
  <property name="meta.media.1.codec.sample_rate">22050</property>
  <property name="meta.media.1.codec.channels">1</property>
  <property name="meta.media.1.codec.name">aac</property>
  <property name="meta.media.1.codec.long_name">AAC (Advanced Audio Coding)</property>
  <property name="meta.media.1.codec.bit_rate">108945</property>
  <property name="meta.attr.1.stream.handler_name.markup">SoundHandler</property>
  <property name="meta.attr.major_brand.markup">isom</property>
  <property name="meta.attr.minor_version.markup">512</property>
  <property name="meta.attr.compatible_brands.markup">isomiso2avc1mp41</property>
  <property name="meta.attr.encoder.markup">Lavf56.36.100</property>
  <property name="seekable">1</property>
  <property name="meta.media.sample_aspect_num">1</property>
  <property name="meta.media.sample_aspect_den">1</property>
  <property name="aspect_ratio">1</property>
  <property name="audio_index">-1</property>
  <property name="video_index">0</property>
  <property name="mute_on_pause">1</property>
  <property name="mlt_service">avformat</property>
  <property name="global_feed">1</property>
  <property name="xml">was here</property>
  <property name="meta.media.frame_rate_num">15</property>
  <property name="meta.media.frame_rate_den">1</property>
  <property name="meta.media.colorspace">709</property>
  <property name="meta.media.color_trc">2</property>
  <property name="meta.media.width">1600</property>
  <property name="meta.media.height">896</property>
  <property name="meta.media.top_field_first">0</property>
  <property name="meta.media.progressive">1</property>
 </producer>
 <producer id="4_1" out="1526" title="Anonymous Submission" in="0">
  <property name="mlt_type">producer</property>
  <property name="length">1527</property>
  <property name="eof">pause</property>
  <property name="resource">/home/alex/Videos/Projects/小白也能轻松学会的Galgame制作/第8讲 没有尖耳朵的精灵/original/04.mp4</property>
  <property name="meta.media.nb_streams">2</property>
  <property name="meta.media.0.stream.type">video</property>
  <property name="meta.media.0.stream.frame_rate">15</property>
  <property name="meta.media.0.stream.sample_aspect_ratio">0</property>
  <property name="meta.media.0.codec.width">1600</property>
  <property name="meta.media.0.codec.height">896</property>
  <property name="meta.media.0.codec.frame_rate">15</property>
  <property name="meta.media.0.codec.pix_fmt">yuv420p</property>
  <property name="meta.media.0.codec.sample_aspect_ratio">1</property>
  <property name="meta.media.0.codec.colorspace">709</property>
  <property name="meta.media.0.codec.name">h264</property>
  <property name="meta.media.0.codec.long_name">H.264 / AVC / MPEG-4 AVC / MPEG-4 part 10</property>
  <property name="meta.media.0.codec.bit_rate">37905</property>
  <property name="meta.attr.0.stream.handler_name.markup">VideoHandler</property>
  <property name="meta.media.1.stream.type">audio</property>
  <property name="meta.media.1.codec.sample_fmt">fltp</property>
  <property name="meta.media.1.codec.sample_rate">22050</property>
  <property name="meta.media.1.codec.channels">1</property>
  <property name="meta.media.1.codec.name">aac</property>
  <property name="meta.media.1.codec.long_name">AAC (Advanced Audio Coding)</property>
  <property name="meta.media.1.codec.bit_rate">109787</property>
  <property name="meta.attr.1.stream.handler_name.markup">SoundHandler</property>
  <property name="meta.attr.major_brand.markup">isom</property>
  <property name="meta.attr.minor_version.markup">512</property>
  <property name="meta.attr.compatible_brands.markup">isomiso2avc1mp41</property>
  <property name="meta.attr.encoder.markup">Lavf56.36.100</property>
  <property name="seekable">1</property>
  <property name="meta.media.sample_aspect_num">1</property>
  <property name="meta.media.sample_aspect_den">1</property>
  <property name="aspect_ratio">1</property>
  <property name="audio_index">1</property>
  <property name="video_index">0</property>
  <property name="mute_on_pause">1</property>
  <property name="mlt_service">avformat</property>
  <property name="global_feed">1</property>
  <property name="xml">was here</property>
  <property name="meta.media.frame_rate_num">15</property>
  <property name="meta.media.frame_rate_den">1</property>
  <property name="meta.media.colorspace">709</property>
  <property name="meta.media.color_trc">2</property>
  <property name="meta.media.width">1600</property>
  <property name="meta.media.height">896</property>
  <property name="meta.media.top_field_first">0</property>
  <property name="meta.media.progressive">1</property>
 </producer>
 <producer id="5_1" out="1110" title="Anonymous Submission" in="0">
  <property name="mlt_type">producer</property>
  <property name="length">1111</property>
  <property name="eof">pause</property>
  <property name="resource">/home/alex/Videos/Projects/小白也能轻松学会的Galgame制作/第8讲 没有尖耳朵的精灵/original/05.mp4</property>
  <property name="meta.media.nb_streams">2</property>
  <property name="meta.media.0.stream.type">video</property>
  <property name="meta.media.0.stream.frame_rate">15</property>
  <property name="meta.media.0.stream.sample_aspect_ratio">0</property>
  <property name="meta.media.0.codec.width">1600</property>
  <property name="meta.media.0.codec.height">896</property>
  <property name="meta.media.0.codec.frame_rate">15</property>
  <property name="meta.media.0.codec.pix_fmt">yuv420p</property>
  <property name="meta.media.0.codec.sample_aspect_ratio">1</property>
  <property name="meta.media.0.codec.colorspace">709</property>
  <property name="meta.media.0.codec.name">h264</property>
  <property name="meta.media.0.codec.long_name">H.264 / AVC / MPEG-4 AVC / MPEG-4 part 10</property>
  <property name="meta.media.0.codec.bit_rate">58783</property>
  <property name="meta.attr.0.stream.handler_name.markup">VideoHandler</property>
  <property name="meta.media.1.stream.type">audio</property>
  <property name="meta.media.1.codec.sample_fmt">fltp</property>
  <property name="meta.media.1.codec.sample_rate">22050</property>
  <property name="meta.media.1.codec.channels">1</property>
  <property name="meta.media.1.codec.name">aac</property>
  <property name="meta.media.1.codec.long_name">AAC (Advanced Audio Coding)</property>
  <property name="meta.media.1.codec.bit_rate">109974</property>
  <property name="meta.attr.1.stream.handler_name.markup">SoundHandler</property>
  <property name="meta.attr.major_brand.markup">isom</property>
  <property name="meta.attr.minor_version.markup">512</property>
  <property name="meta.attr.compatible_brands.markup">isomiso2avc1mp41</property>
  <property name="meta.attr.encoder.markup">Lavf56.36.100</property>
  <property name="seekable">1</property>
  <property name="meta.media.sample_aspect_num">1</property>
  <property name="meta.media.sample_aspect_den">1</property>
  <property name="aspect_ratio">1</property>
  <property name="audio_index">1</property>
  <property name="video_index">0</property>
  <property name="mute_on_pause">1</property>
  <property name="mlt_service">avformat</property>
  <property name="global_feed">1</property>
  <property name="xml">was here</property>
  <property name="meta.media.frame_rate_num">15</property>
  <property name="meta.media.frame_rate_den">1</property>
  <property name="meta.media.colorspace">709</property>
  <property name="meta.media.color_trc">2</property>
  <property name="meta.media.width">1600</property>
  <property name="meta.media.height">896</property>
  <property name="meta.media.top_field_first">0</property>
  <property name="meta.media.progressive">1</property>
 </producer>
 <producer id="5_2_video" out="1110" title="Anonymous Submission" in="0">
  <property name="mlt_type">producer</property>
  <property name="length">1111</property>
  <property name="eof">pause</property>
  <property name="resource">/home/alex/Videos/Projects/小白也能轻松学会的Galgame制作/第8讲 没有尖耳朵的精灵/original/05.mp4</property>
  <property name="meta.media.nb_streams">2</property>
  <property name="meta.media.0.stream.type">video</property>
  <property name="meta.media.0.stream.frame_rate">15</property>
  <property name="meta.media.0.stream.sample_aspect_ratio">0</property>
  <property name="meta.media.0.codec.width">1600</property>
  <property name="meta.media.0.codec.height">896</property>
  <property name="meta.media.0.codec.frame_rate">15</property>
  <property name="meta.media.0.codec.pix_fmt">yuv420p</property>
  <property name="meta.media.0.codec.sample_aspect_ratio">1</property>
  <property name="meta.media.0.codec.colorspace">709</property>
  <property name="meta.media.0.codec.name">h264</property>
  <property name="meta.media.0.codec.long_name">H.264 / AVC / MPEG-4 AVC / MPEG-4 part 10</property>
  <property name="meta.media.0.codec.bit_rate">58783</property>
  <property name="meta.attr.0.stream.handler_name.markup">VideoHandler</property>
  <property name="meta.media.1.stream.type">audio</property>
  <property name="meta.media.1.codec.sample_fmt">fltp</property>
  <property name="meta.media.1.codec.sample_rate">22050</property>
  <property name="meta.media.1.codec.channels">1</property>
  <property name="meta.media.1.codec.name">aac</property>
  <property name="meta.media.1.codec.long_name">AAC (Advanced Audio Coding)</property>
  <property name="meta.media.1.codec.bit_rate">109974</property>
  <property name="meta.attr.1.stream.handler_name.markup">SoundHandler</property>
  <property name="meta.attr.major_brand.markup">isom</property>
  <property name="meta.attr.minor_version.markup">512</property>
  <property name="meta.attr.compatible_brands.markup">isomiso2avc1mp41</property>
  <property name="meta.attr.encoder.markup">Lavf56.36.100</property>
  <property name="seekable">1</property>
  <property name="meta.media.sample_aspect_num">1</property>
  <property name="meta.media.sample_aspect_den">1</property>
  <property name="aspect_ratio">1</property>
  <property name="audio_index">-1</property>
  <property name="video_index">0</property>
  <property name="mute_on_pause">1</property>
  <property name="mlt_service">avformat</property>
  <property name="global_feed">1</property>
  <property name="xml">was here</property>
  <property name="meta.media.frame_rate_num">15</property>
  <property name="meta.media.frame_rate_den">1</property>
  <property name="meta.media.colorspace">709</property>
  <property name="meta.media.color_trc">2</property>
  <property name="meta.media.width">1600</property>
  <property name="meta.media.height">896</property>
  <property name="meta.media.top_field_first">0</property>
  <property name="meta.media.progressive">1</property>
 </producer>
 <producer id="6_1" out="998" title="Anonymous Submission" in="0">
  <property name="mlt_type">producer</property>
  <property name="length">999</property>
  <property name="eof">pause</property>
  <property name="resource">/home/alex/Videos/Projects/小白也能轻松学会的Galgame制作/第8讲 没有尖耳朵的精灵/original/06.mp4</property>
  <property name="meta.media.nb_streams">2</property>
  <property name="meta.media.0.stream.type">video</property>
  <property name="meta.media.0.stream.frame_rate">15</property>
  <property name="meta.media.0.stream.sample_aspect_ratio">0</property>
  <property name="meta.media.0.codec.width">1600</property>
  <property name="meta.media.0.codec.height">896</property>
  <property name="meta.media.0.codec.frame_rate">15</property>
  <property name="meta.media.0.codec.pix_fmt">yuv420p</property>
  <property name="meta.media.0.codec.sample_aspect_ratio">1</property>
  <property name="meta.media.0.codec.colorspace">709</property>
  <property name="meta.media.0.codec.name">h264</property>
  <property name="meta.media.0.codec.long_name">H.264 / AVC / MPEG-4 AVC / MPEG-4 part 10</property>
  <property name="meta.media.0.codec.bit_rate">48992</property>
  <property name="meta.attr.0.stream.handler_name.markup">VideoHandler</property>
  <property name="meta.media.1.stream.type">audio</property>
  <property name="meta.media.1.codec.sample_fmt">fltp</property>
  <property name="meta.media.1.codec.sample_rate">22050</property>
  <property name="meta.media.1.codec.channels">1</property>
  <property name="meta.media.1.codec.name">aac</property>
  <property name="meta.media.1.codec.long_name">AAC (Advanced Audio Coding)</property>
  <property name="meta.media.1.codec.bit_rate">109996</property>
  <property name="meta.attr.1.stream.handler_name.markup">SoundHandler</property>
  <property name="meta.attr.major_brand.markup">isom</property>
  <property name="meta.attr.minor_version.markup">512</property>
  <property name="meta.attr.compatible_brands.markup">isomiso2avc1mp41</property>
  <property name="meta.attr.encoder.markup">Lavf56.36.100</property>
  <property name="seekable">1</property>
  <property name="meta.media.sample_aspect_num">1</property>
  <property name="meta.media.sample_aspect_den">1</property>
  <property name="aspect_ratio">1</property>
  <property name="audio_index">1</property>
  <property name="video_index">0</property>
  <property name="mute_on_pause">1</property>
  <property name="mlt_service">avformat</property>
  <property name="global_feed">1</property>
  <property name="xml">was here</property>
  <property name="meta.media.frame_rate_num">15</property>
  <property name="meta.media.frame_rate_den">1</property>
  <property name="meta.media.colorspace">709</property>
  <property name="meta.media.color_trc">2</property>
  <property name="meta.media.width">1600</property>
  <property name="meta.media.height">896</property>
  <property name="meta.media.top_field_first">0</property>
  <property name="meta.media.progressive">1</property>
 </producer>
 <producer id="7_1" out="419" title="Anonymous Submission" in="0">
  <property name="mlt_type">producer</property>
  <property name="length">420</property>
  <property name="eof">pause</property>
  <property name="resource">/home/alex/Videos/Projects/小白也能轻松学会的Galgame制作/第8讲 没有尖耳朵的精灵/original/07.mp4</property>
  <property name="meta.media.nb_streams">2</property>
  <property name="meta.media.0.stream.type">video</property>
  <property name="meta.media.0.stream.frame_rate">15</property>
  <property name="meta.media.0.stream.sample_aspect_ratio">0</property>
  <property name="meta.media.0.codec.width">1600</property>
  <property name="meta.media.0.codec.height">896</property>
  <property name="meta.media.0.codec.frame_rate">15</property>
  <property name="meta.media.0.codec.pix_fmt">yuv420p</property>
  <property name="meta.media.0.codec.sample_aspect_ratio">1</property>
  <property name="meta.media.0.codec.colorspace">709</property>
  <property name="meta.media.0.codec.name">h264</property>
  <property name="meta.media.0.codec.long_name">H.264 / AVC / MPEG-4 AVC / MPEG-4 part 10</property>
  <property name="meta.media.0.codec.bit_rate">63193</property>
  <property name="meta.attr.0.stream.handler_name.markup">VideoHandler</property>
  <property name="meta.media.1.stream.type">audio</property>
  <property name="meta.media.1.codec.sample_fmt">fltp</property>
  <property name="meta.media.1.codec.sample_rate">22050</property>
  <property name="meta.media.1.codec.channels">1</property>
  <property name="meta.media.1.codec.name">aac</property>
  <property name="meta.media.1.codec.long_name">AAC (Advanced Audio Coding)</property>
  <property name="meta.media.1.codec.bit_rate">109286</property>
  <property name="meta.attr.1.stream.handler_name.markup">SoundHandler</property>
  <property name="meta.attr.major_brand.markup">isom</property>
  <property name="meta.attr.minor_version.markup">512</property>
  <property name="meta.attr.compatible_brands.markup">isomiso2avc1mp41</property>
  <property name="meta.attr.encoder.markup">Lavf56.36.100</property>
  <property name="seekable">1</property>
  <property name="meta.media.sample_aspect_num">1</property>
  <property name="meta.media.sample_aspect_den">1</property>
  <property name="aspect_ratio">1</property>
  <property name="audio_index">1</property>
  <property name="video_index">0</property>
  <property name="mute_on_pause">1</property>
  <property name="mlt_service">avformat</property>
  <property name="global_feed">1</property>
  <property name="xml">was here</property>
  <property name="meta.media.frame_rate_num">15</property>
  <property name="meta.media.frame_rate_den">1</property>
  <property name="meta.media.colorspace">709</property>
  <property name="meta.media.color_trc">2</property>
  <property name="meta.media.width">1600</property>
  <property name="meta.media.height">896</property>
  <property name="meta.media.top_field_first">0</property>
  <property name="meta.media.progressive">1</property>
 </producer>
 <producer id="8_1" out="455" title="Anonymous Submission" in="0">
  <property name="mlt_type">producer</property>
  <property name="length">456</property>
  <property name="eof">pause</property>
  <property name="resource">/home/alex/Videos/Projects/小白也能轻松学会的Galgame制作/第8讲 没有尖耳朵的精灵/original/08.mp4</property>
  <property name="meta.media.nb_streams">2</property>
  <property name="meta.media.0.stream.type">video</property>
  <property name="meta.media.0.stream.frame_rate">15</property>
  <property name="meta.media.0.stream.sample_aspect_ratio">0</property>
  <property name="meta.media.0.codec.width">1600</property>
  <property name="meta.media.0.codec.height">896</property>
  <property name="meta.media.0.codec.frame_rate">15</property>
  <property name="meta.media.0.codec.pix_fmt">yuv420p</property>
  <property name="meta.media.0.codec.sample_aspect_ratio">1</property>
  <property name="meta.media.0.codec.colorspace">709</property>
  <property name="meta.media.0.codec.name">h264</property>
  <property name="meta.media.0.codec.long_name">H.264 / AVC / MPEG-4 AVC / MPEG-4 part 10</property>
  <property name="meta.media.0.codec.bit_rate">67421</property>
  <property name="meta.attr.0.stream.handler_name.markup">VideoHandler</property>
  <property name="meta.media.1.stream.type">audio</property>
  <property name="meta.media.1.codec.sample_fmt">fltp</property>
  <property name="meta.media.1.codec.sample_rate">22050</property>
  <property name="meta.media.1.codec.channels">1</property>
  <property name="meta.media.1.codec.name">aac</property>
  <property name="meta.media.1.codec.long_name">AAC (Advanced Audio Coding)</property>
  <property name="meta.media.1.codec.bit_rate">110400</property>
  <property name="meta.attr.1.stream.handler_name.markup">SoundHandler</property>
  <property name="meta.attr.major_brand.markup">isom</property>
  <property name="meta.attr.minor_version.markup">512</property>
  <property name="meta.attr.compatible_brands.markup">isomiso2avc1mp41</property>
  <property name="meta.attr.encoder.markup">Lavf56.36.100</property>
  <property name="seekable">1</property>
  <property name="meta.media.sample_aspect_num">1</property>
  <property name="meta.media.sample_aspect_den">1</property>
  <property name="aspect_ratio">1</property>
  <property name="audio_index">1</property>
  <property name="video_index">0</property>
  <property name="mute_on_pause">1</property>
  <property name="mlt_service">avformat</property>
  <property name="global_feed">1</property>
  <property name="xml">was here</property>
  <property name="meta.media.frame_rate_num">15</property>
  <property name="meta.media.frame_rate_den">1</property>
  <property name="meta.media.colorspace">709</property>
  <property name="meta.media.color_trc">2</property>
  <property name="meta.media.width">1600</property>
  <property name="meta.media.height">896</property>
  <property name="meta.media.top_field_first">0</property>
  <property name="meta.media.progressive">1</property>
 </producer>
 <producer id="9_1" out="1031" title="Anonymous Submission" in="0">
  <property name="mlt_type">producer</property>
  <property name="length">1032</property>
  <property name="eof">pause</property>
  <property name="resource">/home/alex/Videos/Projects/小白也能轻松学会的Galgame制作/第8讲 没有尖耳朵的精灵/original/09.mp4</property>
  <property name="meta.media.nb_streams">2</property>
  <property name="meta.media.0.stream.type">video</property>
  <property name="meta.media.0.stream.frame_rate">15</property>
  <property name="meta.media.0.stream.sample_aspect_ratio">0</property>
  <property name="meta.media.0.codec.width">1600</property>
  <property name="meta.media.0.codec.height">896</property>
  <property name="meta.media.0.codec.frame_rate">15</property>
  <property name="meta.media.0.codec.pix_fmt">yuv420p</property>
  <property name="meta.media.0.codec.sample_aspect_ratio">1</property>
  <property name="meta.media.0.codec.colorspace">709</property>
  <property name="meta.media.0.codec.name">h264</property>
  <property name="meta.media.0.codec.long_name">H.264 / AVC / MPEG-4 AVC / MPEG-4 part 10</property>
  <property name="meta.media.0.codec.bit_rate">55554</property>
  <property name="meta.attr.0.stream.handler_name.markup">VideoHandler</property>
  <property name="meta.media.1.stream.type">audio</property>
  <property name="meta.media.1.codec.sample_fmt">fltp</property>
  <property name="meta.media.1.codec.sample_rate">22050</property>
  <property name="meta.media.1.codec.channels">1</property>
  <property name="meta.media.1.codec.name">aac</property>
  <property name="meta.media.1.codec.long_name">AAC (Advanced Audio Coding)</property>
  <property name="meta.media.1.codec.bit_rate">109653</property>
  <property name="meta.attr.1.stream.handler_name.markup">SoundHandler</property>
  <property name="meta.attr.major_brand.markup">isom</property>
  <property name="meta.attr.minor_version.markup">512</property>
  <property name="meta.attr.compatible_brands.markup">isomiso2avc1mp41</property>
  <property name="meta.attr.encoder.markup">Lavf56.36.100</property>
  <property name="seekable">1</property>
  <property name="meta.media.sample_aspect_num">1</property>
  <property name="meta.media.sample_aspect_den">1</property>
  <property name="aspect_ratio">1</property>
  <property name="audio_index">1</property>
  <property name="video_index">0</property>
  <property name="mute_on_pause">1</property>
  <property name="mlt_service">avformat</property>
  <property name="global_feed">1</property>
  <property name="xml">was here</property>
  <property name="meta.media.frame_rate_num">15</property>
  <property name="meta.media.frame_rate_den">1</property>
  <property name="meta.media.colorspace">709</property>
  <property name="meta.media.color_trc">2</property>
  <property name="meta.media.width">1600</property>
  <property name="meta.media.height">896</property>
  <property name="meta.media.top_field_first">0</property>
  <property name="meta.media.progressive">1</property>
 </producer>
 <producer id="10_1" out="376" title="Anonymous Submission" in="0">
  <property name="mlt_type">producer</property>
  <property name="length">377</property>
  <property name="eof">pause</property>
  <property name="resource">/home/alex/Videos/Projects/小白也能轻松学会的Galgame制作/第8讲 没有尖耳朵的精灵/original/10.mp4</property>
  <property name="meta.media.nb_streams">2</property>
  <property name="meta.media.0.stream.type">video</property>
  <property name="meta.media.0.stream.frame_rate">15</property>
  <property name="meta.media.0.stream.sample_aspect_ratio">0</property>
  <property name="meta.media.0.codec.width">1600</property>
  <property name="meta.media.0.codec.height">896</property>
  <property name="meta.media.0.codec.frame_rate">15</property>
  <property name="meta.media.0.codec.pix_fmt">yuv420p</property>
  <property name="meta.media.0.codec.sample_aspect_ratio">1</property>
  <property name="meta.media.0.codec.colorspace">709</property>
  <property name="meta.media.0.codec.name">h264</property>
  <property name="meta.media.0.codec.long_name">H.264 / AVC / MPEG-4 AVC / MPEG-4 part 10</property>
  <property name="meta.media.0.codec.bit_rate">58203</property>
  <property name="meta.attr.0.stream.handler_name.markup">VideoHandler</property>
  <property name="meta.media.1.stream.type">audio</property>
  <property name="meta.media.1.codec.sample_fmt">fltp</property>
  <property name="meta.media.1.codec.sample_rate">22050</property>
  <property name="meta.media.1.codec.channels">1</property>
  <property name="meta.media.1.codec.name">aac</property>
  <property name="meta.media.1.codec.long_name">AAC (Advanced Audio Coding)</property>
  <property name="meta.media.1.codec.bit_rate">109638</property>
  <property name="meta.attr.1.stream.handler_name.markup">SoundHandler</property>
  <property name="meta.attr.major_brand.markup">isom</property>
  <property name="meta.attr.minor_version.markup">512</property>
  <property name="meta.attr.compatible_brands.markup">isomiso2avc1mp41</property>
  <property name="meta.attr.encoder.markup">Lavf56.36.100</property>
  <property name="seekable">1</property>
  <property name="meta.media.sample_aspect_num">1</property>
  <property name="meta.media.sample_aspect_den">1</property>
  <property name="aspect_ratio">1</property>
  <property name="audio_index">1</property>
  <property name="video_index">0</property>
  <property name="mute_on_pause">1</property>
  <property name="mlt_service">avformat</property>
  <property name="global_feed">1</property>
  <property name="xml">was here</property>
  <property name="meta.media.frame_rate_num">15</property>
  <property name="meta.media.frame_rate_den">1</property>
  <property name="meta.media.colorspace">709</property>
  <property name="meta.media.color_trc">2</property>
  <property name="meta.media.width">1600</property>
  <property name="meta.media.height">896</property>
  <property name="meta.media.top_field_first">0</property>
  <property name="meta.media.progressive">1</property>
 </producer>
 <producer id="11_1" out="886" title="Anonymous Submission" in="0">
  <property name="mlt_type">producer</property>
  <property name="length">887</property>
  <property name="eof">pause</property>
  <property name="resource">/home/alex/Videos/Projects/小白也能轻松学会的Galgame制作/第8讲 没有尖耳朵的精灵/original/11.mp4</property>
  <property name="meta.media.nb_streams">2</property>
  <property name="meta.media.0.stream.type">video</property>
  <property name="meta.media.0.stream.frame_rate">15</property>
  <property name="meta.media.0.stream.sample_aspect_ratio">0</property>
  <property name="meta.media.0.codec.width">1600</property>
  <property name="meta.media.0.codec.height">896</property>
  <property name="meta.media.0.codec.frame_rate">15</property>
  <property name="meta.media.0.codec.pix_fmt">yuv420p</property>
  <property name="meta.media.0.codec.sample_aspect_ratio">1</property>
  <property name="meta.media.0.codec.colorspace">709</property>
  <property name="meta.media.0.codec.name">h264</property>
  <property name="meta.media.0.codec.long_name">H.264 / AVC / MPEG-4 AVC / MPEG-4 part 10</property>
  <property name="meta.media.0.codec.bit_rate">40316</property>
  <property name="meta.attr.0.stream.handler_name.markup">VideoHandler</property>
  <property name="meta.media.1.stream.type">audio</property>
  <property name="meta.media.1.codec.sample_fmt">fltp</property>
  <property name="meta.media.1.codec.sample_rate">22050</property>
  <property name="meta.media.1.codec.channels">1</property>
  <property name="meta.media.1.codec.name">aac</property>
  <property name="meta.media.1.codec.long_name">AAC (Advanced Audio Coding)</property>
  <property name="meta.media.1.codec.bit_rate">110139</property>
  <property name="meta.attr.1.stream.handler_name.markup">SoundHandler</property>
  <property name="meta.attr.major_brand.markup">isom</property>
  <property name="meta.attr.minor_version.markup">512</property>
  <property name="meta.attr.compatible_brands.markup">isomiso2avc1mp41</property>
  <property name="meta.attr.encoder.markup">Lavf56.36.100</property>
  <property name="seekable">1</property>
  <property name="meta.media.sample_aspect_num">1</property>
  <property name="meta.media.sample_aspect_den">1</property>
  <property name="aspect_ratio">1</property>
  <property name="audio_index">1</property>
  <property name="video_index">0</property>
  <property name="mute_on_pause">1</property>
  <property name="mlt_service">avformat</property>
  <property name="global_feed">1</property>
  <property name="xml">was here</property>
  <property name="meta.media.frame_rate_num">15</property>
  <property name="meta.media.frame_rate_den">1</property>
  <property name="meta.media.colorspace">709</property>
  <property name="meta.media.color_trc">2</property>
  <property name="meta.media.width">1600</property>
  <property name="meta.media.height">896</property>
  <property name="meta.media.top_field_first">0</property>
  <property name="meta.media.progressive">1</property>
 </producer>
 <producer id="12_1" out="914" title="Anonymous Submission" in="0">
  <property name="mlt_type">producer</property>
  <property name="length">915</property>
  <property name="eof">pause</property>
  <property name="resource">/home/alex/Videos/Projects/小白也能轻松学会的Galgame制作/第8讲 没有尖耳朵的精灵/original/12.mp4</property>
  <property name="meta.media.nb_streams">2</property>
  <property name="meta.media.0.stream.type">video</property>
  <property name="meta.media.0.stream.frame_rate">15</property>
  <property name="meta.media.0.stream.sample_aspect_ratio">0</property>
  <property name="meta.media.0.codec.width">1600</property>
  <property name="meta.media.0.codec.height">896</property>
  <property name="meta.media.0.codec.frame_rate">15</property>
  <property name="meta.media.0.codec.pix_fmt">yuv420p</property>
  <property name="meta.media.0.codec.sample_aspect_ratio">1</property>
  <property name="meta.media.0.codec.colorspace">709</property>
  <property name="meta.media.0.codec.name">h264</property>
  <property name="meta.media.0.codec.long_name">H.264 / AVC / MPEG-4 AVC / MPEG-4 part 10</property>
  <property name="meta.media.0.codec.bit_rate">37424</property>
  <property name="meta.attr.0.stream.handler_name.markup">VideoHandler</property>
  <property name="meta.media.1.stream.type">audio</property>
  <property name="meta.media.1.codec.sample_fmt">fltp</property>
  <property name="meta.media.1.codec.sample_rate">22050</property>
  <property name="meta.media.1.codec.channels">1</property>
  <property name="meta.media.1.codec.name">aac</property>
  <property name="meta.media.1.codec.long_name">AAC (Advanced Audio Coding)</property>
  <property name="meta.media.1.codec.bit_rate">110412</property>
  <property name="meta.attr.1.stream.handler_name.markup">SoundHandler</property>
  <property name="meta.attr.major_brand.markup">isom</property>
  <property name="meta.attr.minor_version.markup">512</property>
  <property name="meta.attr.compatible_brands.markup">isomiso2avc1mp41</property>
  <property name="meta.attr.encoder.markup">Lavf56.36.100</property>
  <property name="seekable">1</property>
  <property name="meta.media.sample_aspect_num">1</property>
  <property name="meta.media.sample_aspect_den">1</property>
  <property name="aspect_ratio">1</property>
  <property name="audio_index">1</property>
  <property name="video_index">0</property>
  <property name="mute_on_pause">1</property>
  <property name="mlt_service">avformat</property>
  <property name="global_feed">1</property>
  <property name="xml">was here</property>
  <property name="meta.media.frame_rate_num">15</property>
  <property name="meta.media.frame_rate_den">1</property>
  <property name="meta.media.colorspace">709</property>
  <property name="meta.media.color_trc">2</property>
  <property name="meta.media.width">1600</property>
  <property name="meta.media.height">896</property>
  <property name="meta.media.top_field_first">0</property>
  <property name="meta.media.progressive">1</property>
 </producer>
 <producer id="13_1" out="1391" title="Anonymous Submission" in="0">
  <property name="mlt_type">producer</property>
  <property name="length">1392</property>
  <property name="eof">pause</property>
  <property name="resource">/home/alex/Videos/Projects/小白也能轻松学会的Galgame制作/第8讲 没有尖耳朵的精灵/original/13.mp4</property>
  <property name="meta.media.nb_streams">2</property>
  <property name="meta.media.0.stream.type">video</property>
  <property name="meta.media.0.stream.frame_rate">15</property>
  <property name="meta.media.0.stream.sample_aspect_ratio">0</property>
  <property name="meta.media.0.codec.width">1600</property>
  <property name="meta.media.0.codec.height">896</property>
  <property name="meta.media.0.codec.frame_rate">15</property>
  <property name="meta.media.0.codec.pix_fmt">yuv420p</property>
  <property name="meta.media.0.codec.sample_aspect_ratio">1</property>
  <property name="meta.media.0.codec.colorspace">709</property>
  <property name="meta.media.0.codec.name">h264</property>
  <property name="meta.media.0.codec.long_name">H.264 / AVC / MPEG-4 AVC / MPEG-4 part 10</property>
  <property name="meta.media.0.codec.bit_rate">58599</property>
  <property name="meta.attr.0.stream.handler_name.markup">VideoHandler</property>
  <property name="meta.media.1.stream.type">audio</property>
  <property name="meta.media.1.codec.sample_fmt">fltp</property>
  <property name="meta.media.1.codec.sample_rate">22050</property>
  <property name="meta.media.1.codec.channels">1</property>
  <property name="meta.media.1.codec.name">aac</property>
  <property name="meta.media.1.codec.long_name">AAC (Advanced Audio Coding)</property>
  <property name="meta.media.1.codec.bit_rate">110429</property>
  <property name="meta.attr.1.stream.handler_name.markup">SoundHandler</property>
  <property name="meta.attr.major_brand.markup">isom</property>
  <property name="meta.attr.minor_version.markup">512</property>
  <property name="meta.attr.compatible_brands.markup">isomiso2avc1mp41</property>
  <property name="meta.attr.encoder.markup">Lavf56.36.100</property>
  <property name="seekable">1</property>
  <property name="meta.media.sample_aspect_num">1</property>
  <property name="meta.media.sample_aspect_den">1</property>
  <property name="aspect_ratio">1</property>
  <property name="audio_index">1</property>
  <property name="video_index">0</property>
  <property name="mute_on_pause">1</property>
  <property name="mlt_service">avformat</property>
  <property name="global_feed">1</property>
  <property name="xml">was here</property>
  <property name="meta.media.frame_rate_num">15</property>
  <property name="meta.media.frame_rate_den">1</property>
  <property name="meta.media.colorspace">709</property>
  <property name="meta.media.color_trc">2</property>
  <property name="meta.media.width">1600</property>
  <property name="meta.media.height">896</property>
  <property name="meta.media.top_field_first">0</property>
  <property name="meta.media.progressive">1</property>
 </producer>
 <producer id="14_1" out="423" title="Anonymous Submission" in="0">
  <property name="mlt_type">producer</property>
  <property name="length">424</property>
  <property name="eof">pause</property>
  <property name="resource">/home/alex/Videos/Projects/小白也能轻松学会的Galgame制作/第8讲 没有尖耳朵的精灵/original/14.mp4</property>
  <property name="meta.media.nb_streams">2</property>
  <property name="meta.media.0.stream.type">video</property>
  <property name="meta.media.0.stream.frame_rate">15</property>
  <property name="meta.media.0.stream.sample_aspect_ratio">0</property>
  <property name="meta.media.0.codec.width">1600</property>
  <property name="meta.media.0.codec.height">896</property>
  <property name="meta.media.0.codec.frame_rate">15</property>
  <property name="meta.media.0.codec.pix_fmt">yuv420p</property>
  <property name="meta.media.0.codec.sample_aspect_ratio">1</property>
  <property name="meta.media.0.codec.colorspace">709</property>
  <property name="meta.media.0.codec.name">h264</property>
  <property name="meta.media.0.codec.long_name">H.264 / AVC / MPEG-4 AVC / MPEG-4 part 10</property>
  <property name="meta.media.0.codec.bit_rate">76857</property>
  <property name="meta.attr.0.stream.handler_name.markup">VideoHandler</property>
  <property name="meta.media.1.stream.type">audio</property>
  <property name="meta.media.1.codec.sample_fmt">fltp</property>
  <property name="meta.media.1.codec.sample_rate">22050</property>
  <property name="meta.media.1.codec.channels">1</property>
  <property name="meta.media.1.codec.name">aac</property>
  <property name="meta.media.1.codec.long_name">AAC (Advanced Audio Coding)</property>
  <property name="meta.media.1.codec.bit_rate">109793</property>
  <property name="meta.attr.1.stream.handler_name.markup">SoundHandler</property>
  <property name="meta.attr.major_brand.markup">isom</property>
  <property name="meta.attr.minor_version.markup">512</property>
  <property name="meta.attr.compatible_brands.markup">isomiso2avc1mp41</property>
  <property name="meta.attr.encoder.markup">Lavf56.36.100</property>
  <property name="seekable">1</property>
  <property name="meta.media.sample_aspect_num">1</property>
  <property name="meta.media.sample_aspect_den">1</property>
  <property name="aspect_ratio">1</property>
  <property name="audio_index">1</property>
  <property name="video_index">0</property>
  <property name="mute_on_pause">1</property>
  <property name="mlt_service">avformat</property>
  <property name="global_feed">1</property>
  <property name="xml">was here</property>
  <property name="meta.media.frame_rate_num">15</property>
  <property name="meta.media.frame_rate_den">1</property>
  <property name="meta.media.colorspace">709</property>
  <property name="meta.media.color_trc">2</property>
  <property name="meta.media.width">1600</property>
  <property name="meta.media.height">896</property>
  <property name="meta.media.top_field_first">0</property>
  <property name="meta.media.progressive">1</property>
 </producer>
 <playlist id="playlist2">
  <entry producer="1_1" out="18" in="9"/>
  <entry producer="1_1" out="296" in="23"/>
  <entry producer="1_1" out="315" in="302"/>
  <entry producer="1_1" out="398" in="332"/>
  <entry producer="1_1" out="521" in="417"/>
  <entry producer="1_1" out="650" in="558"/>
  <entry producer="1_1" out="999" in="715"/>
  <entry producer="2_1" out="330" in="6"/>
  <entry producer="2_1" out="466" in="348"/>
  <entry producer="2_1" out="615" in="479"/>
  <entry producer="2_1" out="715" in="630"/>
  <entry producer="2_1" out="826" in="743"/>
  <entry producer="2_1" out="869" in="856"/>
  <entry producer="3_1" out="99" in="14"/>
  <entry producer="3_2_video" out="113" in="100"/>
  <entry producer="3_2_video" out="145" in="141"/>
  <entry producer="3_1" out="218" in="159"/>
  <entry producer="3_1" out="346" in="305"/>
  <entry producer="3_1" out="495" in="395"/>
  <entry producer="3_1" out="514" in="506"/>
  <entry producer="4_1" out="91" in="14"/>
  <entry producer="4_1" out="405" in="101"/>
  <entry producer="4_1" out="564" in="431"/>
  <entry producer="4_1" out="616" in="603"/>
  <entry producer="4_1" out="793" in="672"/>
  <entry producer="4_1" out="843" in="824"/>
  <entry producer="4_1" out="876" in="852"/>
  <entry producer="4_1" out="909" in="891"/>
  <entry producer="4_1" out="948" in="934"/>
  <entry producer="4_1" out="980" in="957"/>
  <entry producer="4_1" out="1053" in="994"/>
  <entry producer="4_1" out="1201" in="1069"/>
  <entry producer="4_1" out="1356" in="1233"/>
  <entry producer="4_1" out="1369" in="1363"/>
  <entry producer="4_1" out="1380" in="1374"/>
  <entry producer="4_1" out="1430" in="1387"/>
  <entry producer="4_1" out="1477" in="1450"/>
  <entry producer="5_1" out="117" in="22"/>
  <entry producer="5_1" out="258" in="141"/>
  <entry producer="5_1" out="385" in="274"/>
  <entry producer="5_1" out="596" in="394"/>
  <entry producer="5_1" out="614" in="607"/>
  <entry producer="5_1" out="751" in="628"/>
  <entry producer="5_1" out="832" in="779"/>
  <entry producer="5_1" out="897" in="848"/>
  <entry producer="5_2_video" out="914" in="898"/>
  <entry producer="5_1" out="997" in="964"/>
  <entry producer="5_1" out="1093" in="1036"/>
  <entry producer="6_1" out="118" in="11"/>
  <entry producer="6_1" out="188" in="135"/>
  <entry producer="6_1" out="364" in="200"/>
  <entry producer="6_1" out="396" in="379"/>
  <entry producer="6_1" out="539" in="443"/>
  <entry producer="6_1" out="573" in="552"/>
  <entry producer="6_1" out="623" in="589"/>
  <entry producer="6_1" out="661" in="649"/>
  <entry producer="6_1" out="752" in="682"/>
  <entry producer="6_1" out="817" in="783"/>
  <entry producer="6_1" out="957" in="845"/>
  <entry producer="7_1" out="158" in="11"/>
  <entry producer="7_1" out="172" in="161"/>
  <entry producer="7_1" out="408" in="203"/>
  <entry producer="8_1" out="280" in="11"/>
  <entry producer="8_1" out="437" in="301"/>
  <entry producer="9_1" out="250" in="15"/>
  <entry producer="9_1" out="298" in="287"/>
  <entry producer="9_1" out="378" in="332"/>
  <entry producer="9_1" out="459" in="431"/>
  <entry producer="9_1" out="596" in="483"/>
  <entry producer="9_1" out="645" in="605"/>
  <entry producer="9_1" out="717" in="705"/>
  <entry producer="9_1" out="735" in="731"/>
  <entry producer="9_1" out="882" in="745"/>
  <entry producer="9_1" out="1014" in="904"/>
  <entry producer="10_1" out="140" in="20"/>
  <entry producer="10_1" out="340" in="162"/>
  <entry producer="11_1" out="51" in="22"/>
  <entry producer="11_1" out="246" in="70"/>
  <entry producer="11_1" out="862" in="255"/>
  <entry producer="12_1" out="117" in="16"/>
  <entry producer="12_1" out="139" in="125"/>
  <entry producer="12_1" out="165" in="144"/>
  <entry producer="12_1" out="196" in="175"/>
  <entry producer="12_1" out="384" in="265"/>
  <entry producer="12_1" out="413" in="406"/>
  <entry producer="12_1" out="468" in="417"/>
  <entry producer="12_1" out="658" in="478"/>
  <entry producer="12_1" out="675" in="668"/>
  <entry producer="12_1" out="725" in="679"/>
  <entry producer="12_1" out="749" in="734"/>
  <entry producer="12_1" out="779" in="754"/>
  <entry producer="12_1" out="804" in="787"/>
  <entry producer="12_1" out="858" in="812"/>
  <entry producer="12_1" out="879" in="863"/>
  <entry producer="13_1" out="649" in="15"/>
  <entry producer="13_1" out="712" in="674"/>
  <entry producer="13_1" out="855" in="736"/>
  <entry producer="13_1" out="922" in="880"/>
  <entry producer="13_1" out="1052" in="960"/>
  <entry producer="13_1" out="1130" in="1083"/>
  <entry producer="13_1" out="1141" in="1137"/>
  <entry producer="13_1" out="1167" in="1143"/>
  <entry producer="13_1" out="1246" in="1192"/>
  <entry producer="13_1" out="1362" in="1267"/>
  <entry producer="14_1" out="155" in="10"/>
  <entry producer="14_1" out="389" in="157"/>
 </playlist>
 <producer id="15" out="83" title="Anonymous Submission" in="0">
  <property name="mlt_type">mlt_producer</property>
  <property name="length">84</property>
  <property name="eof">pause</property>
  <property name="resource">/home/alex/Videos/Projects/小白也能轻松学会的Galgame制作/第8讲 没有尖耳朵的精灵/pics/snapshot70.png</property>
  <property name="ttl">25</property>
  <property name="aspect_ratio">1</property>
  <property name="progressive">1</property>
  <property name="seekable">1</property>
  <property name="loop">1</property>
  <property name="meta.media.width">1280</property>
  <property name="meta.media.height">548</property>
  <property name="mlt_service">pixbuf</property>
  <property name="global_feed">1</property>
 </producer>
 <producer id="16" out="172" title="Anonymous Submission" in="0">
  <property name="mlt_type">mlt_producer</property>
  <property name="length">173</property>
  <property name="eof">pause</property>
  <property name="resource">/home/alex/Videos/Projects/小白也能轻松学会的Galgame制作/第8讲 没有尖耳朵的精灵/pics/axes.png</property>
  <property name="ttl">25</property>
  <property name="aspect_ratio">1</property>
  <property name="progressive">1</property>
  <property name="seekable">1</property>
  <property name="loop">1</property>
  <property name="meta.media.width">1280</property>
  <property name="meta.media.height">720</property>
  <property name="mlt_service">pixbuf</property>
  <property name="global_feed">1</property>
 </producer>
 <producer id="17" out="522" title="Anonymous Submission" in="0">
  <property name="mlt_type">mlt_producer</property>
  <property name="length">523</property>
  <property name="eof">pause</property>
  <property name="resource">/home/alex/Videos/Projects/小白也能轻松学会的Galgame制作/第8讲 没有尖耳朵的精灵/pics/commands.png</property>
  <property name="ttl">25</property>
  <property name="aspect_ratio">1</property>
  <property name="progressive">1</property>
  <property name="seekable">1</property>
  <property name="loop">1</property>
  <property name="meta.media.width">1280</property>
  <property name="meta.media.height">720</property>
  <property name="mlt_service">pixbuf</property>
  <property name="global_feed">1</property>
 </producer>
 <playlist id="playlist3">
  <blank length="532"/>
  <entry producer="15" out="83" in="0"/>
  <blank length="2040"/>
  <entry producer="16" out="172" in="0"/>
  <blank length="3933"/>
  <entry producer="17" out="522" in="0"/>
 </playlist>
 <tractor id="maintractor" out="9566" title="Anonymous Submission" global_feed="1" in="0">
  <property name="meta.volume">1</property>
  <track producer="black_track"/>
  <track producer="playlist1" hide="video"/>
  <track producer="playlist2"/>
  <track producer="playlist3"/>
  <transition id="transition0">
   <property name="a_track">1</property>
   <property name="b_track">2</property>
   <property name="mlt_type">transition</property>
   <property name="mlt_service">mix</property>
   <property name="always_active">1</property>
   <property name="combine">1</property>
   <property name="internal_added">237</property>
  </transition>
  <transition id="transition1">
   <property name="a_track">1</property>
   <property name="b_track">3</property>
   <property name="mlt_type">transition</property>
   <property name="mlt_service">mix</property>
   <property name="always_active">1</property>
   <property name="combine">1</property>
   <property name="internal_added">237</property>
  </transition>
 </tractor>
 <kdenlivedoc version="0.88" kdenliveversion="15.04.3" profile="/home/alex/.local/share/kdenlive//profiles/customprofile0" projectfolder="/home/alex/Videos/Projects/小白也能轻松学会的Galgame制作/第8讲 没有尖耳朵的精灵">
  <customeffects/>
  <documentproperties enableproxy="0" generateproxy="0" proxyparams="-f mpegts -acodec libmp3lame -ac 2 -ab 128k -vcodec mpeg2video -g 5 -s 640x480 -qscale 7" proxyimageminsize="2000" position="9566" documentid="1439291014711" generateimageproxy="0" verticalzoom="1" zonein="0" zoneout="100" proxyextension="ts" zoom="3" proxyminsize="1000"/>
  <documentmetadata/>
  <documentnotes>&lt;!DOCTYPE HTML PUBLIC "-//W3C//DTD HTML 4.0//EN" "http://www.w3.org/TR/REC-html40/strict.dtd">
&lt;html>&lt;head>&lt;meta name="qrichtext" content="1" />&lt;style type="text/css">
p, li { white-space: pre-wrap; }
&lt;/style>&lt;/head>&lt;body style=" font-family:'Oxygen-Sans'; font-size:10pt; font-weight:400; font-style:normal;">
&lt;p style="-qt-paragraph-type:empty; margin-top:0px; margin-bottom:0px; margin-left:0px; margin-right:0px; -qt-block-indent:0; text-indent:0px;">&lt;br />&lt;/p>&lt;/body>&lt;/html></documentnotes>
  <profileinfo frame_rate_den="1" sample_aspect_den="1" width="1280" progressive="1" display_aspect_num="16" display_aspect_den="9" description="HD 720p 15 fps" frame_rate_num="15" height="720" sample_aspect_num="1"/>
  <tracksinfo>
   <trackinfo locked="0" trackname="Audio 1" type="audio" mute="0" blind="1"/>
   <trackinfo locked="0" trackname="Video 2" mute="0" blind="0"/>
   <trackinfo locked="0" trackname="Video 1" mute="0" blind="0"/>
  </tracksinfo>
  <kdenlive_producer channels="1" audiocodec="AAC (Advanced Audio Coding)" frequency="22050" analysisdata="" frame_size="1600x896" file_size="2786833" videocodecid="h264" id="1" colorspace="709" video_max="0" fps="15" pix_fmt="yuv420p" default_audio="1" resource="/home/alex/Videos/Projects/小白也能轻松学会的Galgame制作/第8讲 没有尖耳朵的精灵/original/01.mp4" type="3" file_hash="e0b55715f788e2cc7c649c8262d41599" name="01.mp4" audio_max="58" default_video="0" progressive="1" aspect_ratio="1" duration="1021" videocodec="H.264 / AVC / MPEG-4 AVC / MPEG-4 part 10">
   <metaproperty name="meta.attr.0.stream.handler_name" tool="">VideoHandler</metaproperty>
   <metaproperty name="meta.attr.1.stream.handler_name" tool="">SoundHandler</metaproperty>
   <metaproperty name="meta.attr.compatible_brands" tool="">isomiso2avc1mp41</metaproperty>
   <metaproperty name="meta.attr.encoder" tool="">Lavf56.36.100</metaproperty>
   <metaproperty name="meta.attr.major_brand" tool="">isom</metaproperty>
   <metaproperty name="meta.attr.minor_version" tool="">512</metaproperty>
  </kdenlive_producer>
  <kdenlive_producer channels="1" audiocodec="AAC (Advanced Audio Coding)" frequency="22050" analysisdata="" frame_size="1600x896" file_size="1567278" videocodecid="h264" id="2" colorspace="709" video_max="0" fps="15" pix_fmt="yuv420p" default_audio="1" resource="/home/alex/Videos/Projects/小白也能轻松学会的Galgame制作/第8讲 没有尖耳朵的精灵/original/02.mp4" type="3" file_hash="bfa6bd926a132ff0a2824d125304b353" name="02.mp4" audio_max="60" default_video="0" progressive="1" aspect_ratio="1" duration="919" videocodec="H.264 / AVC / MPEG-4 AVC / MPEG-4 part 10">
   <metaproperty name="meta.attr.0.stream.handler_name" tool="">VideoHandler</metaproperty>
   <metaproperty name="meta.attr.1.stream.handler_name" tool="">SoundHandler</metaproperty>
   <metaproperty name="meta.attr.compatible_brands" tool="">isomiso2avc1mp41</metaproperty>
   <metaproperty name="meta.attr.encoder" tool="">Lavf56.36.100</metaproperty>
   <metaproperty name="meta.attr.major_brand" tool="">isom</metaproperty>
   <metaproperty name="meta.attr.minor_version" tool="">512</metaproperty>
  </kdenlive_producer>
  <kdenlive_producer channels="1" audiocodec="AAC (Advanced Audio Coding)" frequency="22050" analysisdata="" frame_size="1600x896" file_size="925887" videocodecid="h264" id="3" colorspace="709" video_max="0" fps="15" pix_fmt="yuv420p" default_audio="1" resource="/home/alex/Videos/Projects/小白也能轻松学会的Galgame制作/第8讲 没有尖耳朵的精灵/original/03.mp4" type="3" file_hash="726cce880106f2b6cb86bea00c9631df" name="03.mp4" audio_max="61" default_video="0" progressive="1" aspect_ratio="1" duration="526" videocodec="H.264 / AVC / MPEG-4 AVC / MPEG-4 part 10">
   <metaproperty name="meta.attr.0.stream.handler_name" tool="">VideoHandler</metaproperty>
   <metaproperty name="meta.attr.1.stream.handler_name" tool="">SoundHandler</metaproperty>
   <metaproperty name="meta.attr.compatible_brands" tool="">isomiso2avc1mp41</metaproperty>
   <metaproperty name="meta.attr.encoder" tool="">Lavf56.36.100</metaproperty>
   <metaproperty name="meta.attr.major_brand" tool="">isom</metaproperty>
   <metaproperty name="meta.attr.minor_version" tool="">512</metaproperty>
  </kdenlive_producer>
  <kdenlive_producer channels="1" audiocodec="AAC (Advanced Audio Coding)" frequency="22050" analysisdata="" frame_size="1600x896" file_size="1935277" videocodecid="h264" id="4" colorspace="709" video_max="0" fps="15" pix_fmt="yuv420p" default_audio="1" resource="/home/alex/Videos/Projects/小白也能轻松学会的Galgame制作/第8讲 没有尖耳朵的精灵/original/04.mp4" type="3" file_hash="c18815f60d3da33e61e8f2e25fe098c2" name="04.mp4" audio_max="62" default_video="0" progressive="1" aspect_ratio="1" duration="1527" videocodec="H.264 / AVC / MPEG-4 AVC / MPEG-4 part 10">
   <metaproperty name="meta.attr.0.stream.handler_name" tool="">VideoHandler</metaproperty>
   <metaproperty name="meta.attr.1.stream.handler_name" tool="">SoundHandler</metaproperty>
   <metaproperty name="meta.attr.compatible_brands" tool="">isomiso2avc1mp41</metaproperty>
   <metaproperty name="meta.attr.encoder" tool="">Lavf56.36.100</metaproperty>
   <metaproperty name="meta.attr.major_brand" tool="">isom</metaproperty>
   <metaproperty name="meta.attr.minor_version" tool="">512</metaproperty>
  </kdenlive_producer>
  <kdenlive_producer channels="1" audiocodec="AAC (Advanced Audio Coding)" frequency="22050" analysisdata="" frame_size="1600x896" file_size="1603236" videocodecid="h264" id="5" colorspace="709" video_max="0" fps="15" pix_fmt="yuv420p" default_audio="1" resource="/home/alex/Videos/Projects/小白也能轻松学会的Galgame制作/第8讲 没有尖耳朵的精灵/original/05.mp4" type="3" file_hash="318c0a1ffdf9bf454df7843e17229c31" name="05.mp4" audio_max="61" default_video="0" progressive="1" aspect_ratio="1" duration="1111" videocodec="H.264 / AVC / MPEG-4 AVC / MPEG-4 part 10">
   <metaproperty name="meta.attr.0.stream.handler_name" tool="">VideoHandler</metaproperty>
   <metaproperty name="meta.attr.1.stream.handler_name" tool="">SoundHandler</metaproperty>
   <metaproperty name="meta.attr.compatible_brands" tool="">isomiso2avc1mp41</metaproperty>
   <metaproperty name="meta.attr.encoder" tool="">Lavf56.36.100</metaproperty>
   <metaproperty name="meta.attr.major_brand" tool="">isom</metaproperty>
   <metaproperty name="meta.attr.minor_version" tool="">512</metaproperty>
  </kdenlive_producer>
  <kdenlive_producer channels="1" audiocodec="AAC (Advanced Audio Coding)" frequency="22050" analysisdata="" frame_size="1600x896" file_size="1359012" videocodecid="h264" id="6" colorspace="709" video_max="0" fps="15" pix_fmt="yuv420p" default_audio="1" resource="/home/alex/Videos/Projects/小白也能轻松学会的Galgame制作/第8讲 没有尖耳朵的精灵/original/06.mp4" type="3" file_hash="13380e69db308108cc07efbf1f75febc" name="06.mp4" audio_max="61" default_video="0" progressive="1" aspect_ratio="1" duration="999" videocodec="H.264 / AVC / MPEG-4 AVC / MPEG-4 part 10">
   <metaproperty name="meta.attr.0.stream.handler_name" tool="">VideoHandler</metaproperty>
   <metaproperty name="meta.attr.1.stream.handler_name" tool="">SoundHandler</metaproperty>
   <metaproperty name="meta.attr.compatible_brands" tool="">isomiso2avc1mp41</metaproperty>
   <metaproperty name="meta.attr.encoder" tool="">Lavf56.36.100</metaproperty>
   <metaproperty name="meta.attr.major_brand" tool="">isom</metaproperty>
   <metaproperty name="meta.attr.minor_version" tool="">512</metaproperty>
  </kdenlive_producer>
  <kdenlive_producer channels="1" audiocodec="AAC (Advanced Audio Coding)" frequency="22050" analysisdata="" frame_size="1600x896" file_size="619600" videocodecid="h264" id="7" colorspace="709" video_max="0" fps="15" pix_fmt="yuv420p" default_audio="1" resource="/home/alex/Videos/Projects/小白也能轻松学会的Galgame制作/第8讲 没有尖耳朵的精灵/original/07.mp4" type="3" file_hash="20273375beaf6b28e7284498b89c5caf" name="07.mp4" audio_max="61" default_video="0" progressive="1" aspect_ratio="1" duration="420" videocodec="H.264 / AVC / MPEG-4 AVC / MPEG-4 part 10">
   <metaproperty name="meta.attr.0.stream.handler_name" tool="">VideoHandler</metaproperty>
   <metaproperty name="meta.attr.1.stream.handler_name" tool="">SoundHandler</metaproperty>
   <metaproperty name="meta.attr.compatible_brands" tool="">isomiso2avc1mp41</metaproperty>
   <metaproperty name="meta.attr.encoder" tool="">Lavf56.36.100</metaproperty>
   <metaproperty name="meta.attr.major_brand" tool="">isom</metaproperty>
   <metaproperty name="meta.attr.minor_version" tool="">512</metaproperty>
  </kdenlive_producer>
  <kdenlive_producer channels="1" audiocodec="AAC (Advanced Audio Coding)" frequency="22050" analysisdata="" frame_size="1600x896" file_size="689802" videocodecid="h264" id="8" colorspace="709" video_max="0" fps="15" pix_fmt="yuv420p" default_audio="1" resource="/home/alex/Videos/Projects/小白也能轻松学会的Galgame制作/第8讲 没有尖耳朵的精灵/original/08.mp4" type="3" file_hash="d300b729e5ef3fa614376bf894a83f47" name="08.mp4" audio_max="57" default_video="0" progressive="1" aspect_ratio="1" duration="456" videocodec="H.264 / AVC / MPEG-4 AVC / MPEG-4 part 10">
   <metaproperty name="meta.attr.0.stream.handler_name" tool="">VideoHandler</metaproperty>
   <metaproperty name="meta.attr.1.stream.handler_name" tool="">SoundHandler</metaproperty>
   <metaproperty name="meta.attr.compatible_brands" tool="">isomiso2avc1mp41</metaproperty>
   <metaproperty name="meta.attr.encoder" tool="">Lavf56.36.100</metaproperty>
   <metaproperty name="meta.attr.major_brand" tool="">isom</metaproperty>
   <metaproperty name="meta.attr.minor_version" tool="">512</metaproperty>
  </kdenlive_producer>
  <kdenlive_producer channels="1" audiocodec="AAC (Advanced Audio Coding)" frequency="22050" analysisdata="" frame_size="1600x896" file_size="1457956" videocodecid="h264" id="9" colorspace="709" video_max="0" fps="15" pix_fmt="yuv420p" default_audio="1" resource="/home/alex/Videos/Projects/小白也能轻松学会的Galgame制作/第8讲 没有尖耳朵的精灵/original/09.mp4" type="3" file_hash="ed295f8a96f851302d27e11e84a893b7" name="09.mp4" audio_max="61" default_video="0" progressive="1" aspect_ratio="1" duration="1032" videocodec="H.264 / AVC / MPEG-4 AVC / MPEG-4 part 10">
   <metaproperty name="meta.attr.0.stream.handler_name" tool="">VideoHandler</metaproperty>
   <metaproperty name="meta.attr.1.stream.handler_name" tool="">SoundHandler</metaproperty>
   <metaproperty name="meta.attr.compatible_brands" tool="">isomiso2avc1mp41</metaproperty>
   <metaproperty name="meta.attr.encoder" tool="">Lavf56.36.100</metaproperty>
   <metaproperty name="meta.attr.major_brand" tool="">isom</metaproperty>
   <metaproperty name="meta.attr.minor_version" tool="">512</metaproperty>
  </kdenlive_producer>
  <kdenlive_producer channels="1" audiocodec="AAC (Advanced Audio Coding)" frequency="22050" analysisdata="" frame_size="1600x896" file_size="540019" videocodecid="h264" id="10" colorspace="709" video_max="0" fps="15" pix_fmt="yuv420p" default_audio="1" resource="/home/alex/Videos/Projects/小白也能轻松学会的Galgame制作/第8讲 没有尖耳朵的精灵/original/10.mp4" type="3" file_hash="c188cf04a0bf044171b567fd68a6c888" name="10.mp4" audio_max="48" default_video="0" progressive="1" aspect_ratio="1" duration="377" videocodec="H.264 / AVC / MPEG-4 AVC / MPEG-4 part 10">
   <metaproperty name="meta.attr.0.stream.handler_name" tool="">VideoHandler</metaproperty>
   <metaproperty name="meta.attr.1.stream.handler_name" tool="">SoundHandler</metaproperty>
   <metaproperty name="meta.attr.compatible_brands" tool="">isomiso2avc1mp41</metaproperty>
   <metaproperty name="meta.attr.encoder" tool="">Lavf56.36.100</metaproperty>
   <metaproperty name="meta.attr.major_brand" tool="">isom</metaproperty>
   <metaproperty name="meta.attr.minor_version" tool="">512</metaproperty>
  </kdenlive_producer>
  <kdenlive_producer channels="1" audiocodec="AAC (Advanced Audio Coding)" frequency="22050" analysisdata="" frame_size="1600x896" file_size="1146831" videocodecid="h264" id="11" colorspace="709" video_max="0" fps="15" pix_fmt="yuv420p" default_audio="1" resource="/home/alex/Videos/Projects/小白也能轻松学会的Galgame制作/第8讲 没有尖耳朵的精灵/original/11.mp4" type="3" file_hash="28a07eb584aa57a9153ed619f113069b" name="11.mp4" audio_max="60" default_video="0" progressive="1" aspect_ratio="1" duration="887" videocodec="H.264 / AVC / MPEG-4 AVC / MPEG-4 part 10">
   <metaproperty name="meta.attr.0.stream.handler_name" tool="">VideoHandler</metaproperty>
   <metaproperty name="meta.attr.1.stream.handler_name" tool="">SoundHandler</metaproperty>
   <metaproperty name="meta.attr.compatible_brands" tool="">isomiso2avc1mp41</metaproperty>
   <metaproperty name="meta.attr.encoder" tool="">Lavf56.36.100</metaproperty>
   <metaproperty name="meta.attr.major_brand" tool="">isom</metaproperty>
   <metaproperty name="meta.attr.minor_version" tool="">512</metaproperty>
  </kdenlive_producer>
  <kdenlive_producer channels="1" audiocodec="AAC (Advanced Audio Coding)" frequency="22050" analysisdata="" frame_size="1600x896" file_size="1162583" videocodecid="h264" id="12" colorspace="709" video_max="0" fps="15" pix_fmt="yuv420p" default_audio="1" resource="/home/alex/Videos/Projects/小白也能轻松学会的Galgame制作/第8讲 没有尖耳朵的精灵/original/12.mp4" type="3" file_hash="8bce736f04c545ef27d47ccc9d173d2d" name="12.mp4" audio_max="60" default_video="0" progressive="1" aspect_ratio="1" duration="915" videocodec="H.264 / AVC / MPEG-4 AVC / MPEG-4 part 10">
   <metaproperty name="meta.attr.0.stream.handler_name" tool="">VideoHandler</metaproperty>
   <metaproperty name="meta.attr.1.stream.handler_name" tool="">SoundHandler</metaproperty>
   <metaproperty name="meta.attr.compatible_brands" tool="">isomiso2avc1mp41</metaproperty>
   <metaproperty name="meta.attr.encoder" tool="">Lavf56.36.100</metaproperty>
   <metaproperty name="meta.attr.major_brand" tool="">isom</metaproperty>
   <metaproperty name="meta.attr.minor_version" tool="">512</metaproperty>
  </kdenlive_producer>
  <kdenlive_producer channels="1" audiocodec="AAC (Advanced Audio Coding)" frequency="22050" analysisdata="" frame_size="1600x896" file_size="2011601" videocodecid="h264" id="13" colorspace="709" video_max="0" fps="15" pix_fmt="yuv420p" default_audio="1" resource="/home/alex/Videos/Projects/小白也能轻松学会的Galgame制作/第8讲 没有尖耳朵的精灵/original/13.mp4" type="3" file_hash="406bf7344b1c22a857e7b70a19632e59" name="13.mp4" audio_max="61" default_video="0" progressive="1" aspect_ratio="1" duration="1392" videocodec="H.264 / AVC / MPEG-4 AVC / MPEG-4 part 10">
   <metaproperty name="meta.attr.0.stream.handler_name" tool="">VideoHandler</metaproperty>
   <metaproperty name="meta.attr.1.stream.handler_name" tool="">SoundHandler</metaproperty>
   <metaproperty name="meta.attr.compatible_brands" tool="">isomiso2avc1mp41</metaproperty>
   <metaproperty name="meta.attr.encoder" tool="">Lavf56.36.100</metaproperty>
   <metaproperty name="meta.attr.major_brand" tool="">isom</metaproperty>
   <metaproperty name="meta.attr.minor_version" tool="">512</metaproperty>
  </kdenlive_producer>
  <kdenlive_producer channels="1" audiocodec="AAC (Advanced Audio Coding)" frequency="22050" analysisdata="" frame_size="1600x896" file_size="676910" videocodecid="h264" id="14" colorspace="709" video_max="0" fps="15" pix_fmt="yuv420p" default_audio="1" resource="/home/alex/Videos/Projects/小白也能轻松学会的Galgame制作/第8讲 没有尖耳朵的精灵/original/14.mp4" type="3" file_hash="75946e1254470470876a16b36485a75c" name="14.mp4" audio_max="53" default_video="0" progressive="1" aspect_ratio="1" duration="424" videocodec="H.264 / AVC / MPEG-4 AVC / MPEG-4 part 10">
   <metaproperty name="meta.attr.0.stream.handler_name" tool="">VideoHandler</metaproperty>
   <metaproperty name="meta.attr.1.stream.handler_name" tool="">SoundHandler</metaproperty>
   <metaproperty name="meta.attr.compatible_brands" tool="">isomiso2avc1mp41</metaproperty>
   <metaproperty name="meta.attr.encoder" tool="">Lavf56.36.100</metaproperty>
   <metaproperty name="meta.attr.major_brand" tool="">isom</metaproperty>
   <metaproperty name="meta.attr.minor_version" tool="">512</metaproperty>
  </kdenlive_producer>
  <kdenlive_producer id="15" file_size="49676" frame_size="1280x548" type="5" name="snapshot70.png" out="74" resource="/home/alex/Videos/Projects/小白也能轻松学会的Galgame制作/第8讲 没有尖耳朵的精灵/pics/snapshot70.png" aspect_ratio="1" duration="75" file_hash="98ae1da76a54c45ee1fa23b6912fd2b4" analysisdata="" in="0"/>
  <kdenlive_producer id="16" file_size="17573" frame_size="1280x720" type="5" name="axes.png" out="74" resource="/home/alex/Videos/Projects/小白也能轻松学会的Galgame制作/第8讲 没有尖耳朵的精灵/pics/axes.png" aspect_ratio="1" duration="75" file_hash="9b5ca7b161e8a8081a39edd125678484" analysisdata="" in="0"/>
  <kdenlive_producer id="17" file_size="136024" frame_size="1280x720" type="5" name="commands.png" out="74" resource="/home/alex/Videos/Projects/小白也能轻松学会的Galgame制作/第8讲 没有尖耳朵的精灵/pics/commands.png" aspect_ratio="1" duration="75" file_hash="1fa0c6469180aea550ae923da39e249a" analysisdata="" in="0"/>
  <markers/>
  <groups/>
 </kdenlivedoc>
</mlt>
